<svg id="Layer_1" data-name="Layer 1" xmlns="http://www.w3.org/2000/svg" xmlns:xlink="http://www.w3.org/1999/xlink" viewBox="0 0 1920 1080"><defs><style>.cls-1{fill:none;}.cls-2{clip-path:url(#clip-path);}.cls-3{fill:#1a1d50;}.cls-4{fill:#0dbb37;}</style><clipPath id="clip-path"><rect class="cls-1" width="861.6" height="1080"/></clipPath></defs><title>about data about us BG AR2019</title><g class="cls-2"><path class="cls-3" d="M579,425.4c-4.4,1.8-12.5,3.2-16.5.3a2.3,2.3,0,0,1-1.4-1.4c-1.3-6.9-.4-14.1-2.8-20.9a62.3,62.3,0,0,1-1.8-8.8c-.3-1.8,3.3-5.2,6.8-4.3,1.7.8,3.3,1.6,4.9,2.2s4.8,3.6,3.9,6.8c-2.3,8,1.1,14.6,4.4,21.3.7,1.5,1.5,2.9,2.5,4.8M-259.9,1507.2h105.7c.1-1.9,1.4-2.2,2.8-1.8s1.4,1.2,2.1,1.8H261.9a17.6,17.6,0,0,1-.6-3.9,28.1,28.1,0,0,0-1.2-9.1c-1-2.8-.9-5.9-1.2-8.8s.2-3.1-.2-4.4c-2.6-9.3-5.5-18.5-8.2-27.7a32.5,32.5,0,0,1-1.2-5.2c-.4-2.4-.1-5-.9-7.2-1.6-4.7-2.1-9.6-3.9-14.2s-2.2-9-3.2-13.5-1.3-7.9-2.8-11.6a55.8,55.8,0,0,1-3.5-19.3c-.1-1.9-1.3-2.4-2.1-3.4s1.1-1.5,1-2c-.8-4-.8-8.4-4.1-11.3s-3.3-6.3-3.2-10a11.2,11.2,0,0,0-1.4-5.7c-1.5-2.6-3-5.1-3-8.4s-1.7-4.6-1-7.4c.2-1-1.1-2.4-1.7-3.6s-1.1-1-1.2-1.6c-1.1-5.2-2.5-10.3-3-15.5a138.6,138.6,0,0,0-3.9-20.4c-1-4.3-2.4-8.4-3.5-12.6s0-6.9,5.3-7.8,7.8-.8,11.7-1.6c5.4-1.1,10.8-1.8,16.3-.8a64,64,0,0,0,9.7,1.1h21.9c3.9,0,7.9-.4,11.8-.6,9.1-.4,17.9,1.2,26.8,2.5,12.2,1.6,24.4,3.7,36.7,5.1s23.4,2.1,35.1,3.1,24,2,36.1,3l30.1,2.6c9.1.7,18-.3,26.9-1.7s19.8-4,30.1-4.1c8.4-.2,16.9-1.1,25.3-1.8,10.9-.8,21.9-1.3,32.8-2.6s21.2-3,31.7-4.8a150,150,0,0,0,14.8-3.2c6.3-1.7,13-1.9,18.2-6.8a57,57,0,0,0,8.9-10.1c4.3-6.7,4.6-14.3,4.1-21.8s-3.8-14.4-8.5-20.2a133.2,133.2,0,0,0-13.8-14.3,97.5,97.5,0,0,0-27.6-17.6l-18.3-7.3c-9.5-3.9-18.8-8.4-29.1-9.5-2.3-.2-3.4-1.4-3.5-3.1,6.8-3.8,13.3-7.1,19.6-10.9s10.2-6.6,14.3-11.3a113.8,113.8,0,0,1,11.2-10.7c6.9-5.8,12.5-12.4,14.9-21.4s6.1-20.1,8.6-30.3c2.1-8.6,3.5-17.4,5-26.1,1-5.8,1.6-11.6,2.5-17.4a65,65,0,0,0,0-21.1c-.8-5-1.9-10.1-2.4-15.2-1.2-13.2-8.3-23-18.4-30.7-4.6-3.4-10-5.7-15-8.6s-10-5.7-14.7-8.9-9.1-7.4-14.4-10a25.6,25.6,0,0,1-4.8-3.9,16.9,16.9,0,0,0-6.9-4.2,16.3,16.3,0,0,1-5.9-3.3c-2.3-2.2-4.5-4.1-7.9-4.2a2.7,2.7,0,0,1-1.9-1.4c-1.1-2.2-3.3-2.3-5.2-3l-11.9-4.1a2.9,2.9,0,0,1-1-1.2,6.5,6.5,0,0,0-5.8-4.4c-1.1-.1-2.4-1.5-2.9-2.6s.4-2.6,1.8-3.3a13.3,13.3,0,0,0,1.9-1.4c5.2-3,10.5-5.9,15.6-9s12.7-7.4,18.6-11.8a103.8,103.8,0,0,0,19.1-19.5,30.1,30.1,0,0,1,3.6-4.4,3.9,3.9,0,0,1,2.8-.8,7.3,7.3,0,0,1,5.3,2.7,94.5,94.5,0,0,0,9.8,9.2c6.2,4.9,12.7,9.6,19,14.4,4.7,3.5,9.6,6.8,15.2,8.8a25.2,25.2,0,0,0,4.1,1.7c5.5,1.1,7.4,4.7,8.5,10,2.2,10.9,6.2,21.4,8.6,32.3,1.7,7.7,4.1,15.2,5.7,23s5.5,16.8,12.3,23c4.8,4.5,9.5,9,14.6,13.2s8.9,5.2,13.7,7.1a62,62,0,0,0,27.9,4.3c8.4-.4,14.2-4.6,17.3-12.7a51.9,51.9,0,0,0,3.7-20.9c-.2-4.1-.5-8.2-.5-12.3,0-5.9.2-11.7.3-17.5.3-10.5.4-20.9.8-31.4.2-7.2.5-14.3-.3-21.5s-1.8-16.3-3-24.4c-.7-4.3-.9-8.7-3.2-12.6a56.6,56.6,0,0,0-12.5-15.1,189.3,189.3,0,0,1-14.7-13.7c-8.6-9.1-17-18.5-26.7-26.5-6.1-5-12.3-9.7-18.5-14.5-1.6-1.3-3.8-2.3-3.8-5.1,1.9-.9,3.7-2,5.6-2.7s5.2-1.5,7.8-2.3l10.1-3.5c6.2-2.1,12.6-3.7,18.5-6.4,8.5-3.9,16.6-8.4,24.7-12.9a55,55,0,0,0,18.6-16.3,36.8,36.8,0,0,0,5.7-10.7c2.5-7.4,1.3-14.9-1.7-22a18.2,18.2,0,0,1-1.1-3c-1.7-6.3-5.1-11.2-10.9-14.2-3.6-2-7.6-2-11.6-2.2a101.9,101.9,0,0,0-21.3,1.5c-13.1,2.1-26.4,1.6-39.7,2.4l-23,.9c-3.1.2-4.7-1-5.8-4.1a143.9,143.9,0,0,1-5.4-21.5c-.8-4.9-1.6-9.9-2.9-14.8s-3.5-10.3-5.2-15.5c-3.9-11.5-6.2-23.4-9-35.2a85,85,0,0,0-6.4-19,11,11,0,0,1-.4-9.5c.6-1.7,3.1-2.8,4.9-3.9a25.4,25.4,0,0,1,3.8-1.6l25.4-10.6c8.8-3.8,17.6-7.8,26.3-11.7s16.6-6.8,24.6-10.8,16.8-7.3,24.8-11.9c4.4-2.6,8.7-5.2,12.1-8.9a48.2,48.2,0,0,0,7.8-12.1c1.2-2.7,1.1-6.2,1.1-9.3.1-5-2-9.6-3.9-14.2-4.3-10.7-9.2-21.3-13.5-32.1-3.5-8.8-6.5-17.8-9.7-26.7-3.9-10.8-7.6-21.6-11.7-32.3-5.8-14.9-12.7-29.1-22.4-41.9-4.2-5.6-9.6-9.9-15.3-14s-11.4-5.4-17.3-7.3c-4.3-1.4-8.8-2.3-13.2-3.3s-10.5-2-15.7-3.2c-6.9-1.6-13.7-3.6-20.7-5s-11.5-2.6-16.8-5.4a6.6,6.6,0,0,1-3.9-4.8c-1.6-8.1-3.4-16.1-3.5-24.6-.1-11.7-.4-23.4-1.4-35.1-.5-6.3-1.3-12.7-1.6-19.1s-1.1-13.6-1.5-20.4c-.2-3,.2-6-.3-9a8.2,8.2,0,0,1,1.4-6.1c2.6-4.3,4.2-9.1,1.9-14-1.5-3.3-1-6.4-.3-9.6.3-1.1.7-2.1.9-3.1l5.4-28.7c.6-3.1,1.4-6.1,1.9-9.2.7-4.7,1.2-9.5,1.8-14.2a51.2,51.2,0,0,1,1.4-6.8c1.8-5.3,3.9-10.4,5.6-15.7s4-12.5,5.8-18.8S579,47,580.5,41.5a3.7,3.7,0,0,0-1.4-4,19.6,19.6,0,0,1-4.2-3.9,27.3,27.3,0,0,0-7.6-7.9c-7.3-5.6-15.3-9.2-24.6-9.5-14.5-.4-26.6,5.4-36.9,15.4-4.5,4.3-8,9.6-11.7,14.6a87.5,87.5,0,0,0-11.7,23.5c-2,5.9-3.4,12.1-5.4,18-2.6,7.5-5.4,14.9-8.3,22.4a122.3,122.3,0,0,0-6,19.8c-.6,2.6-1.1,5.3-1.5,8-1.2,7.3-2.2,14.6-3.3,21.9-.8,4.8-1.3,9.8-2.5,14.5a224.8,224.8,0,0,0-5.6,31.6c-.6,6.1-.6,12.2-1,18.3-.6,8.6-1.4,17.2-1.9,25.8-.2,2.2-.6,4-2.2,5.5-2.6-.6-3.1-1-5.2-2.9-4.2-3.5-6.4-8.5-9.5-12.8s-5.1-6.2-4.8-10.6a4.7,4.7,0,0,0-.6-1.5c-1.3-3.6-3.7-6.7-5.2-10.1-3-7.1-4.9-14.5-7.3-21.8-1.1-3.5-2.4-7-3.7-10.4-.4-1-1.1-1.9-1.6-2.9-2.5-6.3-5.1-12.6-7.5-19s-4.1-10.2-5.8-15.4c-2.9-8.5-5.6-17.1-8.2-25.7a214.2,214.2,0,0,0-9.8-25.6,5,5,0,0,0-4.2-3.4,47,47,0,0,1-7.8-2.5,40.1,40.1,0,0,0-20.6-2c-1.6.3-3.2,1.1-4.9,1.6s-3.8.5-5.4,1.4a104.4,104.4,0,0,0-8.9,5.8c-8.2,5.6-11.9,14.2-14,23.3-1.4,5.8-1.1,12-1.5,18a68.4,68.4,0,0,0,2.1,21.6c2.2,8.2,4.4,16.4,5.8,24.7s3.5,17.7,5.4,26.5a207.6,207.6,0,0,0,13.4,40.1c3.6,7.8,6.5,15.8,9.4,23.9,2.4,6.3,4.8,12.6,7.5,18.7s7.1,14.7,10.7,22.1c5.6,11.5,11.2,23.1,16.9,34.5,4.7,9.3,9.7,18.5,14.5,27.7a18,18,0,0,1,1.3,5.2,3.1,3.1,0,0,1-.4,2.3,24.5,24.5,0,0,1-4.2,4.3c-3.2,2.2-6.6,3.8-9.9,5.9-8.2,5.2-15.1,12.1-22.5,18.3a219.3,219.3,0,0,1-19.5,15c-4.1,2.8-8.9,4.6-13.5,6.8-7.6,3.6-15.4,7.1-23,10.8-11.5,5.6-24.1,8.4-36.2,12.2-13.9,4.3-27.9,8-41.6,13-9.1,3.3-17.9,7-25.2,13.4-5.4,4.7-10.6,9.5-15.5,14.7s-8.3,6.4-13.2,8.7a83.8,83.8,0,0,0-11.8,6.4c-5.7,3.8-11.2,7.9-16.7,11.9s-9.4,6.7-13.7,10.5c-14.7,12.7-26.9,27.7-37.9,43.6-7.1,10.3-14,20.7-20.9,31s-14,22.6-18.7,35.1a217.6,217.6,0,0,0-6.5,20.8c-1.9,7.4-3.1,15-4.6,22.5-2.1,10.5-3.9,21.1-6.4,31.5-1.8,7.4-4.5,14.6-6.7,22-1.5,4.9-2.7,10-4.6,14.8-3.8,9.5-7.8,19-12.2,28.2s-10,20.4-15.4,30.4-9.9,16.7-14.9,25S-30.9,861-36.4,869.7a95.2,95.2,0,0,0-11.1,25.1,50,50,0,0,1-4.9,11.7c-1.6,2.9-3.6,5.4-5.3,8.2-3.1,5-5.9,10.1-9.3,15s-6.9,8.7-10.3,13.1c-1.5,1.9-2.7,4.3-4.5,5.8-5.9,4.8-10,11.2-14.5,17a86.3,86.3,0,0,1-11.3,12.8c-1.7,1.4-2.9,3.3-4.3,4.9-3.7,4.2-7.3,8.5-11.2,12.5s-8.7,8.5-13,12.8-7.6,7.8-11.5,11.6-10.2,9.5-15.1,14.4-9.3,9.7-14.3,14.1c-6.8,6.1-13.7,12.1-19.9,18.8s-12.3,11.3-18.5,16.8c-8.9,7.7-17.4,15.7-26.8,22.7-5.2,3.9-9.8,8.3-14.8,12.4a9.7,9.7,0,0,1-2.9,1.4Z"/></g><path class="cls-4" d="M552,457v34.4h20.7V623h36.6V491.4h20.8V457ZM506.9,582.8c0,4.9-1.8,8.3-6.5,8.3s-6.9-3.4-6.9-8.3v-85c0-6.2,1.8-9.3,6.7-9.3s6.7,3.1,6.7,9.3Zm38.2-81.2c0-28.3-11.9-46.8-41.3-46.8h-7.2c-29.2,0-41.2,18.3-41.2,46.8v78.8c0,28.8,14.7,45.1,41.5,45.1H504c25,0,41.1-16.6,41.1-45.1ZM360.8,457V623h31.9V536.4L414.6,623H447V457H415.5v80.3l-19-80.3Z"/><path class="cls-4" d="M725.4,777.9c-25.6,0-38.8,14-38.8,35.9v7.8c0,16.9,5.1,30.6,19,42.8l19.2,17.2c8,7.4,8.7,11.4,8.7,21V907c0,6.5-1.6,9.9-6.1,9.9s-6.2-3.2-6.2-8.7v-23H685v26.5c0,24.1,13.2,36.6,38.6,36.6h8.1c28.5,0,41-17.6,41-43.3v-8.2c0-17.9-5.1-29.5-21.8-44.6l-19-17c-6.5-6-8-10.3-8-17V814c0-4.7,1.3-7.4,5.5-7.4s5.6,2.7,5.6,7.2v17.8h35.5V811.8c0-20.8-9.6-33.9-36.8-33.9Zm-124,2.2v34.3h20.7V946.1h36.6V814.4h20.8V780.1ZM556.3,905.9c0,4.9-1.8,8.3-6.5,8.3s-6.9-3.4-6.9-8.3v-85c0-6.2,1.8-9.4,6.7-9.4s6.7,3.2,6.7,9.4Zm38.2-81.2c0-28.3-11.9-46.8-41.3-46.8h-7.1c-29.3,0-41.3,18.3-41.3,46.8v78.8c0,28.8,14.7,45,41.5,45h7.1c25,0,41.1-16.5,41.1-45ZM451.4,808.4c5.1,0,6.5,2.7,6.5,7.8v19.7c0,6.2-2.5,8.2-6.7,8.2H446V808.4Zm.7,64.5c5.3,0,6.9,2.7,6.9,8.5v26.3c0,7.1-1.8,8.9-6.3,8.9H446V872.9Zm-42.9,73.2h58c19.9,0,30.1-12.5,30.1-38.4V883.2c0-19.7-10.9-26.1-18.5-28.4,5.4-1.8,15.4-9.3,15.4-25.2V811.3c0-22.5-10.2-31.2-29.2-31.2H409.2Zm-46.3-40.2c0,4.9-1.8,8.3-6.5,8.3s-6.9-3.4-6.9-8.3v-85c0-6.2,1.8-9.4,6.7-9.4s6.7,3.2,6.7,9.4ZM401,824.7c0-28.3-11.8-46.8-41.3-46.8h-7.1c-29.2,0-41.3,18.3-41.3,46.8v78.8c0,28.8,14.7,45,41.5,45H360c24.9,0,41-16.5,41-45ZM255,878h5.1c4.9,0,6.3,2.5,6.3,8.1v48.2c0,6,1.3,9.8,2.9,11.8h36.3V945c-1.1-2.3-2.2-5.8-2.2-12.1V878a22.6,22.6,0,0,0-14.5-21.6c6.5-2.9,14.5-9.8,14.5-25.2V809.3c0-19.6-11.2-29.2-27.4-29.2H218.2v166H255Zm0-69.4h5.3c4.9,0,6.1,2.1,6.1,7.9v22.3c0,5.8-2,8-6.7,8H255Z"/><path class="cls-4" d="M679.2,133.9v166h70.2v-35H715.5v-33h26.1V196.6H715.5V168.3h32.6V133.9Zm-57.8,98h5.1c4.9,0,6.3,2.4,6.3,8v48.2c0,6,1.3,9.8,2.9,11.8H672v-1.1c-1.1-2.2-2.2-5.8-2.2-12.1V231.9a22.9,22.9,0,0,0-14.5-21.7c6.5-2.9,14.5-9.8,14.5-25.2V163.1c0-19.6-11.2-29.2-27.4-29.2H584.6v166h36.8Zm0-69.4h5.3c5,0,6.1,2,6.1,7.8v22.3c0,5.8-2,8-6.7,8h-4.7Zm-89.8,29.9,5.1,50.4H526.5Zm11.2,107.5h35.7l-23.2-166H510l-21.2,166h31.9l2.4-24.3h17Zm-158.2-166v166h70.3v-35h-34v-33H447V196.6H420.9V168.3h32.6V133.9Zm-93.1,0-9,102.9-7.6-102.9H237.2l21,166h42.6L308,212l7.1,87.9h41.7l21.2-166H342.8l-7.8,102-9-102Z"/></svg>