<svg xmlns="http://www.w3.org/2000/svg" xmlns:xlink="http://www.w3.org/1999/xlink" viewBox="0 0 695 232.5"><defs><style>.cls-1{fill:none;}.cls-2{clip-path:url(#clip-path);}.cls-3{fill:#fff;}</style><clipPath id="clip-path" transform="translate(0 0)"><rect class="cls-1" width="695" height="232.47"/></clipPath></defs><title>Alpha</title><g id="Layer_2" data-name="Layer 2"><g id="Layer_1-2" data-name="Layer 1"><g class="cls-2"><path class="cls-3" d="M167.1,192.9,41.4,96.6,187.7,35.9ZM213,2.9a13.7,13.7,0,0,0-13.8-1.8L8.6,80.2A13.8,13.8,0,0,0,5.4,104L169.3,229.6a14,14,0,0,0,13.8,1.8,13.7,13.7,0,0,0,8.4-11L218.3,15.7A13.6,13.6,0,0,0,213,2.9" transform="translate(0 0)"/><path class="cls-3" d="M299.5,155.4c-12.7,0-23-11.2-23-25s10.3-25.1,23-25.1,23,11.2,23,25.1-10.3,25-23,25m23.1-60.1h0a40.2,40.2,0,0,0-27.3-10.9c-23.3,0-42.2,20.6-42.2,46s18.9,45.9,42.2,45.9a40.1,40.1,0,0,0,27.3-10.8h0l2.3,9.1H346V86.2H324.9Z" transform="translate(0 0)"/><path class="cls-3" d="M446.9,155.4c-12.7,0-23-11.2-23-25s10.3-25.1,23-25.1,23,11.2,23,25.1-10.3,25-23,25m4.2-71a40.1,40.1,0,0,0-27.2,10.8h0l-2.3-9H400.5V211.5h23.4v-46a39.6,39.6,0,0,0,27.2,10.8c23.3,0,42.2-20.5,42.2-45.9s-18.9-46-42.2-46" transform="translate(0 0)"/></g><rect class="cls-3" x="361.9" y="49.8" width="23.4" height="124.71"/><g class="cls-2"><path class="cls-3" d="M553.5,84.1a37.9,37.9,0,0,0-26.7,11V49.6H503.4V174.8h23.4V127.9a20.6,20.6,0,0,1,41.1,0v46.9h23.4V121.9a37.8,37.8,0,0,0-37.8-37.8" transform="translate(0 0)"/><path class="cls-3" d="M648.5,155.4c-12.7,0-23-11.2-23-25s10.3-25.1,23-25.1,23,11.2,23,25.1-10.3,25-23,25m25.4-69.2-2.3,9.1h0a40.1,40.1,0,0,0-27.2-10.9c-23.4,0-42.3,20.6-42.3,46s18.9,45.9,42.3,45.9a40,40,0,0,0,27.2-10.8h0l2.3,9.1H695V86.2Z" transform="translate(0 0)"/></g></g></g></svg>