<svg xmlns="http://www.w3.org/2000/svg" viewBox="0 0 964.6 291.7"><defs><style>.cls-1{fill:#fff;fill-rule:evenodd;}</style></defs><title>arup</title><g id="Layer_2" data-name="Layer 2"><g id="Layer_1-2" data-name="Layer 1"><path class="cls-1" d="M730,194.5c0,53.7-44.6,97.2-98.2,97.2a97.1,97.1,0,0,1-97.1-97.2V51.9c0-23.1-20.4-23.2-20.4-23.2V20.5h83v8.2s-20.4.1-20.4,22.7V203.8a58.7,58.7,0,0,0,58.6,58.7c32.4,0,58-26.2,58-58.6V52.2c0-23.4-20.9-23.5-20.9-23.5V20.5h77.9v8.2S730,28.8,730,52.2Z"/><path class="cls-1" d="M341.8,48.6V249.2c0,28.2,23.2,27.9,23.2,27.9v8.5H280.8v-8.5s18.6.3,18.6-26V51.9c0-23.1-22.7-23.2-22.7-23.2V20.5h77.9c59,0,86,24.8,95.7,51.2s4.8,56.4-15.5,76.7c-10.2,10.2-23.5,15.3-23.5,15.3s6,2.7,18.3,18c0,0,38.6,50.4,57.9,73.2,12.1,14.1,25.4,22.2,43.4,21.9l1.4,6c-20.1,11.4-44.1,11.9-64.2-1.2-37.4-24.6-68.5-83.7-84.1-99.4S356,165,356,165l1-7.3c4.8.7,32.7.7,48.3-14s24.6-51.8-2.3-80.4C379.7,38.5,345.5,45.2,341.8,48.6Z"/><path class="cls-1" d="M86.5,174.5h65.4l-36.1-85ZM118,0,235.1,261.5c8.8,15.9,22.2,15.6,22.2,15.6v8.5H170.6v-8.5s25.7.3,14-25.6l-23.8-56H78.9l-20,57.4c-9,24.4,14.7,24.2,14.7,24.2v8.5H0v-8.5s16.4-.2,25.3-25.4Z"/><path class="cls-1" d="M850.6,48.6V250.3c0,27.1,21.8,26.8,21.8,26.8v8.5H788.6v-8.5s19.1.3,19.1-25.7l-.3-199.5c0-23.1-20.6-23.2-20.6-23.2V20.5h76.5c59,0,86.8,24.6,96.2,51.2,13.9,39.3-3.9,67.6-19.2,81.6-37.7,34.4-76,5.6-76,5.6l1.4-5.6c4.9.8,32.7,5.1,48.3-9.6s24.6-51.8-2.3-80.4C888.5,38.5,854.3,45.2,850.6,48.6Z"/></g></g></svg>