<?xml version="1.0" encoding="utf-8"?>
<!-- Generator: Adobe Illustrator 24.0.0, SVG Export Plug-In . SVG Version: 6.00 Build 0)  -->
<svg version="1.1" id="svg6085" xmlns:svg="http://www.w3.org/2000/svg"
	 xmlns="http://www.w3.org/2000/svg" xmlns:xlink="http://www.w3.org/1999/xlink" x="0px" y="0px" viewBox="0 0 1024 316"
	 style="enable-background:new 0 0 1024 316;" xml:space="preserve">
<style type="text/css">
	.st0{fill:#FFFFFF;}
</style>
<path id="path6082" class="st0" d="M94.3,197.7l-26.5,78.7c-0.8,5.7,0.5,10.3,3.9,13.7c5.1,5.2,12.9,7.9,23.3,8.1v2H9.2v-2
	c18.1-1.2,29.1-7.5,33-18.9L133.1,8.9L245,280.8c4,10.4,14,16.1,29.8,17.4l0.3,2h-88.5v-2c9.3,0,16.1-2.6,20.2-7.8
	c2.3-2,2.9-5.5,1.9-10.4c-6.7-17.1-18-44.5-33.7-82.2H94.3z M100.1,180.5h67.6l-36.4-91.2L100.1,180.5z M833.5,33.4v-1.5
	c59.9-0.2,98.1,0.7,114.6,2.7c13.4,1.6,26,6.7,37.6,15.3c11.7,8.7,19.9,19.3,24.6,32c3,8.3,4.6,17.1,4.6,26.5
	c0,19.1-5.8,35.3-17.4,48.5c-15.1,16.5-32.7,24.8-52.9,24.8c-7.4,0-14.8-1.3-22.1-3.9c-5.7-2-8.6-3.9-8.6-5.7
	c14,0.5,23.8,0.1,29.2-1.2c9.3-2.3,17.9-7.5,26-15.3c8-8,13-16.7,14.8-26.3c1-4.3,1.5-8.8,1.5-13.1c0-24.4-10.7-43.5-32.2-57.5
	c-9.8-6.5-21.4-9.8-34.9-9.8c-7.5,0-14.7,1.2-21.4,3.5v221.8c0,13.4,9,21.4,27.1,23.9v2h-89.7v-2c12.9-1.8,21.7-6.8,26.5-15
	c1.6-3.1,2.4-13.4,2.4-30.7V54.8c0-10.7-6.8-17.4-20.2-20.2C840.7,34.3,837.6,34,833.5,33.4z M394.8,31.9c14.7,0,28.6,4.5,41.8,13.5
	c13.2,8.9,22.8,20.3,28.5,34.2c3.6,9.1,5.4,18.8,5.4,29.2c0,19.7-6,35.9-17.9,48.5c-5.6,6.2-13,12-22.1,17.5
	c19.4,24.3,46.6,57,81.6,98.2c11.9,14.2,27.9,21,48,20.6c0.3,0.3,0.5,0.8,0.5,1.5c-7.8,4.4-16.9,6.6-27.3,6.6
	c-13.1,0-24.7-3.2-34.5-9.6c-15.3-10.1-31.2-25.7-47.7-46.7c-26.6-34.7-40.2-52.3-40.8-52.7c-8.6-9.5-18.5-15.4-29.8-17.5v-1.5
	c21.2,1.8,37.8-4.4,49.7-18.7c8.2-9.7,12.3-22.4,12.3-37.9c0-7.8-1.1-15.3-3.4-22.2c-3.7-11.1-10.7-20.9-20.7-29.3
	c-10-8.4-20.8-13.4-32.2-14.8c-12.4-1.9-22.5-1.1-30.2,2.2v223c0.6,5.4,3.6,10.2,8.9,14.3c4.3,3.6,9.4,6,15,7.1l7.8,1v2h-93.5v-2
	c14.2-1.8,23.5-7.1,27.6-15.8l1.2-7.4V56c0-9.3-5.4-15.9-16-19.9c-4.2-1.2-9.7-2.1-16.7-2.7v-1.5H394.8z M791.7,33.4
	c-18.7,2.6-28.7,9-30,19v167.7c-1.3,16.1-6.9,31.2-16.9,45.3c-10,14.1-22.5,24.9-37.4,32.4c-12.5,6.2-26.6,9.3-42.3,9.3
	c-20,0-37.3-4.8-51.7-14.3C583.1,273.3,568,246,568,210.8V54.4c0-7.8-4.7-14-14-18.4c-1.1-0.2-6.4-1.1-15.7-2.7v-1.9h92V33
	c-17.3,1.3-27.2,7.6-29.5,19v166.8c0,26.4,11.1,46.4,33.4,59.8c10.1,6.3,21.9,9.4,35.4,9.4c17.1,0,32.4-6.1,46.2-18.4
	c13.7-12.3,20.7-27,21.1-44.2l0.3-31.2V56.3c0-8.7-5.1-15.2-15.2-19.4c-2-0.8-7.2-1.9-15.5-3.5v-1.9h85.1V33.4z"/>
</svg>
