<svg xmlns="http://www.w3.org/2000/svg" xmlns:xlink="http://www.w3.org/1999/xlink" viewBox="0 0 1536.8 3601"><defs><style>.cls-1{fill:none;}.cls-2{clip-path:url(#clip-path);}.cls-3{fill:#ff6700;}.cls-4{fill:#2254f3;}</style><clipPath id="clip-path" transform="translate(0 0)"><rect class="cls-1" width="1536.8" height="3601"/></clipPath></defs><title>Asset 1</title><g id="Layer_2" data-name="Layer 2"><g id="ODI"><g class="cls-2"><path class="cls-3" d="M1524.2,3601H12.5V2895.7h506c-312.4-96-505.2-375.1-505.2-742V1492.8H514.4C215,1387.7,0,1103.4,0,768.3,0,343.9,344.1,0,768.4,0s768.4,343.9,768.4,768.3c0,335.1-215,619.4-514.4,724.5h502.3v660.9c0,366.9-193,646-505.4,742h504.9Z" transform="translate(0 0)"/><path class="cls-4" d="M622,2376.8v91.6h16.4v-69.7h28.8v65.7h16.3v-65.7h26.3v68.5h16.3v-90.4Zm0-131.6v21h78.1v.3L622,2328.8v24.7H726.1v-21H648v-.3l78.1-62v-25Zm13.4-79.2c0-24.4,15.8-38.4,38.7-38.4s38.6,14,38.6,38.4-15.8,38.5-38.6,38.5-38.7-14-38.7-38.5m-16.3,0c0,44,25.7,61.2,55,61.2S729,2210,729,2166s-25.6-61.2-54.9-61.2-55,17.2-55,61.2m2.9-126.2v21.9h39.7l64.4,45.4v-26.6l-46.4-29.8,46.4-29.7v-26.7l-64.4,45.5Zm57.5-129.1h30.3v37.8c0,11.5-4.3,18.6-15,18.6s-15.3-6.5-15.3-18.6ZM622,1888.9v21.8h41.1v37.2c0,16-10.5,18-25.3,18-7.6,0-12.8,1.1-15.8,2.7v23.6c5.7-4.2,17.4-4.4,22.3-4.4,14.8,0,25.5-2.8,28.2-15.1h.3c3,9.7,11.5,17.1,25,17.1,16.2,0,28.3-8.6,28.3-35.1v-65.8Zm0-110.4V1870h16.4v-69.6h28.8v65.7h16.3v-65.7h26.3v68.5h16.3v-90.4Zm0-80.2v23.2l104.1,45.8v-23.6l-83.4-33.3,83.4-33.9V1652Zm0-146.2v91.5h16.4v-69.7h28.8v65.7h16.3v-65.7h26.3v68.5h16.3v-90.3Zm57.5-157h30.3v37.8c0,11.5-4.3,18.6-15,18.6s-15.3-6.5-15.3-18.6ZM622,1373.3v21.8h41.1v37.2c0,16-10.5,18-25.3,18-7.6,0-12.8,1.1-15.8,2.7v23.6c5.7-4.3,17.4-4.4,22.3-4.4,14.8,0,25.5-2.8,28.2-15.2h.3c3,9.8,11.5,17.2,25,17.2,16.2,0,28.3-8.6,28.3-35.1v-65.8Zm13.4-79.2c0-24.5,15.8-38.5,38.7-38.5s38.6,14,38.6,38.5-15.8,38.5-38.6,38.5-38.7-14-38.7-38.5m-16.3,0c0,44,25.7,61.2,55,61.2s54.9-17.2,54.9-61.2-25.6-61.2-54.9-61.2-55,17.2-55,61.2m2.9-156.6v21.8h45.2v61.2h16.3v-61.2h26.3V1224h16.3v-86.5Z" transform="translate(0 0)"/><path class="cls-4" d="M814,2489.6v21.9h32.4l15.6,17.6-48,39.1v29.6l61.8-51.6,42.3,48.5v-30l-48.3-53.2h48.3v-21.9Zm57.4-99.6h30.3v37.8c0,11.5-4.2,18.6-15,18.6s-15.3-6.5-15.3-18.6ZM814,2368.2V2390h41.1v37.2c0,16-10.5,18.1-25.3,18.1-7.6,0-12.9,1-15.8,2.6v23.6c5.7-4.2,17.4-4.4,22.3-4.4,14.7,0,25.5-2.8,28.1-15.1h.3c3.1,9.7,11.5,17.1,25.1,17.1,16.2,0,28.3-8.5,28.3-35.1v-65.8Zm13.4-79.2c0-24.5,15.8-38.5,38.6-38.5s38.7,14,38.7,38.5-15.8,38.5-38.7,38.5-38.6-14-38.6-38.5m-16.3,0c0,44,25.7,61.2,54.9,61.2s55-17.2,55-61.2-25.7-61.2-55-61.2-54.9,17.2-54.9,61.2m2.9-198.7v23.6l79.9,26.1v.3L814,2166.2v23.6l104.1,35v-22.7l-80.8-23.9v-.3l80.8-26.1V2129l-80.8-25.9v-.3l80.8-23.4v-23.6Zm0-211v23.6l25.8,10.8v48.9l-25.8,11v24.3l104.1-46.3v-26Zm42.1,40.9,43.9,18.1-43.9,17.8ZM814,1832.3v21.9h87.7v39h16.4v-99.9H901.7v39Zm0-143.7v23.6l25.8,10.8v49L814,1782.9v24.3l104.1-46.3v-26Zm42.1,41,43.9,18-43.9,17.8ZM814,1579.9v61.3c0,35.4,28.6,45.6,51,45.6,29.7,0,53.1-10,53.1-50.8v-56.1Zm87.7,21.8v29.6c0,12.2-2,33.7-35.8,33.7-30.5,0-35.6-16.8-35.6-32.5v-30.8ZM814,1411.9v91.5h16.3v-69.7h28.9v65.7h16.3v-65.7h26.2v68.5h16.4v-90.3Zm0-120.5v21.9h32.4l15.6,17.6L814,1370v29.5l61.8-51.5,42.3,48.5v-30l-48.3-53.2h48.3v-21.9Zm0-130.3v23.6l25.8,10.8v48.9L814,1255.3v24.4l104.1-46.4v-25.9Zm42.1,40.9,43.9,18.1-43.9,17.8ZM814,1013.9v20.5l86-.8v.2L814,1072v18.7l86,38.4v.3l-86-.8v20.5H918.1v-31.2l-80.8-36.1,80.8-36.4v-31.5Z" transform="translate(0 0)"/></g></g></g></svg>