<svg xmlns="http://www.w3.org/2000/svg" xmlns:xlink="http://www.w3.org/1999/xlink" viewBox="0 0 170.7 80"><defs><style>.cls-1{fill:none;}.cls-2{fill:#fff;}.cls-3{clip-path:url(#clip-path);}</style><clipPath id="clip-path" transform="translate(0 0)"><rect class="cls-1" width="170.7" height="80"/></clipPath></defs><title>Asset 19</title><g id="Layer_2" data-name="Layer 2"><g id="bg"><polygon class="cls-2" points="137.4 0.8 127.3 17.3 117 0.8 111.5 0.8 124.9 21.3 124.9 35.4 129.4 35.4 129.4 21.3 142.7 0.8 137.4 0.8"/><g class="cls-3"><path class="cls-2" d="M162.7,35.4h-5.3V30h5.3ZM150.2,7a12.3,12.3,0,0,1,2.1-3.7A10.9,10.9,0,0,1,155.8.9a10.6,10.6,0,0,1,4.5-.9,11.6,11.6,0,0,1,4.2.7,8,8,0,0,1,3.2,1.9,8.1,8.1,0,0,1,2.1,3,10.4,10.4,0,0,1,.7,4.1,11.2,11.2,0,0,1-.3,2.7,10.2,10.2,0,0,1-1,2.1,8.3,8.3,0,0,1-1.3,1.8l-1.5,1.6-1.6,1.5a10.1,10.1,0,0,0-1.3,1.6,16.2,16.2,0,0,0-1,1.8,8,8,0,0,0-.3,2.3V27H158V24.7a11.3,11.3,0,0,1,.8-3.5,10.7,10.7,0,0,1,1.6-2.5l2-2.1,1.9-1.9a7.9,7.9,0,0,0,1.4-2.3,7.5,7.5,0,0,0,.5-3.1,6.7,6.7,0,0,0-1.7-4.2,5.8,5.8,0,0,0-4.2-1.5,7.3,7.3,0,0,0-3,.7A6.8,6.8,0,0,0,155.2,6,6.5,6.5,0,0,0,154,8.5a10.6,10.6,0,0,0-.4,3.1h-4.1a14.3,14.3,0,0,1,.7-4.6" transform="translate(0 0)"/></g><polygon class="cls-2" points="113.3 45.2 113.3 49.1 124.8 49.1 124.8 79.7 129.4 79.7 129.4 49.1 141 49.1 141 45.2 113.3 45.2"/><polygon class="cls-2" points="40.8 79.8 45.4 79.8 45.4 64 63.6 64 63.6 79.9 68.2 79.9 68.3 45.3 63.7 45.3 63.6 60.2 45.5 60.1 45.5 45.3 40.9 45.2 40.8 79.8"/><g class="cls-3"><path class="cls-2" d="M43.4,23.3a16.2,16.2,0,0,0,2.1,4.6,10.6,10.6,0,0,0,3.7,3.3,13.5,13.5,0,0,0,5.5,1.3,10.3,10.3,0,0,0,5.4-1.3A10.5,10.5,0,0,0,63.8,28,15,15,0,0,0,66,23.4a22.4,22.4,0,0,0,.7-5.1,22.5,22.5,0,0,0-.7-5.2,14.8,14.8,0,0,0-2.1-4.6,11.4,11.4,0,0,0-3.7-3.2A10.5,10.5,0,0,0,54.8,4a11.8,11.8,0,0,0-5.5,1.2,10.6,10.6,0,0,0-3.7,3.3A13.5,13.5,0,0,0,43.4,13a22.4,22.4,0,0,0-.6,5.2,21.6,21.6,0,0,0,.6,5.1M39.2,11.4a17.3,17.3,0,0,1,3.2-5.8,15.4,15.4,0,0,1,5.1-4A16.7,16.7,0,0,1,54.8.1,15.3,15.3,0,0,1,62,1.7a14.4,14.4,0,0,1,5.1,4,17.1,17.1,0,0,1,3.1,5.8,22,22,0,0,1,1.1,6.8,26.1,26.1,0,0,1-1.1,6.8,18.5,18.5,0,0,1-3.1,5.7,15.8,15.8,0,0,1-5.2,4,16.6,16.6,0,0,1-7.2,1.5,16.7,16.7,0,0,1-7.3-1.5,15.4,15.4,0,0,1-5.1-4A17.1,17.1,0,0,1,39.2,25a22.4,22.4,0,0,1-1-6.8,22,22,0,0,1,1-6.8" transform="translate(0 0)"/><path class="cls-2" d="M22.6,5.7a10.7,10.7,0,0,0-6.3-1.8A11.2,11.2,0,0,0,11,5,11.9,11.9,0,0,0,7.4,8.1a13.3,13.3,0,0,0-2.1,4.5,18.1,18.1,0,0,0-.7,5.2,20,20,0,0,0,.7,5.6,12.9,12.9,0,0,0,2,4.6A10.1,10.1,0,0,0,11,31.1a10.9,10.9,0,0,0,5.3,1.2,10.7,10.7,0,0,0,4.1-.7,9,9,0,0,0,3-2.1,9.2,9.2,0,0,0,2-3.1,13.7,13.7,0,0,0,.9-4h4.6c-.5,4.4-2,7.7-4.5,10.1s-6.1,3.7-10.5,3.6a15.4,15.4,0,0,1-7-1.4,13.6,13.6,0,0,1-5-3.8A15.4,15.4,0,0,1,1,25.2a23,23,0,0,1-1-7.1,22.8,22.8,0,0,1,1.1-7A16.2,16.2,0,0,1,4.2,5.3,14.6,14.6,0,0,1,9.4,1.4a17.1,17.1,0,0,1,7-1.4,20.9,20.9,0,0,1,5.1.7,12.5,12.5,0,0,1,4.3,2.2A12,12,0,0,1,29,6.4a14.1,14.1,0,0,1,1.6,4.9H26a8.6,8.6,0,0,0-3.4-5.6" transform="translate(0 0)"/></g><polygon class="cls-2" points="1.6 49 13.1 49 13 79.7 17.6 79.7 17.7 49 29.2 49.1 29.2 45.2 1.6 45.1 1.6 49"/><g class="cls-3"><path class="cls-2" d="M93.4,17.6c2.6,0,4.5-.5,5.7-1.6a6,6,0,0,0,1.9-4.7,6,6,0,0,0-1.8-4.7C98,5.5,96.1,4.9,93.4,4.9h-9V17.6ZM95,1.1c3.5,0,6.1.9,7.9,2.7a10.1,10.1,0,0,1,2.7,7.5,10.1,10.1,0,0,1-2.7,7.5c-1.8,1.8-4.5,2.7-8,2.7H84.4V35.6H79.7L79.9,1Z" transform="translate(0 0)"/></g><path class="cls-2" d="M87.4,65.7l5.9-16.1h.1l5.7,16.1Zm-10,14.2h4.7L86,69.5h14.6L104.3,80h5.1L96,45.4H90.9Z" transform="translate(0 0)"/><g class="cls-3"><path class="cls-2" d="M162.8,74.6V80h-5.3V74.6Zm-12.4-23a10.2,10.2,0,0,1,2.1-3.7,9.8,9.8,0,0,1,3.5-2.5,12.5,12.5,0,0,1,4.5-.8,13.1,13.1,0,0,1,4.1.6,10.6,10.6,0,0,1,3.3,1.9,9.5,9.5,0,0,1,2.1,3.1,12.5,12.5,0,0,1,.7,4.1,7.7,7.7,0,0,1-.4,2.7,6.7,6.7,0,0,1-.9,2.1,8.6,8.6,0,0,1-1.4,1.8l-1.5,1.6L165,64a10.7,10.7,0,0,0-1.4,1.6,7.7,7.7,0,0,0-1,1.8,7.8,7.8,0,0,0-.3,2.2v1.9h-4.1V69.2a8.6,8.6,0,0,1,.7-3.4,12,12,0,0,1,1.6-2.5,20.3,20.3,0,0,1,2-2.1,18.9,18.9,0,0,0,2-2,8.8,8.8,0,0,0,1.4-2.3,6.8,6.8,0,0,0,.4-3,6.2,6.2,0,0,0-1.7-4.2,5.6,5.6,0,0,0-4.1-1.5,6.7,6.7,0,0,0-3,.6,6.8,6.8,0,0,0-2.1,1.7,7.5,7.5,0,0,0-1.3,2.5,27.9,27.9,0,0,0-.4,3.2h-4.1a11.4,11.4,0,0,1,.8-4.6" transform="translate(0 0)"/></g></g></g></svg>