<?xml version="1.0" encoding="utf-8"?>
<!-- Generator: Adobe Illustrator 16.2.1, SVG Export Plug-In . SVG Version: 6.00 Build 0)  -->
<!DOCTYPE svg PUBLIC "-//W3C//DTD SVG 1.1//EN" "http://www.w3.org/Graphics/SVG/1.1/DTD/svg11.dtd">
<svg version="1.1" id="Layer_1" xmlns="http://www.w3.org/2000/svg" xmlns:xlink="http://www.w3.org/1999/xlink" x="0px" y="0px"
	 width="65.332px" height="28px" viewBox="0 0 65.332 28" enable-background="new 0 0 65.332 28" xml:space="preserve">
<path d="M52.225,0.209v8.57c-0.666-1.846-1.708-3.47-3.108-4.812c-1.261-1.208-2.772-2.145-4.492-2.785
	c-1.75-0.651-3.679-0.981-5.733-0.981L27.005,0.199v8.607c-0.694-1.741-1.74-3.341-3.106-4.706C21.255,1.456,17.739,0,14,0
	c-3.74,0-7.256,1.456-9.9,4.101C1.456,6.745,0,10.261,0,14s1.456,7.255,4.1,9.899C6.744,26.544,10.26,28,14,28
	c3.739,0,7.255-1.456,9.898-4.101c1.366-1.365,2.412-2.965,3.106-4.706v8.587l11.886-0.002c2.055,0,3.983-0.33,5.733-0.981
	c1.72-0.641,3.231-1.577,4.492-2.785c1.4-1.341,2.442-2.966,3.108-4.811v8.59h13.107V0.209H52.225z"/>
</svg>
