<svg xmlns="http://www.w3.org/2000/svg" xmlns:xlink="http://www.w3.org/1999/xlink" viewBox="0 0 492 338.7"><defs><style>.cls-1{fill:none;}.cls-2{fill:#fff;}.cls-3{clip-path:url(#clip-path);}</style><clipPath id="clip-path" transform="translate(0 0)"><rect class="cls-1" width="492" height="338.75"/></clipPath></defs><title>CDN</title><g id="Layer_2" data-name="Layer 2"><g id="Layer_1-2" data-name="Layer 1"><path class="cls-2" d="M492,182.7,396.7,87.4H340.2L252.8,0H196.4L151.7,44.7H95.2L0,140l93.5,93.5h60.1l42.9-42.9h56.3l42.9,42.9h56.5l16.3-16.2,16.2,16.2h56.5Zm-301.8,1.8L151.7,223,68.8,140l82.9-83,38.5,38.5-44.5,44.3Zm102.1-49.2-41.1,41.2-36.8-36.7,44.5-44.5L214.4,50.8l38.5-38.4,81.2,81.1Zm104.4,41.4-44.5,44.5-38.5-38.5,82.9-82.9,83.1,82.9-38.5,38.5Z" transform="translate(0 0)"/><g class="cls-3"><path class="cls-2" d="M104.4,272.7H99.7v21.6h4.8V281.9c0-3.1,1.8-4.7,4.8-4.7h3.5v-4.6h-2.3c-2.9,0-4.7,1.1-5.5,3.5h-.6Zm9.9,10.6c0,6.6,4.6,11.6,11.2,11.6a10.6,10.6,0,0,0,9.7-5.4l-4-2.3a6.2,6.2,0,0,1-5.8,3.6,5.8,5.8,0,0,1-6.1-5.7h16.3V283c0-6.4-4.2-10.9-10.5-10.9s-10.8,4.8-10.8,11.2m5-1.8c.4-3.3,2.4-5.3,5.8-5.3a5.2,5.2,0,0,1,5.6,5.3Zm19.5-3.5,4.1,2.3a6.5,6.5,0,0,1,6.3-4c3.2,0,5,1.7,5,4.2v.6l-8.1.8c-4.9.5-7.7,2.7-7.7,6.4s3.2,6.6,8.1,6.6,6.4-2.1,7.1-3.8h.7v3.2H159V280.6c0-5.1-3.8-8.5-9.7-8.5a11.8,11.8,0,0,0-10.5,5.9m4.6,10.1c0-1.8,1.5-2.5,3.8-2.8l7-.7v.4c0,3.3-2.3,6-6.7,6-2.7,0-4.1-1.2-4.1-2.9m17-15.4v4.2h5.3v13.5a3.7,3.7,0,0,0,3.9,3.9h5.8v-4.1h-3.7c-.8,0-1.2-.4-1.2-1.3v-12h6.1v-4.2h-6.1v-7.1h-4.8v7.1Zm18.8-6.4a3.5,3.5,0,0,0,3.6,3.5,3.4,3.4,0,0,0,3.6-3.5,3.4,3.4,0,0,0-3.6-3.5,3.4,3.4,0,0,0-3.6,3.5m6,6.4h-4.8v21.6h4.8Zm3.2,0,7.8,21.6h7l7.8-21.6h-5.3L200,289.9h-.6l-5.7-17.2Zm23.3,10.6c0,6.6,4.7,11.6,11.3,11.6a10.5,10.5,0,0,0,9.6-5.4l-3.9-2.3a6.2,6.2,0,0,1-5.8,3.6,5.9,5.9,0,0,1-6.2-5.7h16.4V283c0-6.4-4.2-10.9-10.5-10.9s-10.9,4.8-10.9,11.2m5-1.8c.4-3.3,2.4-5.3,5.8-5.3a5.2,5.2,0,0,1,5.6,5.3ZM272,266.3a3.6,3.6,0,0,0,3.7,3.5,3.5,3.5,0,0,0,3.6-3.5,3.4,3.4,0,0,0-3.6-3.5,3.5,3.5,0,0,0-3.7,3.5m6.1,6.4h-4.8v21.6h4.8Zm3.5,0,7.8,21.6h7l7.7-21.6h-5.2l-5.8,17.2h-.5l-5.8-17.2ZM305,283.3c0,6.6,4.7,11.6,11.2,11.6a10.5,10.5,0,0,0,9.7-5.4l-4-2.3a6.3,6.3,0,0,1-11.9-2.1h16.4V283c0-6.4-4.2-10.9-10.5-10.9S305,276.9,305,283.3m5-1.8c.4-3.3,2.4-5.3,5.8-5.3a5.2,5.2,0,0,1,5.6,5.3Zm24.9-8.8h-4.7v21.6h4.9V281.9c0-3.1,1.8-4.7,4.7-4.7h3.5v-4.6h-2.2c-3,0-4.8,1.1-5.6,3.5h-.6Zm11.1,5.9c0,4.1,3,5.9,8.4,6.6h1.3c2.3.4,4.8.6,4.8,2.5s-2.1,3.1-4.8,3.1a7.8,7.8,0,0,1-7.3-4.8l-4,2.4a12.4,12.4,0,0,0,11.2,6.4c5.7,0,9.6-2.9,9.6-7.2s-3.1-5.7-9.1-6.5h-1.2c-2.4-.4-4.2-.7-4.2-2.5s1.4-2.5,3.7-2.5,5.1,1.4,7.1,3.9l3.5-2.6c-3.1-3.4-6.1-5.3-10.6-5.3s-8.4,2.5-8.4,6.5m21.7-12.3a3.5,3.5,0,0,0,3.6,3.5,3.4,3.4,0,0,0,3.6-3.5,3.4,3.4,0,0,0-3.6-3.5,3.4,3.4,0,0,0-3.6,3.5m6,6.4h-4.8v21.6h4.8Zm3.2,0v4.2h5v13.5a3.7,3.7,0,0,0,3.9,3.9h5.8v-4.1h-3.7c-.8,0-1.2-.4-1.2-1.3v-12h6.1v-4.2h-6.1v-7.1h-4.8v7.1Zm35.9,0-6.1,16h-.5l-6.2-16h-5.2l9.1,22.5-3.4,7.9h5.2l12.4-30.4Z" transform="translate(0 0)"/><path class="cls-2" d="M85.2,272c6,0,9.7,3.5,10.8,8.4l-4.8,1.1c-.3-2.9-2.3-5.1-5.9-5.1s-6.5,2.8-6.5,7,2.6,7.2,6.5,7.2,5.4-2.3,5.9-5.1l4.8,1.1c-1,4.5-4.5,8.3-10.7,8.3a11.5,11.5,0,0,1-.1-22.9" transform="translate(0 0)"/><path class="cls-2" d="M250.7,283.4c0,4.6,2.8,7.2,6.5,7.2s6.4-2.7,6.4-7.2-2.6-7.1-6.4-7.1-6.5,2.6-6.5,7.1m17.8,10.9h-4.8v-3.2h-.6c-1.1,1.9-3.1,3.8-7.2,3.8s-10-4.8-10-11.5,4.5-11.4,10-11.4,6.1,1.9,7.2,3.8h.5V263.5h4.9Z" transform="translate(0 0)"/><path class="cls-2" d="M189.1,327.1c0,6.7,4.6,11.7,11.2,11.7a10.7,10.7,0,0,0,9.7-5.5l-4-2.3a6.2,6.2,0,0,1-5.8,3.6,5.8,5.8,0,0,1-6.1-5.7h16.3v-2.1c0-6.4-4.2-10.9-10.5-10.9s-10.8,4.8-10.8,11.2m5-1.8c.4-3.2,2.4-5.3,5.8-5.3a5.3,5.3,0,0,1,5.6,5.3Zm17.3-8.8v4.2h5.3v13.5a3.7,3.7,0,0,0,3.9,3.9h5.8V334h-3.7c-.8,0-1.2-.4-1.2-1.3v-12h6.1v-4.2h-6.1v-7.1h-4.8v7.1Zm18.8,0,4.5,21.6h7l3.7-17h.6l3.7,17h7l4.5-21.6h-4.9l-3,17.1h-.5l-3.7-17.1h-6.8l-3.7,17.1H238l-2.9-17.1Zm32.5,10.8c0,6.8,4.8,11.5,11.2,11.5s11.2-4.7,11.2-11.5a11,11,0,0,0-11.2-11.4c-6.4,0-11.2,4.7-11.2,11.4m4.8,0c0-4.3,2.6-7,6.4-7s6.4,2.7,6.4,7-2.6,7.1-6.4,7.1-6.4-2.7-6.4-7.1m25.8-10.8h-4.7v21.6h4.8V325.7c0-3.1,1.8-4.7,4.8-4.7h3.5v-4.5h-2.3c-2.9,0-4.7,1-5.5,3.4h-.6Zm33.5,0H320l-9.8,8.3h-.5l.2-17.3h-4.8l-.3,30.6h4.9v-7.2l3.9-3.2,7.3,10.4h5.7L317,324.8Z" transform="translate(0 0)"/><path class="cls-2" d="M169.7,316.4V320h.6c1-2,2.9-3.9,7.1-3.9s8.4,3.2,8.4,9v13H181V325.5c0-3.3-1.9-5.2-5.3-5.2s-5.9,2.4-5.9,6.6v11.2h-4.9V316.4Z" transform="translate(0 0)"/></g></g></g></svg>