<svg id="Layer_1" data-name="Layer 1" xmlns="http://www.w3.org/2000/svg" xmlns:xlink="http://www.w3.org/1999/xlink" viewBox="0 0 929.1 3158.1"><defs><style>.cls-1{fill:none;}.cls-2{fill:#4c4c4c;}.cls-3{clip-path:url(#clip-path);}.cls-4{fill:#fff;}</style><clipPath id="clip-path"><rect class="cls-1" x="193.7" y="2726.5" width="548.5" height="431.61"/></clipPath></defs><title>dac copy that 3</title><g id="Layer_2" data-name="Layer 2"><g id="bg"><path class="cls-2" d="M929.1,0H0V800.1A818.6,818.6,0,0,0,120.1,809C566.9,809,929.1,446.8,929.1,0Z"/><path class="cls-2" d="M120.1,1426.2A818.6,818.6,0,0,0,0,1435.1V3035.3a818.6,818.6,0,0,0,120.1,8.9c446.8,0,809-362.2,809-809S566.9,1426.2,120.1,1426.2Z"/></g></g><g class="cls-3"><path class="cls-4" d="M539.9,2917.1h-4.3v11.7h3.8a8.4,8.4,0,0,0,5.3-1.4c1.2-1,1.8-2.4,1.8-4.7,0-3.9-2.2-5.6-6.6-5.6"/><path class="cls-4" d="M740,2974.8c-3,32.2-38.9,41-67.8,48.1l-5.2,1.3c-14,3.4-28.3,6.4-42.2,9.3l-21.6,4.5,7.2-4.6,1.4-.6,16.2-7.3,13.9-4.3,10.4-3.2c24.6-7.4,61.7-18.6,65.4-44.2,1.9-13.5-1.4-29.9-9.7-48.8l-.5-1.2c-6.3-14.3-13.5-30.4-22.7-42.5-16.9-22.1-49.8-34.2-76.3-43.9l-13.2-4.9c-6.1-2.4-12.5-4.7-18.8-7-25.4-9.2-51.7-18.8-72.7-35.2-5.8-4.5-11.5-9.5-16.9-14.3-14.2-12.5-28.8-25.4-47.3-31.8a51.2,51.2,0,0,0-17-3c-15.6,0-29.1,7.5-43.8,16.6l-13.8,8.3c-17.1,10.2-34.7,20.8-50.3,33.8-19.2,16.1-30.2,30.4-29.4,55.9.6,20.9-5.4,39.8-19.4,61.2-2.3,3.5-5.7,7.8-9.4,12.3-11.3,14.1-25.3,31.5-22.7,46,2,11.5,16.5,16.5,25.1,19.5,18.7,6.5,38.7,9.4,58.1,12.2l12.3,1.8,13.1,1.9,8.4,1.2.7.3-11.6.4c-6.8.3-13.3.5-19,.5h-9.7c-25.3-.1-51.5-.1-76.7-4.3l-1.5-.3c-12.9-2.1-34.6-5.7-37.2-20.5-3-16.8,15.3-36.6,30-52.6a162.5,162.5,0,0,0,12.9-14.9c17.8-24.3,23.9-48.5,27.8-71.1,4.5-25.5,18.1-41.6,38.7-59.2s43.3-31.7,64.8-44.5c17.6-10.5,32.7-17.4,49.1-17.4a56.9,56.9,0,0,1,18.2,3c20.8,7.1,37.3,22.1,53.3,36.6,5.3,4.9,10.9,9.9,16.5,14.6,22.5,18.6,51.3,26.4,79.2,34,7.2,2,14.7,4,21.8,6.2l10.7,3.1c29.2,8.6,65.6,19.2,83.1,43.4a264.4,264.4,0,0,1,25.6,43.5c6.8,15.4,14.6,38.6,12.5,62.1m-164.1,80.6c-14.2,12.5-28.6,25.3-42.5,38.7,4.9-5.3,9.9-10.8,14.9-16.1l12.1-12.6c18.2-18.8,37.9-39.2,51.8-61.7h17.9c-10,12.5-22.8,23.9-34.9,34.6l-5.9,5.1-13.4,12m-83.8,83.7-2.9,3.6c-4.8,6.1-9.8,12.4-17.1,13.4l-2.1.2c-8.1,0-14.2-7.4-19.1-16.4a52,52,0,0,0,3.7,4.3c4,4.4,8.2,6.5,12.8,6.5,7.4,0,14.5-5.6,21.7-11.8,5.2-4.4,10.2-9.1,15.1-13.9-3.8,4.3-7.8,9-12.1,14.1M367.2,3021.6l-3.3-2.6-5.9-4.5c-6.5-4.9-13.8-10.5-20.6-16.7a76,76,0,0,0,29.8,6.9c6.6,10.9,14,21.4,21.3,31.7l1.2,1.6,2.7,3.8c-8.3-7-16.8-13.7-25.2-20.2m257,3.2c18-11.4,36.3-24.6,46.3-41.8,7.3-12.4,5.1-26.2,1.6-39.3s-8.5-30.1-17.4-42.4a102.5,102.5,0,0,0-11.9-13.7v-15.8c15.5,10.8,26.9,22.6,34.3,39.5l2.8,6.3c4.7,10.3,9.5,21,12,32.2,3.6,15.8,3.2,28.9-10.3,41.2-15.2,13.7-34.5,23.8-54.2,32.9l-3.2.9m18.6-41.1v-55.3a87.9,87.9,0,0,1,5,16.8,61.6,61.6,0,0,1-5,38.5m-257,19.3,3.1,7.6c8.5,20.3,18.4,40.7,27.9,60.3l6.6,13.8c-10.4-17-21.8-33-32.2-47.7l-1.2-1.7c-7.1-9.9-14.2-20-20.6-30.5a80.8,80.8,0,0,0,16.4-1.8m-38-80.3a19.3,19.3,0,0,1,2-6.9,10.1,10.1,0,0,1,4.4-4.5,15.4,15.4,0,0,1,7.7-1.7,15,15,0,0,1,7.3,1.5,10,10,0,0,1,3.9,3.7,13.4,13.4,0,0,1,1.7,5.1,43.2,43.2,0,0,1,.3,5h-8.6a16.1,16.1,0,0,0-1.1-6.8,4.2,4.2,0,0,0-4-2.2,4,4,0,0,0-2.7.9,5,5,0,0,0-1.7,2.7,37.5,37.5,0,0,0-.8,5c-.1,2.1-.2,4.6-.2,7.6s.1,5.7.3,7.7a17.9,17.9,0,0,0,1,4.5,4.1,4.1,0,0,0,1.8,2.2,4.8,4.8,0,0,0,2.4.6,5.2,5.2,0,0,0,2.1-.4,4,4,0,0,0,1.7-1.5,8,8,0,0,0,1.1-3.1,25.4,25.4,0,0,0,.5-5.4h8.6a31.3,31.3,0,0,1-.6,6.3,12.5,12.5,0,0,1-2,5.3,9.1,9.1,0,0,1-4.1,3.6,17,17,0,0,1-6.9,1.3,16.6,16.6,0,0,1-7.7-1.6,10.4,10.4,0,0,1-4.4-4.4,19.3,19.3,0,0,1-2-6.9,97,97,0,0,1,0-17.6m-31.2,60.6a71.6,71.6,0,0,0,15,11.4,180,180,0,0,0,16.3,14.2c-9.9-3.6-22.2-7.8-37.9-13s-24.2-12.1-28.8-21.3-3.9-18.4.3-30a178.4,178.4,0,0,1,9.4-20.3c2.6-5.3,5.4-10.7,7.7-16.2a72.2,72.2,0,0,0,18,75.2m247.9-138.6-7.5-5.4-40.9-29.5c-9.4-6.6-18.7-13.3-28-20L483,2786c-12.1-8.9-24.6-18.1-40.3-18.9-12.4-.5-25,6.4-36,12.5l-6.8,3.7c-19.9,10.3-40.8,22-58.3,37.3-10.7,9.3-24.9,23.7-24.9,41.6a36.5,36.5,0,0,0,3.3,14.1l-3,2.8c-1-2.1-2.2-4.1-3.3-6-2.6-4.5-5.1-8.8-5.7-14.2-2.4-20.2,16-37.2,30.1-48.2,17.4-13.6,37-24.7,55.9-35.4l5.3-3.1c11.9-6.8,22.2-12.6,34.7-12.6a40.4,40.4,0,0,1,11.7,1.7c14.5,4.1,26.8,13.6,38.7,22.6l7.8,6c21.3,15.7,44.4,29.5,66.7,42.8,7.4,4.4,14.9,8.9,22.3,13.5l6.3,3.8,14.9,9.1H584.2c-6.6-5-13.2-9.7-19.7-14.4m8.5,14.4v9.4c-17.2-15.9-36.8-32-61.4-50.6l-7.8-5.9c-13.8-10.7-28.1-21.8-44-27.4a40.9,40.9,0,0,0-14.3-2.4c-26.1,0-56.8,19.8-75.1,31.7-28.9,18.6-43.4,38-43.1,56.9a62.2,62.2,0,0,0-5.8,4.3,30.9,30.9,0,0,1-2.9-12.9c-.1-17.1,13.8-31.2,24.2-40.3,17.3-15.1,38.1-26.7,57.9-37l6.9-3.8c10.4-5.7,22.2-12.2,33.6-12.2h1.4c15.1.7,27.4,9.8,39.3,18.6l5.2,3.8,27.9,20c13.4,9.6,27.3,19.5,40.9,29.4l7.5,5.4c5.9,4.2,11.8,8.6,17.8,13ZM406.7,3025c1.1,2.3,2.1,4.7,3.3,7.3,10.9,24.9,27.4,62.5,58,63.8h2c31.1,0,58.3-30.8,78.5-57.7,8.2-10.8,17.5-24.4,24.5-39.5v4.8h18.4c-9.9,17.1-23,33-34.1,46.5l-3.5,4.2c-2.4,2.9-5.2,6.5-8.1,10.3-18.7,24.1-47.1,60.5-75.9,60.5a30.8,30.8,0,0,1-6.1-.6c-14.6-2.7-21.8-16.7-27.7-27.9-9.5-18.4-17.4-38.1-25-57.1l-2.5-6.3c-3.7-9.2-7.3-18.8-10.8-28,3,6.5,6.1,13.1,9,19.7m-32.3-181c16.7-13.7,39.9-21.8,62.2-21.8a74.6,74.6,0,0,1,9.5.5c29.8,3.2,55.4,21.4,75.2,38.3a93.9,93.9,0,0,0-19.4-1.9H464a84.4,84.4,0,0,0-25.9-4.6,63.2,63.2,0,0,0-33,9l-3,2a74.8,74.8,0,0,0-32.8-7.5c-2.5,0-5.1.2-7.6.4a54.2,54.2,0,0,1,12.7-14.4m-35.1,20.2a5.6,5.6,0,0,1,.4-1.2c3.8-9.8,11.7-19.3,24.1-29,15.3-12,45.6-32,77.3-32,2.5,0,4.9.1,7.3.3,34,3.6,65,32,89.9,54.7l5,4.6,3.2,2.9c8.3,7.6,17.7,16.1,26.5,25.3V2904a66.4,66.4,0,0,0-16.6-25.2,69.9,69.9,0,0,0-23.9-14.6c-2.4-.9-4.9-1.6-7.4-2.3-20.3-17.7-47.2-37.6-78.8-41a77.8,77.8,0,0,0-9.7-.5c-22.7,0-46.4,8.3-63.4,22.2a53.8,53.8,0,0,0-13.8,16.1,75.7,75.7,0,0,0-20.1,5.5m233.7,23c-8.5-8.8-17.3-16.8-25.3-24l-3.2-2.9-5-4.6c-25.1-22.9-56.3-51.5-90.9-55.2l-7.5-.3c-32.2,0-63,20.3-78.5,32.4-12.6,9.9-20.6,19.6-24.6,29.8-.4.9-.7,1.9-1,2.8a87.8,87.8,0,0,0-7.9,4.4c.4-22,21.8-41,42.3-54.2,18.2-11.8,48.5-31.4,74.1-31.4a40.2,40.2,0,0,1,13.7,2.3c15.6,5.5,29.8,16.5,43.5,27.1l7.8,5.9c25.1,19,45,35.4,62.5,51.6Zm-163.5,106c24.3,45.7,49.5,52.7,62.6,52.7s25.2-5.9,37.6-17.5a107.9,107.9,0,0,0,22.5-29.8h.3a69.9,69.9,0,0,0,23.9-14.6,66.4,66.4,0,0,0,16.6-25.2v35.6c-7,16.6-17.2,31.4-26,43.1-20.3,27-47.8,58.3-78.9,56.9-29.4-1.3-45.7-38.2-56.5-62.7l-3.2-7.3c-3.4-7.6-6.9-15.1-10.4-22.7a20,20,0,0,0-1-2.1,73.2,73.2,0,0,0,12.5-6.3m29.1-134.1v45.1a73.6,73.6,0,0,0-34.6-37.8l2-1.3a60.8,60.8,0,0,1,32.1-8.8,78.3,78.3,0,0,1,19.6,2.8Zm101.4,76h-4.4v17.3h-8.8v-41.6h15.9c3.6,0,6.4.7,8.4,2.5s3,4.4,3,8.1a13.1,13.1,0,0,1-1.8,6.9,9.2,9.2,0,0,1-5.5,3.4h0a7.7,7.7,0,0,1,4.8,2,8.6,8.6,0,0,1,1.9,5.2,18.1,18.1,0,0,1,.2,2.5c.1.9.1,2,.2,3.1a34.9,34.9,0,0,0,.2,5.1,2.9,2.9,0,0,0,1.4,2.4v.3h-9.1a5.6,5.6,0,0,1-.8-2,17.9,17.9,0,0,1-.2-2.4l-.3-8a6.8,6.8,0,0,0-1.2-3.7c-.8-.9-2.1-1.2-3.9-1.2m-43.6,7.6a5.7,5.7,0,0,0,.8,2.3,4.3,4.3,0,0,0,1.5,1.5,4.9,4.9,0,0,0,2.5.6,4.4,4.4,0,0,0,2.5-.6,3.9,3.9,0,0,0,1.6-1.5,7.9,7.9,0,0,0,.9-2.3,25.4,25.4,0,0,0,.4-2.9v-29h7.9v29a17.8,17.8,0,0,1-.9,6.6,11.9,11.9,0,0,1-3,4.2,10,10,0,0,1-4.3,2,21.5,21.5,0,0,1-5.1.5,28.5,28.5,0,0,1-5.1-.4,10.5,10.5,0,0,1-4.3-1.9,11.1,11.1,0,0,1-3.2-4.1,19,19,0,0,1-1.2-6.9v-29h8.8v29a26.4,26.4,0,0,0,.2,2.9m-44.9-25.6v-6.3h27.1v6.3h-8.8v35.3h-8.7v-35.3Zm-1.8,28.2v7.1H425.8v-41.6h8v34.5Zm-27.6,38a74.9,74.9,0,0,0,16.5-24.7v45h63.3a89.4,89.4,0,0,0,27.8-4.2,105.9,105.9,0,0,1-21.3,27.7c-12,11.3-24.2,17-36.3,17-28.9,0-50.8-32.8-61.1-51.9a84.9,84.9,0,0,0,11.1-8.9m-35.7-72.5h8.8v29a28,28,0,0,0,0,2.9,5.6,5.6,0,0,0,.7,2.3,4.3,4.3,0,0,0,1.5,1.5,4.9,4.9,0,0,0,2.5.6,4.6,4.6,0,0,0,2.5-.6,4.3,4.3,0,0,0,1.5-1.5,5.6,5.6,0,0,0,.7-2.3,27.1,27.1,0,0,0,.1-2.9v-29h8.8v29a17.5,17.5,0,0,1-1.1,6.6,12.1,12.1,0,0,1-3.1,4.2,10,10,0,0,1-4.3,2,22.1,22.1,0,0,1-5.1.5,27.8,27.8,0,0,1-5.1-.4,10.9,10.9,0,0,1-4.4-1.9,10.7,10.7,0,0,1-3-4.1,19.4,19.4,0,0,1-1-6.9Zm202.2,16.5v7H574.3v11h15.9v7.1H565.5v-41.6h23.9v6.3H574.3v10.2Zm-287-61.7c-2.4-10.4-4.6-20.1.6-30.8,9.4-19.4,31.3-33.5,48.8-44.7l11.6-7.6c14.9-9.8,30.3-20,45.9-26.6a43.3,43.3,0,0,1,17.3-3.6c11.6,0,23.9,4.4,37.7,13.3,8.7,5.7,17,12.1,24.9,18.3,10.2,7.9,20.7,16.1,32.3,22.8,17,9.8,35.1,18.7,52.6,27.2s33.2,16.2,49,25.2H605.7c-5.8-3.7-11.6-7.2-17.2-10.6l-6.3-3.9-22.3-13.4c-22.3-13.3-45.4-27.1-66.6-42.7l-7.8-6c-12-9.2-24.4-18.7-39.3-22.9a40.5,40.5,0,0,0-12.2-1.8c-13,0-24,6.2-35.6,12.9l-5.3,3c-19,10.8-38.6,22-56.1,35.6-14.4,11.3-33.3,28.7-30.8,49.8.7,5.8,3.3,10.4,5.9,14.9a67.1,67.1,0,0,1,3.5,6.5,74.4,74.4,0,0,0-15,22.2,64.5,64.5,0,0,0,3.3-13.1c1.3-8.5-.5-16.4-2.3-24m186.3,271.9c-7,6-13.8,11.4-20.5,11.4-4.1,0-7.8-1.9-11.4-5.9a76.8,76.8,0,0,1-10.4-14.4l-2.8-6.9c-1.6-4.1-3.2-8.1-4.6-10.9s-4.1-7.8-6.3-11.6-3.7-8.8-5.6-12.8l-7.9-16.2c-9.5-19.7-19.3-40-27.8-60.3l-3-7.3,6.4-1.9a13.4,13.4,0,0,0,.7,1.8c3.9,10.3,8,21.1,12.1,31.5l2.5,6.2c7.6,19.1,15.5,38.8,25.1,57.3,5.7,11,13.5,26,28.9,28.9a34.9,34.9,0,0,0,6.5.6c29.7,0,58.4-36.9,77.4-61.2,2.9-3.8,5.6-7.4,8.1-10.3l3.4-4.2c11.3-13.7,24.8-30.1,34.8-47.6H610c-13.7,22-33.1,42-50.9,60.4l-12.2,12.7-15,16.3c-13.9,15.2-28.3,31-44,44.4m111.5-99.2-1.5,1-4.3,2.8,2.8-2.5c12.5-11.1,25.8-22.8,36.1-35.9h10.3v-15.8c6.7-12.8,9.9-27,6.8-43a91.4,91.4,0,0,0-6.8-21.1v-33.7a108.3,108.3,0,0,1,10.4,12.2c8.8,12.1,13.5,28,17.1,41.9s5.6,26-1.4,38c-11.7,20.1-35.3,34.8-56.2,47.7-4.7,2.9-9.1,5.6-13.3,8.4M287.1,2855.8c-.7-25,9.6-38.4,28.8-54.5,15.4-12.9,33-23.5,50-33.6l13.9-8.4c14.5-8.9,27.7-16.3,42.8-16.3a50.2,50.2,0,0,1,16.4,2.9c18.2,6.3,32.6,19.1,46.6,31.4,5.5,4.9,11.2,9.9,17.1,14.4,21.2,16.6,47.6,26.2,73.2,35.5,6.2,2.3,12.7,4.6,18.8,7l13.2,4.9c26.2,9.6,58.9,21.6,75.5,43.3,9.1,11.9,16.1,27.9,22.4,42.1l.5,1.2c8.2,18.6,11.4,34.7,9.5,47.9-3.4,24.5-39.9,35.4-64.1,42.7l-10.4,3.2-1.4.4c15.7-7.7,30.6-16.4,42.9-27.6,14.2-12.9,14.6-26.5,10.9-42.9-2.6-11.3-7.4-22.1-12.1-32.6-1-2.1-1.9-4.2-2.8-6.3-8.2-18.6-21.5-31-36-40.9v-10.5H626c-16.7-9.6-34.6-18.4-51.8-26.8s-35.6-17.3-52.6-27.2c-11.4-6.6-21.9-14.8-32-22.6-8-6.3-16.3-12.7-25.1-18.4-14.1-9.1-26.8-13.6-38.7-13.6a45,45,0,0,0-18,3.7c-15.8,6.7-31.3,16.9-46.2,26.8l-11.6,7.6c-17.7,11.4-39.8,25.5-49.5,45.4-5.4,11.2-3,21.8-.7,32,1.7,7.4,3.5,15.2,2.3,23.3-1.8,12.3-7.4,23.4-12.9,34.2a209.5,209.5,0,0,0-9.4,20.4c-4.4,12.2-4.5,22.7-.2,31.5s14.8,17.1,29.8,22.2c13.3,4.4,24.1,8.1,33.1,11.3l-13-1.9-12.2-1.8c-19.3-2.8-39.3-5.7-57.8-12.1-8.8-3-22-7.6-23.9-18.2-2.5-13.6,11.3-30.7,22.3-44.4,3.7-4.6,7.2-8.9,9.5-12.5,14.2-21.8,20.3-40.9,19.7-62.2m442,56.2c-6.1-13.8-15.3-29.3-25.7-43.8-17.9-24.7-54.6-35.5-84.1-44.1l-10.6-3.2c-7.2-2.1-14.7-4.2-21.9-6.1-27.7-7.6-56.3-15.4-78.5-33.7-5.6-4.6-11.1-9.6-16.5-14.5-16.1-14.7-32.7-29.8-53.9-37a57.5,57.5,0,0,0-18.8-3.1c-16.8,0-32.2,7.1-50.1,17.7-21.5,12.8-44.4,26.9-65,44.6s-34.7,34.2-39.3,60.3-10.8,47.7-27.4,70.4c-3.1,4.2-7.8,9.3-12.8,14.7-15,16.2-33.6,36.4-30.5,54.1,2.9,16.1,25.3,19.8,38.7,22l1.5.2c25.3,4.3,51.6,4.3,77,4.4h9.7c5.7,0,12.2-.2,19.1-.5l14.3-.5,2.6,2,5.8,4.5,3.3,2.6c10.4,8,20.8,16.2,30.7,25,11.4,16,23.3,33.5,33.6,52,.4.8.7,1.7,1.1,2.6,3.9,9.1,7.8,18.4,12.6,26.8,5.8,13.7,13.6,28.7,26,28.7l2.4-.2c8-1.2,13.2-7.7,18.2-14.1,1-1.2,1.9-2.4,2.9-3.5,11.4-13.6,20.4-23.8,29.2-32.9,17.2-17.8,36.1-34.5,54.4-50.7l7-6.2,14.8-9.7h0l3.3-.7,22.9-4.8c13.9-2.8,28.3-5.8,42.3-9.3l5.2-1.3c27.9-6.8,66.1-16.2,69.2-49.7,2.1-23.8-5.7-47.3-12.7-62.9"/></g></svg>