<svg xmlns="http://www.w3.org/2000/svg" viewBox="0 0 383.1 454.3"><defs><style>.cls-1{fill:#fff;}</style></defs><title>Data pitch logo white portrait</title><g id="Layer_2" data-name="Layer 2"><g id="Layer_1-2" data-name="Layer 1"><polygon class="cls-1" points="179.7 425.4 179.7 425.4 195.8 425.4 195.8 425.4 195.9 425.4 195.9 409.1 179.7 409.1 179.7 425.4"/><path class="cls-1" d="M48.6,374.7a.7.7,0,0,0-.5-.4H42.9a.5.5,0,0,0-.5.4v22.1a.3.3,0,0,0-.1.2.5.5,0,0,1-.7.1A24,24,0,0,0,25,389.6a22.1,22.1,0,0,0-17.5,7.2A24.2,24.2,0,0,0,.2,417.1a23.3,23.3,0,0,0,5,12.6,23.3,23.3,0,0,0,18.4,9.4A23.3,23.3,0,0,0,41.3,432a22.8,22.8,0,0,0,7.3-17.6ZM36.9,427.5a16.7,16.7,0,0,1-13.2,5.4,16.4,16.4,0,0,1-12.3-5.8,17.7,17.7,0,0,1-5-13.1,17.2,17.2,0,0,1,5.4-12.8,16.6,16.6,0,0,1,12.8-5.3,16.2,16.2,0,0,1,12.3,5.3,18.7,18.7,0,0,1,5.3,12.7A18.1,18.1,0,0,1,36.9,427.5Z"/><path class="cls-1" d="M76.9,389.4a22.6,22.6,0,0,0-17.6,7A24.3,24.3,0,0,0,52,416.5a24.6,24.6,0,0,0,23.4,22.3,22.8,22.8,0,0,0,18-7.5c.4-.3.9-.1.9.3v5.7a.5.5,0,0,0,.5.4h5.1a.7.7,0,0,0,.5-.4V414.1A22.7,22.7,0,0,0,93.8,397,23.4,23.4,0,0,0,76.9,389.4Zm11.8,37.8a16.7,16.7,0,0,1-13.2,5.4,16.5,16.5,0,0,1-12.3-5.9,17.9,17.9,0,0,1-4.9-13,17.4,17.4,0,0,1,5.4-12.9,17.5,17.5,0,0,1,25.1,0,19,19,0,0,1,5.3,12.8A18.6,18.6,0,0,1,88.7,427.2Z"/><path class="cls-1" d="M122.1,433.5c-6.9-.1-10.4-3.6-10.4-10.5V396.8c0-.2.3-.4.5-.4h9.9a.5.5,0,0,0,.5-.5V391a.5.5,0,0,0-.5-.5h-9.9a.5.5,0,0,1-.5-.5V374.5c0-.2-.2-.5-.4-.5h-5.4a.5.5,0,0,0-.5.5v49.6c0,9.6,5.5,14.5,16.7,14.6a.5.5,0,0,0,.5-.5V434A.5.5,0,0,0,122.1,433.5Z"/><path class="cls-1" d="M146.4,389.4a22.7,22.7,0,0,0-17.6,7,24.4,24.4,0,0,0-7.3,20.1,22.5,22.5,0,0,0,5.1,12.8c4.9,6.1,11,9.2,18.3,9.5a23.5,23.5,0,0,0,18.1-7.5h.2a.6.6,0,0,1,.6.4v5.7a.5.5,0,0,0,.5.4h5.1a.7.7,0,0,0,.5-.4V414.1a22.7,22.7,0,0,0-6.6-17.1A23.4,23.4,0,0,0,146.4,389.4Zm11.9,37.8a16.8,16.8,0,0,1-13.3,5.4,16.5,16.5,0,0,1-12.3-5.9,17.9,17.9,0,0,1-4.9-13,17.4,17.4,0,0,1,5.4-12.9,17,17,0,0,1,12.8-5.3,16.6,16.6,0,0,1,12.3,5.3,18.5,18.5,0,0,1,5.3,12.8A18.9,18.9,0,0,1,158.3,427.2Z"/><path class="cls-1" d="M246.4,396.3a24.4,24.4,0,0,0-41,17.8v40.2h6.1V430.5a23.9,23.9,0,0,0,17.5,8.4,23.1,23.1,0,0,0,17.5-7,25.2,25.2,0,0,0,7.4-17.8,24.1,24.1,0,0,0-6.9-17.2Zm-4.2,31.1a17.3,17.3,0,0,1-12.8,5.3,16,16,0,0,1-12.4-5.3,18.9,18.9,0,0,1,0-26.3,15.9,15.9,0,0,1,13.3-5.4h0a17.2,17.2,0,0,1,12.4,5.9A18.8,18.8,0,0,1,242.2,427.4Z"/><rect class="cls-1" x="258.4" y="373.9" width="6.2" height="11"/><rect class="cls-1" x="258.4" y="390.6" width="6.2" height="47.1"/><path class="cls-1" d="M276.3,374h-6.4v50.1c0,9.7,5.7,14.6,17.2,14.6v-5.2q-10.8,0-10.8-10.5V396.4h10.8v-5.9H276.3Z"/><path class="cls-1" d="M316.3,432.7a18.4,18.4,0,0,1-12.9-32,18.6,18.6,0,0,1,13.1-5.3c7.3.2,12.6,3.4,16.2,9.4h7.1l-.9-2.1c-1.7-3.9-4.7-7-8.8-9.6a26.3,26.3,0,0,0-13.9-3.9,25.5,25.5,0,0,0-17.9,7.6,22.4,22.4,0,0,0-7.3,17.5,22.7,22.7,0,0,0,7.5,17.3,25.2,25.2,0,0,0,17.7,7.2c10.4.1,18.1-4.4,23-13.6l.7-1.4h-7.1C329.1,429.6,323.7,432.6,316.3,432.7Z"/><path class="cls-1" d="M376.7,395.6a19.8,19.8,0,0,0-15-5.8,17.7,17.7,0,0,0-13.9,7.5V373.9h-6.3v63.8H348V409.8a12.7,12.7,0,0,1,4.1-10,14.5,14.5,0,0,1,10.1-4,13.7,13.7,0,0,1,10.2,4.2,14.3,14.3,0,0,1,4.4,10.3v27.4h6.3V410.9A21.3,21.3,0,0,0,376.7,395.6Z"/><path class="cls-1" d="M359.1,94.4c-1.8-2.2-3.7-4.4-5.6-6.4-18.2-19.2-40.7-29.3-66.9-30-21.7-.8-41.3,5.2-58.5,17.9a107.8,107.8,0,0,0-32.4,38.3V0H161.8V83.1c-17-15.4-37.4-23.6-60.9-24.5H97.7c-25.1-.1-47.1,8.9-65.6,26.9-.6.6-1.2,1.1-1.8,1.8C10.7,106.9.7,130.8.7,158.4c0,24.8,8,46.7,23.9,65l3.4,3.8c18.2,19.2,40.8,29.3,67.2,29.9H99c25.3,0,48-9.5,67.5-28.3l4.3-4.6h.1a100.9,100.9,0,0,0,15.2-21.9V315.1h33.6V232l1,.8a93.5,93.5,0,0,0,60.2,23.7c27.1,1,50.9-8.5,70.7-28.3a116.4,116.4,0,0,0,12.9-15.9c11.1-16.4,16.6-35,16.6-55.5C381.1,133.3,373.7,112.3,359.1,94.4ZM146.4,199.8c-1.2,1.5-2.6,3-4,4.5-12.3,13.2-26.9,19.4-44.7,19H95.9c-17.2-.6-31.4-7.2-43.4-20.4-1.2-1.3-2.3-2.6-3.4-4h0a64.7,64.7,0,0,1-14.2-42.2c.3-18.1,6.6-32.9,19-45.4l2-1.9c11.9-11,26-16.7,41.8-16.7h1.5c15.8,0,29.1,5.1,40.4,15.8l2.8,2.7c12.3,13,18.5,27.7,18.8,45.2S156.9,187.1,146.4,199.8Zm193.4-12.2a72.3,72.3,0,0,1-12.2,16.3c-12.6,12.6-27.3,18.7-44.9,18.7-14.9,0-27.4-4.5-38.2-13.5a65.1,65.1,0,0,1-5.4-5.1c-12.3-12.9-18.5-27.7-18.8-45.1s5.9-34.3,18.8-48.1a59.5,59.5,0,0,1,13.2-10.7,56.1,56.1,0,0,1,30.2-8.3h3.4c17,.6,31.2,7.4,43.4,20.7,1.9,2.1,3.6,4.3,5.2,6.4h0c8.6,11.7,12.6,24.7,12.4,39.6A66.4,66.4,0,0,1,339.8,187.6Z"/></g></g></svg>