<svg xmlns="http://www.w3.org/2000/svg" viewBox="0 0 654 192.3"><defs><style>.cls-1{fill:#fff;}</style></defs><title>datapitch</title><g id="Layer_2" data-name="Layer 2"><g id="Layer_1-2" data-name="Layer 1"><rect class="cls-1" x="306.3" y="60.9" width="27.7" height="27.74"/><polygon class="cls-1" points="306.3 60.9 306.3 88.6 334 88.6 306.3 60.9"/><path class="cls-1" d="M40.3,100.6c8.9.4,16.3-2.6,22.6-9.2a30.9,30.9,0,0,0,9-23.2,30.9,30.9,0,0,0-9-21.7,27.8,27.8,0,0,0-21.1-9.1,29.5,29.5,0,0,0-21.9,9.1c-6.1,6-9,13.3-9.2,21.9a31.5,31.5,0,0,0,8.5,22.3,28.6,28.6,0,0,0,21.1,9.9M82.8,69.1c.3,11.6-3.8,21.6-12.4,30.1s-18.7,12.4-30.3,12S16.9,105.5,8.7,95.1A40.7,40.7,0,0,1,.2,73.7C-1,60.1,3.2,48.4,12.6,39S30.9,26.4,42.5,26.8A39.9,39.9,0,0,1,70.8,39.5a.8.8,0,0,0,1.4-.5V1.4A.8.8,0,0,1,73,.6h9a.8.8,0,0,1,.8.8Z"/><path class="cls-1" d="M99.3,67.8a31.6,31.6,0,0,0,8.3,22.3,29.9,29.9,0,0,0,21.1,10.1A28.2,28.2,0,0,0,151.3,91a32.3,32.3,0,0,0,.1-45.1,27.8,27.8,0,0,0-21-9,29.6,29.6,0,0,0-21.9,9,30.6,30.6,0,0,0-9.2,21.9m71.1,41.1h-8.8a.8.8,0,0,1-.8-.8V98.5a.9.9,0,0,0-1.5-.6c-8.5,9-18.7,13.3-30.7,12.9S105.5,105,97.3,94.6a40.1,40.1,0,0,1-8.7-21.9c-1.1-13.5,3.1-25,12.4-34.3a38.5,38.5,0,0,1,30.1-12,40.3,40.3,0,0,1,28.8,13,38.6,38.6,0,0,1,11.3,29.1v39.6a.9.9,0,0,1-.8.8"/><path class="cls-1" d="M209.1,109.8a.9.9,0,0,1-.9.8c-19-.2-28.5-8.6-28.5-25V1a.9.9,0,0,1,.8-.9h9.2a.9.9,0,0,1,.9.9V27.4a.8.8,0,0,0,.8.9h16.9a.8.8,0,0,1,.8.8v8.4a.9.9,0,0,1-.8.8H191.4a.8.8,0,0,0-.8.8V83.8c0,11.7,5.9,17.6,17.7,17.9a.9.9,0,0,1,.8.8Z"/><path class="cls-1" d="M218,67.8a30.7,30.7,0,0,0,8.3,22.3,29.9,29.9,0,0,0,21.1,10.1A28.2,28.2,0,0,0,270,91a31.7,31.7,0,0,0,9.1-23.3,31.1,31.1,0,0,0-9-21.8,27.9,27.9,0,0,0-21-9,29.3,29.3,0,0,0-21.9,9A30.2,30.2,0,0,0,218,67.8m71.1,41.1h-8.8a.9.9,0,0,1-.9-.8V98.5a.8.8,0,0,0-1.4-.6c-8.5,9-18.7,13.3-30.8,12.9s-23-5.8-31.3-16.2a40.8,40.8,0,0,1-8.6-21.9c-1.1-13.5,3.1-25,12.4-34.3a38.4,38.4,0,0,1,30.1-12,40.3,40.3,0,0,1,28.8,13,38.6,38.6,0,0,1,11.3,29.1v39.6a.9.9,0,0,1-.8.8"/><path class="cls-1" d="M392.9,37.2c-8.8-.5-16.3,2.5-22.7,9.1a31.8,31.8,0,0,0-9,23.2,31.1,31.1,0,0,0,9,21.8,28.4,28.4,0,0,0,21.2,9,29.9,29.9,0,0,0,21.8-9,31.8,31.8,0,0,0,.8-44.1c-5.8-6.4-12.7-9.8-21.1-10m-32,100H350.4V68.7a41.2,41.2,0,0,1,12.6-30c8.5-8.5,18.5-12.6,30.1-12.1s20.6,4.5,28.4,12.7a40.9,40.9,0,0,1,11.7,29.2,41.9,41.9,0,0,1-12.6,30.4c-8.3,8.3-18.3,12.4-29.9,12s-21.8-5.2-29.8-14.3Z"/><path class="cls-1" d="M451.4,108.9H440.8V28.4h10.6Zm0-90.1H440.8V0h10.6Z"/><path class="cls-1" d="M489.9,110.6c-19.7,0-29.4-8.3-29.4-25V.1h10.9V28.3h18.5v10H471.4V83.8c0,12,6.2,17.9,18.5,17.9Z"/><path class="cls-1" d="M578.9,87.6c-8.5,15.7-21.7,23.3-39.3,23.2a43.4,43.4,0,0,1-30.2-12.3,39.9,39.9,0,0,1-12.9-29.6A39.9,39.9,0,0,1,508.9,39a43.9,43.9,0,0,1,30.7-12.9,43.4,43.4,0,0,1,23.7,6.7c6.9,4.4,12,9.7,15,16.4l1.6,3.5H567.7c-6.1-10.3-15.3-15.7-27.7-16-8.3-.1-15.7,2.9-22.3,9.1s-10.3,14-10.3,22.7A30.5,30.5,0,0,0,517,91.1a30.9,30.9,0,0,0,22.7,9.2c12.6-.1,21.9-5.2,28.1-15.1H580Z"/><path class="cls-1" d="M653.7,108.9H643V62a24,24,0,0,0-7.5-17.5A23.6,23.6,0,0,0,618,37.3a24.3,24.3,0,0,0-17.2,6.9c-4.7,4.4-7,10-7,17v47.7H582.7V0h10.8V39.8c6.1-8,14-12.3,23.6-12.7A33,33,0,0,1,642.8,37a35,35,0,0,1,10.9,26.1Z"/><rect class="cls-1" x="0.4" y="163.1" width="4" height="28.68"/><path class="cls-1" d="M19.3,163.1h4L36,181.8a36,36,0,0,1,2.4,4.1h.1s-.3-2.5-.3-4.1V163.1h4.1v28.7h-4L25.5,173.2c-1-1.6-2.4-4.2-2.4-4.2H23s.3,2.6.3,4.2v18.6h-4Z"/><path class="cls-1" d="M57.1,163.1h4l12.8,18.7c1,1.5,2.4,4.1,2.4,4.1h0s-.3-2.5-.3-4.1V163.1h4.1v28.7h-4L63.3,173.2c-1-1.6-2.4-4.2-2.4-4.2h0s.2,2.6.2,4.2v18.6h-4Z"/><path class="cls-1" d="M107.7,188.6c5.9,0,10.6-4.9,10.6-11.3a10.6,10.6,0,1,0-21.2,0c0,6.4,4.8,11.3,10.6,11.3m0-26a14.5,14.5,0,0,1,14.7,14.7,14.7,14.7,0,1,1-29.4,0,14.5,14.5,0,0,1,14.7-14.7"/><path class="cls-1" d="M131.5,163.1h4.4l7.1,20.3c.5,1.5,1.1,3.9,1.1,3.9h.1a29.3,29.3,0,0,1,1.1-3.9l7.1-20.3h4.3l-10.6,28.7h-4Z"/><path class="cls-1" d="M175.6,167.1s-.7,2.6-1.2,4l-3.2,9.1h8.7l-3.2-9.1c-.5-1.4-1.1-4-1.1-4Zm5.4,16.5H170.2l-2.9,8.2h-4.1l10.3-28.7h4.2L188,191.8h-4.2Z"/><polygon class="cls-1" points="203.7 166.6 193.9 166.6 193.9 163.1 217.6 163.1 217.6 166.6 207.7 166.6 207.7 191.8 203.7 191.8 203.7 166.6"/><rect class="cls-1" x="228.7" y="163.1" width="4" height="28.68"/><path class="cls-1" d="M260.4,188.6c5.8,0,10.6-4.9,10.6-11.3a10.6,10.6,0,1,0-21.2,0c0,6.4,4.7,11.3,10.6,11.3m0-26a14.5,14.5,0,0,1,14.7,14.7,14.7,14.7,0,1,1-29.4,0,14.5,14.5,0,0,1,14.7-14.7"/><path class="cls-1" d="M288,163.1h4l12.8,18.7c1,1.5,2.4,4.1,2.4,4.1h0s-.3-2.5-.3-4.1V163.1H311v28.7h-4l-12.8-18.6c-1-1.6-2.4-4.2-2.4-4.2h-.1s.3,2.6.3,4.2v18.6h-4Z"/><path class="cls-1" d="M353.2,177.7c3.4,0,5.5-2.1,5.5-5.6s-2.1-5.5-5.5-5.5h-5.9v11.1Zm-9.9-14.6h10.5a9.1,9.1,0,0,1,0,18.1h-6.5v10.6h-4Z"/><path class="cls-1" d="M384.8,176.9c3.2,0,5.1-2,5.1-5.2a4.6,4.6,0,0,0-2.3-4.4,7.5,7.5,0,0,0-3.9-.7h-4.6v10.3ZM375,163.1h8.8a14.6,14.6,0,0,1,5.4.7c2.9,1.1,4.8,4,4.8,7.7s-2,6.8-5.1,7.8h0a5.6,5.6,0,0,1,.8,1.3l6.1,11.1h-4.5l-6.1-11.4h-6.1v11.4H375Z"/><path class="cls-1" d="M420.9,188.6c5.9,0,10.6-4.9,10.6-11.3a10.6,10.6,0,1,0-21.2,0c0,6.4,4.8,11.3,10.6,11.3m0-26a14.6,14.6,0,0,1,14.8,14.7,14.8,14.8,0,1,1-29.5,0,14.5,14.5,0,0,1,14.7-14.7"/><path class="cls-1" d="M461.3,162.6c6.8,0,10.4,3.5,10.4,3.5l-2,3a13.2,13.2,0,0,0-8.1-2.8c-6.7,0-10.8,4.9-10.8,11s4.5,11.3,10.6,11.3a11.8,11.8,0,0,0,8.1-3.6v-4.1h-4.7v-3.5h8.3v14.4h-3.5v-3h0a12.6,12.6,0,0,1-8.9,3.5c-7.7,0-14-6.1-14-14.9a14.4,14.4,0,0,1,14.6-14.8"/><path class="cls-1" d="M496.3,176.9a5.3,5.3,0,0,0,2.8-9.6,7.8,7.8,0,0,0-3.9-.7h-4.7v10.3Zm-9.8-13.8h8.8a13.9,13.9,0,0,1,5.3.7c3,1.1,4.9,4,4.9,7.7a7.9,7.9,0,0,1-5.2,7.8h0a7.7,7.7,0,0,1,.9,1.3l6.1,11.1h-4.6l-6-11.4h-6.2v11.4h-4Z"/><path class="cls-1" d="M528.4,167.1s-.6,2.6-1.1,4l-3.2,9.1h8.7l-3.2-9.1c-.5-1.4-1.1-4-1.1-4Zm5.4,16.5H523l-2.8,8.2H516l10.3-28.7h4.3l10.3,28.7h-4.2Z"/><path class="cls-1" d="M553.6,163.1h4.2l6.6,15.5c.7,1.6,1.4,3.9,1.4,3.9h.1l1.4-3.9,6.6-15.5h4.2l2.3,28.7h-3.9L575,173.7c-.1-1.7,0-4.2,0-4.2h-.1s-.8,2.6-1.5,4.2l-5.7,12.9h-3.6l-5.7-12.9c-.7-1.5-1.6-4.3-1.6-4.3h0s0,2.6-.1,4.3l-1.4,18.1h-4Z"/><path class="cls-1" d="M595.8,163.1h4.3l6.5,15.5c.7,1.6,1.5,3.9,1.5,3.9h0s.8-2.3,1.5-3.9l6.5-15.5h4.3l2.3,28.7h-4l-1.4-18.1c-.1-1.7-.1-4.2-.1-4.2h0s-.9,2.6-1.6,4.2l-5.7,12.9h-3.6l-5.7-12.9c-.6-1.5-1.5-4.3-1.5-4.3H599s0,2.6-.1,4.3l-1.4,18.1h-4Z"/><polygon class="cls-1" points="636.6 163.1 653.3 163.1 653.3 166.6 640.7 166.6 640.7 175.6 651 175.6 651 179.1 640.7 179.1 640.7 188.3 654 188.3 654 191.8 636.6 191.8 636.6 163.1"/></g></g></svg>