<svg xmlns="http://www.w3.org/2000/svg" viewBox="0 0 742.7 807.8"><defs><style>.cls-1{isolation:isolate;}.cls-2{fill:#fff;}.cls-3{mix-blend-mode:multiply;}.cls-4{fill:#cce1af;}.cls-5{fill:#f8bb26;}.cls-6{fill:#ff6700;}.cls-7{fill:#38ddf8;}.cls-8{fill:#00b6ff;}.cls-9{fill:#d50303;}.cls-10{fill:#b03197;}.cls-11{fill:#722ea5;}.cls-12{fill:#f6c49c;}.cls-13{fill:#c0e236;}.cls-14{fill:#0dbb37;}.cls-15{fill:#67ee67;}.cls-16{fill:#2254f3;}.cls-17{fill:#178cff;}.cls-18{fill:#e5007c;}.cls-19{fill:#ec6408;}</style></defs><title>Data Trusts</title><g class="cls-1"><g id="Layer_2" data-name="Layer 2"><g id="Layer_1-2" data-name="Layer 1"><path class="cls-2" d="M672.2,392.5c.4-7.2-60.2-334.8-60.2-334.8v-.5a15,15,0,0,1-.6-2.2l-.2-.4a.4.4,0,0,0-.1-.3,4.3,4.3,0,0,0-.1-.5h-.1c-.2-.9-.5-2-.8-2.9a6.9,6.9,0,0,1-.5-1.3l-.6-1.4c-.4-.9-.7-1.8-1.1-2.5l-.5-.9-1.1-1.9c-4.6-8.6-12.4-15.3-21-20.5C569.1,11.6,548,5.9,527.1,3.2q-7.8-1.4-15.6-2.1h-.1C503.6.4,495.7,0,487.8,0h-9.1c-4.4.1-8.9.4-13.3.8h-1.2a146.6,146.6,0,0,0-29.6,5l-4.3,1h-.2l-4,1.1-1.1.3-3.1.9-3.1,1-1.3.4A108.9,108.9,0,0,0,402,17.1l-3.2,1.6h0l-3.2,1.7h0l-3.2,1.8h0a63.6,63.6,0,0,0-16.9,14.4,45.3,45.3,0,0,0-5.2,8.4,44.8,44.8,0,0,0-1.9,4.4c0,.1-.1.2-.1.4a7.6,7.6,0,0,0-.4,1.1L303,387s-.4,6.9.5,10.7c.7,7.2,4.5,13.7,9.8,19.6,9.2,10.7,23.3,19.2,34.5,24.6a21.9,21.9,0,0,0,4.3,2.1c1.1,1.3,6.9,3.2,10.5,4.6l3.6,1.5c5.5,2.3,11,4.3,16.6,6.2l.8.2c60.8,20.2,133.3,22,194.9,4.8,20.9-5.1,41-12.5,57.9-23.1,14.1-7.6,26.8-17,32.5-28.7,2.9-5.1,3.3-16.2,3.3-16.2v-.8m-368.8,2.8c0-.2-.1-.4-.1-.6s.1.4.1.6Z"/><path class="cls-2" d="M517.7,613.1c15.7,46.7,88.7,168.5,88.7,168.5s73-121.8,88.7-168.5a32.5,32.5,0,0,0,2.9-13.3,29.6,29.6,0,0,0-.7-6.6c-5.7-25.8-44.2-45.8-90.9-45.8s-85.2,20-90.9,45.8a29.6,29.6,0,0,0-.7,6.6,32.5,32.5,0,0,0,2.9,13.3"/><polygon class="cls-2" points="382.7 807.8 219.5 714.5 382.7 621.2 545.9 714.5 382.7 807.8"/><polygon class="cls-2" points="382.7 621.2 219.5 527.9 382.7 434.5 545.9 527.9 382.7 621.2"/><polygon class="cls-2" points="219.5 527.9 382.7 621.2 382.7 807.8 219.5 714.5 219.5 527.9"/><polygon class="cls-2" points="545.9 527.9 382.7 621.2 382.7 807.8 545.9 714.5 545.9 527.9"/><polygon class="cls-2" points="191.6 436.6 88.6 436.6 37.1 487.5 37.1 617.4 88.6 668.3 191.6 668.3 243.1 617.4 243.1 487.5 191.6 436.6"/><polygon class="cls-2" points="243.1 100.8 0 440.7 243.1 579.7 486.1 440.7 243.1 100.8"/><path class="cls-2" d="M582.2,246.6c-88.6,0-160.4,41.1-160.4,91.8V525.3c0,50.7,71.8,91.8,160.4,91.8S742.7,576,742.7,525.3V338.4c0-50.7-71.8-91.8-160.5-91.8"/><g class="cls-3"><polygon class="cls-4" points="243.1 579.7 0 440.7 243.1 301.7 486.1 440.7 243.1 579.7"/><polygon class="cls-5" points="243.1 579.7 0 440.7 243.1 100.8 486.1 440.7 243.1 579.7"/><polygon class="cls-6" points="243.1 100.8 243.1 579.7 0 440.7 243.1 100.8"/></g><g class="cls-3"><path class="cls-7" d="M742.7,338.4c0,28.3-22.5,53.7-57.9,70.5-27.8,13.2-63.6,21.2-102.6,21.2s-74.7-8-102.5-21.2c-35.4-16.8-57.9-42.2-57.9-70.5,0-50.7,71.8-91.8,160.4-91.8s160.5,41.1,160.5,91.8"/><path class="cls-8" d="M742.7,338.4V525.3c0,50.7-71.8,91.8-160.5,91.8S421.8,576,421.8,525.3V338.4c0,28.3,22.5,53.7,57.9,70.5,27.8,13.2,63.5,21.2,102.5,21.2s74.8-8,102.6-21.2c35.4-16.8,57.9-42.2,57.9-70.5"/></g><g class="cls-3"><polygon class="cls-9" points="88.6 539.3 37.1 487.5 88.6 436.6 191.6 436.6 243.1 487.5 191.6 539.3 88.6 539.3"/><polygon class="cls-10" points="191.6 539.3 88.6 539.3 88.6 668.3 191.6 668.3 243.1 617.3 243.1 487.5 191.6 539.3"/><polygon class="cls-11" points="37.1 487.5 88.6 539.3 88.6 668.3 37.1 617.3 37.1 487.5"/></g><g class="cls-3"><polygon class="cls-12" points="382.7 807.8 219.5 714.5 382.7 621.2 545.9 714.5 382.7 807.8"/><polygon class="cls-13" points="382.7 621.2 219.5 527.9 382.7 434.5 545.9 527.9 382.7 621.2"/><polygon class="cls-14" points="219.5 527.9 382.7 621.2 382.7 807.8 219.5 714.5 219.5 527.9"/><polygon class="cls-15" points="545.9 527.9 382.7 621.2 382.7 807.8 545.9 714.5 545.9 527.9"/></g><g class="cls-3"><path class="cls-16" d="M517.7,613.1c15.7,46.7,88.7,168.5,88.7,168.5s73-121.8,88.7-168.5a32.5,32.5,0,0,0,2.9-13.3,29.6,29.6,0,0,0-.7-6.6c-5.7-25.8-44.2-45.8-90.9-45.8s-85.2,20-90.9,45.8a29.6,29.6,0,0,0-.7,6.6,32.5,32.5,0,0,0,2.9,13.3"/></g><g class="cls-3"><path class="cls-17" d="M514.8,599.7c0-28.8,41-52.1,91.6-52.1S698,570.9,698,599.7s-41,52.2-91.6,52.2-91.6-23.3-91.6-52.2"/></g><g class="cls-3"><g class="cls-3"><path class="cls-18" d="M672.2,392.5c.4-7.2-60.2-334.8-60.2-334.8v-.5a15,15,0,0,1-.6-2.2l-.2-.4a.4.4,0,0,0-.1-.3,4.3,4.3,0,0,0-.1-.5h-.1c-.2-.9-.5-2-.8-2.9l-.5-1.2-.6-1.5c-.4-.9-.7-1.8-1.1-2.5l-.5-.9-1.1-1.9c-4.6-8.6-12.4-15.3-21-20.4C569.1,11.6,548,5.9,527.1,3.2A252.6,252.6,0,0,0,495.6.1H478.7l-6.3.3h-2l-5,.4h-1.2a146.6,146.6,0,0,0-29.6,5q-8.7,2.1-17.1,4.8A122.2,122.2,0,0,0,402,17.1c-8.6,4-17.3,9.4-23.8,16.4h0l-1.1,1.2A41.8,41.8,0,0,0,370.3,45a44.8,44.8,0,0,0-1.9,4.4c0,.1-.1.3-.1.4a7.6,7.6,0,0,0-.4,1.1L303,387s-.4,6.9.5,10.7c.7,7.2,4.5,13.8,9.8,19.6,9.2,10.7,23.3,19.2,34.5,24.6a21.9,21.9,0,0,0,4.3,2.1c1.1,1.3,6.9,3.2,10.5,4.6l3.6,1.6c5.5,2.2,11,4.2,16.6,6.1l.8.3c60.8,20.1,133.3,21.9,194.9,4.7,20.9-5.1,41-12.5,57.9-23.1,14.1-7.6,26.8-17,32.5-28.6,2.9-5.2,3.3-16.3,3.3-16.3v-.8m-368.8,2.8c0-.2-.1-.4-.1-.6s.1.4.1.6Z"/></g><g class="cls-3"><path class="cls-19" d="M397.5,103.4c-16.1-11.8-33.4-27.9-29.6-50,3.4-20,23.3-32.2,40.5-39.1,48-19.3,111.8-18.8,160-.1,17.4,6.8,37.4,19,41.1,39,4.1,22-13,38.7-29,50-48.9,34.7-132,33.5-183,.2"/></g></g></g></g></g></svg>