<svg xmlns="http://www.w3.org/2000/svg" xmlns:xlink="http://www.w3.org/1999/xlink" viewBox="0 0 556.2 603.9"><defs><style>.cls-1{fill:none;}.cls-2{isolation:isolate;}.cls-3{fill:#fff;}.cls-4{mix-blend-mode:multiply;}.cls-5{fill:#cce1af;}.cls-6{fill:#fbb92d;}.cls-7{fill:#ec6408;}.cls-8{fill:#67b9e8;}.cls-9{fill:#00ade9;}.cls-10{fill:#e1062c;}.cls-11{fill:#9c1a81;}.cls-12{fill:#622684;}.cls-13{fill:#f6c49c;}.cls-14{fill:#d3d92b;}.cls-15{fill:#11a63c;}.cls-16{fill:#88bf57;}.cls-17{fill:#2f52a0;}.cls-18{clip-path:url(#clip-path);}.cls-19{fill:#0074bc;}.cls-20{fill:#e5007d;}</style><clipPath id="clip-path"><rect class="cls-1" x="384.9" y="409.3" width="136.9" height="78.02"/></clipPath></defs><title>data trusts header image</title><g class="cls-2"><g id="Layer_2" data-name="Layer 2"><g id="Layer_1-2" data-name="Layer 1"><path class="cls-3" d="M502.5,293.4c.3-5.4-45-250.3-45-250.3v-.4c-.2-.6-.3-1.1-.5-1.6v-.3c-.1-.1-.1-.1-.1-.2a.6.6,0,0,1-.1-.4h-.1L456,38l-.4-1-.4-1a17.2,17.2,0,0,0-.9-1.9l-.3-.7-.8-1.4c-3.5-6.4-9.3-11.4-15.7-15.3-12-8-27.8-12.3-43.5-14.3A109.9,109.9,0,0,0,382.3.9h0A171.9,171.9,0,0,0,364.6,0h-6.7l-10,.7H347a105.9,105.9,0,0,0-22.1,3.6l-3.2.8h-.2l-2.9.8-.9.2-2.3.7-2.4.8-.9.3a68.3,68.3,0,0,0-11.6,4.6l-2.4,1.1h0l-2.4,1.2h0l-2.3,1.4h-.1a46.9,46.9,0,0,0-12.6,10.8,28.9,28.9,0,0,0-3.9,6.3,23.7,23.7,0,0,0-1.4,3.2c0,.1-.1.2-.1.3l-.3.8L226.5,289.3s-.3,5.2.4,8c.5,5.4,3.3,10.3,7.3,14.7,6.9,7.9,17.4,14.3,25.8,18.4a15.5,15.5,0,0,0,3.2,1.5c.8,1,5.2,2.4,7.8,3.5l2.8,1.1c4,1.7,8.2,3.2,12.3,4.6l.7.2c45.4,15,99.6,16.4,145.7,3.5,15.6-3.7,30.6-9.3,43.3-17.3,10.5-5.6,20-12.7,24.2-21.3,2.2-3.9,2.5-12.2,2.5-12.2v-.6m-275.7,2.1v0Z"/><path class="cls-3" d="M387,458.3c11.7,35,66.3,126,66.3,126s54.6-91,66.3-126a24.6,24.6,0,0,0,2.2-9.9,26.3,26.3,0,0,0-.5-4.9c-4.3-19.3-33.1-34.3-68-34.3s-63.7,15-67.9,34.3a19.9,19.9,0,0,0-.6,4.9,24.6,24.6,0,0,0,2.2,9.9"/><polygon class="cls-3" points="286.1 603.9 164.1 534.1 286.1 464.4 408.1 534.1 286.1 603.9"/><polygon class="cls-3" points="286.1 464.4 164.1 394.6 286.1 324.8 408.1 394.6 286.1 464.4"/><polygon class="cls-3" points="164.1 394.6 286.1 464.4 286.1 603.9 164.1 534.1 164.1 394.6"/><polygon class="cls-3" points="408.1 394.6 286.1 464.4 286.1 603.9 408.1 534.1 408.1 394.6"/><polygon class="cls-3" points="143.2 326.4 66.3 326.4 27.8 364.5 27.8 461.5 66.3 499.6 143.2 499.6 181.7 461.5 181.7 364.5 143.2 326.4"/><polygon class="cls-3" points="181.7 75.4 0 329.4 181.7 433.3 363.4 329.4 181.7 75.4"/><path class="cls-3" d="M435.3,184.4c-66.3,0-120,30.7-120,68.5V392.7c0,37.9,53.7,68.6,120,68.6s119.9-30.7,119.9-68.6V252.9c0-37.8-53.7-68.5-119.9-68.5"/><g class="cls-4"><polygon class="cls-5" points="181.7 433.3 0 329.4 181.7 225.6 363.4 329.4 181.7 433.3"/><polygon class="cls-6" points="181.7 433.3 0 329.4 181.7 75.4 363.4 329.4 181.7 433.3"/><polygon class="cls-7" points="181.7 75.4 181.7 433.3 0 329.4 181.7 75.4"/></g><g class="cls-4"><path class="cls-8" d="M555.2,252.9c0,21.2-16.8,40.2-43.3,52.8-20.8,9.9-47.5,15.8-76.6,15.8s-55.9-5.9-76.7-15.8c-26.4-12.6-43.3-31.6-43.3-52.8,0-37.8,53.7-68.5,120-68.5s119.9,30.7,119.9,68.5"/><path class="cls-9" d="M555.2,252.9V392.7c0,37.9-53.7,68.6-119.9,68.6s-120-30.7-120-68.6V252.9c0,21.2,16.9,40.2,43.3,52.8,20.8,9.9,47.5,15.8,76.7,15.8s55.8-5.9,76.6-15.8c26.5-12.6,43.3-31.6,43.3-52.8"/></g><g class="cls-4"><polygon class="cls-10" points="66.3 403.2 27.8 364.5 66.3 326.4 143.2 326.4 181.7 364.5 143.2 403.2 66.3 403.2"/><polygon class="cls-11" points="143.2 403.2 66.3 403.2 66.3 499.6 143.2 499.6 181.7 461.5 181.7 364.5 143.2 403.2"/><polygon class="cls-12" points="27.8 364.5 66.3 403.2 66.3 499.6 27.8 461.5 27.8 364.5"/></g><g class="cls-4"><polygon class="cls-13" points="286.1 603.9 164.1 534.1 286.1 464.4 408.1 534.1 286.1 603.9"/><polygon class="cls-14" points="286.1 464.4 164.1 394.6 286.1 324.8 408.1 394.6 286.1 464.4"/><polygon class="cls-15" points="164.1 394.6 286.1 464.4 286.1 603.9 164.1 534.1 164.1 394.6"/><polygon class="cls-16" points="408.1 394.6 286.1 464.4 286.1 603.9 408.1 534.1 408.1 394.6"/></g><g class="cls-4"><path class="cls-17" d="M387,458.3c11.7,35,66.3,126,66.3,126s54.6-91,66.3-126a24.6,24.6,0,0,0,2.2-9.9,26.3,26.3,0,0,0-.5-4.9c-4.3-19.3-33.1-34.3-68-34.3s-63.7,15-67.9,34.3a19.9,19.9,0,0,0-.6,4.9,24.6,24.6,0,0,0,2.2,9.9"/></g><g class="cls-4"><g class="cls-18"><g class="cls-18"><path class="cls-19" d="M384.9,448.3c0-21.5,30.6-39,68.4-39s68.5,17.5,68.5,39-30.7,39-68.5,39-68.4-17.4-68.4-39"/></g></g></g><g class="cls-4"><g class="cls-4"><path class="cls-20" d="M502.5,293.4c.3-5.4-45-250.2-45-250.2v-.5c-.2-.6-.3-1.1-.5-1.6v-.3c-.1,0-.1-.1-.1-.2a.6.6,0,0,1-.1-.4h-.1L456,38l-.4-1-.4-1a17.2,17.2,0,0,0-.9-1.9l-.3-.7-.8-1.4c-3.5-6.4-9.3-11.4-15.7-15.3-12-8-27.8-12.3-43.5-14.3A167,167,0,0,0,370.5.1H357.9l-4.7.3h-1.5l-3.8.3H347a112.9,112.9,0,0,0-22.1,3.6c-4.4,1.1-8.6,2.3-12.8,3.7a77.8,77.8,0,0,0-11.6,4.6c-6.4,3-12.9,7-17.8,12.2h0l-.8.8a30.9,30.9,0,0,0-5.1,7.8,23.7,23.7,0,0,0-1.4,3.2c0,.1-.1.2-.1.3l-.3.8L226.5,289.3s-.3,5.2.4,8c.5,5.4,3.3,10.3,7.3,14.7,6.9,7.9,17.4,14.3,25.8,18.4a15.5,15.5,0,0,0,3.2,1.5c.8,1,5.2,2.4,7.8,3.5l2.8,1.1c4,1.7,8.2,3.2,12.3,4.6l.7.2c45.4,15,99.6,16.4,145.7,3.5,15.6-3.7,30.6-9.3,43.3-17.2,10.5-5.7,20-12.8,24.2-21.4,2.2-3.9,2.5-12.2,2.5-12.2v-.6m-275.7,2.1v0Z"/></g><g class="cls-4"><path class="cls-7" d="M297.2,77.3c-12.1-8.8-25-20.9-22.2-37.4,2.6-14.9,17.5-24,30.3-29.2,35.9-14.4,83.6-14.1,119.6-.1,13,5.1,28,14.2,30.7,29.2S445.9,68.7,434,77.1c-36.6,26-98.7,25.1-136.8.2"/></g></g><path class="cls-3" d="M492.4,456.9a15.7,15.7,0,0,0,4.7,5.2,19.8,19.8,0,0,0,6.6,2.9,27.6,27.6,0,0,0,7.7,1,25.8,25.8,0,0,0,6-.7,17.7,17.7,0,0,0,5.7-2.1,13,13,0,0,0,4.3-3.8,10.4,10.4,0,0,0,1.7-6c0-4-2.7-7.1-8.1-9.1s-12.9-4.1-22.6-6.1c-3.9-.9-7.8-2-11.5-3.2a40.2,40.2,0,0,1-10-4.7,23.1,23.1,0,0,1-7.1-7.5,20.7,20.7,0,0,1-2.6-10.9c0-6.4,1.2-11.6,3.7-15.7a27.3,27.3,0,0,1,9.8-9.6,45.6,45.6,0,0,1,13.7-5,89.6,89.6,0,0,1,15.6-1.4,79.4,79.4,0,0,1,15.6,1.5,43,43,0,0,1,13.4,5.2,30,30,0,0,1,9.8,9.6,32.5,32.5,0,0,1,4.7,15.2H527.8c-.4-5.2-2.4-8.8-5.9-10.6a27.8,27.8,0,0,0-12.6-2.8l-5,.3a14.1,14.1,0,0,0-4.8,1.3,10.2,10.2,0,0,0-3.8,2.7,8.2,8.2,0,0,0,1.2,10.8,20.5,20.5,0,0,0,6.9,3.7,87.9,87.9,0,0,0,9.9,2.6c3.6.7,7.4,1.6,11.2,2.5a88.8,88.8,0,0,1,11.5,3.2,43.3,43.3,0,0,1,10.1,5,25.3,25.3,0,0,1,7,7.9,22.5,22.5,0,0,1,2.7,11.5c0,6.5-1.3,11.9-3.9,16.3a31.4,31.4,0,0,1-10.2,10.6,43.7,43.7,0,0,1-14.4,5.6,82.4,82.4,0,0,1-16.5,1.6,85.5,85.5,0,0,1-16.8-1.7,42.8,42.8,0,0,1-14.6-5.7,34.3,34.3,0,0,1-10.5-10.6c-2.7-4.4-4.2-9.9-4.4-16.5h25.7a14.9,14.9,0,0,0,1.8,7.5m-35.7-74V401H436.8v48.8c0,4.6.8,7.6,2.3,9.1s4.6,2.3,9.2,2.3a31.7,31.7,0,0,0,4.4-.2l4-.5v20.9a57,57,0,0,1-7.7.8l-8.2.2a76.6,76.6,0,0,1-11.9-.9,26.3,26.3,0,0,1-9.9-3.3,17.7,17.7,0,0,1-6.7-7.1c-1.7-3-2.5-7-2.5-12V401H393.4V382.9h16.4V353.3h27v29.6Zm-133.8,74a16.9,16.9,0,0,0,4.7,5.2,19.8,19.8,0,0,0,6.6,2.9,28,28,0,0,0,7.7,1,25.8,25.8,0,0,0,6-.7,17.7,17.7,0,0,0,5.7-2.1,11.3,11.3,0,0,0,4.3-3.8,9.7,9.7,0,0,0,1.7-6c0-4-2.7-7.1-8.1-9.1s-12.9-4.1-22.5-6.1c-4-.9-7.8-2-11.6-3.2a41.9,41.9,0,0,1-10-4.7,22.8,22.8,0,0,1-7-7.5,20.7,20.7,0,0,1-2.7-10.9c0-6.4,1.2-11.6,3.7-15.7a29,29,0,0,1,9.8-9.6,46.6,46.6,0,0,1,13.7-5,89.9,89.9,0,0,1,15.7-1.4,79.1,79.1,0,0,1,15.5,1.5,44.6,44.6,0,0,1,13.5,5.2,30.9,30.9,0,0,1,9.8,9.6c2.6,4,4.1,9.1,4.6,15.2H358.3c-.4-5.2-2.3-8.8-5.9-10.6a27.8,27.8,0,0,0-12.6-2.8l-4.9.3a15.4,15.4,0,0,0-4.9,1.3,9.1,9.1,0,0,0-3.7,2.7,7.4,7.4,0,0,0-1.5,4.9,7.3,7.3,0,0,0,2.6,5.9,20.1,20.1,0,0,0,7,3.7,80.6,80.6,0,0,0,9.8,2.6c3.7.7,7.4,1.6,11.2,2.5a90.3,90.3,0,0,1,11.6,3.2,42.5,42.5,0,0,1,10,5,24.1,24.1,0,0,1,7,7.9,22.5,22.5,0,0,1,2.7,11.5c0,6.5-1.3,11.9-3.9,16.3a31.4,31.4,0,0,1-10.2,10.6,43.7,43.7,0,0,1-14.4,5.6,82.4,82.4,0,0,1-16.5,1.6,85.5,85.5,0,0,1-16.8-1.7,42.3,42.3,0,0,1-14.5-5.7,32.2,32.2,0,0,1-10.5-10.6c-2.8-4.4-4.2-9.9-4.5-16.5h25.7a14.9,14.9,0,0,0,1.8,7.5m-69.1,24.5V467.7h-.5c-3.5,5.7-7.9,9.9-13.4,12.4a39.5,39.5,0,0,1-16.7,3.8c-7.3,0-13.2-.9-17.9-2.8a25.2,25.2,0,0,1-10.9-8.1,30.5,30.5,0,0,1-5.6-12.8,78,78,0,0,1-1.7-16.7V382.9h27.1v55.6c0,8.2,1.3,14.3,3.8,18.3s7.1,6,13.5,6,12.8-2.2,16.1-6.6,4.9-11.6,4.9-21.7V382.9h27.1v98.5ZM138.7,382.9v18.3h.4a34.9,34.9,0,0,1,5.1-8.5,36.7,36.7,0,0,1,7.5-6.7,42.9,42.9,0,0,1,8.9-4.3,33,33,0,0,1,9.9-1.5,19.8,19.8,0,0,1,6,1v25.1l-4.6-.6-5.2-.3a27.9,27.9,0,0,0-12.5,2.5,21.2,21.2,0,0,0-8.3,6.7,27.6,27.6,0,0,0-4.5,10A54.1,54.1,0,0,0,140,437v44.4H113V382.9ZM6.2,370.5V345.3H117.7v25.2H77V481.4H47V370.5Z"/><path class="cls-3" d="M454.1,214a58.6,58.6,0,0,1-.5,6.1,20.4,20.4,0,0,1-2.6,7.5,17.8,17.8,0,0,1-6.4,6.4c-3,1.8-7.1,2.6-12.4,2.6a32.2,32.2,0,0,1-6.3-.5,17.3,17.3,0,0,1-5.4-2,11.2,11.2,0,0,1-3.6-3.9,15.4,15.4,0,0,1,0-12.4,11.9,11.9,0,0,1,3.6-4.1,15.3,15.3,0,0,1,5.1-2.6l6-1.5,6.5-1a61.7,61.7,0,0,0,6.2-.9,44.1,44.1,0,0,0,5.5-1.5,11.1,11.1,0,0,0,4.3-2.3Zm-35.5-30.2q.8-8,5.4-11.4c3-2.3,7.2-3.4,12.6-3.4a35.8,35.8,0,0,1,6.7.5,14.3,14.3,0,0,1,5.6,1.9,10.5,10.5,0,0,1,3.8,4,14.8,14.8,0,0,1,1.4,6.9c.1,2.8-.7,4.9-2.5,6.4a17.2,17.2,0,0,1-7.2,3.3,71.4,71.4,0,0,1-10.5,1.8q-6,.4-12,1.5a100.2,100.2,0,0,0-12.1,2.6,33.7,33.7,0,0,0-10.7,4.8,24.7,24.7,0,0,0-7.6,8.7q-3,5.4-3,13.8a31.4,31.4,0,0,0,2.6,13.2,25.5,25.5,0,0,0,7.1,9.1,29.8,29.8,0,0,0,10.7,5.3,46.8,46.8,0,0,0,13.2,1.8,60.7,60.7,0,0,0,17.9-2.7,35.8,35.8,0,0,0,15.2-9.3c.2,1.6.4,3.2.7,4.8a35.9,35.9,0,0,0,1.2,4.7h27.5c-1.3-2-2.2-5.1-2.7-9.2a103.5,103.5,0,0,1-.7-12.7V178.9c0-6-1.4-10.8-4-14.4a27.6,27.6,0,0,0-10.3-8.5,47.8,47.8,0,0,0-13.9-4.1,111.5,111.5,0,0,0-15.1-1,81.2,81.2,0,0,0-16.3,1.6,47.9,47.9,0,0,0-14.6,5.4A33.3,33.3,0,0,0,396.3,168c-2.8,4.2-4.3,9.5-4.7,15.8Zm-38.8-30.3v18.1H359.9v48.8c0,4.6.8,7.7,2.3,9.2s4.6,2.3,9.2,2.3l4.4-.2a27.6,27.6,0,0,0,4-.6v21a57.9,57.9,0,0,1-7.7.7c-2.8.2-5.5.2-8.2.2a75.9,75.9,0,0,1-11.9-.8,28.3,28.3,0,0,1-9.9-3.4,17.6,17.6,0,0,1-6.8-7q-2.4-4.7-2.4-12V171.6H316.5V153.5h16.4V124h27v29.5ZM277.6,214a58.6,58.6,0,0,1-.5,6.1,20.4,20.4,0,0,1-2.6,7.5A17.4,17.4,0,0,1,268,234c-2.9,1.8-7,2.6-12.3,2.6a32.2,32.2,0,0,1-6.3-.5,17.3,17.3,0,0,1-5.4-2,11.2,11.2,0,0,1-3.6-3.9,13,13,0,0,1,3.5-16.5,16.9,16.9,0,0,1,5.2-2.6l6-1.5,6.5-1a61.7,61.7,0,0,0,6.2-.9,44.1,44.1,0,0,0,5.5-1.5,11.8,11.8,0,0,0,4.3-2.3Zm-35.5-30.2q.8-8,5.4-11.4c3-2.3,7.2-3.4,12.5-3.4a36.2,36.2,0,0,1,6.8.5,13.8,13.8,0,0,1,5.5,1.9,10,10,0,0,1,3.9,4,14.8,14.8,0,0,1,1.4,6.9c.1,2.8-.7,4.9-2.5,6.4a17.2,17.2,0,0,1-7.2,3.3,71.4,71.4,0,0,1-10.5,1.8q-6,.4-12,1.5a100.2,100.2,0,0,0-12.1,2.6,33.7,33.7,0,0,0-10.7,4.8,24.7,24.7,0,0,0-7.6,8.7q-3,5.4-3,13.8a31.4,31.4,0,0,0,2.6,13.2,25.5,25.5,0,0,0,7.1,9.1,29.8,29.8,0,0,0,10.7,5.3,46.8,46.8,0,0,0,13.2,1.8,60.7,60.7,0,0,0,17.9-2.7,35.8,35.8,0,0,0,15.2-9.3,39.7,39.7,0,0,0,.7,4.8,35.9,35.9,0,0,0,1.2,4.7h27.5c-1.3-2-2.2-5.1-2.7-9.2a103,103,0,0,1-.8-12.7V178.9c0-6-1.3-10.8-4-14.4a27.2,27.2,0,0,0-10.2-8.5,47.5,47.5,0,0,0-14-4.1,109,109,0,0,0-15-1,81.2,81.2,0,0,0-16.3,1.6,47.9,47.9,0,0,0-14.6,5.4A33.3,33.3,0,0,0,219.8,168c-2.8,4.2-4.4,9.5-4.7,15.8ZM136.5,116a69.6,69.6,0,0,1,24.5,4.2,52.5,52.5,0,0,1,19.6,12.6,55.9,55.9,0,0,1,13,20.9c3.1,8.4,4.7,18.3,4.7,29.6a95.5,95.5,0,0,1-3.8,27.4,60.8,60.8,0,0,1-11.6,21.8,52.1,52.1,0,0,1-19.2,14.3c-7.7,3.5-16.8,5.3-27.2,5.3H77.8V116Zm-2.1,110.9a38.7,38.7,0,0,0,12.6-2.1,28.1,28.1,0,0,0,10.9-6.9,36.7,36.7,0,0,0,7.6-12.7,56,56,0,0,0,2.9-19.1,82.2,82.2,0,0,0-2-18.6,39.6,39.6,0,0,0-6.6-14.2,29.9,29.9,0,0,0-12.1-9c-5.1-2.1-11.2-3.2-18.6-3.2H107.7v85.8Z"/></g></g></g></svg>