<svg xmlns="http://www.w3.org/2000/svg" viewBox="0 0 53.6 24.5"><defs><style>.cls-1{fill:#fff;fill-rule:evenodd;}</style></defs><title>Deutsche Bank logo</title><g id="Layer_2" data-name="Layer 2"><g id="Layer_1-2" data-name="Layer 1"><path class="cls-1" d="M20,0H33.6V13.6H20V0Zm1.9,1.9v9.8h9.8V1.9Z"/><polygon class="cls-1" points="23.1 10.3 28 3 30.6 3 25.6 10.3 23.1 10.3 23.1 10.3"/><path class="cls-1" d="M0,24.4V18.9H2.4a2,2,0,0,1,1.7.9,3.5,3.5,0,0,1,.5,1.8A2.9,2.9,0,0,1,4,23.5a1.9,1.9,0,0,1-1.6.9Zm1.2-4.5v3.5h1a1.4,1.4,0,0,0,1-.5,3.9,3.9,0,0,0,.2-1.3,3.6,3.6,0,0,0-.2-1.1,1.2,1.2,0,0,0-1-.6Zm6.7,3.2H9a1.6,1.6,0,0,1-.7,1.1,2.1,2.1,0,0,1-1.2.3,1.8,1.8,0,0,1-1.4-.6,2.5,2.5,0,0,1-.5-1.6,2.4,2.4,0,0,1,.5-1.4,1.8,1.8,0,0,1,1.4-.6,1.6,1.6,0,0,1,1.6.9,3.3,3.3,0,0,1,.3.6c0,.3.1.6.1.9H6.3a.8.8,0,0,0,.2.5.7.7,0,0,0,.6.4h.5c.2-.1.3-.2.3-.4ZM6.3,22H7.9c0-.2,0-.4-.2-.5a.9.9,0,0,0-.6-.3.9.9,0,0,0-.6.3.8.8,0,0,0-.2.5Zm3.4-1.6h1.1V23a.5.5,0,0,0,.2.4l.4.2a1.1,1.1,0,0,0,.6-.2.6.6,0,0,0,.2-.5V20.4h1.1v4H12.2v-.5a1.4,1.4,0,0,1-1.2.6,1.1,1.1,0,0,1-.8-.3.9.9,0,0,1-.5-.8v-3Zm5.7-1.2v1.2H16v.7h-.6v2.1a.3.3,0,0,0,.1.2H16v.9h-.8a.9.9,0,0,1-.6-.3c-.2-.2-.2-.3-.2-.6V21.1h-.6v-.7h.6v-.5l1-.7ZM16.5,23h1a.8.8,0,0,0,.2.5h1c.2-.1.3-.2.3-.4s-.2-.4-.7-.5l-1.1-.3c-.4-.2-.7-.5-.7-.8a1.1,1.1,0,0,1,.5-.9,1.6,1.6,0,0,1,1.2-.4,2.4,2.4,0,0,1,1.2.3,1.4,1.4,0,0,1,.5,1h-1c0-.1-.1-.3-.2-.3l-.5-.2h-.4c-.1.1-.2.2-.2.3s.2.3.6.4l1.2.3a1,1,0,0,1,.6.9,1.4,1.4,0,0,1-.5,1.1,2.4,2.4,0,0,1-1.2.3,2.2,2.2,0,0,1-1.3-.4,1.2,1.2,0,0,1-.5-1.1Zm6,1.5a1.8,1.8,0,0,1-1.4-.6,2.5,2.5,0,0,1-.5-1.6,2.4,2.4,0,0,1,.5-1.4,2,2,0,0,1,1.4-.6,2.1,2.1,0,0,1,1.3.5,1.2,1.2,0,0,1,.5,1h-1c0-.2-.1-.3-.3-.4l-.5-.2a.7.7,0,0,0-.6.3,1.9,1.9,0,0,0-.2.8,2,2,0,0,0,.2.9c.2.2.3.4.6.4l.5-.2c.2-.2.3-.3.3-.5h1a1.3,1.3,0,0,1-.5,1.1,2.1,2.1,0,0,1-1.3.5ZM25,18.9h1.1v1.9a1,1,0,0,1,.5-.4h.7a1.7,1.7,0,0,1,1,.3,1.2,1.2,0,0,1,.4.8v3H27.6V21.9a.8.8,0,0,0-.2-.5l-.4-.2-.6.2c-.2.2-.3.3-.3.5v2.5H25V18.9Zm7.1,4.2h1a1.4,1.4,0,0,1-.7,1.1,2,2,0,0,1-1.1.3,1.8,1.8,0,0,1-1.4-.6,2.1,2.1,0,0,1-.6-1.6,2,2,0,0,1,.6-1.4,1.7,1.7,0,0,1,1.4-.6,1.6,1.6,0,0,1,1.6.9,1.1,1.1,0,0,1,.2.6,2.8,2.8,0,0,1,.1.9H30.4a.5.5,0,0,0,.3.5.5.5,0,0,0,.6.4h.5l.3-.4ZM30.4,22h1.7a.5.5,0,0,0-.3-.5.5.5,0,0,0-.5-.3.7.7,0,0,0-.6.3.5.5,0,0,0-.3.5Zm5.4,2.4V18.9h2.9a1.3,1.3,0,0,1,1,.4,1.5,1.5,0,0,1,.4,1.1,2,2,0,0,1-.1.7l-.6.4a1.8,1.8,0,0,1,.7.5,1.2,1.2,0,0,1,.2.8,1.5,1.5,0,0,1-.4,1.1,1.4,1.4,0,0,1-1.1.5ZM37,19.9v1.2h1.3l.5-.2a.5.5,0,0,0,.2-.4c0-.2-.1-.3-.2-.5H37ZM37,22v1.4h1.4c.2,0,.4,0,.5-.2a.5.5,0,0,0,.3-.5c0-.2-.1-.3-.3-.5l-.5-.2Zm5.2-.4H41.1a1.1,1.1,0,0,1,.6-1,2,2,0,0,1,1.1-.3,2.6,2.6,0,0,1,1.4.3,1,1,0,0,1,.4.7v2.5a.7.7,0,0,0,.2.6H43.7c0-.1-.1-.1-.1-.2a.4.4,0,0,1-.1-.3.7.7,0,0,1-.5.4l-.8.2a1.2,1.2,0,0,1-.8-.4.9.9,0,0,1-.4-.8,1.6,1.6,0,0,1,.3-.9l.8-.4H43l.5-.3a.5.5,0,0,0-.2-.4h-.9a.5.5,0,0,0-.2.4ZM43.5,23v-.6l-.8.2c-.4.1-.6.3-.6.5s0,.3.1.4h1l.3-.5Zm2-2.6h1.1v.4l.5-.4h.6a1.2,1.2,0,0,1,.9.3,1,1,0,0,1,.5.8v3H48V21.8c0-.2,0-.3-.2-.4a.5.5,0,0,0-.4-.2h-.5l-.3.5v2.6H45.5v-4Zm4.4-1.5H51v2.9l1.2-1.4h1.3l-1.3,1.5,1.4,2.5H52.4l-.9-1.7-.5.5v1.2H49.9V18.9Z"/></g></g></svg>