<svg xmlns="http://www.w3.org/2000/svg" viewBox="0 0 3601 1536.8"><defs><style>.cls-1{fill:#1d1d1b;}.cls-2{fill:#fff;}</style></defs><title>end logo v2 landscape</title><g id="Layer_2" data-name="Layer 2"><g id="ODI"><path class="cls-1" d="M3601,12.6V1524.3H2895.7v-506c-96,312.4-375.1,505.2-742,505.2H1492.8V1022.4c-105.1,299.4-389.4,514.4-724.5,514.4C343.9,1536.8,0,1192.7,0,768.4S343.9,0,768.3,0c335.1,0,619.4,215,724.5,514.4V12.1h660.9c366.9,0,646,193,742,505.4V12.6Z"/><path class="cls-2" d="M2376.8,914.8h91.6V898.4h-69.7V869.6h65.7V853.3h-65.7V827h68.5V810.7h-90.4Zm-131.6,0h21V836.7h.3l62.3,78.1h24.7V810.7h-21v78.1h-.3l-62-78.1h-25ZM2166,901.3c-24.4,0-38.4-15.7-38.4-38.6s14-38.6,38.4-38.6,38.5,15.8,38.5,38.6-14,38.6-38.5,38.6m0,16.4c44,0,61.2-25.7,61.2-55s-17.2-54.9-61.2-54.9-61.2,25.6-61.2,54.9,17.2,55,61.2,55m-126.2-2.9h21.9V875.1l45.4-64.4h-26.6l-29.8,46.4L2021,810.7h-26.7l45.5,64.4Zm-129.1-57.5V827h37.8c11.5,0,18.6,4.3,18.6,15s-6.5,15.3-18.6,15.3Zm-21.8,57.5h21.8V873.7h37.2c16,0,18,10.5,18,25.3,0,7.6,1.1,12.8,2.7,15.8h23.6c-4.2-5.7-4.4-17.4-4.4-22.3,0-14.8-2.8-25.5-15.1-28.2V864c9.7-3,17.1-11.5,17.1-25,0-16.2-8.6-28.3-35.1-28.3h-65.8Zm-110.4,0H1870V898.4h-69.6V869.6h65.7V853.3h-65.7V827h68.5V810.7h-90.4Zm-80.2,0h23.2l45.8-104.1h-23.6l-33.3,83.4-33.9-83.4H1652Zm-146.2,0h91.5V898.4h-69.7V869.6h65.7V853.3h-65.7V827h68.5V810.7h-90.3Zm-157-57.5V827h37.8c11.5,0,18.6,4.3,18.6,15s-6.5,15.3-18.6,15.3Zm-21.8,57.5h21.8V873.7h37.2c16,0,18,10.5,18,25.3,0,7.6,1.1,12.8,2.7,15.8h23.6c-4.3-5.7-4.4-17.4-4.4-22.3,0-14.8-2.8-25.5-15.2-28.2V864c9.8-3,17.2-11.5,17.2-25,0-16.2-8.6-28.3-35.1-28.3h-65.8Zm-79.2-13.5c-24.5,0-38.5-15.7-38.5-38.6s14-38.6,38.5-38.6,38.5,15.8,38.5,38.6-14,38.6-38.5,38.6m0,16.4c44,0,61.2-25.7,61.2-55s-17.2-54.9-61.2-54.9-61.2,25.6-61.2,54.9,17.2,55,61.2,55m-156.6-2.9h21.8V869.6h61.2V853.3h-61.2V827H1224V810.7h-86.5Z"/><path class="cls-2" d="M2489.6,722.8h21.9V690.4l17.6-15.6,39.1,48h29.6L2546.2,661l48.5-42.3h-30L2511.5,667V618.7h-21.9ZM2390,665.4V635.1h37.8c11.5,0,18.6,4.2,18.6,15s-6.5,15.3-18.6,15.3Zm-21.8,57.4H2390V681.7h37.2c16,0,18.1,10.5,18.1,25.3,0,7.6,1,12.9,2.6,15.8h23.6c-4.2-5.7-4.4-17.4-4.4-22.3,0-14.7-2.8-25.5-15.1-28.1v-.3c9.7-3.1,17.1-11.5,17.1-25.1,0-16.2-8.5-28.3-35.1-28.3h-65.8ZM2289,709.4c-24.5,0-38.5-15.8-38.5-38.6s14-38.7,38.5-38.7,38.5,15.8,38.5,38.7-14,38.6-38.5,38.6m0,16.3c44,0,61.2-25.7,61.2-54.9s-17.2-55-61.2-55-61.2,25.7-61.2,55,17.2,54.9,61.2,54.9m-198.7-2.9h23.6l26.1-79.9h.3l25.9,79.9h23.6l35-104.1h-22.7l-23.9,80.8h-.3l-26.1-80.8H2129l-25.9,80.8h-.3l-23.4-80.8h-23.6Zm-211,0h23.6l10.8-25.8h48.9l11,25.8h24.3l-46.3-104.1h-26Zm40.9-42.1,18.1-43.9,17.8,43.9Zm-87.9,42.1h21.9V635.1h39V618.7h-99.9v16.4h39Zm-143.7,0h23.6L1723,697h49l10.9,25.8h24.3l-46.3-104.1h-26Zm41-42.1,18-43.9,17.8,43.9Zm-149.7,42.1h61.3c35.4,0,45.6-28.6,45.6-51,0-29.8-10-53.1-50.8-53.1h-56.1Zm21.8-87.7h29.6c12.2,0,33.7,2,33.7,35.8,0,30.5-16.8,35.6-32.5,35.6h-30.8Zm-189.8,87.7h91.5V706.5h-69.7V677.6h65.7V661.3h-65.7V635.1h68.5V618.7h-90.3Zm-120.5,0h21.9V690.4l17.6-15.6,39.1,48h29.5L1348,661l48.5-42.3h-30L1313.3,667V618.7h-21.9Zm-130.3,0h23.6l10.8-25.8h48.9l10.9,25.8h24.4l-46.4-104.1h-25.9Zm40.9-42.1,18.1-43.9,17.8,43.9Zm-188.1,42.1h20.5l-.8-86h.2l38.2,86h18.7l38.4-86h.3l-.8,86h20.5V618.7h-31.2l-36.1,80.8-36.4-80.8h-31.5Z"/></g></g></svg>