<svg xmlns="http://www.w3.org/2000/svg" viewBox="0 0 756 159.5"><defs><style>.cls-1{fill:#828282;}.cls-2{fill:#fff;}</style></defs><title>Epimorphics</title><g id="Layer_2" data-name="Layer 2"><g id="Layer_1-2" data-name="Layer 1"><path class="cls-1" d="M190.8,148.8a18.7,18.7,0,0,1-5.4-13.6,18.6,18.6,0,0,1,18.9-18.9,20.2,20.2,0,0,1,13.9,5.1l-5,5.5a14.3,14.3,0,0,0-8.9-3A10.6,10.6,0,0,0,193,135.1a10.7,10.7,0,0,0,11.4,11.5,13.6,13.6,0,0,0,8.8-3l5,5.5a20.2,20.2,0,0,1-13.9,5.1A18.6,18.6,0,0,1,190.8,148.8Z"/><path class="cls-1" d="M228.9,148.8a19.1,19.1,0,0,1,27-27.1,19.7,19.7,0,0,1,0,27.1,19.6,19.6,0,0,1-27,0Zm13.5-1.7a10.5,10.5,0,0,0,8.2-3.4,13.1,13.1,0,0,0,0-16.9,10.6,10.6,0,0,0-8.2-3.4,10.5,10.5,0,0,0-8.2,3.4,12.8,12.8,0,0,0,0,16.9A10.5,10.5,0,0,0,242.4,147.1Z"/><path class="cls-1" d="M265.9,154.2V116.3h2.6l23.7,23.8V116.3h7.6v37.9H297l-23.5-23.5v23.5Z"/><path class="cls-1" d="M306.6,154.2V116.3h2.5l23.8,23.8V116.3h7.5v37.9h-2.7l-23.5-23.5v23.5Z"/><path class="cls-1" d="M347.2,154.2V116.3H375v7.1H354.7v8.1h15.2v7H354.7v8.6H375v7.1Z"/><path class="cls-1" d="M385.2,148.8a19.3,19.3,0,0,1,0-27,18,18,0,0,1,13.4-5.5,20.5,20.5,0,0,1,14,5.1l-5.1,5.5a14.1,14.1,0,0,0-8.9-3,10.6,10.6,0,0,0-11.3,11.2,11.4,11.4,0,0,0,3.2,8.4,11,11,0,0,0,8.2,3.1,13.6,13.6,0,0,0,8.8-3l5.1,5.5a20.5,20.5,0,0,1-14,5.1A18.2,18.2,0,0,1,385.2,148.8Z"/><path class="cls-1" d="M450.6,116.3v7.1H438v30.8h-7.6V123.4H417.8v-7.1Z"/><path class="cls-1" d="M455.2,116.3h7.6v37.9h-7.6Z"/><path class="cls-1" d="M469.3,154.2V116.3h2.6l23.7,23.8V116.3h7.6v37.9h-2.8l-23.5-23.5v23.5Z"/><path class="cls-1" d="M513.4,148.8a18.7,18.7,0,0,1-5.4-13.6,18.2,18.2,0,0,1,5.4-13.4,18,18,0,0,1,13.5-5.5,20.4,20.4,0,0,1,13.9,5.1l-5.1,5.5a13.8,13.8,0,0,0-8.8-3,10.7,10.7,0,0,0-11.4,11.2,11.4,11.4,0,0,0,3.2,8.4,11,11,0,0,0,8.2,3.1c2.8,0,4.8-.5,6.3-1.6v-6.5h-5v-7h12.6v17.6a20.4,20.4,0,0,1-13.9,5.1A18.3,18.3,0,0,1,513.4,148.8Z"/><path class="cls-1" d="M564,154.2V116.3h14.6c11.8,0,17.7,6.3,17.7,19s-5.9,18.9-17.7,18.9Zm14.6-7.6c6.8,0,10.1-3.8,10.1-11.3s-3.3-11.4-10.1-11.4h-7v22.7Z"/><path class="cls-1" d="M597.3,154.2l15.1-37.9H620l15.1,37.9h-8l-2.3-5.8H607.6l-2.2,5.8Zm19.1-27.8-5.7,14.4H622Z"/><path class="cls-1" d="M666.5,116.3v7.1H653.9v30.8h-7.6V123.4H633.7v-7.1Z"/><path class="cls-1" d="M665,154.2l15.2-37.9h7.5l15.2,37.9h-8.1l-2.3-5.8H675.4l-2.3,5.8Zm19.2-27.8-5.8,14.4h11.4Z"/><path class="cls-2" d="M187.5,85.9V8.5h57V22.9H203V39.4h31.1V53.8H203V71.4h41.4V85.9Z"/><path class="cls-2" d="M256.6,107.6V35.7L271,34.2v4.1c3.9-2.7,7.7-4.1,11.4-4.1,7.9,0,14.2,2.6,18.8,7.7a26.1,26.1,0,0,1,7,18.1,26.1,26.1,0,0,1-7,18.1c-4.6,5.2-10.9,7.7-18.8,7.7q-7.8-.5-11.4-4.2v26ZM271,55.4v8.3c.7,5.8,4.3,9.2,10.9,10.2,8.2-.7,12.9-4.9,13.9-12.9-.3-9.6-5-14.6-13.9-14.9C275.3,47.1,271.7,50.2,271,55.4Z"/><path class="cls-2" d="M318,16.6a7.8,7.8,0,0,1,5.6-2,7.9,7.9,0,0,1,5.7,2,7.2,7.2,0,0,1,2.1,5.2,7,7,0,0,1-2.1,5.2,7.3,7.3,0,0,1-5.6,2.1A7.5,7.5,0,0,1,318,27a7,7,0,0,1-2.1-5.2A7.2,7.2,0,0,1,318,16.6Zm12.9,69.3V34.2H316.4V85.9Z"/><path class="cls-2" d="M355.6,52.8V85.9H341.2V35.7l14.4-1.5v4.6A17.3,17.3,0,0,1,368,34.2q9.9,0,15,6c3.8-4,9.5-6,17-6s11.6,2,15,6a19.9,19.9,0,0,1,5.2,13.7v32H405.7V57.5c0-3.5-.7-6.1-2.3-8s-4.1-2.9-7.5-3-5.4,2.1-7.5,5.7c-.1,1-.2,2.1-.2,3.2V85.9H373.7V57.5c0-3.5-.8-6.1-2.3-8s-4.1-2.9-7.6-3S357.9,48.8,355.6,52.8Z"/><path class="cls-2" d="M435.4,78.8a25.6,25.6,0,0,1-7.6-18.7,25.6,25.6,0,0,1,7.6-18.8,27.1,27.1,0,0,1,37.6,0,25.6,25.6,0,0,1,7.5,18.8,25.6,25.6,0,0,1-26.3,26.3A25.3,25.3,0,0,1,435.4,78.8Zm18.7-4.9a12.6,12.6,0,0,0,9.6-3.9,15.1,15.1,0,0,0,0-19.8,12.7,12.7,0,0,0-9.6-3.9,12.4,12.4,0,0,0-9.5,3.9,14,14,0,0,0-3.7,9.9,14,14,0,0,0,3.7,9.9A12.4,12.4,0,0,0,454.1,73.9Z"/><path class="cls-2" d="M501.6,39.9A17.8,17.8,0,0,1,515,34.2a35.8,35.8,0,0,1,4.8.4l-2.2,14.3c-1.7-1.5-4.1-2.3-7.3-2.4s-6.4,2.8-8.7,7.6V85.9H487.1V35.7l14.5-1.5Z"/><path class="cls-2" d="M527,107.6V35.7l14.5-1.5v4.1c3.8-2.7,7.6-4.1,11.3-4.1,8,0,14.2,2.6,18.9,7.7a26.9,26.9,0,0,1,0,36.2c-4.7,5.2-10.9,7.7-18.9,7.7-5.1-.3-8.9-1.7-11.3-4.2v26Zm14.5-52.2v8.3q1.1,8.7,10.8,10.2c8.3-.7,12.9-4.9,14-12.9-.4-9.6-5-14.6-14-14.9Q542.6,47.6,541.5,55.4Z"/><path class="cls-2" d="M601.3,51V85.9H586.9V8.4h14.4V38.9a18.3,18.3,0,0,1,12.4-4.7q9.9,0,15,6a19.9,19.9,0,0,1,5.2,13.7v32H619.4V57.5c0-3.5-.8-6.1-2.6-8s-4.3-2.9-7.8-3S603.5,48.2,601.3,51Z"/><path class="cls-2" d="M643.1,16.6a8,8,0,0,1,5.6-2,8.2,8.2,0,0,1,5.8,2,7.2,7.2,0,0,1,2.1,5.2,7,7,0,0,1-2.1,5.2,8.8,8.8,0,0,1-11.4,0,7.3,7.3,0,0,1-2-5.2A7.5,7.5,0,0,1,643.1,16.6ZM656,85.9V34.2H641.6V85.9Z"/><path class="cls-2" d="M671.7,79.4a20.8,20.8,0,0,1-7.8-16.8V57.5a20.8,20.8,0,0,1,7.8-16.8A28.5,28.5,0,0,1,710.4,43l-10.3,7.8a14.5,14.5,0,0,0-10.4-4.7,12.2,12.2,0,0,0-9,4.1,14.1,14.1,0,0,0-3.9,9.9,14.7,14.7,0,0,0,3.6,9.8,11.9,11.9,0,0,0,9.3,4.1,14.4,14.4,0,0,0,10.4-4.6l10.3,7.7a28.5,28.5,0,0,1-38.7,2.3Z"/><path class="cls-2" d="M747.8,35.7a23.1,23.1,0,0,1,7.5,5.2l-8,9.1a11.1,11.1,0,0,0-8.8-4.2c-3.5,0-5.8.6-7,1.9s-1.2,2.5,0,3.6,3.5,1.9,7,2.6a23.5,23.5,0,0,1,12.6,4.4c3.3,2.4,4.9,6.6,4.9,12.7a13,13,0,0,1-5.8,11.4,22.7,22.7,0,0,1-13.5,4,31,31,0,0,1-12.2-2.1,28.7,28.7,0,0,1-8.4-5.6l8-9c2.4,2.8,6,4.4,10.9,4.8s6.5-.6,7.7-1.9a3,3,0,0,0,.5-3.9c-.8-1.3-3.5-2.1-8.2-2.6a28.6,28.6,0,0,1-11.5-3.9c-3.5-2.1-5.3-6-5.3-11.9s2-9.4,6-12.2a21.2,21.2,0,0,1,12.3-4.2C741.3,33.9,745.1,34.5,747.8,35.7Z"/><path class="cls-2" d="M142.2,142.3a5.9,5.9,0,0,0-5.8,6.1,5.8,5.8,0,0,0,6,5.8,6.1,6.1,0,0,0,5.9-6.1A6,6,0,0,0,142.2,142.3Z"/><path class="cls-2" d="M79.8,0a79.8,79.8,0,1,0,46.5,144.6c-7.3-5.2-15.8-14.8-19.8-22.6-1.9,1.8-3.7,3.3-4.2,3.7a58.7,58.7,0,0,1-15.1,7.9,33.4,33.4,0,0,1-14.3,2.1h0a33.1,33.1,0,0,1-18.5-6.6c-9.2-7.5-10.7-18.9-10.7-19.4-2,.2-5.5-.1-6.1-1.3l-.2-.5v-.2a.1.1,0,0,1-.1-.1h0v-1h.1v-.3h.1v-.2h0a2.7,2.7,0,0,1,.7-.8h0c.1-.1.2-.1.2-.2h.4l.2-.2h.2l.3-.2h.2l.3-.2h.1l.4-.2h.2l.5-.3h0l.6-.3v-1.9c4.3-51.6,38.3-73.2,45.5-76.6a6.7,6.7,0,0,1,1.2-.6l.3-.2.8-.3.3-.2.7-.2h.4l.6-.2h5.5l.2.2h.3l.3.2.2.2.2.2h.2l.2.3c.1,0,.1.1.2.2l.2.2c0,.1.1.1.1.2s.2.2.2.3h.1a3,3,0,0,1,.4.8.1.1,0,0,1,.1.1l.3.8h.1a3.1,3.1,0,0,1,.2.8.1.1,0,0,0,.1.1,2.9,2.9,0,0,0,.2.9h0a21.3,21.3,0,0,1,.4,4.6v.2h0v.2c-.3,12-6.2,27.8-17,42.7-8,11.1-17.4,19.9-26.3,25.3l-.2,2.1c.1,3-.2,22.4,17.5,23.3h.3c6.1,0,14.2-2.1,22.7-8.3a28.7,28.7,0,0,0,5.2-5.1v-.5c-.6-24.1,6.3-36.7,8.5-39.5,4.2-5.2,6.9-5.2,9.1-5.2a8.4,8.4,0,0,1,6.8,4,9.2,9.2,0,0,1,.9,2.3v.4c.1.1.1.3.2.5a.4.4,0,0,0,.1.3v.4c.5,2.6,1.7,9.3-4.2,21.5a93.6,93.6,0,0,1-9.4,14.6l-2.8,2.9a53.5,53.5,0,0,0,19.4,24.5A79.8,79.8,0,0,0,79.8,0ZM35.7,110a4.1,4.1,0,0,1-4.4,3.6,4,4,0,0,1,.8-8A4,4,0,0,1,35.7,110Z"/><path class="cls-2" d="M121.6,76.9c-.8-.3-2.4-1.8-5.3,4.8s-3.7,13.5-4.4,19.3l-.6,4.7,2.7-3.9c5.6-8.1,8.5-14.7,8.8-21.2C122.8,80.6,122.9,77.3,121.6,76.9Z"/><path class="cls-2" d="M85.6,37.5c-4.8,3.2-11.8,11.3-17.5,21.9-7.1,13.1-9,29.2-9.6,34.2h0l2.7-1.9h0A75.8,75.8,0,0,0,77,75.2C91.9,54.3,90.3,38.7,90.3,38.7,90,35.6,87.8,36.1,85.6,37.5Z"/></g></g></svg>