<svg xmlns="http://www.w3.org/2000/svg" viewBox="0 0 1063.6 443.6"><defs><style>.cls-1{fill:#ee3aaa;}.cls-2{fill:#fff;}.cls-3{fill:#f8bb26;}.cls-4{fill:#2254f3;}</style></defs><title>financials v4</title><g id="Layer_2" data-name="Layer 2"><g id="Layer_1-2" data-name="Layer 1"><path class="cls-1" d="M531.8,151.5,399.4,81.1C417.7,46.6,446.1,22.4,483,9.7Z"/><path class="cls-2" d="M531.2,303c-83.5,0-151.5-68-151.5-151.5,0-26.8,5.1-47.4,17.7-71.1,18.6-35,47-59.3,84.5-72.1A145.1,145.1,0,0,1,531.2,0c83.5,0,151.5,68,151.5,151.5S614.7,303,531.2,303Zm0-300a144.1,144.1,0,0,0-48.3,8.1c-36.7,12.6-64.6,36.4-82.8,70.7-12.4,23.2-17.4,43.4-17.4,69.7,0,81.9,66.6,148.5,148.5,148.5s148.5-66.6,148.5-148.5S613.1,3,531.2,3Z"/><path class="cls-3" d="M151.5,151.5V1.5a150,150,0,1,1-150,150c0-26.6,5.1-46.9,17.6-70.4Z"/><path class="cls-2" d="M151.5,303C68,303,0,235,0,151.5c0-26.8,5.1-47.4,17.7-71.1,18.6-35,47-59.3,84.5-72.1A145.1,145.1,0,0,1,151.5,0C235,0,303,68,303,151.5S235,303,151.5,303Zm0-300a144.1,144.1,0,0,0-48.3,8.1C66.5,23.7,38.6,47.5,20.4,81.8,8,105,3,125.2,3,151.5,3,233.4,69.6,300,151.5,300S300,233.4,300,151.5,233.4,3,151.5,3Z"/><path class="cls-4" d="M912.1,151.5,863.3,9.7a145,145,0,0,1,48.8-8.2Z"/><path class="cls-2" d="M912.1,303c-83.5,0-151.5-68-151.5-151.5,0-26.8,5.2-47.4,17.8-71.1,18.5-35,47-59.3,84.4-72.1A145.5,145.5,0,0,1,912.1,0c83.6,0,151.5,68,151.5,151.5S995.7,303,912.1,303Zm0-300a144.5,144.5,0,0,0-48.3,8.1C827.1,23.7,799.2,47.5,781,81.8c-12.3,23.2-17.4,43.4-17.4,69.7,0,81.9,66.6,148.5,148.5,148.5s148.5-66.6,148.5-148.5S994,3,912.1,3Z"/><path class="cls-2" d="M801.8,398.5a15.4,15.4,0,0,0,2.5-2.6,22.7,22.7,0,0,0,1.7-3.1,9.7,9.7,0,0,0,.6-3.4,9.1,9.1,0,0,0-.3-2.3l-.9-2.2h-6.7v-5.8H803a15.3,15.3,0,0,1-2-3.7,14.3,14.3,0,0,1-1-5.6,11.2,11.2,0,0,1,1.1-5.1,12.1,12.1,0,0,1,3.3-4.3,15.8,15.8,0,0,1,5.3-2.9,24.7,24.7,0,0,1,7.5-1.1c5.2,0,9.2,1.5,12.1,4.3s4.3,7.1,4.3,12.6h-9.1a14.8,14.8,0,0,0-.3-2.6,8.1,8.1,0,0,0-.9-2.9,6.9,6.9,0,0,0-2.1-2.4,6.8,6.8,0,0,0-4-1.1,6.9,6.9,0,0,0-4.9,1.7,5.7,5.7,0,0,0-1.7,4.5v1.6c.1.4.2,1,.3,1.7a15.2,15.2,0,0,0,.8,2.2,31.2,31.2,0,0,0,1.6,3.1h9v5.8h-7.1a6.5,6.5,0,0,1,.4,2,14.8,14.8,0,0,1,.1,2.1,9.2,9.2,0,0,1-1.6,5.5,21.1,21.1,0,0,1-3.9,4h.2a8.9,8.9,0,0,1,2.6-1.3,6.5,6.5,0,0,1,1.9-.2,12.3,12.3,0,0,1,2.7.2l2.7.5,2.6.6,2.6.2a8.6,8.6,0,0,0,2.7-.5,7.8,7.8,0,0,0,3.2-2.4l4.1,6.8a13.4,13.4,0,0,1-5.2,3.3,17.1,17.1,0,0,1-5.3,1,24.2,24.2,0,0,1-4.3-.4l-3.1-.8a16.1,16.1,0,0,0-2.9-.9,13.5,13.5,0,0,0-3.7-.4,12.4,12.4,0,0,0-3.8.5,10.1,10.1,0,0,0-4,2l-4.2-6.2A18.6,18.6,0,0,0,801.8,398.5Z"/><path class="cls-2" d="M837.5,370.3a22,22,0,0,1,3.8-7.5,12.6,12.6,0,0,1,5.5-4,19,19,0,0,1,13.3,0,13.2,13.2,0,0,1,5.5,4,20.3,20.3,0,0,1,3.8,7.5,42.8,42.8,0,0,1,1.4,11.6,43.3,43.3,0,0,1-1.4,11.8,20,20,0,0,1-3.8,7.6,13.2,13.2,0,0,1-5.5,4,17.7,17.7,0,0,1-13.3,0,12.6,12.6,0,0,1-5.5-4,21.6,21.6,0,0,1-3.8-7.6,43.7,43.7,0,0,1-1.3-11.8A43.1,43.1,0,0,1,837.5,370.3Zm8.4,16.5a20.3,20.3,0,0,0,.8,5.5,11.7,11.7,0,0,0,2.3,4.6,5.4,5.4,0,0,0,4.4,1.8,5.9,5.9,0,0,0,4.6-1.8,11.6,11.6,0,0,0,2.2-4.6,25.3,25.3,0,0,0,.9-5.5c.1-1.9.1-3.6.1-4.9V379a21.9,21.9,0,0,0-.3-3.6,22.9,22.9,0,0,0-.7-3.6,9,9,0,0,0-1.3-3.2,8,8,0,0,0-2.2-2.3,7.2,7.2,0,0,0-6.6,0,7.7,7.7,0,0,0-2.1,2.3,11.3,11.3,0,0,0-1.3,3.2,22.9,22.9,0,0,0-.7,3.6c-.1,1.2-.2,2.4-.2,3.6s-.1,2.1-.1,2.9S845.8,384.9,845.9,386.8Z"/><path class="cls-2" d="M886.8,395.3v10.4H876.2V395.3Z"/><path class="cls-2" d="M893.7,370.3a22,22,0,0,1,3.8-7.5,12.6,12.6,0,0,1,5.5-4,18,18,0,0,1,6.6-1.2,18.5,18.5,0,0,1,6.7,1.2,13.2,13.2,0,0,1,5.5,4,20.3,20.3,0,0,1,3.8,7.5,42.8,42.8,0,0,1,1.4,11.6,43.3,43.3,0,0,1-1.4,11.8,20,20,0,0,1-3.8,7.6,13.2,13.2,0,0,1-5.5,4,18.6,18.6,0,0,1-6.7,1.3,18,18,0,0,1-6.6-1.3,12.6,12.6,0,0,1-5.5-4,21.6,21.6,0,0,1-3.8-7.6,43.3,43.3,0,0,1-1.4-11.8A42.8,42.8,0,0,1,893.7,370.3Zm8.4,16.5a20.3,20.3,0,0,0,.8,5.5,11.7,11.7,0,0,0,2.3,4.6,5.4,5.4,0,0,0,4.4,1.8,5.5,5.5,0,0,0,4.5-1.8,10.5,10.5,0,0,0,2.3-4.6,25.3,25.3,0,0,0,.9-5.5c.1-1.9.1-3.6.1-4.9V379a21.9,21.9,0,0,0-.3-3.6,22.9,22.9,0,0,0-.7-3.6,11.3,11.3,0,0,0-1.3-3.2,8,8,0,0,0-2.2-2.3,7.2,7.2,0,0,0-6.6,0,7.7,7.7,0,0,0-2.1,2.3,11.3,11.3,0,0,0-1.3,3.2,15.3,15.3,0,0,0-.7,3.6c-.1,1.2-.2,2.4-.2,3.6s-.1,2.1-.1,2.9S902,384.9,902.1,386.8Z"/><path class="cls-2" d="M956.7,374.7a57.6,57.6,0,0,0-4.8,10,72.5,72.5,0,0,0-3,10.8,53.8,53.8,0,0,0-1.1,10.2H937.6a64.8,64.8,0,0,1,4.9-20.4,72.7,72.7,0,0,1,10.9-17.9H931v-8.9h32.2v8.2A34.9,34.9,0,0,0,956.7,374.7Z"/><path class="cls-2" d="M985.4,357.6l11.3,33.1h.1l10.6-33.1h14.9v48.1h-9.9V371.6h-.1l-11.8,34.1h-8.2l-11.8-33.8h-.1v33.8h-9.9V357.6Z"/><path class="cls-2" d="M892.4,424v12.5h7.5v2.9H889.1V424Z"/><path class="cls-2" d="M901.6,431.4a5.9,5.9,0,0,1,1.1-1.9,6.2,6.2,0,0,1,1.9-1.2,7.1,7.1,0,0,1,4.7,0,5.7,5.7,0,0,1,1.8,1.2,6.2,6.2,0,0,1,1.2,1.9,7.4,7.4,0,0,1,0,4.8,6.2,6.2,0,0,1-1.2,1.9,4.2,4.2,0,0,1-1.8,1.1,6.1,6.1,0,0,1-2.4.4,5.9,5.9,0,0,1-2.3-.4,4.5,4.5,0,0,1-1.9-1.1,5.9,5.9,0,0,1-1.1-1.9,7.4,7.4,0,0,1,0-4.8Zm2.8,3.7a2.1,2.1,0,0,0,.4,1.1,2.4,2.4,0,0,0,.8.9,2.8,2.8,0,0,0,1.3.3,2.5,2.5,0,0,0,1.3-.3,2,2,0,0,0,.9-.9,3.6,3.6,0,0,0,.4-1.1,8.5,8.5,0,0,0,0-2.6,5.6,5.6,0,0,0-.4-1.2,2.4,2.4,0,0,0-.9-.8,2.5,2.5,0,0,0-1.3-.3,2.8,2.8,0,0,0-1.3.3,3,3,0,0,0-.8.8,2.8,2.8,0,0,0-.4,1.2,4.3,4.3,0,0,0,0,2.6Z"/><path class="cls-2" d="M917.3,436.6l.5.6.7.3h1.6l.6-.2a1,1,0,0,0,.5-.4.8.8,0,0,0,.2-.7c0-.5-.3-.8-.9-1a10.5,10.5,0,0,0-2.6-.7l-1.3-.4-1.1-.5a2.4,2.4,0,0,1-.8-.9,2.1,2.1,0,0,1-.3-1.2,4.8,4.8,0,0,1,.4-1.8,5.7,5.7,0,0,1,1.1-1.1l1.6-.5,1.8-.2,1.7.2a3.4,3.4,0,0,1,1.5.6,2,2,0,0,1,1.1,1.1,3.8,3.8,0,0,1,.6,1.7h-2.9a1.5,1.5,0,0,0-.7-1.2,3.2,3.2,0,0,0-1.4-.3h-1.1l-.5.4a.7.7,0,0,0-.1.5.9.9,0,0,0,.3.7l.8.4,1.1.3,1.2.3,1.3.3,1.2.6a2.4,2.4,0,0,1,.8.9,2.5,2.5,0,0,1,.3,1.3,3.5,3.5,0,0,1-.5,1.8,3.2,3.2,0,0,1-1.1,1.2l-1.6.7h-3.8l-1.7-.7a4.3,4.3,0,0,1-1.1-1.2,2.9,2.9,0,0,1-.5-1.9h2.9C917.1,436.1,917.1,436.4,917.3,436.6Z"/><path class="cls-2" d="M928.8,436.6l.6.6.7.3h1.6l.6-.2a1,1,0,0,0,.5-.4,1.4,1.4,0,0,0,.2-.7c0-.5-.3-.8-.9-1a10.5,10.5,0,0,0-2.6-.7l-1.3-.4-1.1-.5a2.4,2.4,0,0,1-.8-.9,2.1,2.1,0,0,1-.3-1.2,3.4,3.4,0,0,1,.4-1.8,5.7,5.7,0,0,1,1.1-1.1l1.6-.5,1.7-.2,1.8.2a3.4,3.4,0,0,1,1.5.6,2.3,2.3,0,0,1,1.1,1.1,3.8,3.8,0,0,1,.6,1.7h-3a1.2,1.2,0,0,0-.6-1.2,3.2,3.2,0,0,0-1.4-.3h-1.2c-.1.1-.3.2-.4.4a.8.8,0,0,0-.2.5,1,1,0,0,0,.4.7l.7.4,1.1.3,1.3.3,1.3.3,1.2.6a2.4,2.4,0,0,1,.8.9,2.5,2.5,0,0,1,.3,1.3,3.5,3.5,0,0,1-.5,1.8,4.3,4.3,0,0,1-1.1,1.2l-1.7.7h-3.7l-1.7-.7a3.4,3.4,0,0,1-1.2-1.2,4.8,4.8,0,0,1-.5-1.9h2.9A2,2,0,0,0,928.8,436.6Z"/><path class="cls-2" d="M420.9,398.5a14.8,14.8,0,0,0,2.4-2.6,11.7,11.7,0,0,0,1.7-3.1,8,8,0,0,0,.7-3.4,9.1,9.1,0,0,0-.3-2.3,21.4,21.4,0,0,0-1-2.2h-6.6v-5.8h4.3a12.5,12.5,0,0,1-2-3.7,14.3,14.3,0,0,1-1-5.6,11.2,11.2,0,0,1,1.1-5.1,13.1,13.1,0,0,1,3.2-4.3,17.4,17.4,0,0,1,5.4-2.9,24.7,24.7,0,0,1,7.5-1.1c5.2,0,9.2,1.5,12.1,4.3s4.3,7.1,4.3,12.6h-9.1c-.1-.7-.2-1.5-.3-2.6a8.1,8.1,0,0,0-.9-2.9,6.3,6.3,0,0,0-2.2-2.4,6.6,6.6,0,0,0-4-1.1,6.9,6.9,0,0,0-4.8,1.7,5.8,5.8,0,0,0-1.8,4.5c0,.5.1,1.1.1,1.6a6.7,6.7,0,0,0,.3,1.7,15.2,15.2,0,0,0,.8,2.2,31.2,31.2,0,0,0,1.6,3.1h9v5.8h-7.1a6.5,6.5,0,0,1,.4,2,14.8,14.8,0,0,1,.1,2.1,9.2,9.2,0,0,1-1.6,5.5,21.1,21.1,0,0,1-3.9,4h.1a10.6,10.6,0,0,1,2.7-1.3,6.2,6.2,0,0,1,1.9-.2,12.3,12.3,0,0,1,2.7.2l2.6.5,2.7.6,2.6.2a7.4,7.4,0,0,0,5.9-2.9l4.1,6.8a14.2,14.2,0,0,1-5.2,3.3,17.7,17.7,0,0,1-5.4,1,23,23,0,0,1-4.2-.4l-3.1-.8a17.1,17.1,0,0,0-3-.9,12.6,12.6,0,0,0-3.7-.4,13.3,13.3,0,0,0-3.8.5,10.4,10.4,0,0,0-3.9,2l-4.2-6.2A18.6,18.6,0,0,0,420.9,398.5Z"/><path class="cls-2" d="M456.6,370.3a20.3,20.3,0,0,1,3.8-7.5,13,13,0,0,1,5.4-4,19.3,19.3,0,0,1,13.4,0,13.2,13.2,0,0,1,5.5,4,20.3,20.3,0,0,1,3.8,7.5,42.8,42.8,0,0,1,1.4,11.6,43.3,43.3,0,0,1-1.4,11.8,20,20,0,0,1-3.8,7.6,13.2,13.2,0,0,1-5.5,4,17.9,17.9,0,0,1-13.4,0,13,13,0,0,1-5.4-4,20,20,0,0,1-3.8-7.6,43.3,43.3,0,0,1-1.4-11.8A42.8,42.8,0,0,1,456.6,370.3Zm8.3,16.5a25.3,25.3,0,0,0,.9,5.5,13.1,13.1,0,0,0,2.2,4.6,5.8,5.8,0,0,0,4.5,1.8,5.5,5.5,0,0,0,4.5-1.8,10.5,10.5,0,0,0,2.3-4.6,25.3,25.3,0,0,0,.9-5.5c.1-1.9.1-3.6.1-4.9V379c-.1-1.2-.1-2.4-.3-3.6s-.4-2.4-.7-3.6a11.3,11.3,0,0,0-1.3-3.2,8,8,0,0,0-2.2-2.3,7.2,7.2,0,0,0-6.6,0,6.6,6.6,0,0,0-2.1,2.3,15.5,15.5,0,0,0-1.4,3.2,22.5,22.5,0,0,0-.6,3.6c-.2,1.2-.2,2.4-.3,3.6v2.9C464.8,383.2,464.8,384.9,464.9,386.8Z"/><path class="cls-2" d="M505.9,395.3v10.4H495.3V395.3Z"/><path class="cls-2" d="M528.7,377.6a11.6,11.6,0,0,0,3.2-.8,5.2,5.2,0,0,0,2.5-1.8,5,5,0,0,0,1-3.3,5.6,5.6,0,0,0-2-4.6,7.2,7.2,0,0,0-4.7-1.6c-2.4,0-4.2.7-5.4,2.3a8.7,8.7,0,0,0-1.8,6.1h-9.1a20,20,0,0,1,1.3-6.7,15,15,0,0,1,3.3-5.1,13.9,13.9,0,0,1,5.1-3.4,19.4,19.4,0,0,1,6.6-1.1,18.1,18.1,0,0,1,5.6.8,17.3,17.3,0,0,1,5.1,2.5,14.4,14.4,0,0,1,3.7,4.1,11.6,11.6,0,0,1,1.4,5.6,11.1,11.1,0,0,1-1.6,6.1,8.5,8.5,0,0,1-5,3.6h0a10.2,10.2,0,0,1,6.1,3.8,10.8,10.8,0,0,1,2.3,6.9,14,14,0,0,1-1.5,6.6,13.5,13.5,0,0,1-3.9,4.9,14.9,14.9,0,0,1-5.6,2.9,21.3,21.3,0,0,1-13.8-.1,17.3,17.3,0,0,1-5.6-3.3,15.3,15.3,0,0,1-3.5-5.4,20.3,20.3,0,0,1-1.2-7.3h9.1a19.3,19.3,0,0,0,.6,3.6,8.6,8.6,0,0,0,1.6,3,8.2,8.2,0,0,0,2.5,2,8,8,0,0,0,3.6.7,7.6,7.6,0,0,0,5.5-2,7.1,7.1,0,0,0,2.2-5.4,6.9,6.9,0,0,0-1.1-4.1,5.7,5.7,0,0,0-2.6-2,10.5,10.5,0,0,0-3.6-.8h-3.6v-6.7Z"/><path class="cls-2" d="M550.9,369.1a17.3,17.3,0,0,1,3.2-6,15,15,0,0,1,5.5-4.1,19.3,19.3,0,0,1,7.5-1.4,17.7,17.7,0,0,1,6.1,1,15.5,15.5,0,0,1,5.2,2.9,12.3,12.3,0,0,1,3.5,4.6,14.1,14.1,0,0,1,1.4,6.2,14.9,14.9,0,0,1-1.2,6.2,17.7,17.7,0,0,1-3,4.5,30.4,30.4,0,0,1-4.3,3.6l-4.8,3.2c-1.6,1.1-3.2,2.2-4.7,3.4a18.7,18.7,0,0,0-4.1,4.3h22.3v8.2H548.9a19.7,19.7,0,0,1,1.2-7.2,18.4,18.4,0,0,1,3.2-5.4,24.7,24.7,0,0,1,4.7-4.4c1.8-1.4,3.8-2.7,5.8-4.1l3.3-2.2a25.1,25.1,0,0,0,3.2-2.5,13.8,13.8,0,0,0,2.4-3,7,7,0,0,0,1-3.8,7.3,7.3,0,0,0-2-5.4,6.9,6.9,0,0,0-5.1-1.9,5.6,5.6,0,0,0-3.5,1,7.2,7.2,0,0,0-2.4,2.5,13.1,13.1,0,0,0-1.2,3.5,25.8,25.8,0,0,0-.4,3.8H550A22.7,22.7,0,0,1,550.9,369.1Z"/><path class="cls-2" d="M604.5,357.6l11.2,33.1h.2l10.6-33.1h14.9v48.1h-9.9V371.6h-.1l-11.8,34.1h-8.2l-11.8-33.8h-.1v33.8h-9.9V357.6Z"/><path class="cls-2" d="M476.1,428.1l-.8-.9-1-.5a2.5,2.5,0,0,0-1.2-.2,3.6,3.6,0,0,0-1.9.4,3,3,0,0,0-1.3,1.2,3.3,3.3,0,0,0-.7,1.7,6.3,6.3,0,0,0-.3,1.9,5.8,5.8,0,0,0,.3,1.9,3.6,3.6,0,0,0,.7,1.7,2.8,2.8,0,0,0,1.3,1.1,3.6,3.6,0,0,0,1.9.5,2.8,2.8,0,0,0,2.4-1,3.9,3.9,0,0,0,1.1-2.5h3.3a6.6,6.6,0,0,1-.7,2.6,4.8,4.8,0,0,1-1.4,2,5.7,5.7,0,0,1-2.1,1.3,7.1,7.1,0,0,1-2.6.4,8.3,8.3,0,0,1-3.2-.6,8.1,8.1,0,0,1-2.4-1.7,7.7,7.7,0,0,1-1.4-2.5,8.3,8.3,0,0,1-.6-3.2,8.7,8.7,0,0,1,.6-3.2,6.8,6.8,0,0,1,1.4-2.5,6.9,6.9,0,0,1,2.4-1.8,8.3,8.3,0,0,1,3.2-.6,6.1,6.1,0,0,1,2.4.4,6.3,6.3,0,0,1,2,1,6.5,6.5,0,0,1,1.5,1.8,6.2,6.2,0,0,1,.7,2.3h-3.2A4.2,4.2,0,0,0,476.1,428.1Z"/><path class="cls-2" d="M481.9,431.4a6.2,6.2,0,0,1,1.2-1.9,5.7,5.7,0,0,1,1.8-1.2,8.6,8.6,0,0,1,2.4-.4,9.3,9.3,0,0,1,2.4.4,5.7,5.7,0,0,1,1.8,1.2,4.5,4.5,0,0,1,1.1,1.9,6,6,0,0,1,0,4.8,4.5,4.5,0,0,1-1.1,1.9,4.2,4.2,0,0,1-1.8,1.1,6.4,6.4,0,0,1-2.4.4,6.1,6.1,0,0,1-2.4-.4,4.2,4.2,0,0,1-1.8-1.1,6.2,6.2,0,0,1-1.2-1.9,7.4,7.4,0,0,1,0-4.8Zm2.8,3.7a3.6,3.6,0,0,0,.4,1.1,2.6,2.6,0,0,0,.9.9,2.5,2.5,0,0,0,1.3.3,2.8,2.8,0,0,0,1.3-.3,2.4,2.4,0,0,0,.8-.9,3.7,3.7,0,0,0,.5-1.1c0-.4.1-.9.1-1.3s-.1-.9-.1-1.3a6.1,6.1,0,0,0-.5-1.2,3,3,0,0,0-.8-.8,2.8,2.8,0,0,0-1.3-.3,2.5,2.5,0,0,0-1.3.3,3.4,3.4,0,0,0-.9.8,5.6,5.6,0,0,0-.4,1.2,8.5,8.5,0,0,0,0,2.6Z"/><path class="cls-2" d="M497.9,428.2v2.1h.1a2.1,2.1,0,0,1,.6-1,2.7,2.7,0,0,1,.8-.7l1-.5,1.1-.2h.7v2.9h-1.1l-1.4.2a3.6,3.6,0,0,0-1.5,1.9,6.6,6.6,0,0,0-.1,1.4v5.1H495V428.2Z"/><path class="cls-2" d="M506.3,436.7a3,3,0,0,0,3.6.2,1.9,1.9,0,0,0,.8-1h2.7a4.9,4.9,0,0,1-2,2.9,5.5,5.5,0,0,1-3.2.8,6.1,6.1,0,0,1-2.4-.4A5.7,5.7,0,0,1,504,438a5.4,5.4,0,0,1-1.1-1.8,6.1,6.1,0,0,1-.4-2.4,5.9,5.9,0,0,1,.4-2.3,6.2,6.2,0,0,1,1.2-1.9,5.7,5.7,0,0,1,1.8-1.2,5.6,5.6,0,0,1,2.3-.5,5.1,5.1,0,0,1,2.5.6,3.9,3.9,0,0,1,1.7,1.4,6.2,6.2,0,0,1,1,2.2,6.3,6.3,0,0,1,.2,2.4h-8A3.4,3.4,0,0,0,506.3,436.7Zm3.5-5.9a2.4,2.4,0,0,0-1.7-.6,2.1,2.1,0,0,0-1.2.3,1.6,1.6,0,0,0-.8.6,2,2,0,0,0-.4.8,1.7,1.7,0,0,0-.1.7h4.9A3.8,3.8,0,0,0,509.8,430.8Z"/><path class="cls-2" d="M520.2,430.3v-2.1h1.9v-.8a3.7,3.7,0,0,1,.9-2.5,3.9,3.9,0,0,1,2.8-.9h1.6v2.2h-1.1a1.1,1.1,0,0,0-1.2,1.2v.7h2.1v2.1h-2.1v9.1h-3v-9.1Z"/><path class="cls-2" d="M536.1,439.4v-1.6h0a3.3,3.3,0,0,1-1.5,1.4,4.6,4.6,0,0,1-1.9.4,6.2,6.2,0,0,1-2.1-.3,2.7,2.7,0,0,1-1.2-.9,3.5,3.5,0,0,1-.6-1.4,5.8,5.8,0,0,1-.2-1.9v-6.9h3v6.3a4.1,4.1,0,0,0,.5,2.1,1.8,1.8,0,0,0,1.5.7,2.2,2.2,0,0,0,1.8-.8,3.8,3.8,0,0,0,.6-2.4v-5.9h3v11.2Z"/><path class="cls-2" d="M544.3,428.2v1.6h0a3.1,3.1,0,0,1,1.6-1.4,4.1,4.1,0,0,1,1.9-.5,4.2,4.2,0,0,1,2,.4,2.7,2.7,0,0,1,1.2.9,3.5,3.5,0,0,1,.6,1.4,5.8,5.8,0,0,1,.2,1.9v6.9h-3v-6.3a3.8,3.8,0,0,0-.5-2.1,1.8,1.8,0,0,0-1.5-.7,2.2,2.2,0,0,0-1.8.8,3.8,3.8,0,0,0-.6,2.4v5.9h-3V428.2Z"/><path class="cls-2" d="M562.1,437.9a3.4,3.4,0,0,1-1.4,1.3,4.5,4.5,0,0,1-2,.4,4.8,4.8,0,0,1-2.2-.4,5.4,5.4,0,0,1-1.6-1.4,4.8,4.8,0,0,1-.9-1.9,8.2,8.2,0,0,1,0-4.4,5.1,5.1,0,0,1,.9-1.8,4.2,4.2,0,0,1,1.6-1.3,4.6,4.6,0,0,1,2.1-.5,5.8,5.8,0,0,1,1.9.4,2.9,2.9,0,0,1,1.4,1.3h.1V424h3v15.4h-2.9v-1.5Zm-.2-5.5a2.1,2.1,0,0,0-.4-1.1l-.8-.8a2.5,2.5,0,0,0-1.3-.3,2.1,2.1,0,0,0-1.2.3,2.4,2.4,0,0,0-.9.8,4.2,4.2,0,0,0-.4,1.2,5.1,5.1,0,0,0-.2,1.3,6.9,6.9,0,0,0,.2,1.3,3.7,3.7,0,0,0,.5,1.1,2,2,0,0,0,.8.8,1.9,1.9,0,0,0,1.2.4,2.5,2.5,0,0,0,1.3-.3,2.4,2.4,0,0,0,.8-.9,2.1,2.1,0,0,0,.4-1.1,5.9,5.9,0,0,0,.2-1.3A6.8,6.8,0,0,0,561.9,432.4Z"/><path class="cls-2" d="M567.4,426.5V424h3.1v2.5Zm3.1,1.7v11.2h-3.1V428.2Z"/><path class="cls-2" d="M575.8,428.2v1.6h.1a3.3,3.3,0,0,1,1.5-1.4,4.1,4.1,0,0,1,1.9-.5,4,4,0,0,1,2,.4,2.7,2.7,0,0,1,1.2.9,6.1,6.1,0,0,1,.7,1.4,11.5,11.5,0,0,1,.1,1.9v6.9h-3v-6.3a5.2,5.2,0,0,0-.4-2.1,1.9,1.9,0,0,0-1.6-.7,2.2,2.2,0,0,0-1.8.8,3.9,3.9,0,0,0-.5,2.4v5.9h-3.1V428.2Z"/><path class="cls-2" d="M596.2,440.2a3.5,3.5,0,0,1-.8,1.6,5.9,5.9,0,0,1-1.7,1.3,8.7,8.7,0,0,1-3.1.5l-1.7-.2-1.5-.7a3.2,3.2,0,0,1-1.2-1.1,2.8,2.8,0,0,1-.5-1.6h3a1.9,1.9,0,0,0,.9,1.2,3.2,3.2,0,0,0,1.4.3,2,2,0,0,0,1.9-.8,2.9,2.9,0,0,0,.6-1.9v-1.5h-.1a2.9,2.9,0,0,1-1.4,1.3,4.1,4.1,0,0,1-1.9.4,5.1,5.1,0,0,1-2.2-.4,3.3,3.3,0,0,1-1.4-1.2,5.1,5.1,0,0,1-.9-1.8,7.8,7.8,0,0,1-.3-2.2,6.4,6.4,0,0,1,.3-2,7.7,7.7,0,0,1,1-1.8,4.4,4.4,0,0,1,1.5-1.2,4.2,4.2,0,0,1,2-.5,4.9,4.9,0,0,1,1.9.4,3.2,3.2,0,0,1,1.4,1.4h.1v-1.5h2.9v10.5A10.4,10.4,0,0,1,596.2,440.2Zm-4.2-3.7a2.7,2.7,0,0,0,.8-.7,3.1,3.1,0,0,0,.5-1,4.3,4.3,0,0,0,.2-1.1c0-.5-.1-.9-.1-1.4a3.1,3.1,0,0,0-.5-1,1.6,1.6,0,0,0-.8-.8,2.1,2.1,0,0,0-1.2-.3,1.8,1.8,0,0,0-1.1.3,2.7,2.7,0,0,0-.8.7,3.1,3.1,0,0,0-.5,1,5.2,5.2,0,0,0,.4,3.5,2.7,2.7,0,0,0,.8.7,2.1,2.1,0,0,0,1.2.3Z"/><path class="cls-2" d="M59.9,398.5a12.3,12.3,0,0,0,2.5-2.6,15.4,15.4,0,0,0,1.7-3.1,9.8,9.8,0,0,0,.7-3.4,9.3,9.3,0,0,0-.4-2.3l-.9-2.2H56.8v-5.8h4.3a15.3,15.3,0,0,1-2-3.7,14.3,14.3,0,0,1-1-5.6,12.6,12.6,0,0,1,1.1-5.1,12.1,12.1,0,0,1,3.3-4.3,15.4,15.4,0,0,1,5.4-2.9,23.5,23.5,0,0,1,7.4-1.1c5.2,0,9.2,1.5,12.1,4.3s4.3,7.1,4.3,12.6H82.6a14.8,14.8,0,0,0-.3-2.6,8.1,8.1,0,0,0-.9-2.9,6,6,0,0,0-2.1-2.4,6.8,6.8,0,0,0-4-1.1,6.9,6.9,0,0,0-4.9,1.7,6.1,6.1,0,0,0-1.7,4.5v1.6c.1.4.2,1,.3,1.7l.8,2.2a31.2,31.2,0,0,0,1.6,3.1h9v5.8H73.3a6.5,6.5,0,0,1,.4,2,14.8,14.8,0,0,1,.1,2.1,9.2,9.2,0,0,1-1.6,5.5,21.1,21.1,0,0,1-3.9,4h.2a8.9,8.9,0,0,1,2.6-1.3,6.5,6.5,0,0,1,1.9-.2,12.3,12.3,0,0,1,2.7.2l2.7.5,2.6.6,2.6.2a8.6,8.6,0,0,0,2.7-.5,7.8,7.8,0,0,0,3.2-2.4l4.1,6.8a13.4,13.4,0,0,1-5.2,3.3,17.1,17.1,0,0,1-5.3,1,25.2,25.2,0,0,1-4.3-.4l-3.1-.8a16.1,16.1,0,0,0-2.9-.9,13.5,13.5,0,0,0-3.7-.4,12.8,12.8,0,0,0-3.8.5,10.1,10.1,0,0,0-4,2l-4.2-6.2A18.6,18.6,0,0,0,59.9,398.5Z"/><path class="cls-2" d="M107.1,366.4l-1.9,10.7h.1a12.4,12.4,0,0,1,4.2-2.8,15.9,15.9,0,0,1,5-.8,13.5,13.5,0,0,1,6.2,1.3,13.2,13.2,0,0,1,4.6,3.4,15.8,15.8,0,0,1,2.8,5.1,18.3,18.3,0,0,1,1,6.2,16.9,16.9,0,0,1-1.4,6.8,17.5,17.5,0,0,1-3.8,5.4,17.4,17.4,0,0,1-5.6,3.6,18.5,18.5,0,0,1-6.7,1.2,23.9,23.9,0,0,1-6.6-1,15.1,15.1,0,0,1-5.5-2.8,12.3,12.3,0,0,1-3.9-4.6,13.8,13.8,0,0,1-1.5-6.5h9.5a8.3,8.3,0,0,0,2.5,5.1,7.2,7.2,0,0,0,5.3,1.9,7.7,7.7,0,0,0,3.4-.7,8.5,8.5,0,0,0,2.5-2.1A9.2,9.2,0,0,0,119,393a11.8,11.8,0,0,0,0-6.8,8.5,8.5,0,0,0-1.6-2.8,7,7,0,0,0-2.6-1.9,7.4,7.4,0,0,0-3.4-.7,8.7,8.7,0,0,0-4.2.9,9.1,9.1,0,0,0-3,2.9H95.5l4.7-26.1h26.3v7.9Z"/><path class="cls-2" d="M144.9,395.3v10.4H134.4V395.3Z"/><path class="cls-2" d="M165.9,405.7V375.1H154v-7.2a24.5,24.5,0,0,0,4.8-.4A13,13,0,0,0,163,366a11.4,11.4,0,0,0,3.2-3,10,10,0,0,0,1.6-4.5h7.7v47.2Z"/><path class="cls-2" d="M206,357.6l11.3,33.1h.1l10.7-33.1H243v48.1h-9.9V371.6h-.2l-11.8,34.1H213l-11.8-33.8h-.1v33.8h-9.9V357.6Z"/><path class="cls-2" d="M83.8,424v2.8H75.7v3.3h7.5v2.6H75.7v3.8H84v2.9H72.3V424Z"/><path class="cls-2" d="M85.8,431.6a3.8,3.8,0,0,1,.6-1.7,3.4,3.4,0,0,1,1.2-1.2,4.4,4.4,0,0,1,1.6-.6l1.9-.2h1.7l1.5.5a2.3,2.3,0,0,1,1.2,1,2.5,2.5,0,0,1,.5,1.6v7.2a8.1,8.1,0,0,0,.3,1.1H93.2c0-.2-.1-.4-.1-.6a4.3,4.3,0,0,1-.1-.5,3.7,3.7,0,0,1-1.7,1,6.9,6.9,0,0,1-2,.3H87.8a3.5,3.5,0,0,1-1.2-.7,2,2,0,0,1-.8-1,3.9,3.9,0,0,1,0-3,2.2,2.2,0,0,1,.9-1,3.4,3.4,0,0,1,1.2-.6l1.4-.3h1.3l1.2-.2.8-.4a.9.9,0,0,0,.3-.7,1.5,1.5,0,0,0-.2-.8,1,1,0,0,0-.4-.5l-.6-.2h-.8a2,2,0,0,0-1.4.4,1.2,1.2,0,0,0-.6,1.2Zm7.1,2.3-.5.3H91.1l-.7.2h-.7l-.6.3a1,1,0,0,0-.4.5,1.3,1.3,0,0,0,0,1.4.8.8,0,0,0,.4.4l.6.3h.7a2.6,2.6,0,0,0,1.4-.3,1.9,1.9,0,0,0,.8-.7,2.9,2.9,0,0,0,.2-.9,1.5,1.5,0,0,0,.1-.6Z"/><path class="cls-2" d="M101.2,428.2v2.1h.1a2.1,2.1,0,0,1,.6-1,2.7,2.7,0,0,1,.8-.7l1-.5,1.1-.2h.7v2.9h-1.1l-1.4.2a3.6,3.6,0,0,0-1.5,1.9,6.6,6.6,0,0,0-.1,1.4v5.1H98.3V428.2Z"/><path class="cls-2" d="M110,428.2v1.6h.1a3.3,3.3,0,0,1,1.5-1.4,4.1,4.1,0,0,1,1.9-.5,4,4,0,0,1,2,.4,2.7,2.7,0,0,1,1.2.9,3.7,3.7,0,0,1,.7,1.4,11.1,11.1,0,0,1,.2,1.9v6.9h-3.1v-6.3a3.9,3.9,0,0,0-.4-2.1,1.9,1.9,0,0,0-1.6-.7,2.2,2.2,0,0,0-1.8.8,4.8,4.8,0,0,0-.5,2.4v5.9h-3.1V428.2Z"/><path class="cls-2" d="M123.2,436.7a2.8,2.8,0,0,0,2,.7,2.5,2.5,0,0,0,1.5-.5,1.7,1.7,0,0,0,.9-1h2.7a5.4,5.4,0,0,1-2,2.9,5.8,5.8,0,0,1-3.3.8,5.9,5.9,0,0,1-2.3-.4,5.7,5.7,0,0,1-1.8-1.2,4.2,4.2,0,0,1-1.1-1.8,6.1,6.1,0,0,1-.4-2.4,5.9,5.9,0,0,1,.4-2.3,4.5,4.5,0,0,1,1.1-1.9,5.7,5.7,0,0,1,1.8-1.2,5.9,5.9,0,0,1,2.3-.5,5.7,5.7,0,0,1,4.3,2,8.5,8.5,0,0,1,.9,2.2,9.3,9.3,0,0,1,.3,2.4h-8.1A3.4,3.4,0,0,0,123.2,436.7Zm3.4-5.9a2,2,0,0,0-1.6-.6,2.8,2.8,0,0,0-1.3.3,1.3,1.3,0,0,0-.7.6,1.2,1.2,0,0,0-.4.8,1.9,1.9,0,0,0-.2.7h5A3,3,0,0,0,126.6,430.8Z"/><path class="cls-2" d="M140.2,437.9a2.9,2.9,0,0,1-1.4,1.3,4.5,4.5,0,0,1-2,.4,5.1,5.1,0,0,1-2.2-.4,5.4,5.4,0,0,1-1.6-1.4,4.8,4.8,0,0,1-.9-1.9,8.2,8.2,0,0,1,0-4.4,4.8,4.8,0,0,1,2.5-3.1,4.6,4.6,0,0,1,2.1-.5,5.8,5.8,0,0,1,1.9.4,2.9,2.9,0,0,1,1.4,1.3h.1V424h3v15.4h-2.9v-1.5Zm-.1-5.5a3.7,3.7,0,0,0-.5-1.1,3,3,0,0,0-.8-.8,2.1,2.1,0,0,0-1.2-.3,2.3,2.3,0,0,0-1.3.3,3.4,3.4,0,0,0-.9.8,4.2,4.2,0,0,0-.4,1.2,5.3,5.3,0,0,0-.1,1.3,6.2,6.2,0,0,0,.1,1.3,3.7,3.7,0,0,0,.5,1.1,2,2,0,0,0,.8.8,2,2,0,0,0,1.3.4,2.1,2.1,0,0,0,1.2-.3,1.8,1.8,0,0,0,.8-.9,3.7,3.7,0,0,0,.5-1.1c0-.4.1-.9.1-1.3S140.1,432.9,140.1,432.4Z"/><path class="cls-2" d="M154.3,428.2v2.1h.1a2.1,2.1,0,0,1,.6-1,2.7,2.7,0,0,1,.8-.7l1-.5,1.1-.2h.7v2.9h-1.1l-1.4.2a2.4,2.4,0,0,0-.9.8,3.9,3.9,0,0,0-.6,1.1,6.6,6.6,0,0,0-.1,1.4v5.1h-3.1V428.2Z"/><path class="cls-2" d="M162.7,436.7a3,3,0,0,0,3.6.2,1.9,1.9,0,0,0,.8-1h2.7a4.9,4.9,0,0,1-2,2.9,5.5,5.5,0,0,1-3.2.8,6.1,6.1,0,0,1-2.4-.4,5.7,5.7,0,0,1-1.8-1.2,5.4,5.4,0,0,1-1.1-1.8,6.1,6.1,0,0,1-.4-2.4,5.9,5.9,0,0,1,.4-2.3,6.2,6.2,0,0,1,1.2-1.9,5.7,5.7,0,0,1,1.8-1.2,5.6,5.6,0,0,1,2.3-.5,5.1,5.1,0,0,1,2.5.6,3.9,3.9,0,0,1,1.7,1.4,6.2,6.2,0,0,1,1,2.2,6.3,6.3,0,0,1,.2,2.4h-8A3.4,3.4,0,0,0,162.7,436.7Zm3.5-5.9a2.4,2.4,0,0,0-1.7-.6,2.1,2.1,0,0,0-1.2.3,1.6,1.6,0,0,0-.8.6,2,2,0,0,0-.4.8,1.7,1.7,0,0,0-.1.7h4.9A3.8,3.8,0,0,0,166.2,430.8Z"/><path class="cls-2" d="M174.6,439.4l-3.8-11.2H174l2.3,7.6h.1l2.3-7.6h3.1L178,439.4Z"/><path class="cls-2" d="M186.3,436.7a3,3,0,0,0,3.6.2,1.9,1.9,0,0,0,.8-1h2.7a4.9,4.9,0,0,1-2,2.9,5.7,5.7,0,0,1-3.2.8,6.1,6.1,0,0,1-2.4-.4A5.7,5.7,0,0,1,184,438a4.2,4.2,0,0,1-1.1-1.8,6.1,6.1,0,0,1-.4-2.4,5.9,5.9,0,0,1,.4-2.3,6.2,6.2,0,0,1,1.2-1.9,5.7,5.7,0,0,1,1.8-1.2,5.6,5.6,0,0,1,2.3-.5,5.1,5.1,0,0,1,2.5.6,4.6,4.6,0,0,1,1.7,1.4,8.8,8.8,0,0,1,1,2.2,9.3,9.3,0,0,1,.2,2.4h-8.1A3.4,3.4,0,0,0,186.3,436.7Zm3.5-5.9a2.4,2.4,0,0,0-1.7-.6,2.1,2.1,0,0,0-1.2.3,1.2,1.2,0,0,0-.8.6,2,2,0,0,0-.4.8c-.1.2-.1.5-.2.7h5A3.8,3.8,0,0,0,189.8,430.8Z"/><path class="cls-2" d="M198.3,428.2v1.6h.1a3.3,3.3,0,0,1,1.5-1.4,4.1,4.1,0,0,1,1.9-.5,4,4,0,0,1,2,.4,2.7,2.7,0,0,1,1.2.9,3.7,3.7,0,0,1,.7,1.4,11.1,11.1,0,0,1,.2,1.9v6.9h-3.1v-6.3a3.9,3.9,0,0,0-.4-2.1,1.9,1.9,0,0,0-1.6-.7,2.2,2.2,0,0,0-1.8.8,3.9,3.9,0,0,0-.5,2.4v5.9h-3.1V428.2Z"/><path class="cls-2" d="M215.7,439.4v-1.6h0a3.3,3.3,0,0,1-1.5,1.4,4.6,4.6,0,0,1-1.9.4,6.2,6.2,0,0,1-2.1-.3,2.7,2.7,0,0,1-1.2-.9,3.5,3.5,0,0,1-.6-1.4,5.8,5.8,0,0,1-.2-1.9v-6.9h3v6.3a4.1,4.1,0,0,0,.5,2.1,1.8,1.8,0,0,0,1.5.7,2.2,2.2,0,0,0,1.8-.8,3.8,3.8,0,0,0,.6-2.4v-5.9h3v11.2Z"/><path class="cls-2" d="M224.2,436.7a3.2,3.2,0,0,0,2,.7,2.8,2.8,0,0,0,1.6-.5,1.5,1.5,0,0,0,.8-1h2.7a5.3,5.3,0,0,1-1.9,2.9,5.8,5.8,0,0,1-3.3.8,5.6,5.6,0,0,1-2.3-.4A4.1,4.1,0,0,1,222,438a5.7,5.7,0,0,1-1.2-1.8,7.1,7.1,0,0,1,0-4.7,6.2,6.2,0,0,1,1.2-1.9,5.7,5.7,0,0,1,1.8-1.2,5.9,5.9,0,0,1,2.3-.5,4.9,4.9,0,0,1,2.5.6,3.9,3.9,0,0,1,1.7,1.4,6.2,6.2,0,0,1,1,2.2,6.3,6.3,0,0,1,.2,2.4h-8A3.4,3.4,0,0,0,224.2,436.7Zm3.5-5.9a2.2,2.2,0,0,0-1.7-.6,2.1,2.1,0,0,0-1.2.3,1.6,1.6,0,0,0-.8.6,2,2,0,0,0-.4.8c0,.2-.1.5-.1.7h5A3.8,3.8,0,0,0,227.7,430.8Z"/></g></g></svg>