<svg xmlns="http://www.w3.org/2000/svg" viewBox="0 0 469.4 257.3"><defs><style>.cls-1{fill:#2254f3;}.cls-2{fill:#ee3aaa;}.cls-3{fill:#f8bb26;}.cls-4{fill:#fff;}.cls-5{fill:none;stroke:#fff;stroke-miterlimit:10;}</style></defs><title>financials</title><g id="Layer_2" data-name="Layer 2"><g id="Layer_1-2" data-name="Layer 1"><path class="cls-1" d="M340.8,128.6,298.9,7a124.5,124.5,0,0,1,41.9-7Z"/><path class="cls-2" d="M340.8,128.6,227.2,68.2C242.9,38.7,267.3,17.9,298.9,7Z"/><path class="cls-3" d="M340.8,128.6V0A128.6,128.6,0,1,1,212.1,128.6c0-22.8,4.4-40.2,15.1-60.4Z"/><path class="cls-4" d="M81.7,32.2v9.9h5.9v2.3H79V32.2Z"/><path class="cls-4" d="M88.9,38.1a3.6,3.6,0,0,1,2.4-2.4,3.4,3.4,0,0,1,1.8-.4,3.8,3.8,0,0,1,1.9.4,3.6,3.6,0,0,1,2.4,2.4,5.4,5.4,0,0,1,.3,1.9,5.8,5.8,0,0,1-.3,1.9,4.2,4.2,0,0,1-.9,1.4,5.6,5.6,0,0,1-1.5,1,5.4,5.4,0,0,1-1.9.3,4.8,4.8,0,0,1-1.8-.3,5.6,5.6,0,0,1-1.5-1,4.2,4.2,0,0,1-.9-1.4,5.8,5.8,0,0,1-.3-1.9A5.4,5.4,0,0,1,88.9,38.1ZM91.1,41a3.6,3.6,0,0,0,.4.9.9.9,0,0,0,.6.6,1.7,1.7,0,0,0,1,.3,2,2,0,0,0,1.1-.3,1.2,1.2,0,0,0,.6-.6,3.6,3.6,0,0,0,.4-.9c0-.3.1-.7.1-1s-.1-.7-.1-1.1a3.6,3.6,0,0,0-.4-.9c-.1-.2-.4-.4-.6-.6a2,2,0,0,0-1.1-.2,1.6,1.6,0,0,0-1,.2,1.7,1.7,0,0,0-.6.6,3.6,3.6,0,0,0-.4.9c0,.4-.1.7-.1,1.1S91.1,40.7,91.1,41Z"/><path class="cls-4" d="M101.3,42.2l.4.4.6.3h1.2l.5-.2c.2,0,.3-.2.4-.3a.8.8,0,0,0,.2-.5c0-.4-.3-.7-.8-.9l-2-.5-1-.3-.9-.4a1.3,1.3,0,0,1-.6-.7,1.4,1.4,0,0,1-.3-.9,2.6,2.6,0,0,1,.4-1.4,2.4,2.4,0,0,1,.8-.9,2.8,2.8,0,0,1,1.3-.4l1.4-.2,1.4.2,1.1.4a2,2,0,0,1,.9.9,1.8,1.8,0,0,1,.4,1.3h-2.3a1.1,1.1,0,0,0-.5-.9,2,2,0,0,0-1.1-.3h-.9l-.3.2a.7.7,0,0,0-.1.5c0,.2,0,.4.2.5l.6.3.9.3,1,.2a3.8,3.8,0,0,1,1,.3,1.9,1.9,0,0,1,.9.4,1.3,1.3,0,0,1,.6.7,1.7,1.7,0,0,1,.3,1,2.4,2.4,0,0,1-.4,1.5,2,2,0,0,1-.9.9,2.9,2.9,0,0,1-1.3.5l-1.4.2-1.5-.2a2.5,2.5,0,0,1-1.3-.5,2.8,2.8,0,0,1-1-.9,5.4,5.4,0,0,1-.4-1.5h2.3A1.4,1.4,0,0,0,101.3,42.2Z"/><path class="cls-4" d="M110.4,42.2c.1.2.3.3.4.4l.6.3h1.2l.6-.2.3-.3a.8.8,0,0,0,.2-.5.9.9,0,0,0-.7-.9l-2-.5-1.1-.3-.9-.4-.6-.7a1.3,1.3,0,0,1-.2-.9,2.6,2.6,0,0,1,.3-1.4,2,2,0,0,1,.9-.9,2.1,2.1,0,0,1,1.2-.4l1.4-.2,1.4.2,1.2.4a3.8,3.8,0,0,1,.9.9,4,4,0,0,1,.4,1.3h-2.3a1.1,1.1,0,0,0-.6-.9,1.8,1.8,0,0,0-1.1-.3h-.8l-.4.2a.7.7,0,0,0-.1.5.8.8,0,0,0,.2.5l.6.3.9.3,1,.2a2.9,2.9,0,0,1,1,.3,1.9,1.9,0,0,1,.9.4l.7.7a3,3,0,0,1,.2,1,3.3,3.3,0,0,1-.3,1.5,2.8,2.8,0,0,1-1,.9,2.6,2.6,0,0,1-1.2.5l-1.5.2-1.5-.2a2.9,2.9,0,0,1-1.3-.5,2,2,0,0,1-.9-.9,2.4,2.4,0,0,1-.4-1.5h2.3A1.5,1.5,0,0,0,110.4,42.2Z"/><path class="cls-4" d="M122.5,42.5c.2-.1.4-.4.6-.6a2,2,0,0,0,.4-.8,2.4,2.4,0,0,0,.2-.9,1.1,1.1,0,0,0-.1-.5c-.1-.2-.1-.4-.2-.6h-1.7V37.7h1.1a3.1,3.1,0,0,1-.5-1,3.2,3.2,0,0,1-.3-1.4,3.1,3.1,0,0,1,.3-1.3,3.8,3.8,0,0,1,.8-1.1,4.6,4.6,0,0,1,1.4-.7,5,5,0,0,1,1.9-.3,4.1,4.1,0,0,1,3,1.1,4.4,4.4,0,0,1,1.1,3.2h-2.3a2,2,0,0,0-.1-.7,1.9,1.9,0,0,0-.2-.7l-.5-.6a1.8,1.8,0,0,0-1.1-.3,2.1,2.1,0,0,0-1.2.4,1.6,1.6,0,0,0-.4,1.2v.4a.8.8,0,0,0,.1.4,1.4,1.4,0,0,0,.2.6,5.9,5.9,0,0,0,.4.8h2.2v1.4h-1.8l.2.5v.6a2.8,2.8,0,0,1-.4,1.3,4.7,4.7,0,0,1-1,1h0l.7-.3h1.2l.6.2h2a1.7,1.7,0,0,0,.8-.7l1.1,1.8a4.6,4.6,0,0,1-1.3.8,3.6,3.6,0,0,1-1.4.2h-1.1l-.7-.2-.8-.2h-1.9l-1,.5-1-1.5Z"/><path class="cls-4" d="M131.5,35.4a5.6,5.6,0,0,1,.9-1.9,4.5,4.5,0,0,1,1.4-1,5,5,0,0,1,3.4,0,4.5,4.5,0,0,1,1.4,1,5.6,5.6,0,0,1,.9,1.9,8.7,8.7,0,0,1,.4,3,8.5,8.5,0,0,1-.4,2.9,5.3,5.3,0,0,1-.9,2,4.5,4.5,0,0,1-1.4,1,5,5,0,0,1-3.4,0,4.5,4.5,0,0,1-1.4-1,5.3,5.3,0,0,1-.9-2,11.9,11.9,0,0,1-.4-2.9A12.1,12.1,0,0,1,131.5,35.4Zm2.1,4.2a6.8,6.8,0,0,0,.2,1.4,2.4,2.4,0,0,0,.6,1.1c.2.4.6.5,1.1.5s.9-.1,1.1-.5a2.4,2.4,0,0,0,.6-1.1,6.8,6.8,0,0,0,.2-1.4c0-.5.1-.9.1-1.2v-.8a2.8,2.8,0,0,1-.1-.9c-.1-.3-.1-.6-.2-.9l-.3-.8-.6-.6-.8-.2-.8.2-.6.6-.3.8c-.1.3-.1.6-.2.9v.9c0,.3-.1.6-.1.8S133.6,39.1,133.6,39.6Z"/><path class="cls-4" d="M143.9,41.7v2.7h-2.6V41.7Z"/><path class="cls-4" d="M145.7,35.4a5.6,5.6,0,0,1,.9-1.9,4.5,4.5,0,0,1,1.4-1,4.7,4.7,0,0,1,1.7-.3,5.1,5.1,0,0,1,1.7.3,6.1,6.1,0,0,1,1.4,1,5.6,5.6,0,0,1,.9,1.9,12.1,12.1,0,0,1,.4,3,11.9,11.9,0,0,1-.4,2.9,5.3,5.3,0,0,1-.9,2,6.1,6.1,0,0,1-1.4,1,5.1,5.1,0,0,1-1.7.3,4.7,4.7,0,0,1-1.7-.3,4.5,4.5,0,0,1-1.4-1,5.3,5.3,0,0,1-.9-2,8.5,8.5,0,0,1-.4-2.9A8.7,8.7,0,0,1,145.7,35.4Zm2.1,4.2A6.8,6.8,0,0,0,148,41a3.7,3.7,0,0,0,.5,1.1,1.3,1.3,0,0,0,1.2.5,1.2,1.2,0,0,0,1.1-.5,2.4,2.4,0,0,0,.6-1.1,6.8,6.8,0,0,0,.2-1.4V36.7c-.1-.3-.1-.6-.2-.9l-.3-.8-.6-.6-.8-.2-.9.2-.5.6a1.9,1.9,0,0,0-.3.8,2.9,2.9,0,0,0-.2.9c0,.3-.1.6-.1.9v.8A5.7,5.7,0,0,0,147.8,39.6Z"/><path class="cls-4" d="M161.5,36.5l-1.2,2.6a26.8,26.8,0,0,0-.7,2.7,12.2,12.2,0,0,0-.3,2.6h-2.6a18.9,18.9,0,0,1,1.3-5.2,20.7,20.7,0,0,1,2.7-4.5h-5.6V32.5h8.1v2A11.2,11.2,0,0,0,161.5,36.5Z"/><path class="cls-4" d="M168.8,32.2l2.8,8.4h.1l2.7-8.4h3.7V44.4h-2.5V35.8h0l-3,8.6h-2.1l-2.9-8.6h-.1v8.6H165V32.2Z"/><path class="cls-4" d="M20.7,73.5a1.3,1.3,0,0,0-.6-.7l-.8-.5h-.9a4.1,4.1,0,0,0-1.6.3,4.7,4.7,0,0,0-1,1,5,5,0,0,0-.5,1.3,3.9,3.9,0,0,0-.2,1.5,3.6,3.6,0,0,0,.2,1.5,5,5,0,0,0,.5,1.3,4.7,4.7,0,0,0,1,1,4.1,4.1,0,0,0,1.6.3,2.5,2.5,0,0,0,1.9-.7,4,4,0,0,0,.8-2h2.6a6.5,6.5,0,0,1-.5,2,5,5,0,0,1-1.1,1.6,4.8,4.8,0,0,1-1.7,1,6.4,6.4,0,0,1-2,.3,4.9,4.9,0,0,1-2.5-.5A4.3,4.3,0,0,1,14,80.8a6.7,6.7,0,0,1-1.2-2,6.6,6.6,0,0,1-.4-2.5,6.9,6.9,0,0,1,.4-2.5,6.7,6.7,0,0,1,1.2-2,5.5,5.5,0,0,1,1.9-1.4,6.2,6.2,0,0,1,2.5-.5,6.3,6.3,0,0,1,1.9.3,5.1,5.1,0,0,1,1.6.9A4.7,4.7,0,0,1,23,72.4a6,6,0,0,1,.6,1.9H21A1.1,1.1,0,0,0,20.7,73.5Z"/><path class="cls-4" d="M25.3,76.1a5.4,5.4,0,0,1,.9-1.5,3.8,3.8,0,0,1,1.5-.9,3.7,3.7,0,0,1,1.8-.4,3.8,3.8,0,0,1,1.9.4,3.6,3.6,0,0,1,2.4,2.4,5.4,5.4,0,0,1,.3,1.9,5.8,5.8,0,0,1-.3,1.9,4.2,4.2,0,0,1-.9,1.4,5.6,5.6,0,0,1-1.5,1,5.4,5.4,0,0,1-1.9.3,5.2,5.2,0,0,1-1.8-.3,5.6,5.6,0,0,1-1.5-1,6.7,6.7,0,0,1-.9-1.4A5.8,5.8,0,0,1,25,78,5.4,5.4,0,0,1,25.3,76.1ZM27.5,79a3.6,3.6,0,0,0,.4.9,1.2,1.2,0,0,0,.6.6,1.7,1.7,0,0,0,1,.3,1.8,1.8,0,0,0,1.1-.3.9.9,0,0,0,.6-.6,3.6,3.6,0,0,0,.4-.9,3.4,3.4,0,0,0,.1-1,4.1,4.1,0,0,0-.1-1.1,3.6,3.6,0,0,0-.4-.9,1.7,1.7,0,0,0-.6-.6,1.8,1.8,0,0,0-1.1-.2,1.6,1.6,0,0,0-1,.2c-.2.2-.5.4-.6.6a3.6,3.6,0,0,0-.4.9c0,.4-.1.7-.1,1.1S27.5,78.7,27.5,79Z"/><path class="cls-4" d="M38,73.6v1.6h0a3.5,3.5,0,0,1,.5-.8,1.5,1.5,0,0,1,.6-.5l.8-.4.9-.2h.5v2.3h-.8l-1.2.2a1.3,1.3,0,0,0-.7.6,3.6,3.6,0,0,0-.4.9,3.7,3.7,0,0,0-.1,1.1v4H35.7V73.6Z"/><path class="cls-4" d="M44.6,80.3a2.1,2.1,0,0,0,1.5.5,2,2,0,0,0,1.3-.4,1.6,1.6,0,0,0,.6-.8h2.1a3.9,3.9,0,0,1-1.5,2.3,4.4,4.4,0,0,1-2.6.7,3.4,3.4,0,0,1-1.8-.4,2.8,2.8,0,0,1-1.4-.9,3.8,3.8,0,0,1-.9-1.5,4.8,4.8,0,0,1-.4-1.8,5.8,5.8,0,0,1,.4-1.9,4.2,4.2,0,0,1,.9-1.4,4.5,4.5,0,0,1,1.4-1,5.8,5.8,0,0,1,1.8-.4,4.2,4.2,0,0,1,2,.5,4.9,4.9,0,0,1,1.4,1.1,5.1,5.1,0,0,1,.7,1.7,6.5,6.5,0,0,1,.2,2H44A2.4,2.4,0,0,0,44.6,80.3Zm2.7-4.7a1.7,1.7,0,0,0-1.3-.4H45c-.2.2-.5.3-.6.5a.9.9,0,0,0-.3.6,1.8,1.8,0,0,0-.1.6h3.9A2.6,2.6,0,0,0,47.3,75.6Z"/><path class="cls-4" d="M55.5,75.2V73.6H57v-.7a2.5,2.5,0,0,1,.7-1.9,2.9,2.9,0,0,1,2.2-.8h1.3v1.8h-.9a.9.9,0,0,0-.7.3,1.2,1.2,0,0,0-.2.7v.6h1.7v1.6H59.4v7.2H57V75.2Z"/><path class="cls-4" d="M68.1,82.4V81.1H68a2.5,2.5,0,0,1-1.2,1.1,2.8,2.8,0,0,1-1.5.4,4.1,4.1,0,0,1-1.6-.3,1.6,1.6,0,0,1-.9-.7,2.2,2.2,0,0,1-.5-1.1,7.7,7.7,0,0,1-.2-1.5V73.6h2.4v4.9a2.7,2.7,0,0,0,.4,1.7,1.4,1.4,0,0,0,1.2.5,1.7,1.7,0,0,0,1.4-.6,3.2,3.2,0,0,0,.4-1.9V73.6h2.5v8.8Z"/><path class="cls-4" d="M74.5,73.6v1.2h0a2.5,2.5,0,0,1,1.2-1.1,2.8,2.8,0,0,1,1.5-.4,3.5,3.5,0,0,1,1.6.3,2.6,2.6,0,0,1,1,.7,3.3,3.3,0,0,1,.5,1.2,6.6,6.6,0,0,1,.1,1.5v5.4H78v-5a3.2,3.2,0,0,0-.3-1.6,1.2,1.2,0,0,0-1.2-.6c-.7,0-1.2.2-1.4.6a3.4,3.4,0,0,0-.5,2v4.6H72.2V73.6Z"/><path class="cls-4" d="M88.5,81.2a2.3,2.3,0,0,1-1.1,1.1,4.1,4.1,0,0,1-1.6.3,3.3,3.3,0,0,1-1.7-.4,4,4,0,0,1-1.2-1,5.1,5.1,0,0,1-.7-1.5,5.7,5.7,0,0,1-.3-1.8,4.7,4.7,0,0,1,.3-1.7,3.5,3.5,0,0,1,.7-1.5,4,4,0,0,1,1.2-1,4.7,4.7,0,0,1,1.7-.4,2.8,2.8,0,0,1,1.5.4,2.4,2.4,0,0,1,1.1.9h0V70.2h2.4V82.4H88.6V81.2Zm-.1-4.3-.3-.9c-.2-.2-.4-.5-.7-.6a1.5,1.5,0,0,0-1-.2,1.6,1.6,0,0,0-1,.2,1.7,1.7,0,0,0-.6.6,3.6,3.6,0,0,0-.4.9c0,.3-.1.7-.1,1.1s.1.6.1,1a3.6,3.6,0,0,0,.4.9,1.3,1.3,0,0,0,.7.6,1.4,1.4,0,0,0,.9.3,1.5,1.5,0,0,0,1-.3,1.3,1.3,0,0,0,.7-.6l.3-.9a3.7,3.7,0,0,0,.1-1.1A3.4,3.4,0,0,0,88.4,76.9Z"/><path class="cls-4" d="M92.7,72.2v-2h2.4v2Zm2.4,1.4v8.8H92.7V73.6Z"/><path class="cls-4" d="M99.3,73.6v1.2h.1a2.5,2.5,0,0,1,1.2-1.1,2.8,2.8,0,0,1,1.5-.4,3.8,3.8,0,0,1,1.6.3,2.2,2.2,0,0,1,.9.7,2.3,2.3,0,0,1,.6,1.2c0,.4.1.9.1,1.5v5.4h-2.4v-5a2.4,2.4,0,0,0-.4-1.6,1.2,1.2,0,0,0-1.2-.6,1.7,1.7,0,0,0-1.4.6,3.5,3.5,0,0,0-.4,2v4.6H97.1V73.6Z"/><path class="cls-4" d="M115.4,83a3.1,3.1,0,0,1-.6,1.3,3.9,3.9,0,0,1-1.4,1,7.5,7.5,0,0,1-2.4.4l-1.3-.2-1.2-.5a2,2,0,0,1-.9-.9,2.2,2.2,0,0,1-.5-1.2h2.4a2.2,2.2,0,0,0,.7.9,2,2,0,0,0,1.1.3,1.6,1.6,0,0,0,1.5-.7,2.5,2.5,0,0,0,.5-1.5V80.7h0a2.5,2.5,0,0,1-1.2,1.1,3.7,3.7,0,0,1-1.5.3,4.7,4.7,0,0,1-1.7-.3,4,4,0,0,1-1.2-1,3.5,3.5,0,0,1-.6-1.4,4.7,4.7,0,0,1-.2-1.7,5,5,0,0,1,.2-1.7l.7-1.4a2.7,2.7,0,0,1,1.2-.9,4.2,4.2,0,0,1,1.6-.4,2.9,2.9,0,0,1,1.6.4,2.6,2.6,0,0,1,1.1,1h0V73.6h2.3v8.2A6,6,0,0,1,115.4,83Zm-3.3-2.9a2,2,0,0,0,.7-.6,4.3,4.3,0,0,0,.4-.7c0-.3.1-.6.1-.9a3.7,3.7,0,0,0-.1-1.1,2,2,0,0,0-.4-.8.9.9,0,0,0-.6-.6,1.5,1.5,0,0,0-1-.2,1.1,1.1,0,0,0-.8.2,1.8,1.8,0,0,0-.7.5l-.3.8a3.1,3.1,0,0,0-.1,1,2.8,2.8,0,0,0,.1.9,1.1,1.1,0,0,0,.3.8.9.9,0,0,0,.6.6,1.4,1.4,0,0,0,.9.3Z"/><path class="cls-4" d="M122.5,80.5c.2-.1.4-.4.6-.6a2,2,0,0,0,.4-.8,2.4,2.4,0,0,0,.2-.9,1.1,1.1,0,0,0-.1-.5c-.1-.2-.1-.4-.2-.6h-1.7V75.7h1.1a3.1,3.1,0,0,1-.5-1,3.2,3.2,0,0,1-.3-1.4,3.1,3.1,0,0,1,.3-1.3,3.8,3.8,0,0,1,.8-1.1,4.6,4.6,0,0,1,1.4-.7,5,5,0,0,1,1.9-.3,4.1,4.1,0,0,1,3,1.1,4.4,4.4,0,0,1,1.1,3.2h-2.3a2,2,0,0,0-.1-.7,1.9,1.9,0,0,0-.2-.7l-.5-.6a1.8,1.8,0,0,0-1.1-.3,2.1,2.1,0,0,0-1.2.4,1.6,1.6,0,0,0-.4,1.2v.4a.8.8,0,0,0,.1.4,1.4,1.4,0,0,0,.2.6l.4.8h2.2v1.4h-1.8l.2.5v.6a2.8,2.8,0,0,1-.4,1.3,4.7,4.7,0,0,1-1,1h0l.7-.3h1.2l.6.2h2a1.7,1.7,0,0,0,.8-.7l1.1,1.8a4.6,4.6,0,0,1-1.3.8,3.6,3.6,0,0,1-1.4.2h-1.1l-.7-.2-.8-.2h-1.9l-1,.5-1-1.5Z"/><path class="cls-4" d="M131.5,73.4a5.6,5.6,0,0,1,.9-1.9,4.5,4.5,0,0,1,1.4-1,5,5,0,0,1,3.4,0,4.5,4.5,0,0,1,1.4,1,5.6,5.6,0,0,1,.9,1.9,8.7,8.7,0,0,1,.4,3,8.5,8.5,0,0,1-.4,2.9,5.3,5.3,0,0,1-.9,2,4.5,4.5,0,0,1-1.4,1,5,5,0,0,1-3.4,0,4.5,4.5,0,0,1-1.4-1,5.3,5.3,0,0,1-.9-2,11.9,11.9,0,0,1-.4-2.9A12.1,12.1,0,0,1,131.5,73.4Zm2.1,4.2a6.8,6.8,0,0,0,.2,1.4,2.4,2.4,0,0,0,.6,1.1c.2.4.6.5,1.1.5s.9-.1,1.1-.5a2.4,2.4,0,0,0,.6-1.1,6.8,6.8,0,0,0,.2-1.4c0-.5.1-.9.1-1.2v-.8a2.8,2.8,0,0,1-.1-.9c-.1-.3-.1-.6-.2-.9l-.3-.8-.6-.6-.8-.2-.8.2-.6.6-.3.8c-.1.3-.1.6-.2.9v.9c0,.3-.1.6-.1.8S133.6,77.1,133.6,77.6Z"/><path class="cls-4" d="M143.9,79.7v2.7h-2.7V79.7Z"/><path class="cls-4" d="M149.7,75.3l.8-.2a1.5,1.5,0,0,0,.6-.5,1.1,1.1,0,0,0,.3-.8,1.7,1.7,0,0,0-.5-1.2,1.9,1.9,0,0,0-1.2-.4,1.7,1.7,0,0,0-1.4.6,2.5,2.5,0,0,0-.5,1.5h-2.2a4.3,4.3,0,0,1,1.1-2.9,3.8,3.8,0,0,1,1.3-.9,4.7,4.7,0,0,1,1.7-.3l1.4.2,1.3.7a2.8,2.8,0,0,1,.9,1,3.3,3.3,0,0,1,.4,1.4,3,3,0,0,1-.5,1.6,2.3,2.3,0,0,1-1.2.9h0a2,2,0,0,1,1.5.9,2.8,2.8,0,0,1,.6,1.8,3.3,3.3,0,0,1-.4,1.7,4.7,4.7,0,0,1-.9,1.2,3.5,3.5,0,0,1-1.5.7,4.1,4.1,0,0,1-1.6.3,4.8,4.8,0,0,1-1.8-.3,3.7,3.7,0,0,1-1.4-.8,4.2,4.2,0,0,1-.9-1.4,3.4,3.4,0,0,1-.3-1.8h2.3a2.8,2.8,0,0,0,.1.9,1.6,1.6,0,0,0,.4.7l.6.5.9.2a2,2,0,0,0,1.4-.5,1.7,1.7,0,0,0,.6-1.4,1.5,1.5,0,0,0-.3-1l-.6-.5-.9-.2h-1V75.3Z"/><path class="cls-4" d="M155.3,73.1a4.4,4.4,0,0,1,.8-1.5,4.5,4.5,0,0,1,3.3-1.4,4,4,0,0,1,1.5.3,3.3,3.3,0,0,1,1.3.7,2.7,2.7,0,0,1,.9,1.2,3.7,3.7,0,0,1,.3,1.5,3.8,3.8,0,0,1-.3,1.6,2.6,2.6,0,0,1-.7,1.1,3.1,3.1,0,0,1-1.1.9l-1.2.9-1.2.8a5.2,5.2,0,0,0-1,1.1h5.6v2.1h-8.7a4.8,4.8,0,0,1,.3-1.8,3.2,3.2,0,0,1,.8-1.4,4.3,4.3,0,0,1,1.2-1.1l1.4-1.1.9-.5.8-.6.6-.8a3,3,0,0,0,.2-1,1.5,1.5,0,0,0-.5-1.3,1.7,1.7,0,0,0-1.3-.5l-.9.2a1.8,1.8,0,0,0-.5.7,2.5,2.5,0,0,0-.4.9c0,.3-.1.6-.1.9H155A6.3,6.3,0,0,1,155.3,73.1Z"/><path class="cls-4" d="M168.8,70.2l2.8,8.4h.1l2.6-8.4h3.8V82.4h-2.5V73.8h0l-3,8.6h-2.1l-2.9-8.6h-.1v8.6H165V70.2Z"/><path class="cls-4" d="M9.1,108.2v2.3H2.7v2.6H8.6v2H2.7v3H9.2v2.3H0V108.2Z"/><path class="cls-4" d="M10.7,114.3a2,2,0,0,1,.4-1.4,2.6,2.6,0,0,1,.9-.9,3.5,3.5,0,0,1,1.3-.5l1.5-.2h1.3l1.3.4a3.1,3.1,0,0,1,.9.7,2.8,2.8,0,0,1,.3,1.3v4.6c0,.4.1.8.1,1.1s.1.7.3.9H16.5c0-.2-.1-.3-.1-.5s-.1-.2-.1-.4a2.2,2.2,0,0,1-1.3.8,4.5,4.5,0,0,1-1.6.3l-1.2-.2a1.9,1.9,0,0,1-.9-.4,3.1,3.1,0,0,1-.7-.9,3.6,3.6,0,0,1-.2-1.1,2.8,2.8,0,0,1,.3-1.3,1.4,1.4,0,0,1,.6-.7,3.1,3.1,0,0,1,1-.5l1.1-.2h1l1-.2.6-.3c.2-.1.2-.3.2-.6a1.3,1.3,0,0,0-.1-.6l-.3-.3-.5-.2h-.6a2.1,2.1,0,0,0-1.2.4,1.3,1.3,0,0,0-.4,1Zm5.5,1.8-.3.2H13.7l-.5.2-.3.4c-.1.1-.1.3-.1.6a.7.7,0,0,0,.1.5l.3.4h1.1a1.8,1.8,0,0,0,1.1-.3l.6-.5a1.9,1.9,0,0,0,.2-.7v-1.4Z"/><path class="cls-4" d="M22.8,111.6v1.6h0l.5-.8a1.8,1.8,0,0,1,.7-.5,2,2,0,0,1,.8-.4l.9-.2h.5v2.3h-.9l-1.1.2a1.1,1.1,0,0,0-.7.6,1.8,1.8,0,0,0-.4.9,3.6,3.6,0,0,0-.2,1.1v4H20.5v-8.8Z"/><path class="cls-4" d="M29.7,111.6v1.2h.1a2.5,2.5,0,0,1,1.2-1.1,2.8,2.8,0,0,1,1.5-.4,4.1,4.1,0,0,1,1.6.3,2.4,2.4,0,0,1,1.4,1.9,6.1,6.1,0,0,1,.2,1.5v5.4H33.3v-5a2.4,2.4,0,0,0-.4-1.6,1.2,1.2,0,0,0-1.2-.6,1.7,1.7,0,0,0-1.4.6,3.5,3.5,0,0,0-.4,2v4.6H27.4v-8.8Z"/><path class="cls-4" d="M40.1,118.3a2.5,2.5,0,0,0,1.6.5,1.6,1.6,0,0,0,1.2-.4,1.3,1.3,0,0,0,.7-.8h2.1a4,4,0,0,1-1.6,2.3,4.8,4.8,0,0,1-4.4.3,4.2,4.2,0,0,1-1.4-.9,3.8,3.8,0,0,1-.9-1.5,4.8,4.8,0,0,1-.3-1.8,5.8,5.8,0,0,1,.3-1.9,4.2,4.2,0,0,1,.9-1.4,4,4,0,0,1,1.5-1,4.8,4.8,0,0,1,1.8-.4,4.6,4.6,0,0,1,3.3,1.6,5.3,5.3,0,0,1,.8,1.7,6.6,6.6,0,0,1,.1,2H39.5A2.4,2.4,0,0,0,40.1,118.3Zm2.7-4.7a1.7,1.7,0,0,0-1.3-.4h-.9l-.7.5-.3.6a3.5,3.5,0,0,1-.1.6h3.9A2.6,2.6,0,0,0,42.8,113.6Z"/><path class="cls-4" d="M53.5,119.2a2.3,2.3,0,0,1-1.1,1.1,4.1,4.1,0,0,1-1.6.3,3.3,3.3,0,0,1-1.7-.4,4,4,0,0,1-1.2-1,10.9,10.9,0,0,1-.8-1.5,11,11,0,0,1-.2-1.8,8.8,8.8,0,0,1,.2-1.7,5.3,5.3,0,0,1,.8-1.5,4,4,0,0,1,1.2-1,4.3,4.3,0,0,1,1.7-.4,2.8,2.8,0,0,1,1.5.4,2.4,2.4,0,0,1,1.1.9h0v-4.4h2.4v12.2H53.5v-1.2Zm-.1-4.3-.3-.9c-.2-.2-.4-.5-.7-.6a1.5,1.5,0,0,0-1-.2,1.6,1.6,0,0,0-1,.2,1.7,1.7,0,0,0-.6.6,3.6,3.6,0,0,0-.4.9c0,.3-.1.7-.1,1.1s.1.6.1,1a3.6,3.6,0,0,0,.4.9,1.3,1.3,0,0,0,.7.6,1.4,1.4,0,0,0,.9.3,1.5,1.5,0,0,0,1-.3,1.3,1.3,0,0,0,.7-.6l.3-.9a3.7,3.7,0,0,0,.1-1.1A3.4,3.4,0,0,0,53.4,114.9Z"/><path class="cls-4" d="M64.7,111.6v1.6h0a3.5,3.5,0,0,1,.5-.8l.6-.5.8-.4.9-.2H68v2.3h-.8l-1.1.2a1.6,1.6,0,0,0-.8.6,3.6,3.6,0,0,0-.4.9,3.7,3.7,0,0,0-.1,1.1v4H62.4v-8.8Z"/><path class="cls-4" d="M71.3,118.3a2.3,2.3,0,0,0,1.5.5,1.8,1.8,0,0,0,1.3-.4.9.9,0,0,0,.6-.8h2.2a4.5,4.5,0,0,1-1.6,2.3,4.1,4.1,0,0,1-2.5.7,3.8,3.8,0,0,1-1.9-.4,3.4,3.4,0,0,1-1.4-.9,3.8,3.8,0,0,1-.9-1.5,4.8,4.8,0,0,1-.3-1.8,5.8,5.8,0,0,1,.3-1.9,4.2,4.2,0,0,1,.9-1.4,4.5,4.5,0,0,1,1.4-1,5.8,5.8,0,0,1,1.9-.4,4.6,4.6,0,0,1,3.3,1.6,8.9,8.9,0,0,1,.8,1.7,6.6,6.6,0,0,1,.1,2H70.7A2.4,2.4,0,0,0,71.3,118.3Zm2.7-4.7a1.7,1.7,0,0,0-1.3-.4h-1l-.6.5-.3.6a1.8,1.8,0,0,0-.1.6h3.9A2.6,2.6,0,0,0,74,113.6Z"/><path class="cls-4" d="M80.6,120.4l-3-8.8h2.6l1.8,6h0l1.9-6h2.4l-3,8.8Z"/><path class="cls-4" d="M89.9,118.3a2.3,2.3,0,0,0,1.5.5,2,2,0,0,0,1.3-.4.9.9,0,0,0,.6-.8h2.2a4.5,4.5,0,0,1-1.6,2.3,4.1,4.1,0,0,1-2.5.7,3.8,3.8,0,0,1-1.9-.4,3.4,3.4,0,0,1-1.4-.9,3.8,3.8,0,0,1-.9-1.5,4.8,4.8,0,0,1-.3-1.8,5.8,5.8,0,0,1,.3-1.9,4.2,4.2,0,0,1,.9-1.4,4.5,4.5,0,0,1,1.4-1,5.8,5.8,0,0,1,1.9-.4,4.6,4.6,0,0,1,3.3,1.6,8.9,8.9,0,0,1,.8,1.7,6.6,6.6,0,0,1,.1,2H89.3A2.4,2.4,0,0,0,89.9,118.3Zm2.7-4.7a1.7,1.7,0,0,0-1.3-.4h-1l-.6.5-.3.6a1.8,1.8,0,0,0-.1.6h3.9A2.6,2.6,0,0,0,92.6,113.6Z"/><path class="cls-4" d="M99.3,111.6v1.2h.1a2.5,2.5,0,0,1,1.2-1.1,2.8,2.8,0,0,1,1.5-.4,3.8,3.8,0,0,1,1.6.3l1,.7a3.3,3.3,0,0,1,.5,1.2c0,.4.1.9.1,1.5v5.4h-2.4v-5a2.4,2.4,0,0,0-.4-1.6,1.2,1.2,0,0,0-1.2-.6,1.7,1.7,0,0,0-1.4.6,3.5,3.5,0,0,0-.4,2v4.6H97.1v-8.8Z"/><path class="cls-4" d="M113.1,120.4v-1.3H113a2.5,2.5,0,0,1-1.2,1.1,2.4,2.4,0,0,1-1.5.4,3.3,3.3,0,0,1-1.5-.3,1.5,1.5,0,0,1-1-.7,2.2,2.2,0,0,1-.5-1.1,7.7,7.7,0,0,1-.2-1.5v-5.4h2.4v4.9a3.5,3.5,0,0,0,.4,1.7,1.4,1.4,0,0,0,1.2.5,1.6,1.6,0,0,0,1.4-.6,3.1,3.1,0,0,0,.5-1.9v-4.6h2.4v8.8Z"/><path class="cls-4" d="M119.8,118.3a2.5,2.5,0,0,0,1.6.5,1.7,1.7,0,0,0,1.2-.4,1.3,1.3,0,0,0,.7-.8h2.1a4.5,4.5,0,0,1-1.6,2.3,4.8,4.8,0,0,1-4.4.3,4.2,4.2,0,0,1-1.4-.9,3.8,3.8,0,0,1-.9-1.5,4.8,4.8,0,0,1-.3-1.8,5.8,5.8,0,0,1,.3-1.9,4.2,4.2,0,0,1,.9-1.4,4.5,4.5,0,0,1,1.4-1,5.8,5.8,0,0,1,1.9-.4,4.6,4.6,0,0,1,3.3,1.6,5.3,5.3,0,0,1,.8,1.7,6.6,6.6,0,0,1,.1,2h-6.3A2.4,2.4,0,0,0,119.8,118.3Zm2.7-4.7a1.7,1.7,0,0,0-1.3-.4h-1l-.6.5-.3.6a1.8,1.8,0,0,0-.1.6h3.9A2.6,2.6,0,0,0,122.5,113.6Z"/><path class="cls-4" d="M131.9,118.5a1.2,1.2,0,0,0,.6-.6,2.2,2.2,0,0,0,.5-.8,2.5,2.5,0,0,0,.1-.9,1.1,1.1,0,0,0-.1-.5,1.4,1.4,0,0,0-.2-.6h-1.7v-1.4h1.1a9.3,9.3,0,0,0-.5-1,3.2,3.2,0,0,1-.2-1.4,5.9,5.9,0,0,1,.2-1.3,4.4,4.4,0,0,1,.9-1.1,4,4,0,0,1,1.3-.7,5.8,5.8,0,0,1,1.9-.3,4.5,4.5,0,0,1,3.1,1.1,4.4,4.4,0,0,1,1,3.2h-2.3v-.7c-.1-.2-.1-.5-.3-.7l-.5-.6a1.5,1.5,0,0,0-1-.3,2.1,2.1,0,0,0-1.2.4,1.7,1.7,0,0,0-.5,1.2v.4c.1.1.1.2.1.4s.1.4.2.6l.4.8h2.3v1.4h-1.8a.9.9,0,0,1,.1.5v.6a2,2,0,0,1-.4,1.3,4.7,4.7,0,0,1-1,1h.1l.6-.3h1.2l.7.2h2a2.3,2.3,0,0,0,.8-.7l1,1.8a3.5,3.5,0,0,1-1.3.8,3.2,3.2,0,0,1-1.3.2h-1.1l-.8-.2-.7-.2h-1.9l-1,.5-1.1-1.5Z"/><path class="cls-4" d="M143.8,110.4l-.5,2.8h.1a3,3,0,0,1,1-.7,2.7,2.7,0,0,1,1.3-.2,4.1,4.1,0,0,1,1.6.3,3.1,3.1,0,0,1,1.1.9,2.4,2.4,0,0,1,.7,1.2,4.5,4.5,0,0,1,.3,1.6,3.3,3.3,0,0,1-.4,1.7,3.9,3.9,0,0,1-2.3,2.3,5.1,5.1,0,0,1-1.7.3l-1.7-.2a3.9,3.9,0,0,1-1.4-.8,5.2,5.2,0,0,1-1-1.1,4.7,4.7,0,0,1-.4-1.7H143a1.5,1.5,0,0,0,.6,1.3,1.9,1.9,0,0,0,1.3.5l.9-.2.6-.5a1.6,1.6,0,0,0,.4-.7,2.1,2.1,0,0,0,0-1.8,2.5,2.5,0,0,0-.4-.7l-.6-.4a1.5,1.5,0,0,0-.9-.2l-1,.2a2.7,2.7,0,0,0-.8.7h-2.2l1.2-6.5h6.6v1.9Z"/><path class="cls-4" d="M153.4,117.7v2.7h-2.7v-2.7Z"/><path class="cls-4" d="M158.7,120.4v-7.8h-3v-1.8h1.2a3.2,3.2,0,0,0,1.8-1.1,3.7,3.7,0,0,0,.5-1.1h1.9v11.9Z"/><path class="cls-4" d="M168.8,108.2l2.8,8.4h.1l2.6-8.4h3.8v12.2h-2.5v-8.6h0l-3,8.6h-2.1l-2.9-8.6h-.1v8.6H165V108.2Z"/><line x1="190.5" y1="38.1" x2="324.1" y2="38.1"/><line class="cls-5" x1="190.5" y1="38.1" x2="320.5" y2="38.1"/><polygon class="cls-4" points="319.8 40.6 324.1 38.1 319.8 35.6 319.8 40.6"/><line x1="190.5" y1="114.3" x2="257.3" y2="114.3"/><line class="cls-5" x1="190.5" y1="114.3" x2="253.7" y2="114.3"/><polygon class="cls-4" points="253 116.8 257.3 114.3 253 111.8 253 116.8"/><line x1="190.5" y1="76.2" x2="294.6" y2="76.2"/><line class="cls-5" x1="190.5" y1="76.2" x2="291" y2="76.2"/><polygon class="cls-4" points="290.2 78.7 294.6 76.2 290.2 73.7 290.2 78.7"/></g></g></svg>