<svg xmlns="http://www.w3.org/2000/svg" viewBox="0 0 305.7 1497.4"><defs><style>.cls-1{fill:#2254f3;}.cls-2{fill:#fff;}.cls-3{fill:#ee3aaa;}.cls-4{fill:#f8bb26;}</style></defs><title>financials mobile</title><g id="Layer_2" data-name="Layer 2"><g id="Layer_1-2" data-name="Layer 1"><path class="cls-1" d="M154.1,1209.3l-48.8-141.9a144.5,144.5,0,0,1,48.8-8.1Z"/><path class="cls-2" d="M154.1,1360.8c-83.5,0-151.5-68-151.5-151.5,0-26.9,5.1-47.5,17.7-71.2,18.6-34.9,47-59.2,84.5-72.1a147.4,147.4,0,0,1,49.3-8.2c83.5,0,151.5,67.9,151.5,151.5S237.6,1360.8,154.1,1360.8Zm0-300a144,144,0,0,0-48.3,8c-36.7,12.7-64.6,36.5-82.8,70.7-12.4,23.3-17.4,43.5-17.4,69.8,0,81.8,66.6,148.5,148.5,148.5s148.5-66.7,148.5-148.5S236,1060.8,154.1,1060.8Z"/><path class="cls-2" d="M43.8,1456.3a19.5,19.5,0,0,0,2.4-2.6,13.4,13.4,0,0,0,1.7-3.1,8.4,8.4,0,0,0,.7-3.5,5.7,5.7,0,0,0-.4-2.2,10.9,10.9,0,0,0-.9-2.3H40.7v-5.7H45a13.2,13.2,0,0,1-2-3.8,13.8,13.8,0,0,1-1.1-5.5,11.3,11.3,0,0,1,1.2-5.1,12.1,12.1,0,0,1,3.2-4.3,17.4,17.4,0,0,1,5.4-2.9,21.9,21.9,0,0,1,7.5-1.1c5.2,0,9.2,1.4,12.1,4.3s4.3,7,4.3,12.5H66.5c-.1-.6-.2-1.5-.3-2.5a7.5,7.5,0,0,0-.9-2.9,6.3,6.3,0,0,0-6.2-3.5,6.8,6.8,0,0,0-4.8,1.6,6.2,6.2,0,0,0-1.8,4.6,7.6,7.6,0,0,0,.1,1.5,5.5,5.5,0,0,0,.3,1.7,16,16,0,0,0,.8,2.3c.4.8.9,1.9,1.6,3.1h8.9v5.7h-7a17.7,17.7,0,0,1,.4,2,15.5,15.5,0,0,1,.1,2.2,8.9,8.9,0,0,1-1.6,5.4,18.5,18.5,0,0,1-3.9,4v.2a10.6,10.6,0,0,1,2.7-1.3,6.3,6.3,0,0,1,1.9-.3l2.7.2,2.6.6,2.7.5a10.9,10.9,0,0,0,2.6.3,7.4,7.4,0,0,0,5.9-2.9l4.1,6.8a17.4,17.4,0,0,1-5.2,3.3,17.5,17.5,0,0,1-5.4.9,24.2,24.2,0,0,1-4.2-.3l-3.1-.8-3-1a18.2,18.2,0,0,0-3.7-.4,17.3,17.3,0,0,0-3.8.5,12.1,12.1,0,0,0-3.9,2l-4.2-6.2Z"/><path class="cls-2" d="M79.5,1428.1a20.3,20.3,0,0,1,3.8-7.5,13.2,13.2,0,0,1,5.4-4.1,19.3,19.3,0,0,1,13.4,0,13.5,13.5,0,0,1,5.5,4.1,20.3,20.3,0,0,1,3.8,7.5,42.3,42.3,0,0,1,1.4,11.6,43.8,43.8,0,0,1-1.4,11.8,20.8,20.8,0,0,1-3.8,7.6,14.2,14.2,0,0,1-5.5,4,19.3,19.3,0,0,1-13.4,0,13.9,13.9,0,0,1-5.4-4,20.8,20.8,0,0,1-3.8-7.6,43.8,43.8,0,0,1-1.4-11.8A42.3,42.3,0,0,1,79.5,1428.1Zm8.3,16.4a26.2,26.2,0,0,0,.9,5.6,11.2,11.2,0,0,0,2.2,4.5,5.4,5.4,0,0,0,4.5,1.9,5.3,5.3,0,0,0,4.5-1.9,11.3,11.3,0,0,0,2.3-4.5,26.2,26.2,0,0,0,.9-5.6c0-1.9.1-3.5.1-4.8v-3l-.3-3.5c-.2-1.2-.4-2.4-.7-3.6a10.2,10.2,0,0,0-1.3-3.2,6.9,6.9,0,0,0-2.2-2.3,6.1,6.1,0,0,0-8.7,2.3,13.4,13.4,0,0,0-1.4,3.2,22.5,22.5,0,0,0-.6,3.6c-.2,1.2-.2,2.4-.3,3.5v3C87.7,1441,87.7,1442.6,87.8,1444.5Z"/><path class="cls-2" d="M128.8,1453.1v10.3H118.2v-10.3Z"/><path class="cls-2" d="M135.7,1428.1a21.9,21.9,0,0,1,3.7-7.5,13.5,13.5,0,0,1,5.5-4.1,19.3,19.3,0,0,1,13.4,0,13.5,13.5,0,0,1,5.5,4.1,20.3,20.3,0,0,1,3.8,7.5,42.3,42.3,0,0,1,1.4,11.6,43.8,43.8,0,0,1-1.4,11.8,20.8,20.8,0,0,1-3.8,7.6,14.2,14.2,0,0,1-5.5,4,19.3,19.3,0,0,1-13.4,0,14.2,14.2,0,0,1-5.5-4,22.5,22.5,0,0,1-3.7-7.6,43.8,43.8,0,0,1-1.4-11.8A42.3,42.3,0,0,1,135.7,1428.1Zm8.3,16.4a26.2,26.2,0,0,0,.9,5.6,11.2,11.2,0,0,0,2.2,4.5,6.3,6.3,0,0,0,9,0,11.3,11.3,0,0,0,2.3-4.5,26.2,26.2,0,0,0,.9-5.6c0-1.9.1-3.5.1-4.8v-3l-.3-3.5c-.2-1.2-.4-2.4-.7-3.6a10.2,10.2,0,0,0-1.3-3.2,6.9,6.9,0,0,0-2.2-2.3,6.5,6.5,0,0,0-6.6,0,6.9,6.9,0,0,0-2.2,2.3,13.4,13.4,0,0,0-1.3,3.2,22.5,22.5,0,0,0-.6,3.6,21.6,21.6,0,0,0-.3,3.5v3C143.9,1441,143.9,1442.6,144,1444.5Z"/><path class="cls-2" d="M198.6,1432.4a51.6,51.6,0,0,0-4.7,10.1,66.4,66.4,0,0,0-3,10.8,53.6,53.6,0,0,0-1.1,10.1H179.5a65,65,0,0,1,5-20.3,69.8,69.8,0,0,1,10.9-17.9H173v-8.9h32.2v8.2A32.2,32.2,0,0,0,198.6,1432.4Z"/><path class="cls-2" d="M227.4,1415.3l11.2,33.1h.2l10.6-33.1h14.9v48.1h-9.9v-34.1h-.1l-11.8,34.1h-8.2l-11.8-33.7h-.1v33.7h-9.9v-48.1Z"/><path class="cls-2" d="M134.4,1481.7v12.6h7.5v2.8H131v-15.4Z"/><path class="cls-2" d="M143.6,1489.1a4.2,4.2,0,0,1,1.1-1.8,5.7,5.7,0,0,1,1.8-1.2,7.4,7.4,0,0,1,4.8,0,5.5,5.5,0,0,1,3,3,10.1,10.1,0,0,1,.4,2.5,8.6,8.6,0,0,1-.4,2.4,5.5,5.5,0,0,1-3,3,7.4,7.4,0,0,1-4.8,0,5.7,5.7,0,0,1-1.8-1.2,4.2,4.2,0,0,1-1.1-1.8,6,6,0,0,1-.5-2.4A7,7,0,0,1,143.6,1489.1Zm2.7,3.8a3.7,3.7,0,0,0,.5,1.1l.8.8a2.8,2.8,0,0,0,1.3.3,2.5,2.5,0,0,0,1.3-.3,2,2,0,0,0,.8-.8,2.2,2.2,0,0,0,.5-1.1,6.2,6.2,0,0,0,.1-1.3,6.6,6.6,0,0,0-.1-1.4,2.2,2.2,0,0,0-.5-1.1,2,2,0,0,0-.8-.8,2.5,2.5,0,0,0-1.3-.3,2.8,2.8,0,0,0-1.3.3l-.8.8a3.7,3.7,0,0,0-.5,1.1,6.6,6.6,0,0,0-.1,1.4A6.2,6.2,0,0,0,146.3,1492.9Z"/><path class="cls-2" d="M159.2,1494.4l.6.5.7.4h1.6l.6-.2a1.2,1.2,0,0,0,.5-.5,1.1,1.1,0,0,0,.2-.6,1.1,1.1,0,0,0-.9-1.1l-2.6-.7-1.3-.3a3.9,3.9,0,0,1-1.1-.6l-.8-.8a2.4,2.4,0,0,1-.3-1.2,3,3,0,0,1,.4-1.8,3.8,3.8,0,0,1,1.1-1.1,4.4,4.4,0,0,1,1.6-.6H163l1.5.6a3.8,3.8,0,0,1,1.1,1.1,4.3,4.3,0,0,1,.6,1.7h-3a1.2,1.2,0,0,0-.6-1.2,3.3,3.3,0,0,0-1.5-.3H160l-.4.3a.8.8,0,0,0-.2.6.7.7,0,0,0,.3.6l.8.4a2.3,2.3,0,0,0,1.1.3l1.3.3,1.3.4a3.4,3.4,0,0,1,1.2.6,6,6,0,0,1,.8.8,2.8,2.8,0,0,1,.3,1.3,3.6,3.6,0,0,1-.5,1.9,4.3,4.3,0,0,1-1.1,1.2,4.9,4.9,0,0,1-1.7.6l-1.8.2-1.9-.2a4.3,4.3,0,0,1-1.7-.6,3.4,3.4,0,0,1-1.2-1.2,5.3,5.3,0,0,1-.5-1.9H159A2.9,2.9,0,0,0,159.2,1494.4Z"/><path class="cls-2" d="M170.8,1494.4l.5.5.8.4h1.5l.7-.2c.2-.1.3-.3.5-.5a1.1,1.1,0,0,0,.2-.6,1.1,1.1,0,0,0-.9-1.1l-2.6-.7-1.3-.3a3.9,3.9,0,0,1-1.1-.6,2,2,0,0,1-.8-.8,2.4,2.4,0,0,1-.3-1.2,3,3,0,0,1,.4-1.8,2.9,2.9,0,0,1,1.1-1.1,4.7,4.7,0,0,1,1.5-.6h3.6l1.5.6a5.7,5.7,0,0,1,1.1,1.1,3.1,3.1,0,0,1,.5,1.7h-2.9a1.1,1.1,0,0,0-.7-1.2,2.9,2.9,0,0,0-1.4-.3h-1.1l-.4.3a.8.8,0,0,0-.2.6.7.7,0,0,0,.3.6l.8.4a2,2,0,0,0,1.1.3l1.3.3,1.3.4a2.4,2.4,0,0,1,1.1.6,2,2,0,0,1,.8.8,2.8,2.8,0,0,1,.3,1.3,3.6,3.6,0,0,1-.4,1.9,3.4,3.4,0,0,1-1.2,1.2,3.8,3.8,0,0,1-1.6.6l-1.9.2-1.9-.2a4.4,4.4,0,0,1-1.6-.6,3.4,3.4,0,0,1-1.2-1.2,3.8,3.8,0,0,1-.5-1.9h2.9A2.9,2.9,0,0,0,170.8,1494.4Z"/><path class="cls-3" d="M152.1,678.4,19.7,608c18.3-34.5,46.7-58.7,83.6-71.4Z"/><path class="cls-2" d="M151.5,829.9C68,829.9,0,762,0,678.4c0-26.8,5.1-47.4,17.7-71.1,18.6-35,47-59.2,84.5-72.1a145.1,145.1,0,0,1,49.3-8.3c83.5,0,151.5,68,151.5,151.5S235,829.9,151.5,829.9Zm0-300a144.1,144.1,0,0,0-48.3,8.1c-36.7,12.6-64.6,36.4-82.8,70.7C8,631.9,3,652.1,3,678.4c0,81.9,66.6,148.5,148.5,148.5S300,760.3,300,678.4,233.4,529.9,151.5,529.9Z"/><path class="cls-2" d="M41.2,925.4a14.8,14.8,0,0,0,2.4-2.6,11.1,11.1,0,0,0,1.7-3,8.4,8.4,0,0,0,.7-3.5,6.2,6.2,0,0,0-.4-2.3,10.2,10.2,0,0,0-.9-2.2H38.1V906h4.3a12.5,12.5,0,0,1-2-3.7,14.3,14.3,0,0,1-1.1-5.6,11.6,11.6,0,0,1,1.2-5.1,13.1,13.1,0,0,1,3.2-4.3,17.4,17.4,0,0,1,5.4-2.9,24.7,24.7,0,0,1,7.5-1.1c5.2,0,9.2,1.5,12.1,4.4s4.3,7,4.3,12.5H63.9c-.1-.7-.2-1.5-.3-2.5a8,8,0,0,0-.9-3,7.1,7.1,0,0,0-2.2-2.4,6.6,6.6,0,0,0-4-1.1,6.9,6.9,0,0,0-4.8,1.7,5.8,5.8,0,0,0-1.8,4.5c0,.6.1,1.1.1,1.6a6.1,6.1,0,0,0,.3,1.7,15.2,15.2,0,0,0,.8,2.2,31.2,31.2,0,0,0,1.6,3.1h9v5.8H54.6a11.8,11.8,0,0,1,.4,2,15.5,15.5,0,0,1,.1,2.2,8.9,8.9,0,0,1-1.6,5.4,21.1,21.1,0,0,1-3.9,4h.1a10.6,10.6,0,0,1,2.7-1.3l1.9-.2a12.3,12.3,0,0,1,2.7.2l2.6.5,2.7.6,2.6.2a6.5,6.5,0,0,0,2.7-.5,8.5,8.5,0,0,0,3.2-2.4l4.1,6.8a14.2,14.2,0,0,1-5.2,3.3,15.1,15.1,0,0,1-5.4,1,16.6,16.6,0,0,1-4.2-.4l-3.1-.8-3-.9a13.1,13.1,0,0,0-3.7-.4,12.8,12.8,0,0,0-3.8.5,10.4,10.4,0,0,0-3.9,2l-4.2-6.2A25.5,25.5,0,0,0,41.2,925.4Z"/><path class="cls-2" d="M76.9,897.3a20,20,0,0,1,3.8-7.6,13.9,13.9,0,0,1,5.4-4,19.3,19.3,0,0,1,13.4,0,14.2,14.2,0,0,1,5.5,4,20,20,0,0,1,3.8,7.6,41.5,41.5,0,0,1,1.4,11.5,43.3,43.3,0,0,1-1.4,11.8,20,20,0,0,1-3.8,7.6,14.5,14.5,0,0,1-5.5,4.1,19.3,19.3,0,0,1-13.4,0,14.1,14.1,0,0,1-5.4-4.1,20,20,0,0,1-3.8-7.6,43.3,43.3,0,0,1-1.4-11.8A41.5,41.5,0,0,1,76.9,897.3Zm8.3,16.4a25.3,25.3,0,0,0,.9,5.5,11.6,11.6,0,0,0,2.2,4.6,5.7,5.7,0,0,0,4.5,1.9,5.6,5.6,0,0,0,4.5-1.9,11.7,11.7,0,0,0,2.3-4.6,25.3,25.3,0,0,0,.9-5.5c.1-1.9.1-3.5.1-4.9v-2.9l-.3-3.6c-.2-1.2-.4-2.4-.7-3.6a11.3,11.3,0,0,0-1.3-3.2,8,8,0,0,0-2.2-2.3,7.2,7.2,0,0,0-6.6,0,6.6,6.6,0,0,0-2.1,2.3,15.5,15.5,0,0,0-1.4,3.2,22.5,22.5,0,0,0-.6,3.6c-.2,1.3-.2,2.4-.3,3.6v2.9C85.1,910.2,85.1,911.8,85.2,913.7Z"/><path class="cls-2" d="M126.2,922.2v10.4H115.6V922.2Z"/><path class="cls-2" d="M149,904.5a11.6,11.6,0,0,0,3.2-.8,5.2,5.2,0,0,0,2.5-1.8,4.8,4.8,0,0,0,1-3.3,5.7,5.7,0,0,0-2-4.6,7.2,7.2,0,0,0-4.7-1.6,6.6,6.6,0,0,0-5.5,2.4,9.1,9.1,0,0,0-1.7,6h-9.1a19.9,19.9,0,0,1,1.3-6.6,15.4,15.4,0,0,1,3.3-5.2,15,15,0,0,1,5.1-3.3,16.9,16.9,0,0,1,6.6-1.2,21.6,21.6,0,0,1,5.6.8,15.4,15.4,0,0,1,5.1,2.6,13.3,13.3,0,0,1,3.7,4.1,12,12,0,0,1-.2,11.6,8.1,8.1,0,0,1-5,3.6h0a10.2,10.2,0,0,1,6.1,3.8,10.8,10.8,0,0,1,2.3,6.9,14,14,0,0,1-1.5,6.6,13.5,13.5,0,0,1-3.9,4.9,16.7,16.7,0,0,1-5.6,3,23.9,23.9,0,0,1-6.6,1,20.9,20.9,0,0,1-7.2-1.2,15.7,15.7,0,0,1-5.6-3.3,15.3,15.3,0,0,1-3.5-5.4,20.1,20.1,0,0,1-1.2-7.2h9.1a22.5,22.5,0,0,0,.6,3.6,9,9,0,0,0,1.6,2.9,6.2,6.2,0,0,0,2.5,2,8,8,0,0,0,3.6.8,8.1,8.1,0,0,0,5.5-2,7.5,7.5,0,0,0,2.2-5.5,6.9,6.9,0,0,0-1.1-4.1,5.7,5.7,0,0,0-2.6-2,13.5,13.5,0,0,0-3.6-.8h-3.6v-6.7A18.2,18.2,0,0,0,149,904.5Z"/><path class="cls-2" d="M171.2,896a17.3,17.3,0,0,1,3.2-6,15,15,0,0,1,5.5-4.1,18.9,18.9,0,0,1,7.5-1.4,17.7,17.7,0,0,1,6.1,1,15.5,15.5,0,0,1,5.2,2.9,13.1,13.1,0,0,1,3.5,4.6,14.4,14.4,0,0,1,1.3,6.2,14.6,14.6,0,0,1-1.1,6.2,17.7,17.7,0,0,1-3,4.5,30.4,30.4,0,0,1-4.3,3.6l-4.8,3.2c-1.6,1.1-3.2,2.2-4.7,3.4a20.9,20.9,0,0,0-4.1,4.3h22.3v8.2H169.2a19.2,19.2,0,0,1,1.2-7.1,17.7,17.7,0,0,1,3.2-5.5,28.4,28.4,0,0,1,4.7-4.4l5.8-4.1,3.3-2.2a24.3,24.3,0,0,0,3.2-2.4,14.3,14.3,0,0,0,2.4-3.1,7,7,0,0,0,1-3.8,7.3,7.3,0,0,0-2-5.4,6.9,6.9,0,0,0-5.1-1.9,5.6,5.6,0,0,0-3.5,1,7.2,7.2,0,0,0-2.4,2.5,14.5,14.5,0,0,0-1.2,3.5,25.8,25.8,0,0,0-.4,3.9h-9.1A23.7,23.7,0,0,1,171.2,896Z"/><path class="cls-2" d="M224.8,884.5,236,917.6h.2l10.6-33.1h14.9v48.1h-9.9V898.5h-.1l-11.8,34.1h-8.2l-11.8-33.8h-.1v33.8h-9.9V884.5Z"/><path class="cls-2" d="M96.4,955l-.8-.9a3.1,3.1,0,0,0-1-.5,2.5,2.5,0,0,0-1.2-.2,3.6,3.6,0,0,0-1.9.4,3,3,0,0,0-1.3,1.2,5.3,5.3,0,0,0-.8,1.7,12.3,12.3,0,0,0-.2,1.9,11.1,11.1,0,0,0,.2,1.9,5.3,5.3,0,0,0,.8,1.7,3,3,0,0,0,1.3,1.2,3.6,3.6,0,0,0,1.9.4,3.2,3.2,0,0,0,2.4-.9,4.4,4.4,0,0,0,1.1-2.5h3.3a7.7,7.7,0,0,1-.7,2.6,6.7,6.7,0,0,1-1.4,1.9,5.7,5.7,0,0,1-2.1,1.3,7.1,7.1,0,0,1-2.6.4,8.3,8.3,0,0,1-3.2-.6,8.1,8.1,0,0,1-2.4-1.7,6.8,6.8,0,0,1-1.4-2.5,8.3,8.3,0,0,1-.6-3.2,8.7,8.7,0,0,1,.6-3.2,7.7,7.7,0,0,1,1.4-2.5,8.4,8.4,0,0,1,2.4-1.8,8.3,8.3,0,0,1,3.2-.6,6.1,6.1,0,0,1,2.4.4,4.9,4.9,0,0,1,2,1.1,5,5,0,0,1,1.5,1.7,6.1,6.1,0,0,1,.7,2.4H96.8A3.6,3.6,0,0,0,96.4,955Z"/><path class="cls-2" d="M102.2,958.3a7.6,7.6,0,0,1,1.2-1.9,4.2,4.2,0,0,1,1.8-1.1,6,6,0,0,1,2.4-.5,6.9,6.9,0,0,1,2.4.5,4.2,4.2,0,0,1,1.8,1.1,5.2,5.2,0,0,1,1.1,1.9,7.4,7.4,0,0,1,0,4.8,4,4,0,0,1-1.1,1.9,5.7,5.7,0,0,1-1.8,1.2,10,10,0,0,1-2.4.4,8.6,8.6,0,0,1-2.4-.4,5.7,5.7,0,0,1-1.8-1.2,5.2,5.2,0,0,1-1.2-1.9,7.4,7.4,0,0,1,0-4.8ZM105,962a5.6,5.6,0,0,0,.4,1.2,3.4,3.4,0,0,0,.9.8,2.5,2.5,0,0,0,1.3.3,2.8,2.8,0,0,0,1.3-.3l.8-.8a6.1,6.1,0,0,0,.5-1.2c0-.4.1-.8.1-1.3s-.1-.9-.1-1.3a3.7,3.7,0,0,0-.5-1.1,2,2,0,0,0-.8-.8,2,2,0,0,0-1.3-.4,1.8,1.8,0,0,0-1.3.4,2.3,2.3,0,0,0-.9.8,3.6,3.6,0,0,0-.4,1.1,5.7,5.7,0,0,0-.1,1.3A5.3,5.3,0,0,0,105,962Z"/><path class="cls-2" d="M118.2,955.1v2.1h.1a2.7,2.7,0,0,1,.6-1l.8-.7,1-.5,1.1-.2h.7v2.9h-1.1a3.2,3.2,0,0,0-1.4.3,1.6,1.6,0,0,0-.9.7,2.3,2.3,0,0,0-.6,1.2,6.1,6.1,0,0,0-.1,1.4v5h-3.1V955.1Z"/><path class="cls-2" d="M126.6,963.6a2.6,2.6,0,0,0,2,.7,3,3,0,0,0,1.6-.5,1.9,1.9,0,0,0,.8-1h2.7a4.9,4.9,0,0,1-2,2.9,5.7,5.7,0,0,1-3.2.9,6,6,0,0,1-2.4-.5,3.6,3.6,0,0,1-1.8-1.2,5.4,5.4,0,0,1-1.1-1.8,6.1,6.1,0,0,1-.4-2.4,5.9,5.9,0,0,1,.4-2.3,7.6,7.6,0,0,1,1.2-1.9,5.7,5.7,0,0,1,1.8-1.2,5.6,5.6,0,0,1,2.3-.5,5.1,5.1,0,0,1,2.5.6,4.9,4.9,0,0,1,1.7,1.5,5.1,5.1,0,0,1,1,2.1,6.9,6.9,0,0,1,.2,2.5h-8A2.7,2.7,0,0,0,126.6,963.6Zm3.5-5.9a2.4,2.4,0,0,0-1.7-.6,2.1,2.1,0,0,0-1.2.3l-.8.6a2,2,0,0,0-.4.8,2,2,0,0,0-.1.7h4.9A3.8,3.8,0,0,0,130.1,957.7Z"/><path class="cls-2" d="M140.5,957.2v-2.1h1.9v-.8a3.7,3.7,0,0,1,.9-2.5,3.8,3.8,0,0,1,2.8-.9h1.6v2.3h-1.1a1.2,1.2,0,0,0-.9.3,1.3,1.3,0,0,0-.3,1v.6h2.1v2.1h-2.1v9.1h-3v-9.1Z"/><path class="cls-2" d="M156.4,966.3v-1.6h0a3.3,3.3,0,0,1-1.5,1.4,4.9,4.9,0,0,1-1.9.5,4.4,4.4,0,0,1-2.1-.4,2.7,2.7,0,0,1-1.2-.9,3.5,3.5,0,0,1-.6-1.4,5.8,5.8,0,0,1-.2-1.9v-6.9h3v6.3a3.8,3.8,0,0,0,.5,2.1,1.8,1.8,0,0,0,1.5.7,2.2,2.2,0,0,0,1.8-.8,3.8,3.8,0,0,0,.6-2.4v-5.9h3v11.2Z"/><path class="cls-2" d="M164.6,955.1v1.6h0a3.1,3.1,0,0,1,1.6-1.4,4.1,4.1,0,0,1,1.8-.5,4.4,4.4,0,0,1,2.1.4,2.7,2.7,0,0,1,1.2.9,3.5,3.5,0,0,1,.6,1.4,5.8,5.8,0,0,1,.2,1.9v6.9h-3V960a4.1,4.1,0,0,0-.5-2.1,1.8,1.8,0,0,0-1.5-.7,2.2,2.2,0,0,0-1.8.8,3.8,3.8,0,0,0-.6,2.4v5.9h-3V955.1Z"/><path class="cls-2" d="M182.4,964.9a4.3,4.3,0,0,1-1.4,1.3,6.5,6.5,0,0,1-2,.4,4.8,4.8,0,0,1-2.2-.5,4.2,4.2,0,0,1-1.6-1.3,6.6,6.6,0,0,1-.9-1.9,9.1,9.1,0,0,1-.3-2.3,8.3,8.3,0,0,1,.3-2.2,5.1,5.1,0,0,1,.9-1.8,4.2,4.2,0,0,1,1.6-1.3,4.6,4.6,0,0,1,2.1-.5,4.1,4.1,0,0,1,1.9.5,2.4,2.4,0,0,1,1.4,1.2h.1v-5.6h3v15.4h-2.9v-1.4Zm-.2-5.5a4.2,4.2,0,0,0-.4-1.2,3,3,0,0,0-.8-.8,2.5,2.5,0,0,0-1.3-.3,2.1,2.1,0,0,0-1.2.3,2.4,2.4,0,0,0-.9.8,4.2,4.2,0,0,0-.4,1.2,5.1,5.1,0,0,0-.2,1.3,5.9,5.9,0,0,0,.2,1.3,3.7,3.7,0,0,0,.5,1.1,2.4,2.4,0,0,0,.8.9,2.7,2.7,0,0,0,1.2.3,2.5,2.5,0,0,0,1.3-.3l.8-.8a5.6,5.6,0,0,0,.4-1.2,5.9,5.9,0,0,0,.2-1.3A5.1,5.1,0,0,0,182.2,959.4Z"/><path class="cls-2" d="M187.7,953.4v-2.5h3.1v2.5Zm3.1,1.7v11.2h-3.1V955.1Z"/><path class="cls-2" d="M196.1,955.1v1.6h.1a3.3,3.3,0,0,1,1.5-1.4,4.1,4.1,0,0,1,1.9-.5,4,4,0,0,1,2,.4,2.7,2.7,0,0,1,1.2.9,6.1,6.1,0,0,1,.7,1.4,11.5,11.5,0,0,1,.1,1.9v6.9h-3V960a5.6,5.6,0,0,0-.4-2.1,1.9,1.9,0,0,0-1.6-.7,2.2,2.2,0,0,0-1.8.8,3.8,3.8,0,0,0-.6,2.4v5.9h-3V955.1Z"/><path class="cls-2" d="M216.5,967.1a3.5,3.5,0,0,1-.8,1.6A5.9,5.9,0,0,1,214,970a8.7,8.7,0,0,1-3.1.5l-1.7-.2-1.5-.7a2.5,2.5,0,0,1-1.2-1.1,2.8,2.8,0,0,1-.5-1.6h3a1.9,1.9,0,0,0,.9,1.2,3.2,3.2,0,0,0,1.4.3,2.2,2.2,0,0,0,1.9-.7,3.4,3.4,0,0,0,.6-2v-1.5h-.1a2.5,2.5,0,0,1-1.4,1.3,4.1,4.1,0,0,1-1.9.5,5.1,5.1,0,0,1-2.2-.5,4.4,4.4,0,0,1-1.5-1.2,7.5,7.5,0,0,1-.8-1.8,7.6,7.6,0,0,1-.3-2.1,6.6,6.6,0,0,1,.3-2.1,5.2,5.2,0,0,1,1-1.8,4.4,4.4,0,0,1,1.5-1.2,4.2,4.2,0,0,1,2-.5,5.3,5.3,0,0,1,1.9.4,3.2,3.2,0,0,1,1.4,1.4h.1v-1.5h2.9v10.5A10.4,10.4,0,0,1,216.5,967.1Zm-4.2-3.7a2.7,2.7,0,0,0,.8-.7,3.1,3.1,0,0,0,.5-1,3.6,3.6,0,0,0,.2-1.1,5.1,5.1,0,0,0-.2-1.3,2.1,2.1,0,0,0-.4-1.1,2,2,0,0,0-.8-.8,2.1,2.1,0,0,0-1.2-.3,1.8,1.8,0,0,0-1.1.3,1.9,1.9,0,0,0-.8.7,3.1,3.1,0,0,0-.5,1,7.2,7.2,0,0,0,0,2.4,3.6,3.6,0,0,0,.4,1.1,2.7,2.7,0,0,0,.8.7,1.6,1.6,0,0,0,1.2.4A2,2,0,0,0,212.3,963.4Z"/><path class="cls-4" d="M154.2,151.5V1.5a150,150,0,1,1-150,150c0-26.6,5-46.9,17.5-70.4Z"/><path class="cls-2" d="M154.2,303C70.6,303,2.7,235,2.7,151.5c0-26.8,5.1-47.4,17.7-71.1,18.6-35,47-59.3,84.4-72.1A146,146,0,0,1,154.2,0c83.5,0,151.5,68,151.5,151.5S237.7,303,154.2,303Zm0-300a144.7,144.7,0,0,0-48.4,8.1C69.1,23.7,41.3,47.5,23,81.8,10.7,105,5.7,125.2,5.7,151.5,5.7,233.4,72.3,300,154.2,300s148.5-66.6,148.5-148.5S236,3,154.2,3Z"/><path class="cls-2" d="M62.6,398.5a14.8,14.8,0,0,0,2.4-2.6,11.7,11.7,0,0,0,1.7-3.1,8,8,0,0,0,.7-3.4,6.2,6.2,0,0,0-.4-2.3,10.2,10.2,0,0,0-.9-2.2H59.5v-5.8h4.3a12.5,12.5,0,0,1-2-3.7,14.3,14.3,0,0,1-1.1-5.6,11.3,11.3,0,0,1,1.2-5.1,13.1,13.1,0,0,1,3.2-4.3,17.4,17.4,0,0,1,5.4-2.9,24.7,24.7,0,0,1,7.5-1.1c5.2,0,9.2,1.5,12.1,4.3s4.3,7.1,4.3,12.6H85.3c-.1-.7-.2-1.5-.3-2.6a8.1,8.1,0,0,0-.9-2.9,6.3,6.3,0,0,0-2.2-2.4,6.6,6.6,0,0,0-4-1.1,6.9,6.9,0,0,0-4.8,1.7,5.8,5.8,0,0,0-1.8,4.5,8.6,8.6,0,0,0,.1,1.6,6.7,6.7,0,0,0,.3,1.7,15.2,15.2,0,0,0,.8,2.2,31.2,31.2,0,0,0,1.6,3.1H83v5.8H76a11.8,11.8,0,0,1,.4,2,14.8,14.8,0,0,1,.1,2.1,9.2,9.2,0,0,1-1.6,5.5,21.1,21.1,0,0,1-3.9,4h.1a12.3,12.3,0,0,1,2.6-1.3,7.1,7.1,0,0,1,2-.2,12.3,12.3,0,0,1,2.7.2l2.6.5,2.7.6,2.6.2a7.4,7.4,0,0,0,5.9-2.9l4.1,6.8a14.2,14.2,0,0,1-5.2,3.3,18.2,18.2,0,0,1-5.4,1,23,23,0,0,1-4.2-.4l-3.1-.8a17.1,17.1,0,0,0-3-.9,13.1,13.1,0,0,0-3.7-.4,12.8,12.8,0,0,0-3.8.5,10.4,10.4,0,0,0-3.9,2l-4.2-6.2A25.5,25.5,0,0,0,62.6,398.5Z"/><path class="cls-2" d="M109.7,366.4l-1.9,10.7h.2a12.4,12.4,0,0,1,4.2-2.8,15,15,0,0,1,5-.8,13.8,13.8,0,0,1,6.2,1.3,14.1,14.1,0,0,1,4.6,3.4,18,18,0,0,1,2.8,5.1,21.2,21.2,0,0,1,1,6.2,15.4,15.4,0,0,1-1.5,6.8,16,16,0,0,1-3.8,5.4,16.9,16.9,0,0,1-5.5,3.6,19.1,19.1,0,0,1-6.8,1.2,23.8,23.8,0,0,1-6.5-1,15.5,15.5,0,0,1-5.6-2.8,14.5,14.5,0,0,1-3.9-4.6,16.8,16.8,0,0,1-1.5-6.5h9.6a7.7,7.7,0,0,0,2.4,5.1,7.5,7.5,0,0,0,5.3,1.9,7.4,7.4,0,0,0,3.4-.7,7.8,7.8,0,0,0,2.6-2.1,9,9,0,0,0,1.6-2.9,9.7,9.7,0,0,0,.6-3.4,12.7,12.7,0,0,0-.5-3.4,7.3,7.3,0,0,0-1.7-2.8,6.7,6.7,0,0,0-2.5-1.9,7.8,7.8,0,0,0-3.5-.7,8,8,0,0,0-4.1.9,10.4,10.4,0,0,0-3.1,2.9H98.2l4.7-26.1h26.3v7.9Z"/><path class="cls-2" d="M147.6,395.3v10.4H137V395.3Z"/><path class="cls-2" d="M168.5,405.7V375.1H156.7v-7.2a24.5,24.5,0,0,0,4.8-.4,14,14,0,0,0,4.2-1.5,11.1,11.1,0,0,0,3.1-3,10.1,10.1,0,0,0,1.7-4.5h7.6v47.2Z"/><path class="cls-2" d="M208.7,357.6,220,390.7h.1l10.6-33.1h14.9v48.1h-9.9V371.6h-.1l-11.8,34.1h-8.2l-11.7-33.8h-.2v33.8h-9.9V357.6Z"/><path class="cls-2" d="M86.5,424v2.8H78.4v3.3h7.4v2.6H78.4v3.8h8.3v2.9H75V424Z"/><path class="cls-2" d="M88.5,431.6a2.9,2.9,0,0,1,.5-1.7,3.4,3.4,0,0,1,1.2-1.2,4.9,4.9,0,0,1,1.7-.6l1.8-.2h1.7l1.6.5a2.3,2.3,0,0,1,1.2,1,2.5,2.5,0,0,1,.4,1.6v5.8c0,.5.1,1,.1,1.4a8.1,8.1,0,0,0,.3,1.1H95.9c0-.2-.1-.4-.1-.6a.7.7,0,0,1-.1-.5,4.2,4.2,0,0,1-1.7,1,7.6,7.6,0,0,1-2.1.3H90.5l-1.3-.7a2.7,2.7,0,0,1-.8-1,3.4,3.4,0,0,1,.1-3,2.7,2.7,0,0,1,.8-1,6.7,6.7,0,0,1,1.2-.6l1.4-.3h1.4l1.2-.2.8-.4a.9.9,0,0,0,.3-.7,1.5,1.5,0,0,0-.2-.8l-.4-.5-.7-.2h-.7a2,2,0,0,0-1.4.4,1.2,1.2,0,0,0-.6,1.2Zm7.1,2.3-.5.3H93.8l-.8.2h-.7l-.5.3a1,1,0,0,0-.4.5,1.3,1.3,0,0,0,0,1.4.8.8,0,0,0,.4.4l.6.3h.7a2.6,2.6,0,0,0,1.4-.3,1.6,1.6,0,0,0,.7-.7,1.6,1.6,0,0,0,.3-.9c0-.2.1-.5.1-.6Z"/><path class="cls-2" d="M103.9,428.2v2.1h0l.6-1,.9-.7a3.1,3.1,0,0,1,1-.5l1.1-.2h.7v2.9h-1.1l-1.4.2a3.9,3.9,0,0,0-1,.8,3.7,3.7,0,0,0-.5,1.1,6.6,6.6,0,0,0-.1,1.4v5.1H101V428.2Z"/><path class="cls-2" d="M112.7,428.2v1.6h0a3.1,3.1,0,0,1,1.6-1.4,4.1,4.1,0,0,1,1.9-.5,4.2,4.2,0,0,1,2,.4,2.7,2.7,0,0,1,1.2.9,3.5,3.5,0,0,1,.6,1.4,5.8,5.8,0,0,1,.2,1.9v6.9h-3v-6.3a3.8,3.8,0,0,0-.5-2.1,1.8,1.8,0,0,0-1.5-.7,2.2,2.2,0,0,0-1.8.8,3.8,3.8,0,0,0-.6,2.4v5.9h-3V428.2Z"/><path class="cls-2" d="M125.8,436.7a3.2,3.2,0,0,0,2,.7,2.8,2.8,0,0,0,1.6-.5,1.5,1.5,0,0,0,.8-1h2.7a4.9,4.9,0,0,1-2,2.9,5.3,5.3,0,0,1-3.2.8,6.1,6.1,0,0,1-2.4-.4,5.7,5.7,0,0,1-1.8-1.2,7.8,7.8,0,0,1-1.1-1.8,6.1,6.1,0,0,1-.4-2.4,8.5,8.5,0,0,1,.4-2.3,6.2,6.2,0,0,1,1.2-1.9,5.7,5.7,0,0,1,1.8-1.2,5.9,5.9,0,0,1,2.3-.5,4.9,4.9,0,0,1,2.5.6,3.9,3.9,0,0,1,1.7,1.4,6.2,6.2,0,0,1,1,2.2,6.3,6.3,0,0,1,.2,2.4h-8A3.4,3.4,0,0,0,125.8,436.7Zm3.5-5.9a2.2,2.2,0,0,0-1.7-.6,2.1,2.1,0,0,0-1.2.3,1.6,1.6,0,0,0-.8.6,2,2,0,0,0-.4.8,1.7,1.7,0,0,0-.1.7h5A3.8,3.8,0,0,0,129.3,430.8Z"/><path class="cls-2" d="M142.8,437.9a2.5,2.5,0,0,1-1.4,1.3,3.8,3.8,0,0,1-1.9.4,4.8,4.8,0,0,1-2.2-.4,4.4,4.4,0,0,1-1.6-1.4,4.8,4.8,0,0,1-.9-1.9,8.2,8.2,0,0,1,0-4.4,5.1,5.1,0,0,1,.9-1.8,4.7,4.7,0,0,1,1.5-1.3,5.4,5.4,0,0,1,2.2-.5,5.8,5.8,0,0,1,1.9.4,3.5,3.5,0,0,1,1.4,1.3h0V424h3.1v15.4h-2.9v-1.5Zm-.1-5.5a3.6,3.6,0,0,0-.4-1.1,3,3,0,0,0-.8-.8,3,3,0,0,0-2.6,0,3,3,0,0,0-.8.8,4.2,4.2,0,0,0-.4,1.2,5.1,5.1,0,0,0-.2,1.3,6.9,6.9,0,0,0,.2,1.3,2.2,2.2,0,0,0,.5,1.1,2,2,0,0,0,.8.8,1.6,1.6,0,0,0,1.2.4,2.8,2.8,0,0,0,1.3-.3,2.4,2.4,0,0,0,.8-.9,3.6,3.6,0,0,0,.4-1.1,5.7,5.7,0,0,0,.1-1.3A6.6,6.6,0,0,0,142.7,432.4Z"/><path class="cls-2" d="M157,428.2v2.1h.1a3.1,3.1,0,0,1,.5-1l.9-.7a3.1,3.1,0,0,1,1-.5l1.1-.2h.7v2.9h-1.1l-1.4.2a3.9,3.9,0,0,0-1,.8,3.7,3.7,0,0,0-.5,1.1,6.6,6.6,0,0,0-.1,1.4v5.1h-3.1V428.2Z"/><path class="cls-2" d="M165.4,436.7a2.8,2.8,0,0,0,2,.7,3,3,0,0,0,1.6-.5,1.9,1.9,0,0,0,.8-1h2.7a5.4,5.4,0,0,1-2,2.9,5.7,5.7,0,0,1-3.2.8,6.1,6.1,0,0,1-2.4-.4,5.7,5.7,0,0,1-1.8-1.2,4.2,4.2,0,0,1-1.1-1.8,6.1,6.1,0,0,1-.4-2.4,5.9,5.9,0,0,1,.4-2.3,4.5,4.5,0,0,1,1.1-1.9,5.7,5.7,0,0,1,1.8-1.2,6,6,0,0,1,2.4-.5,4.8,4.8,0,0,1,2.4.6,4.9,4.9,0,0,1,1.8,1.4,8.5,8.5,0,0,1,.9,2.2,9.3,9.3,0,0,1,.3,2.4h-8.1A3.4,3.4,0,0,0,165.4,436.7Zm3.4-5.9a2,2,0,0,0-1.6-.6,2.8,2.8,0,0,0-1.3.3,1.3,1.3,0,0,0-.7.6,1.2,1.2,0,0,0-.4.8,1.9,1.9,0,0,0-.2.7h5A3,3,0,0,0,168.8,430.8Z"/><path class="cls-2" d="M177.2,439.4l-3.8-11.2h3.2l2.4,7.6h0l2.4-7.6h3l-3.8,11.2Z"/><path class="cls-2" d="M189,436.7a2.7,2.7,0,0,0,1.9.7,2.5,2.5,0,0,0,1.6-.5,1.7,1.7,0,0,0,.9-1h2.7a5.4,5.4,0,0,1-2,2.9,5.8,5.8,0,0,1-3.3.8,5.9,5.9,0,0,1-2.3-.4,5.5,5.5,0,0,1-3-3,8.6,8.6,0,0,1-.4-2.4,5.9,5.9,0,0,1,.5-2.3,4.5,4.5,0,0,1,1.1-1.9,5.7,5.7,0,0,1,1.8-1.2,5.9,5.9,0,0,1,2.3-.5,5.7,5.7,0,0,1,4.3,2,8.5,8.5,0,0,1,.9,2.2,9.3,9.3,0,0,1,.3,2.4h-8.1A3.4,3.4,0,0,0,189,436.7Zm3.4-5.9a2,2,0,0,0-1.6-.6,2.8,2.8,0,0,0-1.3.3,1.3,1.3,0,0,0-.7.6,2.2,2.2,0,0,0-.5.8c0,.2-.1.5-.1.7h5A3.8,3.8,0,0,0,192.4,430.8Z"/><path class="cls-2" d="M201,428.2v1.6h0a3.3,3.3,0,0,1,1.5-1.4,4.9,4.9,0,0,1,1.9-.5,4.4,4.4,0,0,1,2.1.4,2.7,2.7,0,0,1,1.2.9,3.5,3.5,0,0,1,.6,1.4,5.8,5.8,0,0,1,.2,1.9v6.9h-3v-6.3a3.8,3.8,0,0,0-.5-2.1,1.8,1.8,0,0,0-1.5-.7,2.2,2.2,0,0,0-1.8.8,3.8,3.8,0,0,0-.6,2.4v5.9h-3V428.2Z"/><path class="cls-2" d="M218.4,439.4v-1.6h-.1a3.3,3.3,0,0,1-1.5,1.4,4.1,4.1,0,0,1-1.9.4,5.6,5.6,0,0,1-2-.3,2.7,2.7,0,0,1-1.2-.9,6.1,6.1,0,0,1-.7-1.4,11.1,11.1,0,0,1-.2-1.9v-6.9h3.1v6.3a5.6,5.6,0,0,0,.4,2.1,1.9,1.9,0,0,0,1.6.7,2.2,2.2,0,0,0,1.8-.8,3.9,3.9,0,0,0,.5-2.4v-5.9h3.1v11.2Z"/><path class="cls-2" d="M226.9,436.7a3,3,0,0,0,3.6.2,1.9,1.9,0,0,0,.8-1H234a4.9,4.9,0,0,1-2,2.9,5.7,5.7,0,0,1-3.2.8,6.1,6.1,0,0,1-2.4-.4,5.7,5.7,0,0,1-1.8-1.2,5.4,5.4,0,0,1-1.1-1.8,6.1,6.1,0,0,1-.4-2.4,5.9,5.9,0,0,1,.4-2.3,6.2,6.2,0,0,1,1.2-1.9,5.7,5.7,0,0,1,1.8-1.2,5.6,5.6,0,0,1,2.3-.5,5.1,5.1,0,0,1,2.5.6,4.6,4.6,0,0,1,1.7,1.4,6.2,6.2,0,0,1,1,2.2,6.3,6.3,0,0,1,.2,2.4h-8A2.9,2.9,0,0,0,226.9,436.7Zm3.5-5.9a2.4,2.4,0,0,0-1.7-.6,2.1,2.1,0,0,0-1.2.3,1.6,1.6,0,0,0-.8.6,2,2,0,0,0-.4.8,1.7,1.7,0,0,0-.1.7h4.9A3.8,3.8,0,0,0,230.4,430.8Z"/></g></g></svg>