<svg xmlns="http://www.w3.org/2000/svg" viewBox="0 0 722 165.4"><defs><style>.cls-1{fill:#fff;}</style></defs><title>innovate uk</title><g id="Layer_2" data-name="Layer 2"><g id="Layer_1-2" data-name="Layer 1"><polygon class="cls-1" points="108.4 127.8 98.4 127.8 98.4 124 122.8 124 122.8 127.8 112.7 127.8 112.7 155.7 108.4 155.7 108.4 127.8"/><path class="cls-1" d="M140.2,148.2c-.8,5.1-4.7,8.2-10.1,8.2s-10.4-4.5-10.4-12,4-12.5,10.4-12.5,10.4,4.1,10.4,11.7v1.7H123.8c.1,4.9,2.5,7.6,6.7,7.6a5.7,5.7,0,0,0,5.9-4.7Zm-3.7-6.2c-.1-4.3-2.3-6.7-6.3-6.7s-6.1,2.3-6.4,6.7Z"/><path class="cls-1" d="M154.1,135.3c-4.1,0-6.5,3.1-6.5,8.8s2.3,8.8,6.3,8.8,5.8-1.9,6.3-5.5h3.7c-.4,5.6-4.1,9-10.2,9s-10.1-4.6-10.1-12.2,4-12.3,10.5-12.3,9.6,3.3,9.8,8.4h-3.8c-.3-3.2-2.4-5-6-5"/><path class="cls-1" d="M182.9,141.5c0-4.1-.9-6-4.7-6s-6.8,2.5-6.8,6.5v13.7h-3.9V124h3.9v11.9a7.8,7.8,0,0,1,7.2-3.9c3.5,0,5.9,1.1,7.2,3.2s1,3.3,1,5.5v15h-3.9Z"/><path class="cls-1" d="M207.1,141.5c0-4.1-.9-6-4.6-6s-6.8,2.5-6.8,7v13.2h-3.9V132.6h3.7V136a8.3,8.3,0,0,1,7.4-4c3.5,0,5.9,1.1,7.2,3.2s1,3.3,1,5.5v15h-4Z"/><path class="cls-1" d="M225.8,131.9c7,0,11.1,4.4,11.1,12.2s-4.1,12.3-11,12.3-11.1-4.5-11.1-12.3,4.1-12.2,11-12.2m.1,21c4.5,0,7-3,7-8.8s-2.5-8.8-7-8.8-7.1,3.1-7.1,8.8,2.5,8.8,7.1,8.8"/><rect class="cls-1" x="240.6" y="124" width="3.9" height="31.73"/><path class="cls-1" d="M259.9,131.9c6.9,0,11,4.4,11,12.2s-4.1,12.3-11,12.3-11.1-4.5-11.1-12.3,4.1-12.2,11.1-12.2m0,21c4.5,0,7-3,7-8.8s-2.5-8.8-7-8.8-7.1,3.1-7.1,8.8,2.6,8.8,7.1,8.8"/><path class="cls-1" d="M284.9,156.4c-6.1,0-10.3-4.8-10.3-12.3s4.1-12.2,10.4-12.2a8.9,8.9,0,0,1,7.3,3.6v-2.9H296v22.6c0,7-3.1,10.1-10.8,10.1-6.2,0-9.7-2.6-9.7-6.7v-.2h3.8c0,2.3,2,3.5,6.1,3.5s6.9-1.8,6.9-6v-3.1a9.1,9.1,0,0,1-7.4,3.5m-6.3-12.2c0,5.6,2.6,8.7,6.9,8.7s6.9-2.7,6.9-8.6-2.4-9-7-9-6.8,3.1-6.8,8.9"/><path class="cls-1" d="M320.9,132.6l-9.8,26.7c-1.5,4.3-2.7,6.1-6.8,6.1a8.5,8.5,0,0,1-2.3-.4v-3.7a8.5,8.5,0,0,0,2.3.3,2.6,2.6,0,0,0,2.8-1.9l1-2.7-8.7-24.4h4.3l6.4,18.7,6.4-18.7Z"/><path class="cls-1" d="M339.5,145.2c.1,4.7,3.3,7.6,8.3,7.6s7.9-2.3,7.9-5.8-2.9-4.3-8.7-5.7-10.6-3.2-10.6-8.8,4.4-9.4,11.3-9.4,11.3,3.9,11.4,10.2H355c-.3-4.3-3-6.6-7.5-6.6s-7,2.1-7,5.1,2.9,4.3,9.6,5.9c3.1.7,5.5,1.3,7.3,2.8a7.4,7.4,0,0,1,2.6,6c0,6.1-4.6,10-12.2,10s-12.1-4-12.4-11.3Z"/><path class="cls-1" d="M371.5,152.5l2.1-.2v3.3a13.1,13.1,0,0,1-3.1.4c-3.7,0-4.9-1.3-4.9-4.8V135.7h-3.5v-3.1h3.5v-6.4h3.8v6.4h4.2v3.1h-4.2v14.2c0,1.9.4,2.6,2.1,2.6"/><path class="cls-1" d="M377.3,132.6H381v4.2c1.3-3.2,3.4-4.7,6.4-4.7h1.1v4.1h-1c-4.1,0-6.3,2.3-6.3,6.6v12.9h-3.9Z"/><path class="cls-1" d="M397.8,156.4c-4.8,0-7.5-2.7-7.5-6.9s2.6-6.6,7.9-7.3c3.2-.4,5.3-.5,6.3-.9s1.1-.9,1.1-2.5-1.7-3.5-5.2-3.5-5.4,1.5-5.4,4.3h-3.7v-.2c0-4.6,3.5-7.5,9.2-7.5s9,2.2,9,7.1v11.6c0,1.6.2,2.3,1.5,2.3h1.1v3l-2.3.3c-2.6,0-3.9-1.1-3.9-3.4h0a10.9,10.9,0,0,1-8.1,3.8m.4-10.9c-2.7.5-3.9,1.6-3.9,3.9s1.4,3.6,4.1,3.6c4.3,0,7.2-2.4,7.2-5.6v-3.5c-2.1,1.1-4.6,1.2-7.4,1.6"/><path class="cls-1" d="M422.3,152.5l2-.2v3.3a12.5,12.5,0,0,1-3.1.4c-3.7,0-4.9-1.3-4.9-4.8V135.7h-3.4v-3.1h3.4v-6.4h3.9v6.4h4.1v3.1h-4.1v14.2c0,1.9.3,2.6,2.1,2.6"/><path class="cls-1" d="M447.4,148.2c-.8,5.1-4.7,8.2-10.1,8.2s-10.4-4.5-10.4-12,4.1-12.5,10.4-12.5,10.4,4.1,10.4,11.7v1.7H431c.1,4.9,2.5,7.6,6.7,7.6a5.7,5.7,0,0,0,5.9-4.7Zm-3.7-6.2c-.1-4.3-2.3-6.7-6.3-6.7s-6.1,2.3-6.4,6.7Z"/><path class="cls-1" d="M461.1,156.4c-6.1,0-10.3-4.8-10.3-12.3s4.1-12.2,10.4-12.2a8.5,8.5,0,0,1,7.2,3.6v-2.9h3.8v22.6c0,7-3.1,10.1-10.8,10.1-6.2,0-9.7-2.6-9.7-6.7v-.2h3.8c0,2.3,2,3.5,6.1,3.5s6.8-1.8,6.8-6v-3.1a8.8,8.8,0,0,1-7.3,3.5m-6.3-12.2c0,5.6,2.6,8.7,6.9,8.7s6.9-2.7,6.9-8.6-2.4-9-7-9-6.8,3.1-6.8,8.9"/><path class="cls-1" d="M497,132.6l-9.7,26.7c-1.5,4.3-2.7,6.1-6.8,6.1a8.5,8.5,0,0,1-2.3-.4v-3.7a8.5,8.5,0,0,0,2.3.3,2.6,2.6,0,0,0,2.8-1.9l1-2.7-8.7-24.4h4.3l6.4,18.7,6.4-18.7Z"/><path class="cls-1" d="M513,124h12.8c6.6,0,9.9,2.5,9.9,7.7a6.9,6.9,0,0,1-4.5,6.9c3.7.7,6,3.5,6,7.6,0,5.7-4,9.5-10.7,9.5H513Zm11.9,13.3c4.4,0,6.5-1.5,6.5-5s-2-4.7-6.2-4.7h-7.9v9.7Zm1.2,14.5c4.4,0,6.7-1.9,6.7-5.6s-2.4-5.4-7.2-5.4h-8.3v11Z"/><path class="cls-1" d="M551.6,131.9c7,0,11.1,4.4,11.1,12.2s-4.1,12.3-11,12.3-11.1-4.5-11.1-12.3,4.1-12.2,11-12.2m.1,21c4.5,0,7-3,7-8.8s-2.5-8.8-7-8.8-7.1,3.1-7.1,8.8,2.5,8.8,7.1,8.8"/><path class="cls-1" d="M572.4,156.4c-4.8,0-7.5-2.7-7.5-6.9s2.6-6.6,7.9-7.3c3.2-.4,5.4-.5,6.4-.9s1.1-.9,1.1-2.5-1.8-3.5-5.2-3.5-5.5,1.5-5.5,4.3H566v-.2c0-4.6,3.4-7.5,9.2-7.5s9,2.2,9,7.1v11.6c0,1.6.1,2.3,1.5,2.3h1v3l-2.2.3c-2.6,0-3.9-1.1-3.9-3.4h0a11.1,11.1,0,0,1-8.2,3.8m.5-10.9c-2.8.5-4,1.6-4,3.9s1.5,3.6,4.2,3.6,7.1-2.4,7.1-5.6v-3.5c-2.1,1.1-4.6,1.2-7.3,1.6"/><path class="cls-1" d="M590,132.6h3.7v4.2c1.3-3.2,3.4-4.7,6.4-4.7h1v4.1h-.9c-4.1,0-6.3,2.3-6.3,6.6v12.9H590Z"/><path class="cls-1" d="M623.6,155.7h-3.8v-2.9a9.2,9.2,0,0,1-7.5,3.6c-6,0-10.1-4.6-10.1-12.2s4.1-12.3,10.1-12.3a8.6,8.6,0,0,1,7.5,3.5V124h3.8Zm-10.5-20.4c-4.3,0-6.8,3.2-6.8,9.2s2.6,8.4,6.8,8.4,6.9-3.1,6.9-8.9-2.4-8.7-6.9-8.7"/><polygon class="cls-1" points="0 93.6 16.1 93.6 16.1 0.1 0 11.8 0 93.6"/><path class="cls-1" d="M64.5,22.2a93.5,93.5,0,0,0-32,6V93.6H48.1V38.5a53.1,53.1,0,0,1,15.2-2.1c8.6,0,14.9,3.6,14.9,13.7V93.6H93.7V48.7c0-19.7-11.4-26.5-29.2-26.5"/><path class="cls-1" d="M140.9,22.2a92.5,92.5,0,0,0-31.9,6V93.6h15.5V38.5a53.1,53.1,0,0,1,15.2-2.1c8.6,0,14.9,3.6,14.9,13.7V93.6h15.5V48.7c0-19.7-11.4-26.5-29.2-26.5"/><path class="cls-1" d="M471.1,52.2c2.1-10.6,8.7-16.9,17.6-16.9s15.5,6,15.8,16.9Zm18.1-29.9c-19.2,0-33.7,14.7-33.7,36.9S470.3,95.1,492,95.1c9,0,18.3-2,24.6-6.4v-.3l-7-9.7a41.6,41.6,0,0,1-16.5,3c-10.8,0-21.5-6.7-22.5-19.2v-.3h48.5V54.4c0-19.1-9.6-32.1-29.9-32.1"/><path class="cls-1" d="M218.4,81.8c-11.7,0-20.2-9-20.2-23s8.5-23.2,20.2-23.2,20.3,9,20.3,23.2-8.3,23-20.3,23m0-59.6c-20.8,0-35.9,14.8-35.9,36.6s15.1,36.4,35.9,36.4,36.1-14.8,36.1-36.4-15.1-36.6-36.1-36.6"/><polygon class="cls-1" points="293.2 78.5 273.5 23.8 257 23.8 283.9 93.6 301.7 93.6 328.8 23.8 312.7 23.8 293.2 78.5"/><path class="cls-1" d="M373,82.6a70.9,70.9,0,0,1-8.5.8c-9.5,0-16.1-2.9-16.1-10.1S355.5,63,366.3,63H373ZM362.1,22.2a46,46,0,0,0-22.7,5.7V41.4a39.2,39.2,0,0,1,20.2-5.6c7.7,0,13.4,3.4,13.4,11v5.8h-7.8c-20.1,0-32.3,7-32.3,21.1,0,15.8,13.3,21.3,31.4,21.3a105.1,105.1,0,0,0,23.9-2.8V46c0-17.5-10.8-23.8-26.1-23.8"/><path class="cls-1" d="M425.6,70.9V37.7h19.8V24.6H425.6V0L410.1,11.2V24.6H399.6V37.7h10.5V74.4c0,15.9,9.6,21.6,21,21.6A36.4,36.4,0,0,0,448,92.2v-14c-4.3,2.5-8.2,3.9-12.8,3.9s-9.6-2.8-9.6-11.2"/><path class="cls-1" d="M616.1,82.8a99.2,99.2,0,0,1-18.4,1.6c-13.9,0-23.4-4.7-23.4-22.7V.1l-16,11.7V64.5c0,26,18.1,33.6,39.4,33.6,11.1,0,25.8-1.9,34.5-4.3V.1H616.1Z"/><polygon class="cls-1" points="650.3 93.7 666.3 93.7 666.3 0.1 658.3 0.1 650.3 0.1 650.3 43.8 650.3 93.7"/><polygon class="cls-1" points="722 0.1 704.5 0.1 670.5 46.9 704.5 93.7 722 93.7 688 46.9 722 0.1"/></g></g></svg>