<svg xmlns="http://www.w3.org/2000/svg" viewBox="0 0 1475.6 1383.5"><defs><style>.cls-1{fill:#f8bb26;}.cls-2{fill:#2f529f;}.cls-3{fill:#38ddf8;}.cls-4{fill:#00b6ff;}.cls-5{fill:#178cff;}.cls-6{fill:#2254f3;}</style></defs><title>manifesto bg 7</title><g id="Layer_2" data-name="Layer 2"><g id="bg"><path class="cls-1" d="M254.6,436.1A433.6,433.6,0,0,1,250,325.8C260.8,194.9,326.6,76.7,419.7,0H0V601.7C64,515.6,154.9,454.2,254.6,436.1Z"/><path class="cls-1" d="M1299.8,1130.6a472.4,472.4,0,0,1-14.3,82.6l190.1,66.8V935.8c-52.9,43.7-114.6,74-180.2,85.6A434.5,434.5,0,0,1,1299.8,1130.6Z"/><path class="cls-2" d="M104.6,1215.9A306.8,306.8,0,0,1,0,1141.1v242.4H467.9L96.2,1212.2Z"/><path class="cls-2" d="M1200.8,1383.5h274.8V1280l-190.1-66.8A482.9,482.9,0,0,1,1200.8,1383.5Z"/><path class="cls-3" d="M1448.3,241.7a456.6,456.6,0,0,0,27.3-44.5h0a456.6,456.6,0,0,1-27.3,44.5Z"/><path class="cls-4" d="M1299.8,1130.6a434.5,434.5,0,0,0-4.4-109.2,333.6,333.6,0,0,1-49,5.1c-50,1.4-97.5-8.2-140.4-28L638.3,783c.1,13.8-.4,27.8-1.6,41.9-18.4,223.4-197,409.9-398.3,416-47.4,1.4-92.6-7.2-133.8-25l-8.4-3.7,371.7,171.3h732.9a482.9,482.9,0,0,0,84.7-170.3A472.4,472.4,0,0,0,1299.8,1130.6Z"/><path class="cls-4" d="M745.1,674c-35.6,19.5-73.6,33.5-113,40.6h0C671.5,707.5,709.5,693.5,745.1,674Z"/><path class="cls-5" d="M512,714.7l1.7.3Z"/><path class="cls-5" d="M494.6,710.9l1.7.4Z"/><path class="cls-5" d="M520.8,716.2l1.7.3Z"/><path class="cls-5" d="M507.6,713.8l1.7.3Z"/><path class="cls-5" d="M503.3,712.9l1.6.3Z"/><path class="cls-5" d="M516.4,715.5l1.6.2Z"/><path class="cls-5" d="M538.7,718.5l1.6.2Z"/><path class="cls-5" d="M543.2,718.9l1.6.2Z"/><path class="cls-5" d="M534.2,718l1.6.2Z"/><path class="cls-5" d="M529.7,717.5l1.7.2Z"/><path class="cls-5" d="M525.2,716.9l1.7.2Z"/><path class="cls-5" d="M477.6,706.1l1.6.5Z"/><path class="cls-5" d="M452.8,697.2l1.5.6Z"/><path class="cls-5" d="M456.9,698.8l1.5.6Z"/><path class="cls-5" d="M465.1,701.9l1.6.6Z"/><path class="cls-5" d="M461,700.4l1.5.6Z"/><path class="cls-5" d="M444.8,693.8l1.4.6Z"/><path class="cls-5" d="M448.8,695.5l1.4.6Z"/><path class="cls-5" d="M547.7,719.3h0Z"/><path class="cls-5" d="M481.8,707.4l1.7.5Z"/><path class="cls-5" d="M469.3,703.4l1.5.5Z"/><path class="cls-5" d="M486.1,708.6l1.6.5Z"/><path class="cls-5" d="M473.4,704.8l1.6.5Z"/><path class="cls-5" d="M490.3,709.8l1.7.4Z"/><path class="cls-5" d="M498.9,711.9l1.7.4Z"/><path class="cls-5" d="M575.6,720.1h0Z"/><path class="cls-5" d="M572.2,720.2h0Z"/><path class="cls-5" d="M632.1,714.6h0a328.9,328.9,0,0,1-50.7,5.4h.1A329,329,0,0,0,632.1,714.6Z"/><path class="cls-5" d="M552.2,719.6h0Z"/><path class="cls-5" d="M556.8,719.8h0Z"/><path class="cls-5" d="M561.4,720h0Z"/><path class="cls-5" d="M566.1,720.1h0Z"/><path class="cls-5" d="M104.6,1215.9c41.2,17.8,86.4,26.4,133.8,25,201.3-6.1,379.9-192.6,398.3-416,1.2-14.1,1.7-28.1,1.6-41.9L441.1,692.1l1.1.5c-41.3-18.8-78.2-46.9-109-83.6-40.7-48.3-67.3-107.6-78.6-172.9C154.9,454.2,64,515.6,0,601.7v539.4A306.8,306.8,0,0,0,104.6,1215.9Z"/><path class="cls-4" d="M250,325.8a433.6,433.6,0,0,0,4.6,110.3c11.3,65.3,37.9,124.6,78.6,172.9,30.8,36.7,67.7,64.8,109,83.6l2.6,1.2,1.4.6,2.6,1.1,1.4.6,2.6,1.1,1.5.6,2.6,1,1.5.6,2.6,1,1.5.6,2.6.9,1.6.6,2.6.9,1.5.5,2.6.9,1.6.5,2.6.8,1.6.5,2.6.8,1.7.5,2.6.7,1.6.5,2.6.7,1.7.4,2.6.7,1.7.4,2.6.6,1.7.4,2.7.6,1.6.3,2.7.6,1.7.3,2.7.6,1.7.3,2.7.5,1.6.2,2.8.5,1.7.3,2.7.4,1.7.2,2.8.4,1.7.2,2.8.3,1.6.2,2.9.3,1.6.2,2.9.2,1.6.2,2.9.2h1.6l2.9.2h29.2a328.9,328.9,0,0,0,50.7-5.4c39.4-7.1,77.4-21.1,113-40.6,104.6-57.5,187.6-163.8,220.7-289a314.1,314.1,0,0,1-81.1-69.1c-62.6-74.4-92.1-175-83.3-283.2.9-11,2.3-21.9,3.9-32.7H419.7C326.6,76.7,260.8,194.9,250,325.8Z"/><path class="cls-3" d="M1448.3,241.7h0c-42.5,61.7-98.5,112.1-161.9,144.6C1349.8,353.8,1405.8,303.4,1448.3,241.7Z"/><path class="cls-3" d="M1029.1,413l1.6.5Z"/><path class="cls-3" d="M1012.5,407.3l1.5.6Z"/><path class="cls-3" d="M1024.9,411.7l1.6.5Z"/><path class="cls-3" d="M1037.6,415.5l1.6.5Z"/><path class="cls-3" d="M1033.3,414.3l1.6.5Z"/><path class="cls-3" d="M1020.8,410.3l1.5.5Z"/><path class="cls-3" d="M1008.4,405.7l1.4.6Z"/><path class="cls-3" d="M1041.9,416.7l1.5.4Z"/><path class="cls-3" d="M996.3,400.7l1.3.6Z"/><path class="cls-3" d="M1000.3,402.4l1.4.6Z"/><path class="cls-3" d="M1004.3,404.1l1.4.6Z"/><path class="cls-3" d="M1085.7,424.9l1.6.2Z"/><path class="cls-3" d="M1046.1,417.8l1.6.4Z"/><path class="cls-3" d="M1076.7,423.8l1.7.2Z"/><path class="cls-3" d="M1090.2,425.4l1.6.2Z"/><path class="cls-3" d="M1072.3,423.1l1.6.2Z"/><path class="cls-3" d="M992.5,399l1.1.4A292.5,292.5,0,0,1,965.8,385C932.7,510.2,849.7,616.5,745.1,674c-35.6,19.5-73.6,33.5-113,40.6a329,329,0,0,1-50.6,5.4H552.2l-2.9-.2h-1.6l-2.9-.2-1.6-.2-2.9-.2-1.6-.2-2.9-.3-1.6-.2-2.8-.3-1.7-.2-2.8-.4-1.7-.2-2.7-.4-1.7-.3-2.8-.5-1.6-.2-2.7-.5-1.7-.3-2.7-.6-1.7-.3-2.7-.6-1.6-.3-2.7-.6-1.7-.4-2.6-.6-1.7-.4-2.6-.7-1.7-.4-2.6-.7-1.6-.5-2.6-.7-1.7-.5-2.6-.8-1.6-.5-2.6-.8-1.6-.5-2.6-.9-1.5-.5-2.6-.9-1.6-.6-2.6-.9-1.5-.6-2.6-1-1.5-.6-2.6-1-1.5-.6-2.6-1.1-1.4-.6-2.6-1.1-1.4-.6-2.6-1.2-1.1-.5L638.3,783,1106,998.5c42.9,19.8,90.4,29.4,140.4,28a333.6,333.6,0,0,0,49-5.1c65.6-11.6,127.3-41.9,180.2-85.6V621.6Z"/><path class="cls-3" d="M1081.2,424.4l1.6.2Z"/><path class="cls-3" d="M1050.4,418.8l1.6.4Z"/><path class="cls-3" d="M1054.8,419.8l1.6.3Z"/><path class="cls-3" d="M1067.9,422.4l1.6.2Z"/><path class="cls-3" d="M1063.5,421.6l1.6.3Z"/><path class="cls-3" d="M1059.1,420.7l1.6.3Z"/><path class="cls-3" d="M1016.6,408.8l1.5.6Z"/><path class="cls-3" d="M1117.8,427h0Z"/><path class="cls-3" d="M1127.8,427h0Z"/><path class="cls-3" d="M1094.7,425.8l1.6.2Z"/><path class="cls-3" d="M1113.1,426.9h0Z"/><path class="cls-3" d="M1123.7,427.1h0Z"/><path class="cls-3" d="M1108.4,426.7h0Z"/><path class="cls-3" d="M1281.4,388.8h0Z"/><path class="cls-3" d="M1099.2,426.2h0Z"/><path class="cls-3" d="M1103.8,426.5h0Z"/><path class="cls-6" d="M884.7,315.9A314.1,314.1,0,0,0,965.8,385a292.5,292.5,0,0,0,27.8,14.4l2.7,1.3,1.3.6,2.7,1.1,1.4.6,2.6,1.1,1.4.6,2.7,1,1.4.6,2.7,1,1.5.6,2.6.9,1.5.6,2.7.9,1.5.5,2.6.9,1.6.5,2.6.8,1.6.5,2.6.8,1.6.5,2.7.7,1.6.5,2.7.7,1.5.4,2.7.7,1.6.4,2.7.6,1.6.4,2.8.6,1.6.3,2.7.6,1.6.3,2.8.6,1.6.3,2.8.5,1.6.2,2.8.5,1.6.2,2.8.5,1.7.2,2.8.4,1.6.2,2.9.3,1.6.2,2.9.3,1.6.2,2.9.2,1.6.2,2.9.2h1.6l3,.2h29.1c51.8-1.6,102.1-15.1,148.5-38.1h.3l4.7-2.4c63.4-32.5,119.4-82.9,161.9-144.6a456.6,456.6,0,0,0,27.3-44.5V0H805.3c-1.6,10.8-3,21.7-3.9,32.7C792.6,140.9,822.1,241.5,884.7,315.9Z"/><path class="cls-4" d="M1286.4,386.3l-4.7,2.4h-.3c-46.4,23-96.7,36.5-148.5,38.1h-29.1l-3-.2h-1.6l-2.9-.2-1.6-.2-2.9-.2-1.6-.2-2.9-.3-1.6-.2-2.9-.3-1.6-.2-2.8-.4-1.7-.2-2.8-.5-1.6-.2-2.8-.5-1.6-.2-2.8-.5-1.6-.3-2.8-.6-1.6-.3-2.7-.6-1.6-.3-2.8-.6-1.6-.4-2.7-.6-1.6-.4-2.7-.7-1.5-.4-2.7-.7-1.6-.5-2.7-.7-1.6-.5-2.6-.8-1.6-.5-2.6-.8-1.6-.5-2.6-.9-1.5-.5-2.7-.9-1.5-.6-2.6-.9-1.5-.6-2.7-1-1.4-.6-2.7-1-1.4-.6-2.6-1.1-1.4-.6-2.7-1.1-1.3-.6-2.7-1.3-1.1-.4,483.1,222.6V197.2a456.6,456.6,0,0,1-27.3,44.5C1405.8,303.4,1349.8,353.8,1286.4,386.3Z"/></g></g></svg>