<svg xmlns="http://www.w3.org/2000/svg" viewBox="0 0 3877 3635.1"><defs><style>.cls-1{fill:#f8bb26;}.cls-2{fill:#2f529f;}.cls-3{fill:#38ddf8;}.cls-4{fill:#00b6ff;}.cls-5{fill:#178cff;}.cls-6{fill:#2254f3;}</style></defs><title>manifesto bg 8</title><g id="Layer_2" data-name="Layer 2"><g id="bg"><path class="cls-1" d="M668.9,1145.7C652.8,1053,648.6,955.8,656.8,856,685.2,512.2,858.1,201.5,1102.6,0H0V1580.9C168.3,1354.8,407,1193.3,668.9,1145.7Z"/><path class="cls-1" d="M3415.2,2970.6a1229.8,1229.8,0,0,1-37.7,216.9L3877,3363.1V2458.6c-138.9,114.9-301.2,194.6-473.3,225.1C3419.3,2775.5,3423.4,2871.8,3415.2,2970.6Z"/><path class="cls-2" d="M274.9,3194.8C172.2,3150.4,79.2,3084.3,0,2998.3v636.8H1229.3L252.8,3185C260.1,3188.4,267.5,3191.6,274.9,3194.8Z"/><path class="cls-2" d="M3155,3635.1h722v-272l-499.5-175.6A1266.7,1266.7,0,0,1,3155,3635.1Z"/><path class="cls-3" d="M3805.4,635.1a1252.6,1252.6,0,0,0,71.6-117h0a1252.6,1252.6,0,0,1-71.6,117Z"/><path class="cls-4" d="M3415.2,2970.6c8.2-98.8,4.1-195.1-11.5-286.9a895.4,895.4,0,0,1-128.9,13.3c-131.3,3.9-256.2-21.4-368.9-73.4L1677,2057.2c.4,36.3-.9,73.1-4,110.2-48.4,586.8-517.8,1077.1-1046.5,1093.1-124.6,3.6-243.5-19-351.6-65.7-7.4-3.2-14.8-6.4-22.1-9.8l976.5,450.1H3155a1266.7,1266.7,0,0,0,222.5-447.6A1229.8,1229.8,0,0,0,3415.2,2970.6Z"/><path class="cls-4" d="M1957.6,1770.9c-93.3,51.4-193.2,88-296.7,106.8h0C1764.4,1858.9,1864.3,1822.3,1957.6,1770.9Z"/><path class="cls-5" d="M1345.2,1877.7l4.4.8Z"/><path class="cls-5" d="M1299.6,1867.8l4.3,1Z"/><path class="cls-5" d="M1368.4,1881.7l4.3.7Z"/><path class="cls-5" d="M1333.7,1875.5l4.4.9Z"/><path class="cls-5" d="M1322.3,1873.1l4.4.9Z"/><path class="cls-5" d="M1356.8,1879.8l4.3.8Z"/><path class="cls-5" d="M1415.3,1887.8l4.3.5Z"/><path class="cls-5" d="M1427.1,1888.9l4.4.4Z"/><path class="cls-5" d="M1403.4,1886.5l4.4.5Z"/><path class="cls-5" d="M1391.7,1885.1l4.4.6Z"/><path class="cls-5" d="M1380,1883.5l4.4.6Z"/><path class="cls-5" d="M1254.9,1855.3l4.3,1.3Z"/><path class="cls-5" d="M1189.8,1831.8l3.9,1.6Z"/><path class="cls-5" d="M1200.5,1836.1l4,1.6Z"/><path class="cls-5" d="M1222.1,1844.3l4.1,1.4Z"/><path class="cls-5" d="M1211.3,1840.3l4,1.5Z"/><path class="cls-5" d="M1168.6,1822.8l3.7,1.6Z"/><path class="cls-5" d="M1179.2,1827.4l3.8,1.6Z"/><path class="cls-5" d="M1439,1889.9l4.4.3Z"/><path class="cls-5" d="M1266,1858.6l4.3,1.3Z"/><path class="cls-5" d="M1233,1848.1l4.1,1.4Z"/><path class="cls-5" d="M1277.2,1861.8l4.2,1.2Z"/><path class="cls-5" d="M1243.9,1851.8l4.2,1.3Z"/><path class="cls-5" d="M1288.4,1864.9l4.3,1.1Z"/><path class="cls-5" d="M1310.9,1870.5l4.4,1Z"/><path class="cls-5" d="M1512.3,1892.1h0Z"/><path class="cls-5" d="M1503.4,1892.2h0Z"/><path class="cls-5" d="M1660.9,1877.7h0a910.1,910.1,0,0,1-133.2,14.1h0A910.1,910.1,0,0,0,1660.9,1877.7Z"/><path class="cls-5" d="M1450.9,1890.7l4.4.2Z"/><path class="cls-5" d="M1463,1891.3l4.2.2Z"/><path class="cls-5" d="M1475.1,1891.7l4.2.2Z"/><path class="cls-5" d="M1487.3,1892h0Z"/><path class="cls-5" d="M274.9,3194.8c108.1,46.7,227,69.3,351.6,65.7,528.7-16,998.1-506.3,1046.5-1093.1,3.1-37.1,4.4-73.9,4-110.2l-518.1-238.8,2.8,1.3c-108.3-49.4-205.4-123.3-286.3-219.5-106.8-127-176.8-282.9-206.5-454.5C407,1193.3,168.3,1354.8,0,1580.9V2998.3C79.2,3084.3,172.2,3150.4,274.9,3194.8Z"/><path class="cls-4" d="M656.8,856c-8.2,99.8-4,197,12.1,289.7,29.7,171.6,99.7,327.5,206.5,454.5,80.9,96.2,178,170.1,286.3,219.5l6.9,3.1,3.7,1.6,6.9,3,3.8,1.6,6.8,2.8,3.9,1.6,6.8,2.7,4,1.6,6.8,2.6,4,1.5,6.8,2.5,4.1,1.4,6.8,2.4,4.1,1.4,6.8,2.3,4.2,1.3,6.8,2.2,4.3,1.3,6.8,2,4.3,1.3,6.9,1.9,4.2,1.2,7,1.9,4.3,1.1,6.9,1.8,4.3,1,7,1.7,4.4,1,7,1.6,4.4.9,7,1.5,4.4.9,7.1,1.3,4.4.8,7.2,1.3,4.3.8,7.3,1.1,4.3.7,7.3,1.1,4.4.6,7.3,1,4.4.6,7.3.8,4.4.5,7.5.8,4.3.5,7.5.6,4.4.4,7.5.6,4.4.3,7.5.5,4.4.2,7.7.4,4.2.2,7.9.2,4.2.2h36.3l11.1-.3h1a910.1,910.1,0,0,0,133.2-14.1c103.5-18.8,203.4-55.4,296.7-106.8,274.9-151.2,493.1-430.3,580-759.4-79.2-46.6-151-107.4-213.2-181.4-164.5-195.6-242-459.9-218.7-744.2q3.6-43.4,10.2-85.9H1102.6C858.1,201.5,685.2,512.2,656.8,856Z"/><path class="cls-3" d="M3805.4,635.1h0c-111.7,162.2-258.9,294.4-425.5,379.9C3546.5,929.5,3693.7,797.3,3805.4,635.1Z"/><path class="cls-3" d="M2704,1085.2l4,1.2Z"/><path class="cls-3" d="M2660.3,1070.2l3.8,1.4Z"/><path class="cls-3" d="M2693,1081.7l4,1.3Z"/><path class="cls-3" d="M2726.2,1091.8l4.1,1.1Z"/><path class="cls-3" d="M2715.1,1088.6l4,1.2Z"/><path class="cls-3" d="M2682,1078l4,1.4Z"/><path class="cls-3" d="M2649.5,1066.1l3.8,1.4Z"/><path class="cls-3" d="M2737.4,1094.8l4.1,1.1Z"/><path class="cls-3" d="M2617.6,1052.7l3.6,1.6Z"/><path class="cls-3" d="M2628.2,1057.3l3.6,1.5Z"/><path class="cls-3" d="M2638.8,1061.8l3.7,1.5Z"/><path class="cls-3" d="M2852.5,1116.5l4.2.4Z"/><path class="cls-3" d="M2748.7,1097.7l4.1,1Z"/><path class="cls-3" d="M2829.1,1113.4l4.2.6Z"/><path class="cls-3" d="M2864.4,1117.7l4.1.5Z"/><path class="cls-3" d="M2817.4,1111.7l4.3.6Z"/><path class="cls-3" d="M2607.8,1048.3l2.7,1.2a788.2,788.2,0,0,1-72.9-38c-86.9,329.1-305.1,608.2-580,759.4-93.3,51.4-193.2,88-296.7,106.8a910.1,910.1,0,0,1-133.2,14.1h-1l-11.1.3h-36.3l-4.2-.2-7.9-.2-4.2-.2-7.7-.4-4.4-.2-7.5-.5-4.4-.3-7.5-.6-4.4-.4-7.5-.6-4.3-.5-7.5-.8-4.4-.5-7.3-.8-4.4-.6-7.3-1-4.4-.6-7.3-1.1-4.3-.7-7.3-1.1-4.3-.8-7.2-1.3-4.4-.8-7.1-1.3-4.4-.9-7-1.5-4.4-.9-7-1.6-4.4-1-7-1.7-4.3-1-6.9-1.8-4.3-1.1-7-1.9-4.2-1.2-6.9-1.9-4.3-1.3-6.8-2-4.3-1.3-6.8-2.2-4.2-1.3-6.8-2.3-4.1-1.4-6.8-2.4-4.1-1.4-6.8-2.5-4-1.5-6.8-2.6-4-1.6-6.8-2.7-3.9-1.6-6.8-2.8-3.8-1.6-6.9-3-3.7-1.6-6.9-3.1-2.8-1.3L1677,2057.2l1228.9,566.4c112.7,52,237.6,77.3,368.9,73.4a895.4,895.4,0,0,0,128.9-13.3c172.1-30.5,334.4-110.2,473.3-225.1V1633.3Z"/><path class="cls-3" d="M2840.8,1115l4.2.6Z"/><path class="cls-3" d="M2760,1100.4l4.2,1Z"/><path class="cls-3" d="M2771.4,1103l4.2.9Z"/><path class="cls-3" d="M2805.8,1109.7l4.3.8Z"/><path class="cls-3" d="M2794.3,1107.6l4.2.8Z"/><path class="cls-3" d="M2782.8,1105.4l4.2.8Z"/><path class="cls-3" d="M2671.1,1074.2l3.9,1.4Z"/><path class="cls-3" d="M2936.9,1121.9h0Z"/><path class="cls-3" d="M2963.3,1122h0Z"/><path class="cls-3" d="M2876.3,1118.9l4.1.3Z"/><path class="cls-3" d="M2924.5,1121.7h0Z"/><path class="cls-3" d="M2952.3,1122.1h0Z"/><path class="cls-3" d="M2912.3,1121.2l3.9.2Z"/><path class="cls-3" d="M3366.9,1021.6l.7-.4Z"/><path class="cls-3" d="M2888.2,1119.8l4.1.3Z"/><path class="cls-3" d="M2900.2,1120.6l4,.2Z"/><path class="cls-6" d="M2324.4,830.1c62.2,74,134,134.8,213.2,181.4a788.2,788.2,0,0,0,72.9,38l7.1,3.2,3.6,1.6,7,3,3.6,1.5,7,3,3.7,1.5,7,2.8,3.8,1.4,7,2.7,3.8,1.4,7,2.6,3.9,1.4,7,2.4,4,1.4,7,2.3,4,1.3,7,2.2,4,1.2,7.1,2.2,4,1.2,7.1,2,4.1,1.1,7.1,1.9,4.1,1.1,7.2,1.8,4.1,1,7.2,1.7,4.2,1,7.2,1.6,4.2.9,7.2,1.5,4.2.8,7.3,1.4,4.2.8,7.3,1.3,4.3.8,7.3,1.2,4.3.6,7.4,1.1,4.2.6,7.5,1,4.2.6,7.5.9,4.2.4,7.7.8,4.1.5,7.8.7,4.1.3,7.8.6,4.1.3,7.9.5,4,.2,8.1.4,3.9.2,8.3.3h39.9l12.3-.3c136-4.1,268.1-39.6,390.2-100.1l.7-.4,12.3-6.2c166.6-85.5,313.8-217.7,425.5-379.9a1252.6,1252.6,0,0,0,71.6-117V0H2115.9q-6.6,42.6-10.2,85.9C2082.4,370.2,2159.9,634.5,2324.4,830.1Z"/><path class="cls-4" d="M3379.9,1015l-12.3,6.2-.7.4c-122.1,60.5-254.2,96-390.2,100.1l-12.3.3h-39.9l-8.3-.3-3.9-.2-8.1-.4-4-.2-7.9-.5-4.1-.3-7.8-.6-4.1-.3-7.8-.7-4.1-.5-7.7-.8-4.2-.4-7.5-.9-4.2-.6-7.5-1-4.2-.6-7.4-1.1-4.3-.6-7.3-1.2-4.3-.8-7.3-1.3-4.2-.8-7.3-1.4-4.2-.8-7.2-1.5-4.2-.9-7.2-1.6-4.2-1-7.2-1.7-4.1-1-7.2-1.8-4.1-1.1-7.1-1.9-4.1-1.1-7.1-2-4-1.2-7.1-2.2-4-1.2-7-2.2-4-1.3-7-2.3-4-1.4-7-2.4-3.9-1.4-7-2.6-3.8-1.4-7-2.7-3.8-1.4-7-2.8-3.7-1.5-7-3-3.6-1.5-7-3-3.6-1.6-7.1-3.2-2.7-1.2,1269.2,585V518.1a1252.6,1252.6,0,0,1-71.6,117C3693.7,797.3,3546.5,929.5,3379.9,1015Z"/></g></g></svg>