<svg xmlns="http://www.w3.org/2000/svg" viewBox="0 0 2057.5 2320"><defs><style>.cls-1{fill:#722ea5;}.cls-2{fill:#fff;}.cls-3{fill:#e5007c;}</style></defs><title>member bg v2</title><g id="Layer_2" data-name="Layer 2"><g id="Layer_1-2" data-name="Layer 1"><rect class="cls-1" width="2057.5" height="2320"/><path class="cls-2" d="M1278.6,918.5v109.2a157,157,0,0,0-39.7-61.9,161.3,161.3,0,0,0-56.5-35c-22-8.2-46.2-12.4-72.1-12.4H960.8v108.3a176.1,176.1,0,1,0,0,130.6v108h149.5c25.9,0,50.1-4.2,72.1-12.4a161.3,161.3,0,0,0,56.5-35,157,157,0,0,0,39.7-61.9v109.4h164.3V918.5Zm12.1,193.3h19.5v2.8a30,30,0,0,0,.5,6.2,10.7,10.7,0,0,0,2,4.6,9.4,9.4,0,0,0,4,3,16.5,16.5,0,0,0,6.3,1.1,12.8,12.8,0,0,0,8.1-2.9c2.3-2,3.5-4.9,3.5-9a18.4,18.4,0,0,0-.8-5.6,12.1,12.1,0,0,0-2.9-4.3,22.8,22.8,0,0,0-5.4-3.4,64.2,64.2,0,0,0-8.2-3.2,80.5,80.5,0,0,1-11.2-4.7,31.2,31.2,0,0,1-7.9-6.1,21.9,21.9,0,0,1-4.7-7.9,34.1,34.1,0,0,1-1.5-10.5c0-9.6,2.7-16.7,8-21.4s12.6-7,21.9-7a45.4,45.4,0,0,1,12,1.4,25.5,25.5,0,0,1,9.5,4.6,21.9,21.9,0,0,1,6.2,8.1,28.3,28.3,0,0,1,2.2,11.8v2.7h-18.6c0-4.6-.9-8.1-2.5-10.6s-4.3-3.7-8.1-3.7a13.8,13.8,0,0,0-5.4.9,9.4,9.4,0,0,0-3.5,2.6,8.8,8.8,0,0,0-1.7,3.5,20.1,20.1,0,0,0-.5,4.2,13.5,13.5,0,0,0,1.9,7.5c1.3,2.1,4,3.9,8.1,5.7l15,6.4a52.7,52.7,0,0,1,9.1,5.1,27.3,27.3,0,0,1,5.6,5.7,18.2,18.2,0,0,1,2.9,6.7,33.7,33.7,0,0,1,.8,8.1c0,10.2-2.9,17.6-8.8,22.3s-14.2,6.9-24.7,6.9-18.9-2.4-23.6-7.1-7.1-11.7-7.1-20.6Zm-532.6-66.4h29l13.8,68.1h.2l14-68.1h28.8v96.5H826v-77.1h-.2l-17.2,77.1H793.4l-17.1-77.1H776v77.1H758.1Zm164.4,96.5H867.2v-96.5h53.9v15.9H886.6V1084h32.5v16H886.6v26h35.9Zm105.2,0h-17.8v-77.1h-.3l-17.2,77.1H977.3l-17.2-77.1h-.3v77.1H942v-96.5h28.9l13.8,68.1h.3l13.9-68.1h28.8Zm84.8-17.4a23.5,23.5,0,0,1-5,9,24.3,24.3,0,0,1-9.4,6.1c-3.8,1.6-8.6,2.3-14.2,2.3H1051v-96.5h32.6a48.2,48.2,0,0,1,11,1.2,21.8,21.8,0,0,1,8.7,4,18.2,18.2,0,0,1,5.7,7.6,28.7,28.7,0,0,1,2,11.6,24.3,24.3,0,0,1-3.6,13.5,18.2,18.2,0,0,1-11,7.6v.3a19.2,19.2,0,0,1,12.9,6.9c3.1,3.9,4.7,9.1,4.7,15.6A38.1,38.1,0,0,1,1112.5,1124.5Zm78.3,17.4h-55.3v-96.5h54v15.9H1155V1084h32.5v16H1155v26h35.8Zm63.5,0a10.5,10.5,0,0,1-1.9-4.6,33.1,33.1,0,0,1-.5-5.5l-.6-18.5c-.2-3.8-1.1-6.8-2.8-9s-4.6-3.2-8.7-3.2h-10.4v40.8h-19.5v-96.5h36c8.1,0,14.4,2,18.9,6.1s6.8,10.4,6.8,18.7q0,9.8-3.9,15.9c-2.6,4.1-6.7,6.8-12.2,8v.2c4.9.7,8.4,2.3,10.7,4.8s3.6,6.3,4.2,11.7c.2,1.8.3,3.8.4,5.9s.2,4.5.3,7.1a97.2,97.2,0,0,0,.8,11.8c.5,2.7,1.7,4.5,3.5,5.5v.8Z"/><path class="cls-2" d="M1087.8,1082.1c2.5-2,3.8-5.2,3.8-9.8s-1.2-7.9-3.4-9.8-5.8-2.8-10.7-2.8h-7V1085h5.5C1081.4,1085,1085.4,1084,1087.8,1082.1Z"/><path class="cls-2" d="M1089.5,1101.6a10.1,10.1,0,0,0-4.7-2.4,22.5,22.5,0,0,0-6-.7h-8.3v29.1h7.5c4.7,0,8.5-1,11.4-3.1s4.3-5.9,4.3-11.5a20.2,20.2,0,0,0-1.1-7A12,12,0,0,0,1089.5,1101.6Z"/><path class="cls-2" d="M1238.6,1059.7h-9.2v27.9h8.1c4.7,0,8.3-1.1,10.8-3.4s3.8-5.9,3.8-11.1C1252.1,1064.2,1247.6,1059.7,1238.6,1059.7Z"/><path class="cls-3" d="M2057.5,0h-2.7q-12.3,27.8-23.8,55.7c-23.1,11.7-46.5,23.1-69.9,34.1q14.3-45.3,30.2-89.8h-18.8q-17.6,49.5-33.1,99.8c-17.5,8-35.2,15.9-52.9,23.5q13.9-61.9,31-123.3h-18.3q-18.2,65.6-32.6,131.8-97.2,40.8-197.3,73.3Q1664.1,102.8,1667,0h-17.4q-3,105.5,2.6,210.6c-9.7,3.1-19.5,6.2-29.3,9.1q-13.1-105.9-17.2-211.9c1.2-2.6,2.4-5.2,3.7-7.8H1588c0,1.2.1,2.4.1,3.6q-60.3,126.6-112.7,256.2-28.4,6.9-57,13-39.6-72.5-74.5-147.6c4.5-12.6,8.9-25.1,13.3-37.7q61-42,119.7-87.5h-29q-39.9,30.5-81,59.2c6.7-19.6,13.3-39.4,19.8-59.2h-18.3c-8.3,25.4-16.9,50.7-25.6,76-5.4,3.7-10.8,7.4-16.3,11q-19.2-43.1-36.8-87h-18.8q19.5,48.9,40.9,96.8c-7.1,4.8-14.4,9.5-21.6,14.2q-29.1-54.7-55.5-111h-20.8q28.5,61.2,60.4,121.2-76.5,48.9-156.5,92.2-47-40.3-91.9-83Q1086.2,67.3,1142.1,0h-22.7q-51.2,60.9-106.1,118.4l-16-15.5Q1039.5,52.5,1078.7,0h-21.8q-35,46.2-72,90.7Q940.2,46.5,897.8,0H874.3q48.3,53.4,99.3,104.1-47.4,56.3-98.3,109.7-66.6-34.1-131.2-71.9Q777.9,72.2,807.6,0H788.8c-16.9,40.9-35,81.2-53.9,120.9C720.2,80.9,706,40.5,692.4,0H674.1q21.3,63.8,44.4,126.7Q662.3,92.8,607.7,56.1,595.7,28.1,584,0H565.1c5.3,12.6,10.5,25.2,15.9,37.8Q554.2,19.2,527.9,0H498.7q46.8,35,95.1,67.7,10.7,24.9,21.8,49.7Q551,81.1,488.4,41c.9-13.7,1.6-27.3,2.2-41H472.1c-.4,9.8-1,19.6-1.5,29.4C457.3,20.7,444,11.9,430.9,3c0-1,0-2-.1-3H396l16.6,11.5A2524.8,2524.8,0,0,1,400.8,287Q291,266.8,184.3,237.3q-15.3-63.2-34-125.8a109.3,109.3,0,0,0,8-41.3c0-1.4,0-2.8-.1-4.1A388.1,388.1,0,0,0,190.4,0H171.7a358.2,358.2,0,0,1-18,38.8A109.1,109.1,0,0,0,133.1,0H0V169.8L7.4,173l-3,7.6L0,179v51.9c4.4-8.1,8.6-16.3,12.4-24.6l4.5-2.6q43.1,15,86.8,28.5a2506.7,2506.7,0,0,1,72.5,276.9Q88.2,519.3,0,523.2v17.7q89.7-4,179.7-14.4,15.3,79.1,25.7,158.7-67.8,30-136.6,56.1Q36.6,672.5,0,605.2V642q27.5,52.2,52.4,105.4l-23.5,8.5C19.5,738.9,9.8,722,0,705.2V740l12.3,21.8L0,766.1v18.4l20.8-7.2c4,7.3,8,14.6,11.9,21.9Q16.4,806.3,0,813v18.9c13.7-5.6,27.3-11.4,40.9-17.2,9.1,17.2,17.9,34.6,26.6,52C45.1,858.4,22.6,850.2,0,842.3v18.4c26.3,9.4,52.5,18.9,78.7,28.8q13.6,28.3,26.7,57Q53.9,991.2,0,1033.2v41.2q53.6,60.6,103.2,124.7Q51.8,1207.4,0,1214.4V1232c30.5-4.2,60.9-8.6,91.3-13.4q-41.1,66.2-86.2,129.7l-5.1-3v42.3l11.1-15.3c5.9,3.5,11.7,7.1,17.6,10.8l-12.6,20L0,1394.7v19.6l6.7,3.6c-2.2,3.4-4.5,6.8-6.7,10.3v34.3l.7-1.1q71.9,32.4,141.2,69.1-15.9,55.8-34.2,111.1Q54.2,1628.4,0,1617.5v17.8q51.5,10.4,102.2,22.9L94,1681.9q-46.8-8.2-94-14.7v17.6c29.5,4,58.8,8.6,88.1,13.7l-9.3,25.4Q39.5,1719.9,0,1717v18.8c24.1,1.8,48.1,3.8,72,6.3-7.7,20.3-15.7,40.6-23.9,60.7C32,1812.9,16,1823.2,0,1833.5v20.7c12.1-7.9,24.2-15.7,36.4-23.4-11.6,27.5-23.8,54.8-36.4,82v196.6a110.3,110.3,0,0,0,9.1-9A389.2,389.2,0,0,1,90,2180.2c2.9,3.9,5.8,7.8,8.5,11.7A383.9,383.9,0,0,0,0,2173.2v17.5a364,364,0,0,1,114.4,25.6,390.6,390.6,0,0,1,23.9,46.9q-46.8,27.3-92.5,56.8H78.2q33.1-20.7,66.7-40.5a377.4,377.4,0,0,1,12.5,40.5h18a400,400,0,0,0-15.2-49.3c8.9-5.2,17.9-10.3,26.9-15.3a382.7,382.7,0,0,1,40.6,32,107.8,107.8,0,0,0-21.2,15.5c-8.7,5.6-17.3,11.3-26,17.1H371.9a104.7,104.7,0,0,0-14.5-16.7q102.6-68.9,211.3-127.2,16.9,71.7,29.7,143.9h17.7q-13.5-76.5-31.5-152.4,90.1-47.5,184.1-87.6a2539.6,2539.6,0,0,1,150.6,240h19.9a2570.6,2570.6,0,0,0-154.1-246.9l11.6-4.9A2554,2554,0,0,1,976.3,2320h20.5a2563.5,2563.5,0,0,0-183.3-258.6c3.7-1.6,7.4-3,11.2-4.5A2555.9,2555.9,0,0,1,1036.6,2320h21.3A2576.9,2576.9,0,0,0,842,2050q38.1-14.9,76.8-28.5a2540.9,2540.9,0,0,1,222.4,168.9q2.7,64.8,7.2,129.6h17.7c-2.7-38-4.8-76-6.6-113.9,42.3,36.5,83.4,74.6,123.2,113.9h24.7q-71.9-71.9-148.9-137.8c-.3-9.1-.7-18.2-1-27.4A2537.3,2537.3,0,0,1,1360,2320h25.8a2561.6,2561.6,0,0,0-229-187.3c-.2-6.7-.3-13.3-.5-20A2542.1,2542.1,0,0,1,1443.5,2320H1473a2565.7,2565.7,0,0,0-317.2-229.6c-.5-27.4-.8-54.7-.9-82.1l20.9,6.3A2559.1,2559.1,0,0,1,1713.6,2249q3,35.5,7.1,71h17.5c-2.3-20-4.4-40.1-6.2-60.1,20.1,11.9,40.1,24.1,59.8,36.6.1.2.1.5.2.7a394.6,394.6,0,0,0-37.8,22.8h32.6l8.3-4.7c.2,1.6.5,3.1.8,4.7h64c-6.5-4.4-13-8.7-19.6-12.9,4.3-6.3,8.7-12.4,13.4-18.4l3.7-1.3c2.6,10.9,5.2,21.8,7.9,32.6h18.2c-3.2-12.7-6.2-25.4-9.2-38.1,5.2-1.5,10.4-3,15.6-4.3,16.9,9.8,33.6,19.9,50.2,30.1-.4,4.1-.7,8.2-1,12.3h17.5c.1-.6.1-1.3.2-1.9l3.1,1.9h32.4c-11.1-7.2-22.3-14.2-33.6-21.2,1.4-11,3.3-21.8,5.7-32.5a349.5,349.5,0,0,1,38.3.1l47.4,53.6h7.4v-17.8l-16.3-18.5,16.3,9.4v-37.4a360.5,360.5,0,0,0-37.3-5.5l-16.7-9.2-23.5-26.6a376.4,376.4,0,0,1,18.2-39.9,392.7,392.7,0,0,1,59.3-21.9v-18a395.6,395.6,0,0,0-44.7,14.7,377.8,377.8,0,0,1,41.8-54.3l2.9,6.8v-44.3c-3.3-7.7-6.5-15.5-9.8-23.3l9.8,8.5v-23l-7.8-6.9,7.8,2.1v-18l-27.6-6.9q-8.7-22.2-17.1-44.6,22.5,3.8,44.7,7.8v-56.3l-5.7-4.3-.6-1.3,6.3.7v-17.6l-14.1-1.5a2542.7,2542.7,0,0,1-168.1-580.7,2588.3,2588.3,0,0,0,182.2,518.1v-41.7a2571.9,2571.9,0,0,1-187.7-586.8c2.6-7.4,5.3-14.8,8-22.2l10.6-1.4a2550,2550,0,0,0,169.1,306.4v-32.4a2538.1,2538.1,0,0,1-151-276.4l2.2-.3A2532.7,2532.7,0,0,0,2057.5,1392v-30.3q-69.9-100.8-130.1-208.5,64.9-8,130.1-14V914.7a81.2,81.2,0,0,0-8.6-.4,109.4,109.4,0,0,0-64.1,20.6l-8.9-6.9q38.3-79.5,81.6-155.6V725.3l-12.5-3.7c4.1-8.3,8.3-16.6,12.5-24.9V661.5c-9.6,18.3-19.1,36.7-28.3,55.3l-24.8-7.8q25.2-60.6,53.1-119.8V548.6q-37.4,76-70,155-53.9-17.6-106.9-37.6,11.6-76.9,27.6-153.1l8.6-5.7q70.2,3.2,140.7,2.4V492.2q-58.2.6-116.2-1.4c15.7-10.6,31.2-21.3,46.8-32,23.1-1.2,46.3-2.6,69.4-4.4V436.9c-14.1,1.1-28.3,2.1-42.4,3q21.3-15,42.4-30.3V388.1q-37.4,27.1-75.3,53.5-29.1,1.5-58.4,2.1a2589.4,2589.4,0,0,1,121-375.1l12.7-6.6V42.1l-2.2,1.1c.8-1.7,1.5-3.4,2.2-5.1ZM1881.9,144.5c16.9-7.2,33.8-14.5,50.6-22.1a2564,2564,0,0,0-74.2,322.1l-23.1-.2A2561.8,2561.8,0,0,1,1881.9,144.5ZM1927.7,949q-12,31.5-23.1,63.3l-4.5,1.2c2.4-8.8,4.9-17.6,7.4-26.4,4.3-14.9,8.7-29.7,13.2-44.5Zm-1.3-24.8c.9-3,1.9-6,2.9-8.9l8.8,7c-1.3,3.1-2.5,6.2-3.7,9.2Zm-14.3-13.3q-26.8-25.2-53-51.2a28.3,28.3,0,0,0,.2-2.9c18.2,15.8,36.6,31.2,55.2,46.5Zm-67.4-92.3-3-2.7c.3-12,.6-23.9,1-35.9q2-54,6-107.5l12.4,4.8Q1851.1,747.8,1844.7,818.6Zm-33,1040.2c-.9-14.2-1.7-28.4-2.3-42.7,14.9,14.7,30,29.2,45.2,43.7C1840.3,1859.3,1826,1859,1811.7,1858.8Zm62,19.1c11.9,11.3,23.9,22.4,35.9,33.6-31.5-3.9-63.1-7.1-94.9-9.8-.6-8.5-1.3-17-1.9-25.5Q1843.3,1876.7,1873.7,1877.9Zm-60,176.6c4.7,33.6,10.1,67.2,16.1,100.6q-21.3-9.6-42.8-18.7-6.3-60.3-9.7-120.7C1789.5,2028.5,1801.6,2041.5,1813.7,2054.5Zm2.6-133.7q58.8,5,117.5,12.8,25.4,23.1,51.1,45.9-82.2-18.4-166-31.4C1818,1939,1817.1,1929.9,1816.3,1920.8Zm148.1,17.1,28.4,4.3c3.9,10.5,7.8,20.9,11.8,31.4C1991.1,1961.7,1977.7,1949.9,1964.4,1937.9Zm21-16.1c-15.2-2.3-30.6-4.5-45.9-6.5-13.1-12-26.2-24.1-39.1-36.2q36,1.8,71.8,4.6Q1978.7,1902.9,1985.4,1921.8Zm-1.8-59.5,7,5.5-5.4-.5C1984.7,1865.7,1984.1,1864,1983.6,1862.3Zm-102.8-1.5q-36.6-34.8-72.5-70.2-1.2-36.4-1.5-73,74.4,64.1,151.8,125.1c2.4,7.7,5,15.4,7.5,23.1C1937.8,1863.7,1909.3,1862,1880.8,1860.8Zm-71.1,163.9q-16.8-17.9-33.8-35.6c-.5-10-.9-19.9-1.2-29.9l27.9,4C1804.7,1983.7,1807.1,2004.3,1809.7,2024.7ZM771.6,2001l-6.7,1.8q-22.9-26.8-46.5-52.9h1.7C737.5,1966.7,754.7,1983.7,771.6,2001Zm-26.9-51.6c20.4-.2,40.8-.3,61.2,0,16.8,10.1,33.6,20.5,50.2,31q-32.7,7.3-65.1,15.6C775.8,1980.3,760.3,1964.8,744.7,1949.4Zm1.6,58.4-7.3,2q-22.5-29.8-45.9-59.2h2.3C712.7,1969.4,729.6,1988.5,746.3,2007.8Zm-55.1-109.2-24-21.9,31.2,11.4,26,14.2C713.3,1901,702.3,1899.7,691.2,1898.6Zm-12.8,33.5h-.1l-.9-1.1Zm-6.9,19.4q25.3,31.4,49.5,63.3-82.2,23.4-162.5,52.2-14.8-52.8-32.2-105.3Q598.9,1954.5,671.5,1951.5ZM443.3,1787.2l.6,1.6q-30.9-8-61.8-15l5.6-4.1C406.3,1775.3,424.8,1781.2,443.3,1787.2ZM405,1756.8l3.1-2.3,25.7,10.1.6,1.4Zm47.8,53.9q15,37.3,28.8,75.1c-16.6-.4-33.2-.5-49.9-.5-28,0-55.9.4-83.9,1.4q-1.8-41.7-5.1-83.2l19.4-14.7Q407.7,1799,452.8,1810.7ZM350.2,1985.6q79.1-13.6,158.4-22.1,18,54.6,33.5,109.5-99.9,36.6-196.5,81.6Q350.7,2070.2,350.2,1985.6Zm-.2-19.1c-.1-8-.2-16-.4-23.9q73.9-7.6,148.4-10.7l4.5,13.2Q425.9,1953.5,350,1966.5Zm-.8-41.4c-.2-7-.5-14-.7-21q69.6-2.4,139.4-.7c1.4,3.7,2.7,7.5,4.1,11.3C444.3,1916.8,396.6,1920.3,349.2,1925.1Zm10.5-156.3-20.2-4.3-.9-9.1q14.1,3.9,28.2,8.1Zm-15.4,405.6q99.3-46.7,202.4-84.6c2.2,8.1,4.4,16.1,6.5,24.2q-108.8,48.5-212.4,107.3C342.1,2205.7,343.3,2190.1,344.3,2174.4Zm175.9-231.2c-1.3-4-2.7-8-4.1-12q69-2.4,138.1-1l2.4,2.9Q588.2,1936.3,520.2,1943.2Zm83.1-30.9c-31,0-62.1.5-93.1,1.7l-3.6-10.2q65.9,2,131.8,7.4l1.1,1.3C627.5,1912.3,615.4,1912.3,603.3,1912.3Zm-103-26.1q-12.7-35.1-26.6-70,55.7,15,110.6,32.5c12.9,14.4,25.6,29,38.3,43.8Q561.4,1887.9,500.3,1886.2ZM447,1751.1c-2.7-6.3-5.5-12.6-8.2-19l12.1-8.6c18.2,13.2,36.2,26.8,54,40.5l18.9,19.4C498.4,1772.2,472.7,1761.5,447,1751.1Zm9-157,1.6-.8-1.3,1.5Zm2.1,99.2a111.3,111.3,0,0,0,5.7-80.6c11.5-13,22.8-26,34.2-39.1q109.3-52.9,221.2-99.9c11.1,10.2,22.2,20.4,33.4,30.4q-149.6,90-292.4,191.3ZM526,1540.9q58.8-69.3,114.8-140.8,31.7,30.6,64.3,60.7Q614.8,1498.9,526,1540.9Zm-38.8,18.6c-13.6,6.5-27.1,13.2-40.6,19.9a110.2,110.2,0,0,0-88.2-44.1,105.9,105.9,0,0,0-15,1.1q-26.4-49.1-54.9-96.5-12.3-55.2-27-109.8-11.5-58.2-25.8-116c.6-6.9,1.1-13.9,1.6-20.8q120.1-22.8,238.5-52c32.1,94.4,89,182.1,152.5,246.5Q559.9,1475.3,487.2,1559.5ZM309.1,1753.9c0-2.2-.1-4.4-.2-6.7l5.4,1.4C312.6,1750.4,310.9,1752.2,309.1,1753.9Zm14.3,26.7c.4,4.9.9,9.9,1.3,14.9l-14.6,11.2c-.1-9.5-.2-19-.4-28.4l.4-.4Zm-14.3,125.1,22-1c.3,7.4.5,14.8.7,22.2l-23.6,2.7Zm.4-17.5q.8-29.7.7-59.6l16-12.4q2.7,35.5,4.2,71.1Zm.5-341.7c-3.2-17.5-6.5-35.1-10-52.5q13,22.9,25.7,46.2A107.2,107.2,0,0,0,310,1546.5Zm-2.5,400.7,24.8-2.8c.2,8.3.3,16.7.4,25.1-8.9,1.5-17.7,3.2-26.6,4.9C306.6,1965.3,307.1,1956.3,307.5,1947.2ZM57.6,1972c5.9-14.5,11.5-29.1,17.1-43.7,21.6-3.1,43.3-5.9,64.9-8.5-16.3,15.2-32.8,30.2-49.3,45.2Zm6.4,16.4c-3.2,3-6.5,5.9-9.8,8.8l-11,9.7c2.2-5.1,4.3-10.2,6.4-15.3ZM53.8,1378.1q41.7-68.2,79.4-139.5,30,40.4,58.5,82.2-12.6,65.3-28.7,130Q109.3,1413,53.8,1378.1Zm104.6,90.8c-1.1,4.4-2.2,8.9-3.4,13.4Q95,1445.6,32.7,1412l11.9-19Q102.5,1429.3,158.4,1468.9ZM714.8,325.4,692.9,324c-14.8-1-29.6-2.2-44.4-3.5q17.4-29.7,34.1-59.8C693.2,282.4,703.9,303.9,714.8,325.4ZM652.9,157.7q25.2,13.5,50.7,26.4c-6.6,12.9-13.3,25.7-20.1,38.5C673.1,201.1,663,179.4,652.9,157.7Zm38.8,183.9c10.8.8,21.6,1.5,32.5,2.1l5.7,11.1q-26.5,23.7-53.8,46.8-47.6,15.1-95.8,28.6,30.2-45.7,58.3-92.9C656.2,338.9,673.9,340.4,691.7,341.6Zm-51.1,89.5q-35.7,28.9-72.4,56.7-24.3,15.9-49,31.3,23.5-32.9,46.2-66.5Q603.2,442.4,640.6,431.1Zm-85.7,6Q511.2,448.8,467,459c-14.1,3.3-28.2,6.4-42.3,9.4q18.2-76.5,31.6-153.9,80.8,13,163.1,21Q588.2,387.1,554.9,437.1ZM471,476.3c23.1-5.4,46-11,68.9-17-19.3,28.3-39.2,56-59.6,83.4q-43.8,26.1-88.8,50.6Q407,540.7,420,487.4,445.5,482.2,471,476.3ZM433.3,603.9q-35.4,44.7-72.7,87.6c5.8-17.3,11.5-34.7,16.9-52.2Q405.7,621.9,433.3,603.9Zm-63.8-3q12.2-53.7,21.8-107.6l8.1-1.6Q385.8,546.6,369.5,600.9Zm-23.3,16.5c-5.6,2.9-11.2,5.9-16.9,8.7q-39.4,20.3-79.5,38.8c-3.2-48.5-7.9-97.1-13.9-145.5q67.7-9.3,135.4-22.2Q360.2,557.7,346.2,617.4ZM328.5,992q63,28.1,124.9,57.9a528.5,528.5,0,0,0,17.1,74.8q-115.2,28.3-232,50.7c1.7-26.3,3-52.5,3.8-78.8,2.6-25.4,4.8-51,6.7-76.5h5.9A110.1,110.1,0,0,0,328.5,992ZM282.3,802.7c6.5-6.7,13-13.5,19.4-20.3l-7.5,24.1C290.3,805.1,286.4,803.8,282.3,802.7Zm-21.1-3.2-5.9-.2c-.4-29.2-1.3-58.3-2.8-87.5q29.7-16,59.1-33.1c7.7-4.4,15.3-8.9,22.9-13.4q-10.2,40.1-21.7,79.7Q287.4,772.6,261.2,799.5Zm41.7-135.8c-17,9.8-34.2,19.4-51.4,28.8-.1-2.9-.3-5.9-.5-8.9q43.3-20.1,86.2-42l3.7-1.9c-.1.6-.3,1.2-.4,1.8C328,649,315.5,656.4,302.9,663.7Zm-65,136.9-2.8.5c-2-25.3-4.5-50.7-7.4-75.9l7.9-4.3C236.8,747.5,237.6,774,237.9,800.6Zm-59.6,660.9q14.3-56.9,25.9-114.4-7.9,60-18.7,119.6Zm3.6,24.2c-.7,3.9-1.5,7.9-2.2,11.9l-9.2-5.8c1-4,2.1-8.1,3.1-12.2C176.4,1481.6,179.2,1483.6,181.9,1485.7Zm16.7-302.9-40.3,7.2,13.5-27.3c3.9-8,7.7-16,11.5-24Q191.1,1160.8,198.6,1182.8ZM162.9,970.9a111.3,111.3,0,0,0,45,38.8q-9.5,19-19.2,37.8C180.5,1021.9,171.9,996.3,162.9,970.9Zm41.3,228.6c1.9,5.6,3.7,11.3,5.5,16.9q-6.1,40.2-13.5,80.2-26.4-38.1-54.1-75.1l6.3-12.2C167,1206.1,185.6,1202.9,204.2,1199.5Zm-12.4,326.4c26.6,17.1,53,34.7,78.9,52.8l-2.3,3.1q-39-23.2-78.8-45.3C190.3,1533,191,1529.4,191.8,1525.9Zm85.9,195.2q-20.8-5.2-41.7-10.2l18.1-10.2,10.5,3.3A109.1,109.1,0,0,0,277.7,1721.1Zm13.6,21.4c.2,4.2.3,8.3.5,12.5-34.1-6.5-68.2-12.3-102.5-17.3l24.4-14C239.7,1729.6,265.6,1735.8,291.3,1742.5Zm-95.9-234.9,2.1-10.6q41.1,30.3,81.1,62.3c.1,1.3.2,2.6.4,3.9Q237.8,1534.5,195.4,1507.6Zm5.7-29.6q10.5-57.4,18.6-115.5c14.2,21.8,28,43.8,41.6,66q8.4,53.1,14.6,106.3Q239,1505.7,201.1,1478Zm22-141.7c2.4-18.4,4.5-36.9,6.5-55.3,5.2,17.6,10.1,35.3,14.9,53.1s6.3,32.8,9.2,49.2Q238.7,1359.6,223.1,1336.3Zm2.5-629.7c-.5-3.6-.9-7.2-1.4-10.8l9.8-4.5c.2,3.5.5,6.9.6,10.4Zm.6,337c-.2,17.3-.7,34.7-1.2,52s-3.9,35.8-6.1,53.6c-5-18-10.1-36-15.5-54Q215.1,1069.5,226.2,1043.6Zm-81-147.2-11.7-4.6Q113.7,841.6,91.9,792q60.2-27.4,119.3-58.2c2.6,23.9,4.9,47.9,6.9,71.8A110.8,110.8,0,0,0,145.2,896.4ZM142.3,914h-.2a.4.4,0,0,1-.1-.3Zm-7.6,30q23,62.1,42.6,125.2l-.8,1.6q-23.4-60.3-49.9-119.6Zm39.6,169.9v.2q-18.7,40.2-38.9,79.8l-8,1.3q23.1-38.4,44.9-77.6C172.9,1116.3,173.6,1115.1,174.3,1113.9Zm-8.5,395.5,10.2,6.4c-.8,4-1.5,8-2.4,12l-11.2-6.1C163.5,1517.6,164.6,1513.5,165.8,1509.4Zm20,44.9c24.8,13.7,49.3,27.9,73.6,42.4a110.2,110.2,0,0,0-5.7,84.3l-1.5.8q-45-14-90.4-26.2Q174.9,1605.2,185.8,1554.3Zm45.4,139.3-20.3,11.6q-29.4-6.6-59-12.5l5.4-20.2Q194.5,1682.6,231.2,1693.6Zm-42.7,24.5-26.9,15.7L141,1731c2.1-7.1,4.2-14.3,6.2-21.5C161,1712.3,174.7,1715.1,188.5,1718.1ZM163.2,1753q63.6,8.9,126.5,20.9-63,64.2-128.8,126-39.6,4.2-79.1,9.8,25-67.2,46.3-135.7Zm11,163c-16.6,13.9-33.2,28-49.6,42.1l-1.1.2q22.6-20.7,45-41.7Zm-103,112c20.2-18.1,40.6-35.9,61.1-53.6q78.4-15,157.7-25.1l-1.5,28.5q-112,22-221.7,54.2Zm87.6-76.3c15.3-13,30.8-25.9,46.2-38.7,28.9-2.6,57.7-4.7,86.6-6.4-.2,8.4-.5,16.7-.9,25.1Q224.6,1940,158.8,1951.7Zm70-58.2q31.8-25.9,64-51.2c-.1,15.6-.3,31.2-.7,46.8Q260.5,1890.9,228.8,1893.5Zm-30.6,2.6-8.9.9q52.5-49.9,103.3-101.3c.1,8.1.2,16.3.2,24.4Q245.1,1857.5,198.2,1896.1Zm314-1114.4c-54,75.1-70.2,161.5-61.4,247.6q-54.4-26.1-109.6-50.7a110.4,110.4,0,0,0-26.6-161.7q16.2-40.8,30.9-82Q415.4,657.1,479,573.4q50.6-34.5,99.3-71.3,68.7-45,134.1-93.8c12.9-4.3,25.8-8.7,38.6-13.2q79.8,150.6,170.4,294.5C782.9,619.7,623.5,627.1,512.2,781.7ZM794.9,321.3l-9.2,7.5h-1.6l10-9.4A10.8,10.8,0,0,1,794.9,321.3Zm-23.4-104c23.1,10.8,46.4,21.4,69.8,31.5-13.5,13.7-27.1,27.1-40.8,40.4C790.6,265.3,780.9,241.4,771.5,217.3Zm19.8,129.4,14.5.4c1.2,2.6,2.3,5.2,3.4,7.9-16.6,6.3-33.2,12.4-50,18.4l-.4-.7C769.7,364.1,780.6,355.4,791.3,346.7Zm-23.7,42.5q24.4-8.8,48.6-18,80.4,185.3,176.6,362.5c-12.9-9.5-26.1-18.4-39.6-26.5Q854.2,552.3,767.6,389.2ZM1039,325.3q-60.6,3.8-121.4,4.8c20-8.7,40-17.5,59.7-26.6C997.8,311,1018.3,318.3,1039,325.3Zm-39.4-32.2,1.1-.5,11.3,4.9Zm-23.3-8.6q-39-14.4-77.4-30.2l6.5-5.9c24.5,11.9,49.1,23.5,74,34.7ZM954,294.7c-27.3,12.4-54.9,24.2-82.6,35.7-18-.1-36-.3-54-.7l-1.4-3.3q34.8-28.9,68.6-59.2Q919.1,281.5,954,294.7ZM828.3,347.6l-2.8,1.1-.5-1.1Zm4.2,17.3c14.1-5.5,28.3-11.1,42.3-16.9q104.7.2,208.4-8.1,70,22.4,141.4,40.8-85.3,198.8-188.9,388.1l-7.4-6.5Q920.9,568.8,832.5,364.9Zm316.4-31.1c26.2-2.8,52.3-5.9,78.4-9.5l16.1,12.2L1232.2,363C1204.2,353.8,1176.5,344,1148.9,333.8Zm92.8,51.3,7.3,1.8q56.4,18.2,113.8,33.7,20.7,13.6,41.5,26.9-35.2,99.2-65.9,199.7c-100.8.4-204.3,51.7-287.4,129.9Q1155.4,586,1241.7,385.1Zm136.8-86q25.1,39.1,51.5,77.6l-10.6,28.6q-33.7-6-67.3-12.9-44.4-30-87.5-61.9l5.1-12.3Q1324.3,309.8,1378.5,299.1Zm-101,0q20.4-50.2,39.5-100.9,24.8,42.8,51.2,84.9Q1323,292,1277.5,299.1Zm176.9,112.2-17.3-2.9,5.2-14.1Zm-4.2-38.2,2.2-5.8c9.7,16.2,19.5,32.3,29.6,48.4l-1.7-.3Q1465,394.4,1450.2,373.1Zm32.4,76.9c11.3,15.1,22.6,30.1,34.1,44.9q-46-26.4-91.1-54.6c.4-1.1.7-2.2,1.1-3.3C1445.3,441.6,1464,445.9,1482.6,450Zm-175.2-67.2q-26.9-6-53.6-12.6l-5.1-1.7c3.1-7.1,6.1-14.2,9.1-21.4Q1282.4,365.3,1307.4,382.8Zm112.2,74.3q61.7,38.7,125.6,73.7,50.5,62.6,104.3,121.5-60.4,34.7-121.9,67.4c-52.1-46.1-110.7-68.5-170.8-72Q1386.1,551.8,1419.6,457.1Zm97.5-18.8c13.6,1.8,27.3,3.6,40.9,5.2l.6,4.3c-13.5-2.6-27.1-5.2-40.5-8ZM1707,686c-9.6-10-19.2-20.1-28.7-30.3l16.5-9.6C1698.8,659.5,1702.8,672.8,1707,686Zm-4.6-75.7,3.1,1.4,1.5,7-1.9,1.1Zm103.4,45.1q-.9,64.5,1.4,129c-18.6-17.3-37-34.9-55-52.7-9.2-34.6-17.8-69.5-25.5-104.5l5.6-3.3C1756.6,634.7,1781.1,645.3,1805.8,655.4Zm-55.3-42.5q28.9-17.5,57.6-35.5c-.9,19.7-1.5,39.5-1.9,59.2C1787.5,628.9,1769,621,1750.5,612.9ZM1809.4,834q2.5,47.3,6.8,94.4c-5.5-12.7-11-25.6-16.3-38.4-11.1-32.8-21.4-65.9-31.2-99.1Q1788.8,812.7,1809.4,834Zm4.6-351c-15.5-1.3-31-2.8-46.5-4.4a118.2,118.2,0,0,0,6.8-18.3c13.8.5,27.6.9,41.5,1.2Zm-1.3,17.4q-2.1,27.9-3.6,55.8-38.7,24.4-78,48c-3.5-1.5-6.9-3.2-10.4-4.8-4.6-21.7-8.9-43.6-12.9-65.4a111.6,111.6,0,0,0,49.9-38.9Q1785.2,498,1812.7,500.4Zm-99,148.2c-1.2-3.9-2.4-7.7-3.5-11.6l.7-.4C1711.8,640.6,1712.8,644.6,1713.7,648.6Zm12.1,94.6q26.7,77.7,57.9,153,19.2,57,41.1,113.2c1,8.2,2.1,16.3,3.2,24.5q-98.2,28.6-195,61.5c26.2-107.1,18.1-219.3-49.9-313.7a384.8,384.8,0,0,0-42-49.4q60.3-32.4,119.6-66.4Q1692.5,705.2,1725.8,743.2Zm99.3,36.1c-.1,2-.1,4-.2,6.1q-2.2-61.5-1.5-122.9l8.1,3.3C1828.6,703.5,1826.4,741.3,1825.1,779.3Zm10.5,345c.2,7.8.5,15.6.8,23.4q-117.9,16.8-234.6,39.6a595.1,595.1,0,0,0,25.8-71.7q100.2-34.3,202-64.1Q1832.2,1087.9,1835.6,1124.3ZM1696.2,588.1c-1.7-6.1-3.4-12.2-5-18.3-2.7-9.8-5.2-19.6-7.7-29.4,2.5-.4,5.1-.8,7.5-1.4q4.8,25.8,10,51.4Zm-6.5,40.8-23.5,13.7-14.5-15.9q-25.5-32.4-49.8-65.7c26.3,13.6,52.8,26.8,79.7,39.5C1684.2,610,1686.9,619.5,1689.7,628.9Zm-231.3,767.5,6-5.9q128.7,136.2,268.5,262.1c-2.7,17.9-5.2,35.9-7.6,53.8q-141.9-147.7-269.7-307.3Zm268.1,479.9,30.6-.4c0,7.2.1,14.4.1,21.6l-31.9-1.7Zm-2.1,38.2,33,1.9c.1,7.6.3,15.3.5,23l-34.4-4.3C1723.7,1928.3,1724.1,1921.4,1724.4,1914.5Zm34,42.5c.2,4.8.3,9.6.5,14.4L1743,1955Zm-1.2-98.4c-9.9,0-19.7.1-29.6.3,2.7-38.1,6.1-76.2,10.5-114.2l21.3,21.6C1758.1,1797,1757.3,1827.8,1757.2,1858.6Zm-16.4-136.1c2.4-18.7,4.9-37.3,7.7-56l15.9,14.2q-2.2,30.9-3.9,62Zm10.8-76.5q17.6-112.8,45.4-224.3-20.9,117.6-30.9,237.2Zm37.4,56.2c0,23.5.4,46.9,1,70.3-4.7-4.8-9.4-9.6-14.2-14.3q1.5-32.1,3.7-64.2Zm-7.8-29.9q4.6-58.6,11.9-117.1-3.4,62.1-4,124Zm9.7,125.5q1.2,30.5,3,60.8h-20.6q.2-38.4,1.6-76.6Zm4.2,78.2c.6,8.1,1.1,16.2,1.8,24.3l-23.5-1.8c-.1-7.5-.2-15-.2-22.6Zm3.3,43.2,2.4,26.1-26.6-3.7-.6-24.2Zm-62.3-287.1q-135-122.1-259.6-254.1A671.8,671.8,0,0,0,1593,1206.7q121.4-24,244.1-41.5c.5,10.4,1,20.8,1.6,31.2-3.3,16.7-6.5,33.5-9.5,50.3A2567.8,2567.8,0,0,0,1736.1,1632.1ZM1833,647.5l-9.3-3.7c.5-26,1.4-51.9,2.6-77.9,5.4-3.3,10.7-6.8,16.1-10.2Q1836.9,601.5,1833,647.5Zm8.3,193.5,1.5,1.2a3.8,3.8,0,0,0-.1,1l-1.4-1.4Zm3.9-307.8-17.7,11.4c.8-14.3,1.7-28.5,2.8-42.8l19,1.5C1847.9,513.2,1846.5,523.2,1845.2,533.2Zm-13.6-48.7c.6-7.6,1.2-15.2,1.9-22.8l21.9.2c-1.2,8-2.5,16-3.6,24.1ZM1862,152.8a2617.1,2617.1,0,0,0-44.6,291.3c-13.3-.2-26.5-.6-39.8-1.1a117.1,117.1,0,0,0,.6-11.9,110.6,110.6,0,0,0-100.2-110q-4.8-48.7-7.6-97.7Q1767.5,192.1,1862,152.8Zm-208.7,76.1q2.7,46.1,7.2,92a110.4,110.4,0,0,0-22.4,3.8c-4.8-29-9.1-58.1-12.9-87.1Zm12.5,312.6c2.8,10.9,5.6,21.8,8.6,32.8.3,1.3.7,2.6,1.1,4q-48.9-23.5-96.7-49.1c-16.2-22.8-31.9-45.7-47.3-69,10.5,2.2,21.1,4.2,31.6,6.2A110.8,110.8,0,0,0,1665.8,541.5Zm-76-500q4.8,91.6,16.2,183.3-54.3,16.2-109.4,29.9Q1540.4,147,1589.8,41.5ZM1488.4,274.9q60.4-14.7,119.9-32.3,5.9,44.1,13.2,88.2a110.7,110.7,0,0,0-64.1,95.1c-17.6-2.1-35.2-4.4-52.7-6.9q-22.8-35.8-44.4-72.4C1469.5,322.6,1478.8,298.7,1488.4,274.9Zm-21,5q-9.5,23.6-18.5,47.1c-7.3-12.6-14.5-25.3-21.6-38C1440.7,286.1,1454,283.1,1467.4,279.9Zm-26.5,68c-1,2.5-1.9,5-2.9,7.6q-20.4-29.8-39.9-60.3l11.5-2.4C1419.8,311.3,1430.2,329.6,1440.9,347.9ZM1335.5,148.3q30.8,65.1,65.1,128.3l-12.8,2.6q-32.2-51.1-62.3-103.8C1328.9,166.3,1332.2,157.3,1335.5,148.3Zm-16.3-35.1,5.9,12.8c-3.6,9.8-7.1,19.6-10.7,29.5-5.4-9.6-10.6-19.2-15.8-28.9Zm-36.5,23.6q11.4,21,23.1,41.7-23.2,62.3-48.3,123.6l-25.7,3.8q-50.7-38.8-99.6-80.2Q1209.2,183.7,1282.7,136.8Zm-75.2,172.3c-31.9,4.1-63.8,7.7-95.9,10.6q-45.4-17.7-90.2-37.1c31.8-15.3,63.3-31.4,94.3-48Q1160.7,272.9,1207.5,309.1ZM1013.8,143q42.9,40.6,87.5,79.2-50,26.7-101.2,51.1-40.8-18.2-81-37.6Q967.7,190.6,1013.8,143Zm-27.7-26.7,15.1,14.7q-48,49.5-98.8,96.4L891.5,222Q940.3,170.4,986.1,116.3ZM878.9,235.2l9.8,4.8-7.6,6.9-9.6-4C873.9,240.3,876.5,237.8,878.9,235.2Zm-70,74.4-1.3-3.1c17.2-16.5,34.1-33.3,50.8-50.2l8.4,3.5Q838.3,285.2,808.9,309.6Zm53.8-82.7-8.4,8.6q-46.3-20-92.1-41.9l-10.3-27Q806.7,198.1,862.7,226.9ZM748.5,206.3q18.8,48.1,38.5,95.8c-9.1,8.6-18.2,17.2-27.4,25.7L735,326.6q-21.6-42.2-42.2-84.7c9-16.5,17.7-33.2,26.3-50Q733.8,199.3,748.5,206.3ZM732.7,165c2.2,5.9,4.4,11.7,6.7,17.5L727,176.4Zm-11.3-16.2-9.9,19.8q-35.6-18-70.5-37.2c-6.9-15.2-13.8-30.5-20.5-45.9Q670.2,118.4,721.4,148.8ZM487.1,60.7q69,44,140.4,83.2,22.3,49,45.7,97.6-21.3,39.2-43.9,77.3-85.6-8.1-170-21.7Q478.8,179.7,487.1,60.7ZM431.2,24.2c12.6,8.5,25.3,16.8,38.1,25.1Q460.9,172.8,440.6,294l-21.2-3.6A2490.9,2490.9,0,0,0,431.2,24.2ZM417.6,308l20,3.5q-14.1,81.3-33.5,161.3l-9.5,1.8Q409,391.7,417.6,308ZM399,304.6q-9.2,87.6-24.4,174c-46.9,9.1-94,16.8-141,23.3-10.8-82-25.7-163.8-44.7-244.9Q292.6,285,399,304.6ZM23.7,179a3.6,3.6,0,0,0,.4-.9l.8.2Zm12.4,12.7c3.2-2.2,6.5-4.3,9.7-6.6l6.3-4.5a106.9,106.9,0,0,0,32.1-6.1c4.3,12.4,8.5,24.7,12.7,37.1C76.5,205.2,56.3,198.6,36.1,191.7Zm64.1-24.2a111.7,111.7,0,0,0,38.3-34.3Q152.9,182.4,165,232q-24-6.9-47.7-14.1C111.8,201.1,106.1,184.2,100.2,167.5Zm23.7,70.9c15.2,4.6,30.5,9,45.9,13.3a2527.4,2527.4,0,0,1,46.6,252.5l-22.9,2.9A2542.9,2542.9,0,0,0,123.9,238.4Zm73.1,286q10.8-1.2,21.6-2.7,9.5,75.4,14.3,151l-10.9,5Q211.8,600.9,197,524.4Zm10.6,178.8,1.5,12q-61.5,32.3-124.3,60.9l-8.7-19Q142.4,732.1,207.6,703.2ZM37.4,771.3c7.5-2.6,14.9-5.4,22.4-8.1l9.1,20.1-20.2,9C45,785.3,41.3,778.3,37.4,771.3Zm19.5,36.4L76,799.2q18.4,41.8,35.3,84.1c-6.7-2.6-13.3-5.2-20.1-7.7Q74.5,841.4,56.9,807.7Zm45.3,90.7,17.8,6.8,8.2,21.3-9.1,8.1C113.6,922.5,107.9,910.4,102.2,898.4ZM3.7,1052.3q55.8-43.2,109.1-89.2,28.2,63.3,52.8,127.9-25.3,46.6-52.7,92.2Q60.4,1115.9,3.7,1052.3ZM21.2,1358q49.4-69.6,94.2-143l5.4,7.1q-39,74.4-82.9,146.2Zm-10.8,88.6c4.4-6.6,8.7-13.2,12.9-19.9q64.7,34.8,127,73.1l-3.6,13.5Q79.7,1478.1,10.4,1446.6Zm147.2,92.3,12.3,6.6q-11.4,53.1-24.9,105.6l-20.4-5.3Q142.3,1592.7,157.6,1538.9Zm-38.5,123.5,21.4,5.5c-1.9,7.2-3.8,14.3-5.8,21.4l-23.4-4.3Zm-13.7,39.2,24.7,4.6-6.6,22.7-26.8-3.1ZM89.8,1744l28.3,3.2c-1.6,5.1-3.1,10.2-4.6,15.3-13.6,8.2-27,16.4-40.4,24.7C78.8,1772.9,84.4,1758.4,89.8,1744ZM62,1814.6l43.5-26.9q-19.9,63-43.4,124.8c-15.4,2.3-30.8,4.8-46.2,7.3Q40.2,1867.8,62,1814.6ZM2.9,1947.3l3.9-8.3c16.1-2.7,32.1-5.3,48.2-7.7q-8.8,22.8-18.1,45.4l-10.8,2.5A111.3,111.3,0,0,0,2.9,1947.3Zm150.7,307.1c-3.9-8.8-8-17.5-12.5-26.1,10,5,19.9,10.4,29.5,16.4C164.9,2247.9,159.2,2251.1,153.6,2254.4Zm100.3,18.3-9.7,6.1A411.6,411.6,0,0,0,204,2246c19.7-10.9,39.6-21.4,59.5-31.7Q259,2243.6,253.9,2272.7Zm-66-37.7a392.6,392.6,0,0,0-61.7-32.7,385.2,385.2,0,0,0-22.4-32.6,404.4,404.4,0,0,0-84.2-83.2,110.8,110.8,0,0,0,10.9-22.1l3.9-3.4a2495.4,2495.4,0,0,1,252.9-63.8q-6.6,98.2-20.7,195.9Q227,2213.4,187.9,2235Zm129.7,44.2a111.9,111.9,0,0,0-29.5-5.8c10.6-6.4,21.3-12.8,32.1-19C319.4,2262.6,318.5,2270.9,317.6,2279.2Zm4.7-47.4c-16.3,9.4-32.6,19-48.7,28.8q4.8-27.9,8.9-56c14.6-7.4,29.2-14.5,43.8-21.6C325.1,2199.3,323.8,2215.6,322.3,2231.8Zm5.4-68.7q-21.1,10.1-42.1,20.5,13.2-94.7,19.3-189.8l28-5.2Q333.2,2075.8,327.7,2163.1Zm15.4,128.8c-2.8-1.9-5.8-3.7-8.8-5.4,1.6-14.2,3-28.5,4.4-42.8q107.4-61.2,219.3-111.2c2.3,8.7,4.4,17.4,6.5,26.1A2527.3,2527.3,0,0,0,343.1,2291.9Zm220-208q83.5-30.2,169.1-54.1l7.2,9.7q-86.2,30.6-170.1,67.4C567.3,2099.2,565.2,2091.5,563.1,2083.9Zm17.3,66.3c-2.1-8.3-4.1-16.6-6.2-24.9q87.3-38.2,176.9-69.8l7.2,10Q667.7,2104.4,580.4,2150.2Zm176.2-116.8-6.4-8.6,8.6-2.3c2.2,2.6,4.5,5.2,6.7,7.9Zm18.1,25.1-6.4-9,10.2-3.5,6.7,8.1Zm8.5-34.1-5.8-6.9,8.2-2.1,6,6.2Zm18.8,22.8-5.8-7.1,9.8-3.2,6,6.3Zm7.9-31.6c-1.6-1.7-3.3-3.4-4.9-5.2q35.7-8.9,71.8-16.7l1.5,1C855.4,2001.4,832.6,2008.3,809.9,2015.6Zm19.4,20.7-4.9-5.3q37.2-11.9,74.9-22.6l1.5,1Q864.8,2022.3,829.3,2036.3Zm69.9-84.2c13.2.6,26.5,1.3,39.7,2.2l22.6,4.7-34.2,6.4Zm40.1,62.3,3.4-1.2q101.3,59.7,196.7,128.4l.9,25.2Q1043.6,2085.6,939.3,2014.4Zm197.9-11.2q.1,38.1.7,76.4-59.6-36-121.6-69l-25.5-13.3c19.4-6.2,38.8-12.2,58.4-17.9Q1093.3,1990.5,1137.2,2003.2Zm-1.3-47.6,1.5-.4v.6Zm2.4,146c.2,6,.4,12.1.5,18.2q-84.9-60.5-174.4-113.9l1.5-.5Q1053.9,2050.1,1138.3,2101.6Zm-.6-168.3c-29.9,3.3-59.6,7.1-89.3,11.4-32-3.4-64.1-6.2-96.1-8.4-13.9-1.9-27.9-3.7-41.8-5.4q-47.6-9.2-95.3-16.4-54-23.1-108.7-43.5l-18.9-8.4c-28.7-15.2-57.6-29.7-86.9-43.8q-36.9-31-75.1-60.7l-16.5-14.7c-11.9-12-24-23.9-36.1-35.7q142.9-101.5,293.1-191.4c99.8,89.5,199.9,174,281.7,249.1,31-28.6,65-58.7,100.7-90Q1139.5,1804.1,1137.7,1933.3Zm-27.4-668H960.8v-108a176.1,176.1,0,1,1,0-130.6V918.4h149.5c25.9,0,50.1,4.2,72.1,12.4a161.3,161.3,0,0,1,56.5,35,157,157,0,0,1,39.7,61.9V918.5h164.3v346.9H1278.6V1156a157,157,0,0,1-39.7,61.9,161.3,161.3,0,0,1-56.5,35C1160.4,1261.1,1136.2,1265.3,1110.3,1265.3Zm363.6,548.4a109.9,109.9,0,0,0,70.9-25.8q40.5,36.9,80.1,74.8-62,3.6-124.2,10a2591.2,2591.2,0,0,0-315.4,53l-29.9,5q1.9-136.2,12-271.8c35.6-31.2,72.7-63.5,110.3-96.7q51.9,40.5,102.6,82.5a109.7,109.7,0,0,0-16.9,58.6C1363.4,1764.2,1413,1813.7,1473.9,1813.7Zm233.6,347.9a2570.5,2570.5,0,0,0-482.4-172.5l-5.5-1.4a2551.3,2551.3,0,0,1,486.3,136C1706.3,2136.3,1706.9,2149,1707.5,2161.6Zm-5.7-248.1,5.2.2c-.1,1.6-.2,3.1-.2,4.7Zm-19.6-19.5-16.3-15.9c14.4-.6,28.7-1.1,43.1-1.4-.4,6.1-.8,12.2-1.1,18.3Zm-6.1,18.5c6.6,6.5,13.2,13,19.7,19.6a2578.7,2578.7,0,0,0-273.2-14.4h-5.8A2548.9,2548.9,0,0,1,1676.1,1912.5Zm-77.2-19.9q-68.1,0-136.7,3.6l-24,1.4c21.4-2.8,42.8-5.3,64.4-7.6,46.5-4.9,93.1-8.4,139.5-10.8l14.4,14.1C1637.3,1892.9,1618.1,1892.6,1598.9,1892.6Zm-443.8,58.2,13.2-3.2q126-12.4,254.3-12.5a2577.6,2577.6,0,0,1,282.9,15.5q-2.4,76.2-.3,152.6a2577.9,2577.9,0,0,0-436.4-125.3q-56.8-11.1-113.7-19.5Zm25.8,47.2-22.7-6.9c21,4.7,41.8,9.6,62.7,14.9a2556.8,2556.8,0,0,1,487.7,175.4c.9,15.5,2,31,3.2,46.6A2568.2,2568.2,0,0,0,1180.9,1998Zm529.2-138.8q-30.6.8-61.4,2.3-45.2-43.6-91.4-85.9a110.4,110.4,0,0,0-166.6-144.9q-49.4-40.8-99.7-80.2c51-45.2,102.6-91.9,152-139.3q132.1,164.8,279.5,317.4Q1714.7,1793.9,1710.1,1859.2Zm12.5,99.9q18.9,19.2,37.5,38.6c2,43.7,5.2,87.6,9.6,131.4q-23.4-9.7-46.9-19.1Q1720.4,2034.5,1722.6,1959.1Zm1,171.6c16.1,6.5,32.3,13.1,48.3,19.9,1.6,15.1,3.4,30.2,5.3,45.4-17.2-8.8-34.4-17.5-51.8-25.9C1724.7,2157,1724.1,2143.9,1723.6,2130.7Zm6.5,107.8c-1.3-16.1-2.5-32.3-3.5-48.4q26.9,13.1,53.3,26.9c2.6,18.9,5.3,37.8,8.3,56.7Q1759.4,2255.7,1730.1,2238.5Zm65-33.2c-2.1-15.8-4-31.6-5.8-47.3,15,6.4,29.9,13.1,44.7,19.8,3.5,18.1,7.1,36.2,11,54.2C1828.5,2222.9,1811.8,2214,1795.1,2205.3Zm17.5,112.9c-.6-3.2-1.2-6.4-1.7-9.5l5.3,3.4Zm30.4-44c-8.3,3.1-16.6,6.4-24.8,10.1l-7.6,3.5-3.6-2.3q-4.8-29.5-9-59.1,26.1,13.9,51.9,28.3c.7,2.9,1.3,5.8,1.9,8.7C1848.8,2267,1845.8,2270.5,1843,2274.2Zm6.4-110.2c-5.3-28.8-10.2-57.6-14.5-86.5,18.2,19.9,36.3,39.9,54.2,60.2l46.1,52.3c-4.3,2.8-8.6,5.8-12.8,8.8Q1886.3,2180.8,1849.4,2164Zm19.1,81.2-3-1.7q-6.1-28.2-11.7-56.6c17.3,8.1,34.6,16.3,51.7,24.7A424.3,424.3,0,0,0,1868.5,2245.2Zm74,43.5-27.6-16.6c10.4-1.9,20.9-3.4,31.4-4.4C1944.8,2274.6,1943.6,2281.7,1942.5,2288.7Zm7.9-38.9a395.7,395.7,0,0,0-57.7,9.2l-8.5-4.9a382,382,0,0,1,38.6-33.9l31.4,16C1952.8,2240.7,1951.6,2245.2,1950.4,2249.8Zm-10.3-42.1,6.8-4.6,13,14.8Zm21.7-13.9c3.5-2.1,6.9-4.1,10.4-6-1.8,3.9-3.5,7.9-5.1,11.9Zm7,54.9c.4-1.4.7-2.8,1.1-4.1l7.4,3.8Zm46-243.1,3.5,3.1q13.8,34.6,28.6,69a400.9,400.9,0,0,0-61.5,83.6c-11.7,5.7-23.3,12-34.7,18.9l-.6.3-48-54.3q-35.4-40-71.6-79.1-5.6-40.5-9.8-81.1,96.9,15.1,191.9,37.7Zm35.4-73c-15-2.7-29.9-5.3-44.9-7.7-4.8-13.1-9.4-26.3-13.9-39.5l25,2.3,20.8,15.7C2041.5,1913.2,2045.8,1922.9,2050.2,1932.6Zm-26.9-61.8h-.3c-16.4-12.6-32.8-25.4-49.1-38.2a2559.1,2559.1,0,0,1-100.2-450.5A2558.8,2558.8,0,0,0,2023.3,1870.8Zm-74.1-57.7q-72.5-57.9-142.5-118.5a2561.4,2561.4,0,0,1,31.1-392c2.1-9.4,4.3-18.7,6.5-28A2592.8,2592.8,0,0,0,1949.2,1813.1ZM1852.4,1077c2.7,6.5,5.4,12.8,8.2,19.2-1.2,4.9-2.3,9.8-3.5,14.6-1.6-10-3.2-20-4.7-30Zm20-28.1c-1.4-2.8-2.9-5.6-4.3-8.5l7-1.9Zm-12-24.4-7.9-16.3q1.1-62.9,5-125.6c16.1,15.8,32.3,31.4,48.8,46.7q-8.1,26.4-15.8,52.9c-3.5,12.2-6.9,24.5-10.2,36.8Zm25.5,42.9c2.9-11.5,5.9-23,9-34.4l2.7-.8C1893.6,1043.9,1889.7,1055.6,1885.9,1067.4Zm13,71.8c-1.8-3.7-3.5-7.5-5.2-11.2,2,3.7,4,7.4,6.1,11.1Zm107.7-12.4c-29.5,3-58.9,6.4-88.3,10-6.3-11.5-12.5-23-18.6-34.7,2.6-6.5,5.1-13,7.8-19.6,8.1-20,16.4-40,25-59.8l6.1-1.6c-.1,1.2-.1,2.4-.1,3.7A110.6,110.6,0,0,0,2006.6,1126.8Zm-67.3-162,1.5-4c.1.1.2.1.2.2S1939.9,963.6,1939.3,964.8Zm8.1-21.4,4.1-10.4,1.9,1.6c-1.5,3.3-3.1,6.6-4.7,9.9Zm15.2,12.5c1.7-3.5,3.3-6.9,4.9-10.4l2.6,2Q1966.2,951.6,1962.6,955.9Zm74.5-218.4,17.5,5.2q-49.5,84.9-92.7,174.3l-3.1-2.5Q1994.8,824.2,2037.1,737.5Zm-39.3-12.2,23.6,7.4q-41.1,84.1-76,171.2l-9.9-8C1954.3,838,1975.2,781.1,1997.8,725.3Zm-16.9-5.5q-32.6,80.7-60.1,164.1-30.1-24.9-59.6-50.7,6.3-75,16.9-149.5Q1929.1,702.9,1980.9,719.8Zm-117.1-60.2-13.7-5.3q4.7-55.8,11.7-111l25.5-16.6Q1873.8,592.8,1863.8,659.6Zm.9-138.9c.7-5.5,1.5-10.9,2.3-16.3l20.6,1.3Zm30.7-32-26-1.5,3.9-25.3,28.2-.3C1899.4,470.6,1897.4,479.6,1895.4,488.7Zm60-28.5q-20.9,14.3-41.9,28.3c2-9.1,4.1-18.2,6.2-27.3C1931.6,461,1943.5,460.6,1955.4,460.2Zm-49.8-16.1-29.4.4A2560.7,2560.7,0,0,1,1954,112.6q33.6-15.4,66.9-32A2604.2,2604.2,0,0,0,1905.6,444.1Z"/><polygon class="cls-3" points="801.1 1113.5 800.9 1113.5 787.1 1045.4 758.1 1045.4 758.1 1141.9 776 1141.9 776 1064.8 776.3 1064.8 793.4 1141.9 808.6 1141.9 825.8 1064.8 826 1064.8 826 1141.9 843.9 1141.9 843.9 1045.4 815.1 1045.4 801.1 1113.5"/><polygon class="cls-3" points="886.6 1100 919.1 1100 919.1 1084 886.6 1084 886.6 1061.3 921.1 1061.3 921.1 1045.4 867.2 1045.4 867.2 1141.9 922.5 1141.9 922.5 1126 886.6 1126 886.6 1100"/><polygon class="cls-3" points="985 1113.5 984.7 1113.5 970.9 1045.4 942 1045.4 942 1141.9 959.8 1141.9 959.8 1064.8 960.1 1064.8 977.3 1141.9 992.4 1141.9 1009.6 1064.8 1009.9 1064.8 1009.9 1141.9 1027.7 1141.9 1027.7 1045.4 998.9 1045.4 985 1113.5"/><path class="cls-3" d="M1096.4,1091.2v-.3a18.2,18.2,0,0,0,11-7.6,24.3,24.3,0,0,0,3.6-13.5,28.7,28.7,0,0,0-2-11.6,18.2,18.2,0,0,0-5.7-7.6,21.8,21.8,0,0,0-8.7-4,48.2,48.2,0,0,0-11-1.2H1051v96.5h32.9c5.6,0,10.4-.7,14.2-2.3a24.3,24.3,0,0,0,9.4-6.1,23.5,23.5,0,0,0,5-9,38.1,38.1,0,0,0,1.5-10.8c0-6.5-1.6-11.7-4.7-15.6A19.2,19.2,0,0,0,1096.4,1091.2Zm-25.9-31.5h7c4.9,0,8.4.9,10.7,2.8s3.4,5.2,3.4,9.8-1.3,7.8-3.8,9.8-6.4,2.9-11.8,2.9h-5.5Zm18.9,64.8c-2.9,2.1-6.7,3.1-11.4,3.1h-7.5v-29.1h8.3a22.5,22.5,0,0,1,6,.7,10.1,10.1,0,0,1,4.7,2.4,12,12,0,0,1,3.1,4.4,20.2,20.2,0,0,1,1.1,7C1093.7,1118.6,1092.3,1122.4,1089.4,1124.5Z"/><polygon class="cls-3" points="1190.8 1126 1155 1126 1155 1100 1187.5 1100 1187.5 1084 1155 1084 1155 1061.3 1189.5 1061.3 1189.5 1045.4 1135.5 1045.4 1135.5 1141.9 1190.8 1141.9 1190.8 1126"/><path class="cls-3" d="M1229.4,1101.1h10.4c4.1,0,7,1.1,8.7,3.2s2.6,5.2,2.8,9l.6,18.5a33.1,33.1,0,0,0,.5,5.5,10.5,10.5,0,0,0,1.9,4.6h21.1v-.8c-1.8-1-3-2.8-3.5-5.5a97.2,97.2,0,0,1-.8-11.8c-.1-2.6-.2-5-.3-7.1s-.2-4.1-.4-5.9q-.9-8.1-4.2-11.7c-2.3-2.5-5.8-4.1-10.7-4.8v-.2c5.5-1.2,9.6-3.9,12.2-8s3.9-9.4,3.9-15.9c0-8.3-2.3-14.6-6.8-18.7s-10.8-6.1-18.9-6.1h-36v96.5h19.5Zm0-41.4h9.2c9,0,13.5,4.5,13.5,13.4,0,5.2-1.2,8.9-3.8,11.1s-6.1,3.4-10.8,3.4h-8.1Z"/><path class="cls-3" d="M1321.4,1143.4c10.5,0,18.8-2.3,24.7-6.9s8.8-12.1,8.8-22.3a33.7,33.7,0,0,0-.8-8.1,18.2,18.2,0,0,0-2.9-6.7,27.3,27.3,0,0,0-5.6-5.7,52.7,52.7,0,0,0-9.1-5.1l-15-6.4c-4.1-1.8-6.8-3.6-8.1-5.7a13.5,13.5,0,0,1-1.9-7.5,20.1,20.1,0,0,1,.5-4.2,8.8,8.8,0,0,1,1.7-3.5,9.4,9.4,0,0,1,3.5-2.6,13.8,13.8,0,0,1,5.4-.9c3.8,0,6.5,1.2,8.1,3.7s2.5,6,2.5,10.6h18.6v-2.7a28.3,28.3,0,0,0-2.2-11.8,21.9,21.9,0,0,0-6.2-8.1,25.5,25.5,0,0,0-9.5-4.6,45.4,45.4,0,0,0-12-1.4c-9.3,0-16.6,2.3-21.9,7s-8,11.8-8,21.4a34.1,34.1,0,0,0,1.5,10.5,21.9,21.9,0,0,0,4.7,7.9,31.2,31.2,0,0,0,7.9,6.1,80.5,80.5,0,0,0,11.2,4.7,64.2,64.2,0,0,1,8.2,3.2,22.8,22.8,0,0,1,5.4,3.4,12.1,12.1,0,0,1,2.9,4.3,18.4,18.4,0,0,1,.8,5.6c0,4.1-1.2,7-3.5,9a12.8,12.8,0,0,1-8.1,2.9,16.5,16.5,0,0,1-6.3-1.1,9.4,9.4,0,0,1-4-3,10.7,10.7,0,0,1-2-4.6,30,30,0,0,1-.5-6.2v-2.8h-19.5v3.9c0,8.9,2.3,15.8,7.1,20.6S1310.4,1143.4,1321.4,1143.4Z"/></g></g></svg>