<svg xmlns="http://www.w3.org/2000/svg" xmlns:xlink="http://www.w3.org/1999/xlink" viewBox="0 0 845 180.2"><defs><style>.cls-1{fill:none;}.cls-2{clip-path:url(#clip-path);}.cls-3{fill:#fff;}</style><clipPath id="clip-path"><rect class="cls-1" width="845" height="180.18"/></clipPath></defs><title>microsoft</title><g id="Layer_2" data-name="Layer 2"><g id="Layer_1-2" data-name="Layer 1"><g class="cls-2"><path class="cls-3" d="M808.2,81.6H781v62.5H762.6V81.6h-13v-15h13V55.9c0-8.2,2.6-14.9,7.9-20.1S782.6,28,790.9,28a49.8,49.8,0,0,1,5.9.4,18.7,18.7,0,0,1,4.5,1V45.2a13.5,13.5,0,0,0-3.2-1.3,16.2,16.2,0,0,0-5.2-.8c-3.8,0-6.7,1.2-8.8,3.6S781,52.6,781,57.3v9.3h27.2V49.2l18.3-5.6v23H845v15H826.5v36.2c0,4.8.9,8.2,2.6,10.1s4.5,3,8.2,3a12.3,12.3,0,0,0,3.8-.8,17.6,17.6,0,0,0,3.9-1.8v15.1a26.9,26.9,0,0,1-5.8,1.8,35.9,35.9,0,0,1-7.9.8c-7.7,0-13.5-2-17.3-6.1s-5.8-10.3-5.8-18.5ZM687.1,105.9c0,8.1,1.8,14.3,5.5,18.6s8.9,6.4,15.7,6.4,11.7-2.2,15.2-6.4,5.2-10.6,5.2-19-1.8-14.7-5.4-18.9-8.6-6.4-15.1-6.4-11.9,2.2-15.6,6.7-5.5,10.8-5.5,19m-19,.6c0-12.8,3.6-22.9,10.8-30.4s17.3-11.3,30.2-11.3,21.6,3.6,28.4,10.9,10.2,16.9,10.2,29.2-3.6,22.5-10.9,30S719.7,146,707.3,146s-21.6-3.5-28.6-10.6-10.6-16.7-10.6-28.9M627,87a7.5,7.5,0,0,0,2.5,6.1c1.6,1.5,5.3,3.4,11,5.7,7.3,2.9,12.4,6.2,15.3,9.8a20,20,0,0,1,4.4,13.2,21.3,21.3,0,0,1-8.4,17.6c-5.6,4.4-13.2,6.6-22.7,6.6a61.7,61.7,0,0,1-10.7-1.1,48.7,48.7,0,0,1-9.9-3v-18a40.2,40.2,0,0,0,10.7,5.5,30.5,30.5,0,0,0,10.4,2.1c4.1,0,7.2-.6,9.1-1.8s3-3,3-5.8a7.8,7.8,0,0,0-3.1-6.3c-2-1.8-5.9-3.8-11.5-6s-11.6-6-14.4-9.5-4.2-8-4.2-13.4a21.5,21.5,0,0,1,8.3-17.3c5.6-4.5,12.8-6.7,21.6-6.7a52.8,52.8,0,0,1,9.2.9,45.5,45.5,0,0,1,8.4,2.3V85.3a41.1,41.1,0,0,0-8.4-4.2,29.9,29.9,0,0,0-9.6-1.7c-3.5,0-6.2.7-8.1,2A6.3,6.3,0,0,0,627,87m-87.8,18.9c0,8.1,1.9,14.3,5.5,18.6s8.9,6.4,15.8,6.4,11.7-2.2,15.1-6.4,5.2-10.6,5.2-19-1.8-14.7-5.4-18.9-8.6-6.4-15.1-6.4-11.8,2.2-15.5,6.7-5.6,10.8-5.6,19m-19,.6c0-12.8,3.6-22.9,10.9-30.4s17.3-11.3,30.1-11.3,21.6,3.6,28.4,10.9,10.2,16.9,10.2,29.2-3.6,22.5-10.8,30S571.9,146,559.4,146s-21.5-3.5-28.6-10.6-10.6-16.7-10.6-28.9m-7.8-41.1a23.8,23.8,0,0,1,3.9.3,15.4,15.4,0,0,1,2.9.7V84.9a14.2,14.2,0,0,0-4.1-2,22,22,0,0,0-6.7-1A14.2,14.2,0,0,0,497,87.6c-3.1,3.8-4.6,9.6-4.6,17.4v39.1H474.2V66.6h18.2V78.9h.3a22,22,0,0,1,7.5-10,21.4,21.4,0,0,1,12.2-3.5m-70,65.5a26.9,26.9,0,0,0,9-1.9,35.8,35.8,0,0,0,9-5v17a36.3,36.3,0,0,1-9.9,3.7,51.3,51.3,0,0,1-12.2,1.3c-11.4,0-20.6-3.6-27.8-10.8s-10.7-16.4-10.7-27.6,3.7-22.8,10.9-30.8,17.7-12.1,31-12.1A41.2,41.2,0,0,1,452.1,66a32.2,32.2,0,0,1,8.3,3.1V86.5a38.4,38.4,0,0,0-8.6-4.7,23.2,23.2,0,0,0-9-1.7c-7.2,0-13,2.3-17.4,7s-6.7,11-6.7,18.9,2.2,13.9,6.4,18.3,10,6.6,17.3,6.6m-55.3,13.2H368.8V66.6h18.3ZM366.9,44.3a9.8,9.8,0,0,1,3.3-7.6,10.9,10.9,0,0,1,7.8-3.1,11.3,11.3,0,0,1,8,3.1,10.3,10.3,0,0,1,3.2,7.6,9.7,9.7,0,0,1-3.3,7.4,11.1,11.1,0,0,1-7.9,3,11.3,11.3,0,0,1-7.9-3,10.1,10.1,0,0,1-3.2-7.4M351.2,36V144.1H332.5V59.4h-.3l-33.6,84.7H286.2L251.8,59.4h-.2v84.7H234.2V36h27l31,80.2h.5L325.5,36Z"/></g><rect class="cls-3" width="85.6" height="85.64"/><rect class="cls-3" x="94.5" width="85.6" height="85.64"/><rect class="cls-3" y="94.5" width="85.6" height="85.64"/><rect class="cls-3" x="94.5" y="94.5" width="85.6" height="85.64"/></g></g></svg>