<svg xmlns="http://www.w3.org/2000/svg" xmlns:xlink="http://www.w3.org/1999/xlink" viewBox="0 0 744.8 161"><defs><style>.cls-1{fill:none;}.cls-2{clip-path:url(#clip-path);}.cls-3{fill:#fff;}</style><clipPath id="clip-path" transform="translate(0 0)"><rect class="cls-1" width="744.7" height="161"/></clipPath></defs><title>opendatasoft</title><g id="Layer_2" data-name="Layer 2"><g id="Layer_1-2" data-name="Layer 1"><g class="cls-2"><path class="cls-3" d="M57.8,66.7a29.9,29.9,0,0,1-6.3,9.9,31.3,31.3,0,0,1-9.6,6.7,29.9,29.9,0,0,1-12,2.4,29.9,29.9,0,0,1-12-2.4,30.4,30.4,0,0,1-9.4-6.7,29.5,29.5,0,0,1-6.3-9.8A31.5,31.5,0,0,1,0,54.9,31.8,31.8,0,0,1,2.2,43a29.9,29.9,0,0,1,6.3-9.9A28.2,28.2,0,0,1,18,26.4a28.5,28.5,0,0,1,12.1-2.5,28.4,28.4,0,0,1,12,2.5A29,29,0,0,1,51.6,33a28.7,28.7,0,0,1,6.2,9.8,31.5,31.5,0,0,1,2.3,11.9,32.4,32.4,0,0,1-2.3,12M49.7,45.9a21.5,21.5,0,0,0-4.6-7.4,22.6,22.6,0,0,0-6.8-5,19.8,19.8,0,0,0-8.4-1.8,20.4,20.4,0,0,0-8.6,1.8,19,19,0,0,0-6.6,4.9,21.4,21.4,0,0,0-4.3,7.3,24.4,24.4,0,0,0-1.6,9,24.4,24.4,0,0,0,1.6,9A23.6,23.6,0,0,0,14.9,71a21.9,21.9,0,0,0,6.7,4.9,19.9,19.9,0,0,0,8.5,1.8A22,22,0,0,0,38.7,76a20.4,20.4,0,0,0,6.7-4.9,23.1,23.1,0,0,0,4.3-7.3,23.5,23.5,0,0,0,1.6-8.9,26.6,26.6,0,0,0-1.6-9m81.7,21.9a29.4,29.4,0,0,1-6.2,9.6,25.4,25.4,0,0,1-8.8,6.1,25.9,25.9,0,0,1-10.2,2.1,23.9,23.9,0,0,1-7.3-1A24.6,24.6,0,0,1,88,77.8,28.6,28.6,0,0,1,84.2,73v29.7H75.6V25.2h8.6V37.1a37.3,37.3,0,0,1,3.9-5A27.9,27.9,0,0,1,93,27.9,21.6,21.6,0,0,1,98.9,25a23.8,23.8,0,0,1,7.3-1.1A25.8,25.8,0,0,1,116.3,26a28,28,0,0,1,8.9,6,29.9,29.9,0,0,1,6.2,9.7,33.1,33.1,0,0,1,2.4,13,34,34,0,0,1-2.4,13.1m-8.1-22.4a21.6,21.6,0,0,0-4.4-7.3,19.4,19.4,0,0,0-6.4-4.6,20.9,20.9,0,0,0-7.8-1.6,19.2,19.2,0,0,0-7.8,1.7,21.7,21.7,0,0,0-6.7,4.6,24.3,24.3,0,0,0-4.7,7.2,25.2,25.2,0,0,0-1.7,9.3,25.8,25.8,0,0,0,1.7,9.4A22.2,22.2,0,0,0,96.9,76a19.1,19.1,0,0,0,7.8,1.6,20.8,20.8,0,0,0,7.8-1.5,18.5,18.5,0,0,0,6.5-4.5,19.7,19.7,0,0,0,4.3-7.2,26.1,26.1,0,0,0,1.6-9.6,25.4,25.4,0,0,0-1.6-9.4M157,66.6a24.3,24.3,0,0,0,4.6,6.3,18.6,18.6,0,0,0,6.3,3.8,19.6,19.6,0,0,0,7.2,1.4,22.1,22.1,0,0,0,10.3-2.3,32.8,32.8,0,0,0,7.9-6.1l5.3,4.9a34.6,34.6,0,0,1-9.9,8.1q-5.5,3-13.8,3a28,28,0,0,1-11.2-2.2,27.5,27.5,0,0,1-9.1-6.3,30,30,0,0,1-6.3-9.8,35.5,35.5,0,0,1-.2-24.6,30.2,30.2,0,0,1,5.7-9.9,27.2,27.2,0,0,1,8.8-6.6,25,25,0,0,1,11-2.4,25.1,25.1,0,0,1,19.9,9.2,29.2,29.2,0,0,1,5.2,9.9,41.1,41.1,0,0,1,1.8,12.3v1.2a7.6,7.6,0,0,1-.1,1.5H154.8a27.8,27.8,0,0,0,2.2,8.6m34.7-15.1a32.9,32.9,0,0,0-1.6-7.7,23.3,23.3,0,0,0-3.5-6.4A18.5,18.5,0,0,0,181,33a18,18,0,0,0-14.6-.1,19.2,19.2,0,0,0-5.6,4.2,23.1,23.1,0,0,0-4,6.4,28.4,28.4,0,0,0-2,8Zm32.4,32.9h-8.5V25.2h8.5V35.5a28.3,28.3,0,0,1,7.6-8.2c3.1-2.3,7.2-3.4,12.2-3.4a24.5,24.5,0,0,1,9.3,1.7,20.2,20.2,0,0,1,6.9,4.9,21.3,21.3,0,0,1,4.3,7.5,29.3,29.3,0,0,1,1.5,9.6V84.4h-8.5V49.8c0-5.5-1.4-9.9-4.2-13.1s-6.7-4.8-11.8-4.8a17.2,17.2,0,0,0-6.8,1.4A15.2,15.2,0,0,0,229,37a19.5,19.5,0,0,0-3.6,5.9,22.8,22.8,0,0,0-1.3,7.6Zm103.2,0V74.3a30.4,30.4,0,0,1-8,8,20.7,20.7,0,0,1-12,3.3,27.1,27.1,0,0,1-10.1-2,26.2,26.2,0,0,1-8.7-6.2,32.5,32.5,0,0,1-6.1-9.9,36.9,36.9,0,0,1-2.3-13.4,35.2,35.2,0,0,1,2.3-13.4,32.8,32.8,0,0,1,6-9.9,25.8,25.8,0,0,1,18.9-8.1c4.8,0,8.9,1,12,3.2a31.6,31.6,0,0,1,8,7.4V.8h13.6V84.4Zm-1.1-38.3a20.7,20.7,0,0,0-3.7-6.1,16.3,16.3,0,0,0-5.5-3.9,14.5,14.5,0,0,0-6.4-1.4,15.7,15.7,0,0,0-6.5,1.3,16,16,0,0,0-5.4,3.8A18.3,18.3,0,0,0,295,46a23,23,0,0,0-1.3,8.1,23,23,0,0,0,1.3,8.1,16.9,16.9,0,0,0,3.7,6.1,15,15,0,0,0,5.4,3.9,15.8,15.8,0,0,0,6.5,1.4,16.1,16.1,0,0,0,6.4-1.4,16.3,16.3,0,0,0,5.5-3.9,20.7,20.7,0,0,0,3.7-6.1,23.8,23.8,0,0,0,0-16.1m67.6,38.3V76.9a25,25,0,0,1-7.7,6.2,23.4,23.4,0,0,1-11.4,2.5,26.3,26.3,0,0,1-8-1.2,20.8,20.8,0,0,1-6.6-3.5,16.8,16.8,0,0,1-4.6-5.9,17.1,17.1,0,0,1-1.7-8v-.3a21.3,21.3,0,0,1,1.7-8.6,17.1,17.1,0,0,1,5-6,21.4,21.4,0,0,1,7.6-3.6,35.8,35.8,0,0,1,9.5-1.2,47.4,47.4,0,0,1,9.1.7,42.1,42.1,0,0,1,7.2,1.8V48.3c0-4.2-1.3-7.4-3.7-9.6s-6.1-3.3-10.8-3.3a34.6,34.6,0,0,0-8.9,1,61.4,61.4,0,0,0-7.9,2.7L358.9,28a63,63,0,0,1,10-3.6A49.3,49.3,0,0,1,381.3,23c8.8,0,15.3,2.2,19.5,6.7s6.4,10.7,6.4,18.8V84.4Zm.3-25.7a38.8,38.8,0,0,0-13.5-2.4c-4.2,0-7.5.9-9.9,2.5a8.3,8.3,0,0,0-3.6,7.2v.3a7.5,7.5,0,0,0,3.3,6.6,14.1,14.1,0,0,0,8.1,2.3,20.6,20.6,0,0,0,6.2-.9,17,17,0,0,0,5-2.6,10.3,10.3,0,0,0,3.2-4,11.4,11.4,0,0,0,1.2-5.2ZM439,65.4c0,2.7.7,4.7,1.9,5.8a7.7,7.7,0,0,0,5.4,1.8,18.5,18.5,0,0,0,8.3-2V82.3a21.4,21.4,0,0,1-5.4,2.3,27.3,27.3,0,0,1-6.7.8,24.3,24.3,0,0,1-6.8-.9,12.8,12.8,0,0,1-9-8.5,22.5,22.5,0,0,1-1.3-8.4V35.7H418V23.9h7.4V7.3H439V23.9h15.9V35.7H439Zm65.3,19V76.9a24.6,24.6,0,0,1-7.6,6.2,24,24,0,0,1-11.4,2.5,26.3,26.3,0,0,1-8-1.2,20.3,20.3,0,0,1-6.7-3.5,16.6,16.6,0,0,1-4.5-5.9,17.1,17.1,0,0,1-1.8-8v-.3a19.7,19.7,0,0,1,1.8-8.6,16.1,16.1,0,0,1,5-6,21.8,21.8,0,0,1,7.5-3.6,37.1,37.1,0,0,1,9.6-1.2,48.1,48.1,0,0,1,9.1.7,44.6,44.6,0,0,1,7.2,1.8V48.3c0-4.2-1.3-7.4-3.8-9.6s-6.1-3.3-10.7-3.3a34.9,34.9,0,0,0-9,1,67.2,67.2,0,0,0-7.9,2.7L469.5,28a59.7,59.7,0,0,1,10-3.6A48.7,48.7,0,0,1,491.9,23c8.7,0,15.2,2.2,19.5,6.7s6.3,10.7,6.3,18.8V84.4Zm.4-25.7a37.7,37.7,0,0,0-6.1-1.7,35.1,35.1,0,0,0-7.4-.7c-4.2,0-7.6.9-9.9,2.5a8.3,8.3,0,0,0-3.6,7.2v.3a7.5,7.5,0,0,0,3.3,6.6,14.1,14.1,0,0,0,8.1,2.3,20.6,20.6,0,0,0,6.2-.9,15.3,15.3,0,0,0,4.9-2.6,11.6,11.6,0,0,0,3.3-4,11.4,11.4,0,0,0,1.2-5.2Zm50.2,27c14.7,0,24.7-7.1,24.7-20.7v-.2c0-12-9.5-16.3-21.4-19.7-6.4-2-9.8-3.1-9.8-5.5v-.2c0-1.7,1.6-3,4.9-3,4.8,0,11.6,2.2,17.8,5.7l7.2-13.7a45.8,45.8,0,0,0-24.8-7.2c-13.9,0-24.2,7.3-24.2,20.5v.2c0,12.5,9.5,16.6,21.4,19.8,6.4,1.8,9.7,2.9,9.7,5.3v.2c0,2.2-1.7,3.3-5.3,3.3-6.3,0-13.9-2.4-20.8-7.1l-7.9,13.2a47.7,47.7,0,0,0,28.5,9.1m64.1.1c19.4,0,33.5-14.7,33.5-32.3v-.3c0-17.6-14-32.1-33.3-32.1s-33.4,14.7-33.4,32.4v.2c0,17.6,13.9,32.1,33.2,32.1m.2-18.4c-7.4,0-12.8-6.4-12.8-13.9v-.3c0-7.4,4.9-13.7,12.6-13.7s12.8,6.4,12.8,14v.2c0,7.4-4.9,13.7-12.6,13.7m45.4,17h21.1V39.8h13.5V23.1H685.3V21.6c0-4,2.2-5.8,6.1-5.8a24.7,24.7,0,0,1,7.9,1.3V1.7A46.6,46.6,0,0,0,685.5,0c-7.2,0-12.1,1.6-15.8,5.4s-5.1,8.9-5.1,16v1.4h-7v17h7Zm65.2,1.2a30.4,30.4,0,0,0,14.7-3.5V65a17.3,17.3,0,0,1-8,2.1c-3.9,0-5.8-1.9-5.8-6.2v-21h14.1V22.4H730.7V6.8H709.5V22.4h-7.1V39.9h7.1V65.1c0,14.8,7.6,20.5,20.3,20.5" transform="translate(0 0)"/><path class="cls-3" d="M.6,120H4.2v29.8H22.5v3.5H.6ZM31,145.9a8.3,8.3,0,0,0,1.9,2.6,7.1,7.1,0,0,0,2.6,1.6,8,8,0,0,0,3,.6,8.3,8.3,0,0,0,4.3-1,11.1,11.1,0,0,0,3.3-2.5l2.2,2.1a14.2,14.2,0,0,1-4.1,3.3,12.7,12.7,0,0,1-5.8,1.3,10.3,10.3,0,0,1-4.6-1,9.9,9.9,0,0,1-3.8-2.6,12,12,0,0,1-2.6-4,15.1,15.1,0,0,1-1-5.3,14.3,14.3,0,0,1,.9-5,13.8,13.8,0,0,1,2.4-4.1,12.2,12.2,0,0,1,3.6-2.7,10,10,0,0,1,4.6-1,10.2,10.2,0,0,1,4.7,1,10.9,10.9,0,0,1,3.6,2.8,14.4,14.4,0,0,1,2.1,4.1,17,17,0,0,1,.8,5.1v.5a2,2,0,0,1-.1.7H30.1a9.5,9.5,0,0,0,.9,3.5m14.4-6.2a10.7,10.7,0,0,0-.7-3.2,8.7,8.7,0,0,0-1.4-2.7,7,7,0,0,0-5.5-2.5,7.2,7.2,0,0,0-2.9.6,6.8,6.8,0,0,0-2.3,1.8,7.8,7.8,0,0,0-1.7,2.6,12.1,12.1,0,0,0-.8,3.4Zm14.5-7.6-3.4,1.3-1.1-3a32.5,32.5,0,0,1,4-1.5,22.6,22.6,0,0,1,4.7-.5c3.3,0,5.8.8,7.6,2.5s2.6,4.1,2.6,7.4v15H70.9v-3.7a12.1,12.1,0,0,1-3.4,2.9,9.7,9.7,0,0,1-5.3,1.3,8.6,8.6,0,0,1-3.2-.5,8.7,8.7,0,0,1-2.9-1.4,9.5,9.5,0,0,1-2.1-2.4,8.6,8.6,0,0,1,0-6.8,6.4,6.4,0,0,1,2.1-2.5,8.4,8.4,0,0,1,3.3-1.5,13.1,13.1,0,0,1,4.1-.6,22.5,22.5,0,0,1,4,.3l3.4.8v-.9a6.2,6.2,0,0,0-1.9-5,7.8,7.8,0,0,0-5.3-1.7,14.6,14.6,0,0,0-3.8.5m-1.2,10.1a4.5,4.5,0,0,0-1.8,3.8,4.6,4.6,0,0,0,.5,2.1,4.7,4.7,0,0,0,1.3,1.5,6.3,6.3,0,0,0,2,1,7.8,7.8,0,0,0,2.2.3,8.6,8.6,0,0,0,3.2-.5,7.7,7.7,0,0,0,2.5-1.4,5.5,5.5,0,0,0,1.7-2,6.6,6.6,0,0,0,.6-2.7v-2.4l-3-.7a23.5,23.5,0,0,0-4-.4,8.7,8.7,0,0,0-5.2,1.4m42.2,11.1v-4.9a16.3,16.3,0,0,1-1.7,2,8.6,8.6,0,0,1-2,1.8,8.3,8.3,0,0,1-2.5,1.2,9.5,9.5,0,0,1-3,.4,12.5,12.5,0,0,1-4.2-.8,11.5,11.5,0,0,1-3.7-2.5,16.2,16.2,0,0,1-2.6-4,15.5,15.5,0,0,1-.9-5.5,15.3,15.3,0,0,1,.9-5.4,14.6,14.6,0,0,1,2.6-4,11.5,11.5,0,0,1,3.7-2.5,11,11,0,0,1,7.3-.5,11.5,11.5,0,0,1,2.5,1.2,10,10,0,0,1,2,1.6l1.6,2V118.6h3.5v34.7Zm-.6-16.2a7.9,7.9,0,0,0-2-3,10.1,10.1,0,0,0-2.7-1.9,9.2,9.2,0,0,0-3.2-.7,7.2,7.2,0,0,0-3.3.7,7.1,7.1,0,0,0-2.7,1.8,7.5,7.5,0,0,0-1.8,3,11.5,11.5,0,0,0,0,7.9,8.9,8.9,0,0,0,1.8,3,7,7,0,0,0,2.7,1.9,7.2,7.2,0,0,0,3.3.7,7.4,7.4,0,0,0,3.2-.7,10.1,10.1,0,0,0,2.7-1.9,7.9,7.9,0,0,0,2-3,11.2,11.2,0,0,0,0-7.8m12-17.8h4v4h-4Zm.2,9.4h3.6v24.6h-3.6Zm15.2,24.6h-3.6V128.7h3.6V133a11.2,11.2,0,0,1,3.1-3.4,8.8,8.8,0,0,1,5.1-1.4,9.2,9.2,0,0,1,3.8.7,8.1,8.1,0,0,1,4.7,5.1,12.9,12.9,0,0,1,.6,4v15.3h-3.5V138.9a8.5,8.5,0,0,0-1.7-5.4,6.3,6.3,0,0,0-4.9-2,6.8,6.8,0,0,0-2.9.6,7,7,0,0,0-2.3,1.5,8.7,8.7,0,0,0-1.5,2.5,10.1,10.1,0,0,0-.5,3.1Zm46.6,1a11.8,11.8,0,0,1-2.4,3.7,10.7,10.7,0,0,1-3.9,2.2,15.9,15.9,0,0,1-5,.8,17.9,17.9,0,0,1-5.7-.9,16.7,16.7,0,0,1-5.2-2.5l1.6-2.9a21.1,21.1,0,0,0,4.4,2.4,15.1,15.1,0,0,0,4.8.8,9.4,9.4,0,0,0,6.4-2.2q2.4-2.2,2.4-6.6v-2.9a17.1,17.1,0,0,1-3.9,3.7,9.8,9.8,0,0,1-5.5,1.5,11.6,11.6,0,0,1-4.2-.8,9.7,9.7,0,0,1-3.6-2.3,10.1,10.1,0,0,1-2.5-3.6,11,11,0,0,1-1-4.9,10.6,10.6,0,0,1,1-4.8,10.8,10.8,0,0,1,6.1-6,11.6,11.6,0,0,1,4.2-.8,9.5,9.5,0,0,1,3,.4,10.2,10.2,0,0,1,2.6,1.1,9.5,9.5,0,0,1,2,1.5,14.5,14.5,0,0,1,1.7,1.9v-4.4h3.6V149a14.4,14.4,0,0,1-.9,5.3m-3.3-18a7.3,7.3,0,0,0-2-2.6,9.1,9.1,0,0,0-6.1-2.3,8.7,8.7,0,0,0-3.2.6,7.3,7.3,0,0,0-2.6,1.7,6.8,6.8,0,0,0-1.8,2.6,9.3,9.3,0,0,0-.6,3.4,9.5,9.5,0,0,0,.6,3.5,12.7,12.7,0,0,0,1.8,2.7,9.5,9.5,0,0,0,2.7,1.7,8.1,8.1,0,0,0,3.1.6,9.1,9.1,0,0,0,6.1-2.3,6.8,6.8,0,0,0,2-2.7,7.4,7.4,0,0,0,.7-3.4,8.1,8.1,0,0,0-.7-3.5m41.3,13.2a5.8,5.8,0,0,1-1.8,2.3,7,7,0,0,1-2.7,1.5,11.4,11.4,0,0,1-3.3.5,16.6,16.6,0,0,1-5.3-1,17.2,17.2,0,0,1-4.6-2.6l1.8-2.7a15.2,15.2,0,0,0,4,2.4,12.6,12.6,0,0,0,4.3.8,5.6,5.6,0,0,0,3.5-1.1,3.4,3.4,0,0,0,1.4-2.8h0a3,3,0,0,0-.5-1.6,3.6,3.6,0,0,0-1.3-1.1,6.6,6.6,0,0,0-1.9-.9l-2.3-.7-2.8-1a9.6,9.6,0,0,1-2.5-1.2,6.9,6.9,0,0,1-1.9-1.9,6.2,6.2,0,0,1-.7-2.9h0a6.4,6.4,0,0,1,.6-2.8,6.6,6.6,0,0,1,1.7-2.3,7.2,7.2,0,0,1,2.6-1.4,11.4,11.4,0,0,1,3.3-.5,14.1,14.1,0,0,1,4.5.7,19.5,19.5,0,0,1,4.1,2l-1.6,2.8a16.6,16.6,0,0,0-3.5-1.8,11.8,11.8,0,0,0-3.6-.6,5.1,5.1,0,0,0-3.4,1,3.3,3.3,0,0,0-1.3,2.5h0a2,2,0,0,0,.6,1.5,3.8,3.8,0,0,0,1.3,1.2l2,.8,2.3.8,2.8.9a9.5,9.5,0,0,1,2.4,1.4,4.7,4.7,0,0,1,1.8,1.9,5.1,5.1,0,0,1,.7,2.8h0a6.2,6.2,0,0,1-.7,3.1m29.6-3.5a13.6,13.6,0,0,1-2.6,4.1,12.3,12.3,0,0,1-4,2.7,11.8,11.8,0,0,1-5,1.1,12.2,12.2,0,0,1-5-1.1,11.9,11.9,0,0,1-3.9-2.7,12.5,12.5,0,0,1-2.6-4.1,13.3,13.3,0,0,1-.9-4.9,13.9,13.9,0,0,1,.9-5,12.5,12.5,0,0,1,2.6-4.1,11.5,11.5,0,0,1,4-2.8,11.8,11.8,0,0,1,5-1,12.5,12.5,0,0,1,11.5,7.8,13.9,13.9,0,0,1,.9,5,14.3,14.3,0,0,1-.9,5m-3.4-8.7a8.9,8.9,0,0,0-1.9-3.1,9.5,9.5,0,0,0-2.8-2,8.2,8.2,0,0,0-3.5-.8,8.6,8.6,0,0,0-3.6.8,7.6,7.6,0,0,0-2.7,2,9.2,9.2,0,0,0-1.8,3,11.6,11.6,0,0,0-.6,3.8,11.5,11.5,0,0,0,.6,3.7,9.1,9.1,0,0,0,1.9,3,8.3,8.3,0,0,0,2.8,2.1,8.1,8.1,0,0,0,3.5.7,8.6,8.6,0,0,0,3.6-.7,9,9,0,0,0,2.7-2,9.2,9.2,0,0,0,1.8-3,9.4,9.4,0,0,0,.7-3.7,9.5,9.5,0,0,0-.7-3.8m10.9-18.7h3.5v34.7h-3.5ZM278,128.7h3.5v24.6H278V149a10.4,10.4,0,0,1-3.2,3.4,7.8,7.8,0,0,1-5,1.4,9.7,9.7,0,0,1-3.9-.7,7.2,7.2,0,0,1-2.8-2,10.8,10.8,0,0,1-1.9-3.1,12.9,12.9,0,0,1-.6-4V128.7h3.6v14.4a8.1,8.1,0,0,0,1.7,5.4,6.2,6.2,0,0,0,4.9,2,7.2,7.2,0,0,0,2.9-.6,5.4,5.4,0,0,0,2.2-1.5,5.8,5.8,0,0,0,1.5-2.5,7.8,7.8,0,0,0,.6-3.1Zm16.1,17.6a4.1,4.1,0,0,0,1.1,3.2,4.4,4.4,0,0,0,2.9.9l1.8-.2a4.7,4.7,0,0,0,1.7-.7v3.2l-2,.8-2.3.2a7.7,7.7,0,0,1-2.7-.4,4,4,0,0,1-2.1-1.2A4.7,4.7,0,0,1,291,150a10.2,10.2,0,0,1-.5-3.2V132h-3.3v-3.3h3.3v-7.4h3.6v7.4h7.6V132h-7.6Zm13.7-27h4.1v4h-4.1Zm.3,9.4h3.5v24.6h-3.5ZM342.2,146a13.6,13.6,0,0,1-2.6,4.1,11.3,11.3,0,0,1-4,2.7,11.8,11.8,0,0,1-5,1.1,13.3,13.3,0,0,1-8.9-3.8,14.3,14.3,0,0,1-2.6-4.1,13.3,13.3,0,0,1-.9-4.9,13.9,13.9,0,0,1,.9-5,14.3,14.3,0,0,1,2.6-4.1,12.6,12.6,0,0,1,4-2.8,13,13,0,0,1,10,0,12.1,12.1,0,0,1,3.9,2.8,10.7,10.7,0,0,1,2.6,4,12.1,12.1,0,0,1,1,5,14.4,14.4,0,0,1-1,5m-3.4-8.7a8.7,8.7,0,0,0-1.8-3.1,10,10,0,0,0-2.9-2,8.1,8.1,0,0,0-7,0,8,8,0,0,0-2.8,2,9.2,9.2,0,0,0-1.8,3,11.6,11.6,0,0,0-.6,3.8,11.5,11.5,0,0,0,.6,3.7,9.1,9.1,0,0,0,1.9,3,8.3,8.3,0,0,0,2.8,2.1,8.1,8.1,0,0,0,3.5.7,8.6,8.6,0,0,0,3.6-.7,7.9,7.9,0,0,0,2.7-2,11.7,11.7,0,0,0,1.9-3,11.5,11.5,0,0,0,.6-3.7,9.5,9.5,0,0,0-.7-3.8m14.1,16h-3.5V128.7h3.5V133a11.5,11.5,0,0,1,3.2-3.4,8.7,8.7,0,0,1,5-1.4,9.4,9.4,0,0,1,3.9.7,10,10,0,0,1,2.9,2,13.3,13.3,0,0,1,1.8,3.1,12.9,12.9,0,0,1,.6,4v15.3h-3.6V138.9a8,8,0,0,0-1.7-5.4,6.2,6.2,0,0,0-4.9-2,6.4,6.4,0,0,0-2.8.6,6.1,6.1,0,0,0-2.3,1.5,5.8,5.8,0,0,0-1.5,2.5,7.8,7.8,0,0,0-.6,3.1Zm50.9-24.5V132h-7.6v21.3h-3.6V132h-3.2v-3.2h3.2v-2.2a9.1,9.1,0,0,1,1.9-6.1,7,7,0,0,1,5.4-2.1H402l1.8.5v3.2l-1.8-.4a4.7,4.7,0,0,0-1.7-.2c-2.7,0-4.1,1.7-4.1,5.2v2ZM430.1,146a13.6,13.6,0,0,1-2.6,4.1,11.3,11.3,0,0,1-4,2.7,11.8,11.8,0,0,1-5,1.1,11.4,11.4,0,0,1-4.9-1.1,12.3,12.3,0,0,1-4-2.7A14.3,14.3,0,0,1,407,146a13.3,13.3,0,0,1-.9-4.9,13.9,13.9,0,0,1,.9-5,14.3,14.3,0,0,1,2.6-4.1,12.6,12.6,0,0,1,4-2.8,13,13,0,0,1,10,0,13.8,13.8,0,0,1,4,2.8,11.8,11.8,0,0,1,2.5,4,12.1,12.1,0,0,1,1,5,12.4,12.4,0,0,1-1,5m-3.4-8.7a8.7,8.7,0,0,0-1.8-3.1,10,10,0,0,0-2.9-2,8.1,8.1,0,0,0-7,0,8,8,0,0,0-2.8,2,11.4,11.4,0,0,0-1.8,3,11.6,11.6,0,0,0-.6,3.8,9.4,9.4,0,0,0,.7,3.7,7.5,7.5,0,0,0,1.8,3,8.3,8.3,0,0,0,2.8,2.1,8.4,8.4,0,0,0,3.5.7,8.6,8.6,0,0,0,3.6-.7,9.5,9.5,0,0,0,2.8-2,14.9,14.9,0,0,0,1.8-3,11.5,11.5,0,0,0,.6-3.7,9.5,9.5,0,0,0-.7-3.8m14.1,16h-3.5V128.7h3.5v6.4a16.1,16.1,0,0,1,1.7-2.8,9.2,9.2,0,0,1,2.2-2.2,8.7,8.7,0,0,1,2.7-1.4,11.2,11.2,0,0,1,3.2-.4v3.9h-.3a9.5,9.5,0,0,0-3.7.8,7.5,7.5,0,0,0-3,2.1,10.7,10.7,0,0,0-2,3.5,14.8,14.8,0,0,0-.8,4.9Zm47.9,0v-4.9a16.3,16.3,0,0,1-1.7,2,11.2,11.2,0,0,1-2,1.8,9.6,9.6,0,0,1-2.5,1.2,9.5,9.5,0,0,1-3,.4,10.8,10.8,0,0,1-7.9-3.3,13.8,13.8,0,0,1-2.6-4,15.5,15.5,0,0,1-.9-5.5,15.3,15.3,0,0,1,.9-5.4,12.6,12.6,0,0,1,2.6-4,11.5,11.5,0,0,1,3.7-2.5,9.9,9.9,0,0,1,4.2-.9,9.5,9.5,0,0,1,3,.4,13.3,13.3,0,0,1,4.6,2.8l1.6,2V118.6h3.5v34.7Zm-.6-16.2a7.9,7.9,0,0,0-2-3,10.1,10.1,0,0,0-2.7-1.9,9.3,9.3,0,0,0-3.3-.7,7.1,7.1,0,0,0-3.2.7,6.4,6.4,0,0,0-2.7,1.8,7.5,7.5,0,0,0-1.8,3,10.2,10.2,0,0,0-.7,4,10,10,0,0,0,.7,3.9,7.5,7.5,0,0,0,1.8,3,7,7,0,0,0,2.7,1.9,7.1,7.1,0,0,0,3.2.7,7.5,7.5,0,0,0,3.3-.7,10.1,10.1,0,0,0,2.7-1.9,7.9,7.9,0,0,0,2-3,11.2,11.2,0,0,0,0-7.8m16.6-5-3.4,1.3-1-3a27.4,27.4,0,0,1,4-1.5,21.9,21.9,0,0,1,4.7-.5c3.3,0,5.8.8,7.5,2.5s2.7,4.1,2.7,7.4v15h-3.5v-3.7a10.5,10.5,0,0,1-3.3,2.9,9.7,9.7,0,0,1-5.3,1.3,9.5,9.5,0,0,1-3.3-.5,11.1,11.1,0,0,1-2.9-1.4,9.1,9.1,0,0,1-2-2.4,7.6,7.6,0,0,1,0-6.8,6.4,6.4,0,0,1,2.1-2.5,8.6,8.6,0,0,1,3.2-1.5,14.2,14.2,0,0,1,4.2-.6,23.3,23.3,0,0,1,4,.3l3.3.8v-.9a6.5,6.5,0,0,0-1.8-5,7.8,7.8,0,0,0-5.3-1.7,16,16,0,0,0-3.9.5m-1.1,10.1a4.5,4.5,0,0,0-1.8,3.8,4.6,4.6,0,0,0,.5,2.1,4.7,4.7,0,0,0,1.3,1.5,6.9,6.9,0,0,0,1.9,1,8.5,8.5,0,0,0,2.3.3,7.8,7.8,0,0,0,3.1-.5,8.2,8.2,0,0,0,2.6-1.4,5.5,5.5,0,0,0,1.7-2,6.6,6.6,0,0,0,.6-2.7v-2.4l-3.1-.7a22.3,22.3,0,0,0-3.9-.4,8.5,8.5,0,0,0-5.2,1.4m27.5,4.1a4.1,4.1,0,0,0,1.1,3.2,4.6,4.6,0,0,0,2.9.9l1.8-.2a4.7,4.7,0,0,0,1.7-.7v3.2l-2,.8-2.3.2a8,8,0,0,1-2.7-.4,4.5,4.5,0,0,1-2.1-1.2,4.6,4.6,0,0,1-1.4-2.1,7.9,7.9,0,0,1-.6-3.2V132h-3.3v-3.3h3.3v-7.4h3.6v7.4h7.6V132h-7.6Zm18.5-14.2-3.4,1.3-1.1-3a32.5,32.5,0,0,1,4-1.5,21.9,21.9,0,0,1,4.7-.5c3.3,0,5.8.8,7.5,2.5s2.7,4.1,2.7,7.4v15h-3.4v-3.7a12.1,12.1,0,0,1-3.4,2.9,9.7,9.7,0,0,1-5.3,1.3,9.5,9.5,0,0,1-3.3-.5,9.2,9.2,0,0,1-2.8-1.4,7.9,7.9,0,0,1-2.1-2.4,8.6,8.6,0,0,1,0-6.8,6.4,6.4,0,0,1,2.1-2.5,8.6,8.6,0,0,1,3.2-1.5,14.2,14.2,0,0,1,4.2-.6,23.3,23.3,0,0,1,4,.3l3.4.8v-.9a6.5,6.5,0,0,0-1.9-5,7.8,7.8,0,0,0-5.3-1.7,14.6,14.6,0,0,0-3.8.5m-1.2,10.1a4.5,4.5,0,0,0-1.8,3.8,4.6,4.6,0,0,0,.5,2.1,4.7,4.7,0,0,0,1.3,1.5,6.9,6.9,0,0,0,1.9,1,9.1,9.1,0,0,0,2.3.3,7.8,7.8,0,0,0,3.1-.5,8.2,8.2,0,0,0,2.6-1.4,5.5,5.5,0,0,0,1.7-2,6.6,6.6,0,0,0,.6-2.7v-2.4l-3.1-.7a21.3,21.3,0,0,0-3.9-.4,8.5,8.5,0,0,0-5.2,1.4m52.4,7.3a8.4,8.4,0,0,1-1.8,2.3,8.9,8.9,0,0,1-2.7,1.5,12.7,12.7,0,0,1-3.4.5,16,16,0,0,1-5.2-1,17.8,17.8,0,0,1-4.7-2.6l1.8-2.7a15.7,15.7,0,0,0,4.1,2.4,12.5,12.5,0,0,0,4.2.8,6.1,6.1,0,0,0,3.6-1.1,3.3,3.3,0,0,0,1.3-2.8h0a2.9,2.9,0,0,0-.4-1.6,5.3,5.3,0,0,0-1.4-1.1,5.6,5.6,0,0,0-1.9-.9l-2.2-.7-2.8-1a10.3,10.3,0,0,1-2.6-1.2,8.1,8.1,0,0,1-1.8-1.9,5.2,5.2,0,0,1-.7-2.9h0a6.4,6.4,0,0,1,.6-2.8,5.5,5.5,0,0,1,1.7-2.3,6.8,6.8,0,0,1,2.5-1.4,11.4,11.4,0,0,1,3.3-.5,14.1,14.1,0,0,1,4.5.7,17.4,17.4,0,0,1,4.1,2l-1.6,2.8a16.6,16.6,0,0,0-3.5-1.8,11.3,11.3,0,0,0-3.6-.6,5.3,5.3,0,0,0-3.4,1,3.2,3.2,0,0,0-1.2,2.5h0a2.5,2.5,0,0,0,.5,1.5,4.2,4.2,0,0,0,1.4,1.2l1.9.8,2.3.8,2.8.9a12.3,12.3,0,0,1,2.5,1.4,6.6,6.6,0,0,1,1.8,1.9,6.1,6.1,0,0,1,.6,2.8h0a7.5,7.5,0,0,1-.6,3.1m10.6,3.8h-3.6V118.6h3.6V133a11.2,11.2,0,0,1,3.1-3.4,8.8,8.8,0,0,1,5.1-1.4,9.2,9.2,0,0,1,3.8.7,8.1,8.1,0,0,1,4.7,5.1,12.9,12.9,0,0,1,.6,4v15.3h-3.5V138.9a8.5,8.5,0,0,0-1.7-5.4,6.3,6.3,0,0,0-4.9-2,6.8,6.8,0,0,0-2.9.6,7,7,0,0,0-2.3,1.5,8.7,8.7,0,0,0-1.5,2.5,10.1,10.1,0,0,0-.5,3.1Zm29.5-21.2-3.4,1.3-1.1-3a33.9,33.9,0,0,1,4.1-1.5,20.9,20.9,0,0,1,4.6-.5c3.3,0,5.8.8,7.6,2.5s2.6,4.1,2.6,7.4v15h-3.4v-3.7a10.9,10.9,0,0,1-3.4,2.9,9.5,9.5,0,0,1-5.3,1.3,8.6,8.6,0,0,1-3.2-.5,8.7,8.7,0,0,1-2.9-1.4,7.6,7.6,0,0,1-2-2.4,8.1,8.1,0,0,1-.1-6.8,6.4,6.4,0,0,1,2.1-2.5,9.1,9.1,0,0,1,3.3-1.5,13.1,13.1,0,0,1,4.1-.6,24.6,24.6,0,0,1,4.1.3l3.3.8v-.9a6.2,6.2,0,0,0-1.9-5,7.6,7.6,0,0,0-5.2-1.7,15.4,15.4,0,0,0-3.9.5m-1.1,10.1A4.5,4.5,0,0,0,638,146a4.6,4.6,0,0,0,.4,2.1,5,5,0,0,0,1.4,1.5,4.9,4.9,0,0,0,1.9,1,8.5,8.5,0,0,0,2.3.3,8.1,8.1,0,0,0,3.1-.5,7.7,7.7,0,0,0,2.5-1.4,5.5,5.5,0,0,0,1.7-2,6.6,6.6,0,0,0,.6-2.7v-2.4l-3-.7a23.5,23.5,0,0,0-4-.4,8.4,8.4,0,0,0-5.1,1.4m26.4,11.1h-3.5V128.7h3.5v6.4a16.1,16.1,0,0,1,1.7-2.8,9.2,9.2,0,0,1,2.2-2.2,8.7,8.7,0,0,1,2.7-1.4,11.2,11.2,0,0,1,3.2-.4v3.9h-.3a9.5,9.5,0,0,0-3.7.8,7.5,7.5,0,0,0-3,2.1,9.2,9.2,0,0,0-2,3.5,14.8,14.8,0,0,0-.8,4.9Zm15.1-34h4.1v4h-4.1Zm.2,9.4h3.6v24.6h-3.6Zm15.2,24.6h-3.6V128.7h3.6V133a11.2,11.2,0,0,1,3.1-3.4,8.8,8.8,0,0,1,5.1-1.4,10,10,0,0,1,3.9.7,9.5,9.5,0,0,1,2.8,2,8.7,8.7,0,0,1,1.8,3.1,12.9,12.9,0,0,1,.7,4v15.3h-3.6V138.9a8.5,8.5,0,0,0-1.7-5.4,6.3,6.3,0,0,0-4.9-2,7.2,7.2,0,0,0-2.9.6,7,7,0,0,0-2.3,1.5,8.7,8.7,0,0,0-1.5,2.5,10.1,10.1,0,0,0-.5,3.1Zm46.6,1a10.3,10.3,0,0,1-2.4,3.7,10.7,10.7,0,0,1-3.9,2.2,15.4,15.4,0,0,1-5,.8,19.9,19.9,0,0,1-10.9-3.4l1.7-2.9a18.2,18.2,0,0,0,4.3,2.4,15.3,15.3,0,0,0,4.9.8,9.3,9.3,0,0,0,6.3-2.2q2.4-2.2,2.4-6.6v-2.9a17.1,17.1,0,0,1-3.9,3.7,9.6,9.6,0,0,1-5.5,1.5,11.6,11.6,0,0,1-4.2-.8,10.5,10.5,0,0,1-3.6-2.3,10.1,10.1,0,0,1-2.5-3.6,11,11,0,0,1-1-4.9,10.6,10.6,0,0,1,1-4.8,9.7,9.7,0,0,1,2.5-3.7,11.6,11.6,0,0,1,3.6-2.3,12.5,12.5,0,0,1,4.2-.8,10.6,10.6,0,0,1,3.1.4,11.2,11.2,0,0,1,2.5,1.1,10.1,10.1,0,0,1,2.1,1.5c.6.6,1.1,1.3,1.6,1.9v-4.4h3.6V149a14.4,14.4,0,0,1-.9,5.3m-3.3-18a8.3,8.3,0,0,0-1.9-2.6,11.7,11.7,0,0,0-2.8-1.7,9.6,9.6,0,0,0-3.3-.6,8.3,8.3,0,0,0-3.2.6,6.9,6.9,0,0,0-2.7,1.7,10,10,0,0,0-1.8,2.6,9.3,9.3,0,0,0-.6,3.4,7.8,7.8,0,0,0,.7,3.5,8,8,0,0,0,1.8,2.7,7.8,7.8,0,0,0,2.6,1.7,8.7,8.7,0,0,0,3.2.6,9.6,9.6,0,0,0,3.3-.6,11.7,11.7,0,0,0,2.8-1.7,7.7,7.7,0,0,0,1.9-2.7,7.4,7.4,0,0,0,.8-3.4,8.2,8.2,0,0,0-.8-3.5" transform="translate(0 0)"/></g></g></g></svg>