<svg xmlns="http://www.w3.org/2000/svg" viewBox="0 0 1500 1546.1"><defs><style>.cls-1{fill:#88bf57;}.cls-2{fill:#f8cbcc;}.cls-3{fill:#fbb92d;}.cls-4{fill:#fbe0e0;}.cls-5{fill:#4464aa;}.cls-6{fill:#1982c3;}.cls-7{fill:#2f52a0;}.cls-8{fill:#e0a39a;}.cls-9{fill:#d2948b;}</style></defs><title>openactive face v3</title><g id="Layer_2" data-name="Layer 2"><g id="_20" data-name="20"><path class="cls-1" d="M963.1,1056c-.6,113.9-93,206.1-207,206.1s-207-92.7-207-207v-2.5C296.1,1118.1,91.3,1304.5,0,1546.1H1500C1410.2,1308.4,1210.4,1124.3,963.1,1056Z"/><path class="cls-2" d="M756.1,1262.1c114,0,206.4-92.2,207-206.1v-24.1a491,491,0,0,1-83.3,59.4,261.4,261.4,0,0,1-257.1,0,483.4,483.4,0,0,1-73.6-51.3v15.1C549.1,1169.4,641.7,1262.1,756.1,1262.1Z"/><path class="cls-2" d="M370.4,563.7a24.1,24.1,0,0,0-14.8-2.3,51.6,51.6,0,0,0-40.8,60.4l25.1,128.9c5.7,29.2,27.5,50.9,54.2,58.5a496.9,496.9,0,0,1-23.7-150.7Z"/><path class="cls-2" d="M1109,807c26.5-7.3,48-27.7,53.6-55.2l25.1-122.1c5.4-26.5-12.8-52.1-40.7-57.2a25.5,25.5,0,0,0-15,2.1v83.9A495.1,495.1,0,0,1,1109,807Z"/><path class="cls-3" d="M369.6,463.2V541c0,1,.3,2,.8,1.7V463.4Z"/><path class="cls-3" d="M596,450.5,565.1,522H399.3V465.9a96.9,96.9,0,0,0,32.1-7.9l84.1-36.5c1.8-.6,3.4-1.3,5.2-2.1A132.9,132.9,0,0,0,596,450.5Z"/><path class="cls-3" d="M1103.3,465.3V522H647.2l-35.8-70.2H889.3c34.5,0,65.8-13.6,89.9-35l11.7,4.7L1075,458A84.6,84.6,0,0,0,1103.3,465.3Z"/><path class="cls-4" d="M807.8,812l-23.5,14.6c-8.9,5.5-20.6,8.6-33.2,8.6s-24-3.1-33.1-8.6L694.7,812l8.9-14.4,23.2,14.6c12.8,7.9,36.1,7.9,48.6,0l23.5-14.6Z"/><path class="cls-4" d="M1103.3,465.3V522H647.2l-35.8-70.2h-3.9c-4,0-7.6-1.1-11.5-1.3L565.1,522H399.3V465.9a105.2,105.2,0,0,1-28.8-2.4V658.6A498.2,498.2,0,0,0,549,1040a493,493,0,0,0,73.6,51.2,260.4,260.4,0,0,0,257.3,0,483.4,483.4,0,0,0,83.1-59.3,500.2,500.2,0,0,0,169-373.3V464.3A89.1,89.1,0,0,1,1103.3,465.3Z"/><path class="cls-5" d="M1132,464.3V658.6a500.2,500.2,0,0,1-169,373.3,483.4,483.4,0,0,1-83.1,59.3,260.4,260.4,0,0,1-257.3,0A493,493,0,0,1,549,1040,498.2,498.2,0,0,1,370.5,658.6V463.5a105.2,105.2,0,0,0,28.8,2.4V658.6a469.5,469.5,0,0,0,237.4,407.8c70.8,40,158.3,40,228.8,0,146.6-83.1,237.8-239.5,237.8-407.8V465.3A89.1,89.1,0,0,0,1132,464.3Z"/><path class="cls-6" d="M840.2,0H666.3C462.1,0,296.6,165.5,296.6,369.7c0,46.8,32.4,83.2,73,93.5l.8.2a92.4,92.4,0,0,0,28.8,2.4,96.4,96.4,0,0,0,32.2-7.7l84.2-36.6,5.1-2c.1,0,.1,0,.1-.1A132.9,132.9,0,0,0,596,450.5c3.9.2,7.5,1.3,11.5,1.3H889.3c34.5,0,65.8-13.6,89.8-35h.1l11.7,4.6,84.2,36.6a97.3,97.3,0,0,0,28.2,7.4,94.9,94.9,0,0,0,28.7-1.3c42.9-8.5,77.9-45.9,77.9-94.5C1209.9,165.5,1044.4,0,840.2,0Z"/><path class="cls-7" d="M979.2,416.8c-24.1,21.4-55.4,35-89.9,35H607.5c-4,0-7.6-1.1-11.5-1.3a132.9,132.9,0,0,1-75.3-31.1A597.3,597.3,0,0,1,979.2,416.8Z"/><path class="cls-8" d="M972.1,578.5a278.5,278.5,0,0,0-115.7,0c-6,1-9.7,7-8.6,13a11,11,0,0,0,13,8.4l10.4-1.6h.1a46.1,46.1,0,0,0-7.3,25.1,47.9,47.9,0,1,0,95.8,0,49.3,49.3,0,0,0-7.5-25.9h-.1a44.3,44.3,0,0,0-9.4-10.4,47.1,47.1,0,0,1,9.5,10.4c4.9.8,10.2,1.3,15.4,2.4a9,9,0,0,0,2.3.2,10.9,10.9,0,0,0,2.1-21.6Z"/><path class="cls-8" d="M545,598.3a48.8,48.8,0,0,0-7.3,25.1,48.1,48.1,0,0,0,96.1,0,47,47,0,0,0-7.8-25.9l-4.8-.5,4.8.5h0c5.2.8,10.5,1.3,15.4,2.4a9.7,9.7,0,0,0,2.4.2,10.9,10.9,0,0,0,2.3-21.6,279.9,279.9,0,0,0-116,0c-5.7,1-9.6,7-8.3,13a11,11,0,0,0,13,8.4l10.2-1.6"/><rect class="cls-7" x="719.3" y="36.5" width="67.8" height="219.19" rx="24.4"/><path class="cls-7" d="M552,298.9a24.5,24.5,0,0,0,33.9,6.7L601.6,295a24.5,24.5,0,0,0,6.7-33.9L513.4,119.7a24.5,24.5,0,0,0-33.9-6.7l-15.8,10.6a24.3,24.3,0,0,0-6.6,33.9Z"/><path class="cls-7" d="M898.2,261.1a24.4,24.4,0,0,0,6.6,33.9l15.8,10.6a24.5,24.5,0,0,0,33.9-6.7l94.9-141.4a24.4,24.4,0,0,0-6.7-33.9L1027,113a24.5,24.5,0,0,0-33.9,6.7Z"/><path class="cls-8" d="M807.8,812l-23.5,14.6c-8.9,5.5-20.6,8.6-33.2,8.6s-24-3.1-33.1-8.6L694.7,812l8.9-14.4,23.2,14.6c12.8,7.9,36.1,7.9,48.6,0l23.5-14.6Z"/><path class="cls-9" d="M859,904.5l-41.5,2.6c-1.1-.6-2.1-1.6-2.9-1.9-17.2-10.9-40.7-13.8-61.1-8.6-19.9-4.9-42.3-2.3-59.3,7.9a35.1,35.1,0,0,0-4.5,2.8l-42.5-2.8c-6.6-.6-13.4,4.9-13.9,12.2a13.2,13.2,0,0,0,12.3,13.9l42.1,2.8c5.2,8.4,14.3,14.4,25,14.4h80.8c10.9,0,19.8-6,25.3-14.6l41.8-2.6a13.2,13.2,0,0,0,12.3-13.9C872.3,909.4,865.3,903.9,859,904.5Z"/></g></g></svg>