<svg xmlns="http://www.w3.org/2000/svg" viewBox="0 0 146.1 106.4"><defs><style>.cls-1{fill:#fff;}</style></defs><title>Open active logo portrait white</title><g id="Layer_2" data-name="Layer 2"><g id="Layer_1-2" data-name="Layer 1"><path class="cls-1" d="M91.8,54.3c0,10.7,14.1,19.3,24.9,19.3h26.7l-9.9-19.3H122.4"/><path class="cls-1" d="M135.8,57.9,137,60c2.3-.5,1.4,3.6,3.5,6.5a68.1,68.1,0,0,1,3.8,7.1h-.5c-3.7-.3-34.3,1.2-40.7-19.4h30.4"/><path class="cls-1" d="M64.1,5.5A17.3,17.3,0,0,0,52,.5H18.8V20.4H52c.1.1,18.1,21.7,18.1,32.7V20.4a21,21,0,0,0-6-14.9"/><path class="cls-1" d="M18.8,53.7V20.3L38.2.5H18.8a17.4,17.4,0,0,0-12.1,5,21,21,0,0,0-6,14.9V33.7c0,11.1,4,20,18.1,20"/><path class="cls-1" d="M113.5,0l30.8,73.6c.1-.1-18.4.1-27.1-19.5l-14.7-35C98.8,10.2,104.6,0,113.5,0"/><path class="cls-1" d="M52,20.4V53.6c0,12.9-17.5,20.1-27.5,20.1H52a17.4,17.4,0,0,0,12.1-5.1,21,21,0,0,0,6-14.9V40.4c.1,0-18.1-20-18.1-20"/><path class="cls-1" d="M113.6,0s-22.3-1.7-32,24.4C69.2,58,61.1,73.6,30.4,73.6H59.1c15.6,0,24.9-6.3,33.7-25.2S102,11.2,113.6,0"/><path class="cls-1" d="M.7,49.7c0,18.1,13.5,24,18.2,24h14c10.2,0,19.1-11.4,19.1-20H18.8L.7,30.6"/><polygon class="cls-1" points="117.1 85.2 121.5 85.2 124.9 96.1 128.2 85.2 132.6 85.2 126.7 101.6 122.9 101.6 117.1 85.2"/><rect class="cls-1" x="112.4" y="85.2" width="4.2" height="16.36"/><path class="cls-1" d="M16.2,90.9h0c0-3.6-2.5-6.7-5.9-6.7s-5.8,3-5.8,6.7h0c0,3.7,2.4,6.7,5.8,6.7s5.9-2.9,5.9-6.6M0,90.9H0c0-6,4.4-11,10.3-11s10.3,4.9,10.3,11h0c0,6.1-4.3,11.1-10.3,11.1S0,97,0,90.9"/><path class="cls-1" d="M33.3,93.4h0c0-2.7-1.7-4.5-3.7-4.5S26,90.6,26,93.3h0c0,2.7,1.7,4.5,3.6,4.5s3.7-1.8,3.7-4.5M21.9,85.2h4.2v2.3a5.3,5.3,0,0,1,4.6-2.7c3.5,0,6.8,3,6.8,8.5h0c0,5.4-3.3,8.4-6.8,8.4a5.6,5.6,0,0,1-4.6-2.4v7H21.9Z"/><path class="cls-1" d="M48.8,92.1c-.3-2.1-1.4-3.5-3.1-3.5s-2.9,1.3-3.2,3.5ZM38.3,93.4h0c0-4.7,3-8.6,7.4-8.6s7.2,4.3,7.2,8.9a6.2,6.2,0,0,1-.1,1.3H42.5a3.6,3.6,0,0,0,3.6,3.2,4.4,4.4,0,0,0,3.6-1.7l2.5,2.3a7.3,7.3,0,0,1-6.1,3.1c-4.5,0-7.8-3.5-7.8-8.5"/><path class="cls-1" d="M54.1,85.2h4.2v2.3c1-1.4,2.2-2.7,4.4-2.7s5,2.4,5,6.1v10.6H63.5V92.4c0-2.2-.9-3.3-2.5-3.3s-2.7,1.1-2.7,3.3v9.1H54.1Z"/><path class="cls-1" d="M81.2,92.6l-2.5-7-2.6,7ZM76.8,80h3.9L89,101.5H84.5l-1.7-4.8H74.6l-1.8,4.8H68.4Z"/><path class="cls-1" d="M142,92.1c-.3-2.1-1.4-3.5-3.1-3.5s-2.9,1.3-3.2,3.5Zm-10.5,1.3h0c0-4.7,3-8.6,7.4-8.6s7.2,4.3,7.2,8.9A6.2,6.2,0,0,1,146,95H135.7a3.6,3.6,0,0,0,3.6,3.2,4.4,4.4,0,0,0,3.6-1.7l2.5,2.3a7.3,7.3,0,0,1-6.1,3.1c-4.5,0-7.8-3.5-7.8-8.5"/><path class="cls-1" d="M110.4,89.1V85.2h-3.5V81h-4.2v4.4l1.8,2-1.8,1.9v7.6c0,3.8,1.7,4.9,4.3,4.9a5.4,5.4,0,0,0,3.3-1V97.1a3.6,3.6,0,0,1-2,.6c-1,0-1.4-.5-1.4-1.6v-7Z"/><path class="cls-1" d="M87.8,93.4h0c0-4.7,3.3-8.6,7.8-8.6a7.2,7.2,0,0,1,6,2.8l-2.6,3a4.3,4.3,0,0,0-3.4-1.8c-2.1,0-3.6,2.1-3.6,4.5h0c0,2.5,1.5,4.5,3.8,4.5s2.3-.7,3.4-1.8l2.4,2.8a7.2,7.2,0,0,1-6,3c-4.5,0-7.8-3.8-7.8-8.5"/></g></g></svg>