<svg xmlns="http://www.w3.org/2000/svg" viewBox="0 0 738 184.5"><defs><style>.cls-1{fill:#fff;}</style></defs><title>Ordnance survey</title><g id="Layer_2" data-name="Layer 2"><g id="Layer_1-2" data-name="Layer 1"><path class="cls-1" d="M25.7,39.4,25.1,29a92.1,92.1,0,0,1,18-14.9,218.7,218.7,0,0,1,3.4,31.3,324.9,324.9,0,0,1-1.2,32.7l-6,20.8-1,3.8c-.8,2.7-1.5,5.4-2.4,8a28.5,28.5,0,0,1-2.8,5.5c-.4,1-.9,1.9-1.4,2.9a11.4,11.4,0,0,0-3.5,4.9l-1.7-1a37.3,37.3,0,0,1-3.9-2.5l-3.8-3c-2-1.6-4-3.3-6.1-4.8a18.5,18.5,0,0,0,0-4.7,16.5,16.5,0,0,1-.2-2.1l-.6-22.2a27.6,27.6,0,0,0,4-.6,17,17,0,0,1,2.2-.4h1.5A12.7,12.7,0,0,0,25,81.5c3.7-1.9,3.3-5.6,3-8.1v-.7c-1.1-11.1-1.7-22.4-2.2-33.3M42,150.9l.3,6.9c-1.9-6.6-4.1-13.2-6.6-19.6a22.5,22.5,0,0,0,6.2,1.5c0,3.7,0,7.4.1,11.2m-.4-47.2c.3-1.3.7-2.5,1-3.7l1.5-5c-.6,6.8-1.1,13.6-1.5,20.3a26.8,26.8,0,0,0-5.5,1.1,45.4,45.4,0,0,0,2.1-4.5c.9-2.7,1.7-5.5,2.4-8.2m5.7,36a27.3,27.3,0,0,0,5.6-1.5A122.7,122.7,0,0,0,47.7,158l-.3-7.3c-.1-3.7-.1-7.4-.1-11m41.2-17a4.3,4.3,0,0,1,1.4-3.2,3.9,3.9,0,0,1,3.2-1.2,5.2,5.2,0,0,1,3.2,1.1,3.8,3.8,0,0,1,1.4,3.3,4.6,4.6,0,1,1-9.2,0m81.8,18,.3.4a93.1,93.1,0,0,1-24.4,26c-10.6-5-21.1-10.3-27.9-19.5a83.7,83.7,0,0,0,12-7.6,118.9,118.9,0,0,0,13.1-12.5l4.8-5.1,4.2-1.6a11.6,11.6,0,0,0,3.6,5.6,17.5,17.5,0,0,0,2.9,1.8,11.6,11.6,0,0,1,3.2,2,92.5,92.5,0,0,1,8.2,10.5M1.3,76.9a82.7,82.7,0,0,0,6.3,5.5l.4.3L8.7,106a17.9,17.9,0,0,0,.2,2.3,14.1,14.1,0,0,1,0,4.1c-.4,1.8-3.1,3.6-5,4.9l-.4.2A93.5,93.5,0,0,1,0,92.3,88.1,88.1,0,0,1,1.3,76.9m2.4-3L2.2,72.6A92.1,92.1,0,0,1,21.5,33.2l.4,6.5c.5,11,1.1,22.3,2.2,33.4V74c.3,2.7.2,3.6-.8,4.2a10.9,10.9,0,0,1-4,.7H17.8l-2.6.4c-1.9.4-4.2.8-5.2,0a82.7,82.7,0,0,1-6.3-5.5m27,61.2a250.6,250.6,0,0,1,11.5,34.6A92.4,92.4,0,0,1,4.7,121.4h.1l1.1-.8a23.9,23.9,0,0,0,5.2-4.2q2.7,2,5.4,4.2l3.8,3.1,4.3,2.8a33.7,33.7,0,0,1,3.2,1.9,10.5,10.5,0,0,0,2.9,6.7ZM48,115.5c.3-5.9.8-11.9,1.2-17.8a109.5,109.5,0,0,0,4.6,19.6,19.6,19.6,0,0,0-5.8-1.8m69.6-47.9c-2.2,3-4.2,6.2-6.2,9.3l-1.7,2.6a24.1,24.1,0,0,1-4.2-1.6l-1.3-.6c-1.7-.7-2-.9-1.1-3.2s.8-2.4,2.5-2.1c4.4.6,7-3.3,8.8-6.2l.5-.7Zm53.7,37.1,1.4-2c3.9-5.7,7.8-11.4,11.5-17.1.2,2.2.3,4.4.3,6.7a81.7,81.7,0,0,1-1,13.1L168,109.3l3.3-4.6M126.1,80.8l-9-.6h-3.2l.8-1.2a94.4,94.4,0,0,1,9.6-13.8c1.7-2,3.7-3.9,5.5-5.7a65.6,65.6,0,0,0,7.2-7.7l2.5,31.5-.4-.2a52,52,0,0,0-13-2.2m42,21.7a41.3,41.3,0,0,1-6.9,8.7,25.1,25.1,0,0,1-3.2,2.5l-.8-1.3a73.7,73.7,0,0,1-5.1-9.6c-2.3-5.2-4.1-9.1-6-12.7a21.1,21.1,0,0,0-2.6-4l-3.1-39.5A107.4,107.4,0,0,0,146,34.7l1.2-2.7,1-2.4a22.4,22.4,0,0,1,2.6-5.4l1.7-1.8a92.3,92.3,0,0,1,31.2,57.3l-1.2,1.8c-4.2,6.2-8.5,12.7-12.9,18.9l-1.5,2.1m-4.5,11.9,19.3-4.8a92.1,92.1,0,0,1-10.2,27.8,104.7,104.7,0,0,0-7.8-9.8,14.7,14.7,0,0,0-4.2-2.8,9.7,9.7,0,0,1-2.4-1.5,9.4,9.4,0,0,1-2.5-4,33.4,33.4,0,0,0,7.5-4.9h.3m-115.8,5a15.2,15.2,0,0,1,5.5,2,6.9,6.9,0,0,1,3.7,6.1c0,4.9-4.6,7.5-9.7,8.3.1-5.6.3-11.1.5-16.4m-5.3-.2c-.3,5.4-.5,11-.6,16.7-5.3-.6-10.4-3.1-10.4-8.4s5.4-7.9,11-8.3m30.7-72h-.1a17.8,17.8,0,0,0,.3,4.6c.1.9.7,4.5,1.6,4.9s2.9,0,3.8,0h9.7V49.3H86.3V40H76.5c-1.1,0-1.5-.3-2.1.5s-1.1,5-1.2,6.7M52,45.3a218.5,218.5,0,0,0-3.9-34.1A92.4,92.4,0,0,1,149.6,20a15.4,15.4,0,0,0-1.7,1.9,26.7,26.7,0,0,0-3.2,6.3l-.9,2.2-1.2,2.8a85.1,85.1,0,0,1-7.4,14.4,57.8,57.8,0,0,1-8.1,9c-1.9,1.9-3.9,3.8-5.7,5.9l-1.5,1.9-3.6-3.2a10.9,10.9,0,0,0-.8-1.5,5.8,5.8,0,0,1-1.2-3.3c.1-1.2,1.8-2.5,3.1-3.6l1-.9a2.1,2.1,0,0,0,.7-1.3,2.4,2.4,0,0,0-.5-1.4,1.8,1.8,0,0,0-1.3-.6,1.8,1.8,0,0,0-1.4.4,3.9,3.9,0,0,1-1,.8c-1.8,1.4-4,3.3-4.4,5.9a8.8,8.8,0,0,0,1.6,5.9l.2.4-1.1,1.7c-1.9,2.9-3.3,4.8-5.1,4.5-4.7-.7-5.7,2-6.7,4.5s-1.6,6.2,3.2,8.2l1.4.5a27,27,0,0,0,5.4,2,17.7,17.7,0,0,0,3.2.5l4.3.2,8.9.5a53.8,53.8,0,0,1,12,2c2.4.8,3.9,3.2,5,5.3s3.6,7.3,5.7,12.4a95.6,95.6,0,0,0,5.3,10l.8,1.2a17.7,17.7,0,0,1-3.1,1.5,178.5,178.5,0,0,1-26.9,8.4,75.6,75.6,0,0,1-13.3,2.3c-3.7.2-6.8-1.1-10.2-2.8a7.8,7.8,0,0,0,.3-2.2,8,8,0,0,0-6.2-8c.1-1.5.3-3.2.4-4.7a65.1,65.1,0,0,0,.6-8.8l-.3-4.8c-.1-1.9-.2-3.7-.2-5.6v-.9c0-5.5-.1-13.7-6.2-16.5a27.5,27.5,0,0,0-13.3-1.9l-3.4.5c-2.4.5-5.2,1-6.6.2s-1.4-2.1-1.6-3.8a50.7,50.7,0,0,1-.3-5.5V61.6c0-2.6-.1-5.2-.3-7.7l-.2-3c0-.9-.1-2-.2-3a33.9,33.9,0,0,1,0-9c.8-4.2,1.5-8.4,2.1-11.9a2,2,0,0,0-1.6-2.3,2.1,2.1,0,0,0-2.2,1.6c-.6,3.6-1.2,7.7-2.1,11.9a33.5,33.5,0,0,0,0,10,26.6,26.6,0,0,0,.2,3c0,.9.2,2,.2,3,.1,2.5.3,5,.3,7.5v1.2q0,3,.3,6c.2,1.7.9,5.3,3.6,6.6s6.1.8,9,.3l3-.5a23.7,23.7,0,0,1,11.5,1.6c4,1.8,4,8.5,4,13v1a54.4,54.4,0,0,0,.3,5.7c.1,1.6.2,3.2.2,4.7a75.5,75.5,0,0,1-.5,8.3c-.2,1.6-.4,3.3-.5,5a8,8,0,0,0-6.7,8.1,8.2,8.2,0,0,0,1,4,5.8,5.8,0,0,1-2.9.5l-22.1-.8a8.6,8.6,0,0,0-1.5-4.4c-5.5-12-6.9-25.4-8.4-38.4l-.3-2.2c1.1-12,1.6-24,1.5-36.1m62.8,104.2c7,9.5,17.2,15.1,27.8,20a92,92,0,0,1-50.3,15l-5.4-.2c.8-2.7,1.7-5.5,2.6-8.3a28.4,28.4,0,0,1,3.3-5.6c.8-1.1,1.6-2.3,2.3-3.5a16.2,16.2,0,0,0,1-1.8,31.6,31.6,0,0,1,4.4-6.4,35.2,35.2,0,0,1,9.2-6.6ZM77.3,183.2l-1.8-.3-2-.4a86.3,86.3,0,0,1-25-9.1l.3-1.6c1.9-12.4,4-25.3,9.1-36.9a11.3,11.3,0,0,0,2.6-4.5l19.6.6h3.8a10.4,10.4,0,0,0,4.5-1.5,8.8,8.8,0,0,0,4.7,1.3,8.4,8.4,0,0,0,6.3-2.6c3.5,1.8,7,3.3,11.3,3.3h.9a77.1,77.1,0,0,0,14.2-2.6c4.5-1.1,9.5-2.4,14.6-3.9A126.5,126.5,0,0,1,128,137a121,121,0,0,1-20,11.6,41.2,41.2,0,0,0-10.2,7.3,33.7,33.7,0,0,0-5,7.3l-.9,1.7-2.2,3.2a28.6,28.6,0,0,0-3.7,6.6c-1.1,2.9-1.9,5.9-2.8,8.7l-.2.6-5.7-.8"/><path class="cls-1" d="M239.1,50.8a1.9,1.9,0,0,0-1.1-2.5l-4.8-1.9a1.7,1.7,0,0,0-1.9.3,2,2,0,0,0-.8,1.7,2.3,2.3,0,0,0,1.3,1.6l4.8,1.9h.7a2,2,0,0,0,1.8-1.2m-11.3-4.6a1.9,1.9,0,0,0-.2-1.5,1.8,1.8,0,0,0-1.1-1l-1.9-.6a6.7,6.7,0,0,1-2.1-.9.8.8,0,0,1-.4-.4,1.9,1.9,0,0,0-3,2.4l1.1,1.1a9.9,9.9,0,0,0,3.3,1.5l.6.2h.5l.8.3a2.9,2.9,0,0,0,1.3,0,2.2,2.2,0,0,0,1.1-1.2M217.5,38a1.7,1.7,0,0,0,.8-1.2,1.8,1.8,0,0,0-.4-1.4l-2.1-3.3-.5-1a1.8,1.8,0,0,0-1.6-1,1.9,1.9,0,0,0-1.8,2.8l.6,1.1c.7,1.2,1.5,2.4,2.3,3.6a1.8,1.8,0,0,0,1.6.8,1.7,1.7,0,0,0,1.1-.4m-7.1-11.2h.7a1.8,1.8,0,0,0,1-1.1,1.9,1.9,0,0,0,0-1.5,21.4,21.4,0,0,0-1-2.2L210,19.4a1.9,1.9,0,0,0-2.5-1,2,2,0,0,0-1,2.6l1.2,2.5.9,2.2a1.9,1.9,0,0,0,1.8,1.1m51.9,37.6h0a1.9,1.9,0,0,0-.3,2.7,23.6,23.6,0,0,1,2.4,4,1.8,1.8,0,0,0,1.7,1.1l.9-.2a2.2,2.2,0,0,0,1-1.1,2.2,2.2,0,0,0-.1-1.4,29.2,29.2,0,0,0-2.9-4.8,1.7,1.7,0,0,0-1.3-.7,1.8,1.8,0,0,0-1.4.4m8.9,11.7h0a1.9,1.9,0,0,0-3.2,2.2,5.3,5.3,0,0,0,1.2,1.4l1.5,1.6.9.9a2,2,0,0,0,1.4.6,1.9,1.9,0,0,0,1.4-.5,1.9,1.9,0,0,0,0-2.7l-.9-1L272,77.1l-.8-1m6,8.9a1.4,1.4,0,0,0-.5,1.4,1.8,1.8,0,0,0,.6,1.3l3.9,3.4a2.1,2.1,0,0,0,1.2.5,2,2,0,0,0,1.9-1.3,2,2,0,0,0-.6-2.1l-3.8-3.4a1.9,1.9,0,0,0-2.7.2M238.1.1c4.1-.2,3.8,4.3,3.8,4.3V79.3c-4.6.9-9.4,1.9-14.1,2.4a20,20,0,0,1-17.3-5.8A24,24,0,0,1,204.6,64c-.4-1.8-.6-3.7-.9-5.6l.3.2a13.4,13.4,0,0,0,6.4,2.6,8.4,8.4,0,0,0,4.4-1.3,3.2,3.2,0,0,1,2.2-.6,17,17,0,0,1,5.1,2.8c.9.6,1,.7-.4,3.3l-.4.6a2.6,2.6,0,0,0,1.1,3.5,2.7,2.7,0,0,0,1.2.3,2.5,2.5,0,0,0,2.3-1.4l.3-.6c1.2-2.3,3.5-6.5-1-9.8a21.4,21.4,0,0,0-6.8-3.7,7.4,7.4,0,0,0-5.8,1,4.8,4.8,0,0,1-2.1.7c-3.2-.3-7.3-3.8-7.8-3.8s-.3-1.3-.6-2.1a8.9,8.9,0,0,0-3.1-5l-11.6-9.9-1.1-.5a61.6,61.6,0,0,1,16.8-21.1v.2A2,2,0,0,0,205,15l.8-.2a1.9,1.9,0,0,0,.9-2.5l-.4-1.1A60.7,60.7,0,0,1,238.1.1m-20.8,98,24.6,6.8v17.6a62,62,0,0,1-44.2-19,91.8,91.8,0,0,0,.7-11.7c0-2.5-.1-4.9-.3-7.4l11.5,10.1.6.5a12.4,12.4,0,0,0,2.2,1.8,15.4,15.4,0,0,0,3.5,1l1.4.3m-5.1-6.6L197.6,78.8a104.5,104.5,0,0,0-13.3-39.5l11.3,9.6a4.3,4.3,0,0,1,1.5,2.7,41.7,41.7,0,0,1,1.4,7.2,46.2,46.2,0,0,0,1.1,6.3,29.1,29.1,0,0,0,7.2,14.3,24.9,24.9,0,0,0,18,7.6,21.9,21.9,0,0,0,3.6-.3c4.5-.5,9.1-1.4,13.4-2.3v16.5l-23.6-6.5-1.5-.4a7.8,7.8,0,0,1-2.5-.7l-1.3-1Zm73.3,83a61,61,0,0,1-12.6,6.1,13.9,13.9,0,0,1,2.1-2.7l8-6.9Zm24.8-66a20.6,20.6,0,0,0,2.6,1.2,61.2,61.2,0,0,1-7.9,45.1h0c-4-2.1-8.8-4.9-11.5-9a15.6,15.6,0,0,1-2-11.3,51.7,51.7,0,0,1,4.6-13.2l.4-.9c1.6-3.5,4.8-11.9-1.7-15.8C283.5,98,286.4,116.1,283,118c-.2.1-.2.3-.6.4s-5.1-1-7.1-2.5a24.5,24.5,0,0,1-5.6-6h3.6a24.5,24.5,0,0,0,6.6-.5c1.4-.8,2.1-2.7,3.1-5.3a7.2,7.2,0,0,1,.5-1.4c.3-.9.4-.9,1.7-1.3l1-.3,5-1.8.6-.3.5-.2c.4.1,6.5,3.6,6.5,3.6l4.5,2.5a1.6,1.6,0,0,0,.9.3,1.9,1.9,0,0,0,1.7-1,2,2,0,0,0,.2-1.5,1.7,1.7,0,0,0-.9-1.1l-.9-.5.6-.6,1-.9,2.9-2.3a71.5,71.5,0,0,1,2.9,7.7,1.9,1.9,0,0,0-2.5,1.1,1.8,1.8,0,0,0,1.1,2.4m-21.1,40.1c3.2,5,8.5,8.2,13,10.4a60.8,60.8,0,0,1-13.5,13.3L285,167a2.2,2.2,0,0,0-1.3-.8,2,2,0,0,0-1.5.5l-9.6,8.3-.3.3-20.4-44.9V107.2l3.1.7a50.3,50.3,0,0,0,8.6,1.7,33.5,33.5,0,0,0,8.8,10.3c2.1,1.6,7.1,4.3,11.1,3.4a5.9,5.9,0,0,0,4.1-3,15.2,15.2,0,0,0,1.5-6c.5-6.1,2.3-6.6,3.6-5.8s1,5.6-.9,9.7l-.4.9a62.2,62.2,0,0,0-5,14.5,20.9,20.9,0,0,0,2.8,15M267.9,182l-.2.2a69.5,69.5,0,0,1-9.1,1.7c-2.3.2-3.4.7-5.1-.4a3.9,3.9,0,0,1-1.7-3V139.7l17.7,39c-.6,1.1-1.1,2.2-1.6,3.3m-4.8-94c-1.9-5.6-6.8-7.5-11.2-8.5V60.6a62.6,62.6,0,0,1,55.3,33.2l-3.6,2.8-1.2,1L300.7,99h-.2c-.7-.3-9.4-5.4-10.7-6.3a1.9,1.9,0,0,0-1.9-.1,1.7,1.7,0,0,0-1.1,1.6,2,2,0,0,0,.9,1.7l.5.3L285,97.3l-.9.3A6.1,6.1,0,0,0,280,101c-.1.4-.4,1-.6,1.7a28.5,28.5,0,0,1-1.2,3.1c-1.7.1-7,0-10.7,0a20.8,20.8,0,0,1-1.3-3,29,29,0,0,1-1.5-7.1,40.5,40.5,0,0,0-1.6-7.7m-7.2,16.2-4.1-1V84.8c3.6.9,5.6,2.4,6.4,4.9a31.6,31.6,0,0,1,1.4,6.8,37.7,37.7,0,0,0,1.7,8.1,3.6,3.6,0,0,0,.4.9,54.3,54.3,0,0,1-5.8-1.3m-.4-96.1h0a4.2,4.2,0,0,1-3.6-4.3,4,4,0,0,1,4-3.8h.5A73.3,73.3,0,0,1,304,24.9a4,4,0,0,1,0,5.4,4.7,4.7,0,0,1-3,1.4,4.1,4.1,0,0,1-3.2-1.5A65.6,65.6,0,0,0,255.5,8.1M238.7,176.2h0a4.2,4.2,0,0,1,0,8.3c-21.9,0-42.7-9.4-58.7-26.4a4.3,4.3,0,0,1-.9-4.7,4.1,4.1,0,0,1,3.8-2.5,4.5,4.5,0,0,1,3.2,1.6c14.4,15.3,33.1,23.7,52.6,23.7"/><path class="cls-1" d="M625,37.8c12,0,18.1,7.7,18,23.1V85.8a.8.8,0,0,1-.8.8h-7.9a.7.7,0,0,1-.8-.8V62.9c0-4,0-8.4-1.3-11.7s-4.1-5.3-8.5-5.3S610,50.6,610,57V85.8a1.4,1.4,0,0,1-.2.6l-.6.2h-7.9a.8.8,0,0,1-.8-.8V39.9a.8.8,0,0,1,.8-.8h7.3a.8.8,0,0,1,.8.7l.5,4.6A19.1,19.1,0,0,1,625,37.8M553.4,62.9c0,8.1,3.8,16.9,14.3,16.9s14.4-8.6,14.4-16.9c0-10.6-5.4-17-14.4-17s-14.3,8.8-14.3,17M567.1,88c-13.5,0-23.2-10.6-23.2-25.1s12-25.1,23.2-25.1a20,20,0,0,1,15.2,6.6l.5-4.6a.9.9,0,0,1,.8-.8h7.2a.8.8,0,0,1,.8.8V85.9a.7.7,0,0,1-.8.8h-7.9a.8.8,0,0,1-.8-.8V81.5a20.4,20.4,0,0,1-15,6.5M686.9,75.1a.6.6,0,0,1,.5.6l2.1,6.2a.8.8,0,0,1-.3.9c-4.2,3.5-9.8,5.2-16.7,5.2-14,0-23.9-10.6-23.9-25.2s10.1-25.1,24-25.1c3.5,0,12,.6,16.5,6.8a.7.7,0,0,1,0,.9l-3.4,4.8a.7.7,0,0,1-.6.4.7.7,0,0,1-.6-.3c-3.4-4.1-7.2-4.5-11.9-4.5-10.6,0-14.4,9.2-14.4,17,0,10.7,5.3,16.9,14.4,16.9a20.9,20.9,0,0,0,13.6-4.4.7.7,0,0,1,.7-.2M480.1,115.8a.8.8,0,0,1,.6.8v7.2a.7.7,0,0,1-.4.7.6.6,0,0,1-.8,0,8.3,8.3,0,0,0-4.9-1.2c-10.2,0-11,11.5-11,15v25a1.2,1.2,0,0,1-.8.8h-8a.9.9,0,0,1-.8-.8v-46a.9.9,0,0,1,.3-.6l.5-.2h7.3a.8.8,0,0,1,.8.7l.4,4.2a14.1,14.1,0,0,1,11.7-6.3,22.4,22.4,0,0,1,5.1.7m-105.5,8c14.4,3.8,21.7,11.1,21.7,21.7s-9.1,19.9-21.9,19.9c-9.6-.1-18.2-3.3-23.1-8.6a.7.7,0,0,1,0-1l4.1-5.9a.6.6,0,0,1,.6-.3c.2-.1.4,0,.6.2a28,28,0,0,0,17.8,7.4,11.5,11.5,0,0,0,8.4-3.3,11.6,11.6,0,0,0,3.3-8.4c.1-8-6.2-10.3-13.9-12.4-12.3-3.4-19-10.4-19-19.8,0-12.2,11-17.9,21.2-17.9a31.4,31.4,0,0,1,16.6,4.8.5.5,0,0,1,.3.5.6.6,0,0,1-.1.6l-4,5.8a.9.9,0,0,1-1.1.2,27.2,27.2,0,0,0-11.7-3.7c-5.8,0-11.7,3-11.7,9.7s6.7,9.1,11.9,10.5M702.5,57.9h25.8c-1.4-8.2-5.3-12-12.2-12s-12.2,4.7-13.6,12m13.6-20.1c14.1,0,21.9,9.2,21.9,26.1a.9.9,0,0,1-.8.8H702.4c.6,7.4,4.5,15.1,13.7,15.1,6.9,0,12.8-2.1,16.6-5.7a1,1,0,0,1,.7-.2,1,1,0,0,1,.6.5l2.3,6.2a.8.8,0,0,1-.2,1c-6.2,5.3-14.3,6.4-20,6.4-13.9,0-23.2-10.1-23.2-25.1s9.7-25.1,23.2-25.1M413.5,86.6a.7.7,0,0,1-.8-.8V39.9a.8.8,0,0,1,.8-.8h7.2a.8.8,0,0,1,.8.7l.4,4.2a14,14,0,0,1,11.7-6.2,17.9,17.9,0,0,1,5.1.7.7.7,0,0,1,.6.7v7.2a.7.7,0,0,1-.4.7.6.6,0,0,1-.8,0,7.5,7.5,0,0,0-4.9-1.2c-10.2,0-11,11.5-11,15V85.8a.7.7,0,0,1-.3.6c-.1.2-.3.2-.5.2Zm127.3,48.7h25.8c-1.4-8.1-5.3-11.9-12.2-11.9s-12.2,4.6-13.6,11.9m13.6-20.1c14.1,0,21.9,9.2,21.9,26.2a.8.8,0,0,1-.2.5.9.9,0,0,1-.6.3H540.8c.5,7.4,4.4,15,13.6,15,6.8,0,12.8-2,16.6-5.6a.7.7,0,0,1,.7-.2,1,1,0,0,1,.6.5l2.3,6.2a1,1,0,0,1-.2.9c-6.2,5.3-14.3,6.4-20,6.4-13.9,0-23.2-10.1-23.2-25.1s9.7-25.1,23.2-25.1m-22.7,1.6a.8.8,0,0,1,.1.8l-19.6,46a1,1,0,0,1-.8.5h-7.6a.8.8,0,0,1-.7-.5l-19.4-46a.8.8,0,0,1,.1-.8.8.8,0,0,1,.7-.3h8.2a.8.8,0,0,1,.8.5l14.1,36.2L522.3,117a.8.8,0,0,1,.7-.5h8.1a.7.7,0,0,1,.6.3m-87.4-.3a.7.7,0,0,1,.6.2.8.8,0,0,1,.2.6v46a.8.8,0,0,1-.2.5l-.6.3H437c-.4,0-.7-.4-.8-.8l-.4-4.5a19.8,19.8,0,0,1-15.2,6.6c-11.9,0-18-7.8-18-23.2V117.3a.8.8,0,0,1,.8-.8h7.9l.6.2a.7.7,0,0,1,.2.6v23c0,4.1,0,8.4,1.3,11.6s4.1,5.3,8.5,5.3,13.7-4.6,13.7-11V117.3a1.4,1.4,0,0,1,.2-.6l.6-.2ZM396.8,53c0-14.8-10.5-26.8-23.6-26.8s-23.5,12-23.5,26.8,10.5,26.8,23.5,26.8,23.6-12,23.6-26.8M373.2,18c18.3,0,33.1,15.7,33.1,35s-14.8,35-33.1,35-33-15.7-33-35,14.8-35,33-35m249.9,98.5a.8.8,0,0,1,.8.7v.4l-20.7,49.6c-4,9.4-10.5,15.2-18.2,16.6h0a.9.9,0,0,1-.7-.3l-4.3-5.3a.9.9,0,0,1-.1-.7.9.9,0,0,1,.6-.6c7.4-1.8,11.8-5.9,14.4-13.6l-19.2-45.7a1.1,1.1,0,0,1,0-.8,1.1,1.1,0,0,1,.7-.3h8.3a.8.8,0,0,1,.7.5l14.3,36.7L614.4,117a.8.8,0,0,1,.7-.5ZM497.2,86.6l-.6-.2a1.4,1.4,0,0,1-.2-.6v-46a.9.9,0,0,1,.8-.8h7.3c.4,0,.7.4.8.8l.4,4.5a19.8,19.8,0,0,1,15.2-6.6c11.9,0,18,7.8,18,23.2V85.8a.8.8,0,0,1-.8.8h-7.9a.7.7,0,0,1-.8-.8V62.9c0-4,0-8.4-1.3-11.7s-4.1-5.3-8.5-5.3S505.9,50.6,505.9,57V85.8a.8.8,0,0,1-.8.8Zm-48-23.7c0,8.1,3.7,16.9,14.4,16.9,9,0,14.3-8.6,14.3-16.9,0-10.6-5.3-17-14.3-17s-14.4,8.8-14.4,17m28.7,18.5a20.3,20.3,0,0,1-15,6.6c-13.5,0-23.2-10.6-23.2-25.1s12-25.1,23.2-25.1a19.7,19.7,0,0,1,15,6.4V18.8a.9.9,0,0,1,.8-.8h7.9a1,1,0,0,1,.9.8V85.9a.9.9,0,0,1-.9.7h-7.9a.8.8,0,0,1-.8-.7Z"/></g></g></svg>