<svg xmlns="http://www.w3.org/2000/svg" xmlns:xlink="http://www.w3.org/1999/xlink" viewBox="0 0 610.8 884.2"><defs><style>.cls-1,.cls-10,.cls-100,.cls-102,.cls-105,.cls-106,.cls-108,.cls-109,.cls-11,.cls-110,.cls-111,.cls-113,.cls-115,.cls-116,.cls-117,.cls-118,.cls-120,.cls-121,.cls-123,.cls-124,.cls-126,.cls-129,.cls-13,.cls-130,.cls-132,.cls-133,.cls-134,.cls-136,.cls-137,.cls-138,.cls-139,.cls-140,.cls-141,.cls-143,.cls-145,.cls-146,.cls-147,.cls-15,.cls-153,.cls-154,.cls-155,.cls-156,.cls-159,.cls-160,.cls-162,.cls-163,.cls-165,.cls-166,.cls-168,.cls-171,.cls-173,.cls-175,.cls-178,.cls-179,.cls-180,.cls-184,.cls-185,.cls-186,.cls-187,.cls-189,.cls-19,.cls-191,.cls-192,.cls-193,.cls-194,.cls-195,.cls-196,.cls-197,.cls-199,.cls-20,.cls-200,.cls-201,.cls-202,.cls-203,.cls-204,.cls-206,.cls-207,.cls-21,.cls-210,.cls-211,.cls-212,.cls-23,.cls-24,.cls-27,.cls-29,.cls-3,.cls-30,.cls-33,.cls-34,.cls-35,.cls-38,.cls-41,.cls-42,.cls-44,.cls-47,.cls-48,.cls-49,.cls-51,.cls-53,.cls-56,.cls-58,.cls-59,.cls-61,.cls-64,.cls-65,.cls-68,.cls-69,.cls-70,.cls-75,.cls-76,.cls-77,.cls-78,.cls-80,.cls-82,.cls-83,.cls-84,.cls-86,.cls-87,.cls-88,.cls-9,.cls-94,.cls-95,.cls-98,.cls-99{fill:none;}.cls-2{isolation:isolate;}.cls-3,.cls-47,.cls-51,.cls-9{stroke:#533724;}.cls-10,.cls-102,.cls-105,.cls-106,.cls-109,.cls-11,.cls-110,.cls-113,.cls-115,.cls-116,.cls-13,.cls-130,.cls-133,.cls-136,.cls-139,.cls-141,.cls-148,.cls-149,.cls-150,.cls-153,.cls-154,.cls-160,.cls-165,.cls-168,.cls-171,.cls-173,.cls-179,.cls-180,.cls-184,.cls-185,.cls-187,.cls-19,.cls-196,.cls-197,.cls-199,.cls-200,.cls-201,.cls-203,.cls-206,.cls-21,.cls-210,.cls-212,.cls-27,.cls-3,.cls-30,.cls-35,.cls-41,.cls-44,.cls-48,.cls-49,.cls-56,.cls-58,.cls-59,.cls-60,.cls-64,.cls-65,.cls-68,.cls-70,.cls-75,.cls-76,.cls-83,.cls-84,.cls-86,.cls-87{stroke-linecap:round;}.cls-105,.cls-106,.cls-116,.cls-117,.cls-118,.cls-132,.cls-133,.cls-136,.cls-139,.cls-140,.cls-141,.cls-143,.cls-150,.cls-153,.cls-154,.cls-166,.cls-178,.cls-179,.cls-180,.cls-182,.cls-183,.cls-185,.cls-186,.cls-187,.cls-189,.cls-199,.cls-20,.cls-200,.cls-201,.cls-202,.cls-203,.cls-204,.cls-209,.cls-21,.cls-210,.cls-211,.cls-212,.cls-3,.cls-30,.cls-48,.cls-49,.cls-66,.cls-86,.cls-87,.cls-9{stroke-linejoin:round;}.cls-10,.cls-11,.cls-116,.cls-124,.cls-147,.cls-153,.cls-154,.cls-199,.cls-200,.cls-201,.cls-3,.cls-60,.cls-86,.cls-87{stroke-width:3px;}.cls-4{fill:#622684;}.cls-5,.cls-60,.cls-66{fill:#1d1d1b;}.cls-6{fill:#533724;}.cls-122,.cls-7{fill:#dadada;}.cls-161,.cls-182,.cls-183,.cls-209,.cls-8{fill:#3c3c3b;}.cls-117,.cls-155,.cls-88,.cls-9{stroke-width:12px;}.cls-10,.cls-11,.cls-110,.cls-193,.cls-194,.cls-195,.cls-196,.cls-24,.cls-59,.cls-60,.cls-61,.cls-66,.cls-68{stroke:#1d1d1b;}.cls-10,.cls-100,.cls-102,.cls-108,.cls-109,.cls-11,.cls-110,.cls-111,.cls-112,.cls-113,.cls-115,.cls-120,.cls-121,.cls-122,.cls-123,.cls-124,.cls-126,.cls-129,.cls-13,.cls-130,.cls-134,.cls-137,.cls-138,.cls-145,.cls-146,.cls-147,.cls-148,.cls-149,.cls-15,.cls-155,.cls-156,.cls-159,.cls-160,.cls-162,.cls-163,.cls-165,.cls-168,.cls-171,.cls-173,.cls-175,.cls-184,.cls-19,.cls-191,.cls-192,.cls-193,.cls-194,.cls-195,.cls-196,.cls-197,.cls-206,.cls-207,.cls-23,.cls-24,.cls-27,.cls-29,.cls-32,.cls-33,.cls-34,.cls-35,.cls-38,.cls-41,.cls-42,.cls-44,.cls-47,.cls-51,.cls-53,.cls-56,.cls-58,.cls-59,.cls-60,.cls-61,.cls-64,.cls-65,.cls-68,.cls-69,.cls-70,.cls-75,.cls-76,.cls-77,.cls-78,.cls-80,.cls-81,.cls-82,.cls-83,.cls-84,.cls-88,.cls-94,.cls-95,.cls-98,.cls-99{stroke-miterlimit:10;}.cls-11{stroke-dasharray:0 2.01;}.cls-12{fill:#4c3220;}.cls-13,.cls-15{stroke:#362212;}.cls-13,.cls-83{stroke-width:1.03px;}.cls-14{fill:#362212;}.cls-16{fill:#f9e2ed;}.cls-128,.cls-16,.cls-161,.cls-39,.cls-67{mix-blend-mode:multiply;}.cls-149,.cls-17{fill:#ec6408;}.cls-18{fill:#461600;}.cls-19{stroke:#461600;}.cls-105,.cls-106,.cls-116,.cls-117,.cls-20,.cls-23,.cls-30{stroke:#f3d1bb;}.cls-140,.cls-186,.cls-20,.cls-202{stroke-width:13.76px;}.cls-21{stroke:#e8c0a8;}.cls-133,.cls-136,.cls-139,.cls-141,.cls-185,.cls-187,.cls-203,.cls-21,.cls-211,.cls-212,.cls-30{stroke-width:4.3px;}.cls-22{fill:#2f52a0;}.cls-105,.cls-23{stroke-width:13.79px;}.cls-24{stroke-width:16px;}.cls-25{fill:#e8c0a8;}.cls-26{fill:#f3d1bb;}.cls-113,.cls-120,.cls-27,.cls-82,.cls-83{stroke:#b9937e;}.cls-145,.cls-173,.cls-175,.cls-206,.cls-207,.cls-27,.cls-29,.cls-58{stroke-width:0.86px;}.cls-28{fill:#b9937e;}.cls-108,.cls-29{stroke:#d5ad95;}.cls-31{fill:#fff;}.cls-104,.cls-32{fill:#fbb92d;}.cls-134,.cls-32,.cls-33,.cls-38,.cls-41,.cls-42{stroke:#fbb92d;}.cls-122,.cls-32{stroke-width:0.8px;}.cls-123,.cls-138,.cls-148,.cls-149,.cls-150,.cls-183,.cls-33,.cls-81{stroke-width:4px;}.cls-34,.cls-35{stroke:#b2b2b2;}.cls-36{fill:#9e8576;}.cls-37{fill:#5975b3;}.cls-38{stroke-width:1.26px;}.cls-40{fill:#706f6f;}.cls-42{stroke-width:1.27px;}.cls-43{fill:#d2948b;}.cls-130,.cls-159,.cls-160,.cls-44{stroke:#d2948b;}.cls-45{fill:#1982c3;}.cls-46{fill:#0074bc;}.cls-47{stroke-width:15.91px;}.cls-139,.cls-146,.cls-48{stroke:#8b7460;}.cls-179,.cls-180,.cls-48,.cls-49{stroke-width:4.96px;}.cls-140,.cls-141,.cls-184,.cls-49{stroke:#957c67;}.cls-50{fill:#7c6253;}.cls-51{stroke-width:15.88px;}.cls-52{fill:#ededed;}.cls-118,.cls-156,.cls-53{stroke:#0074bc;}.cls-53{stroke-width:18.46px;}.cls-54{fill:#0878be;}.cls-55{fill:#957c67;}.cls-145,.cls-56,.cls-58{stroke:#5b453b;}.cls-57{fill:#5b453b;}.cls-168,.cls-182,.cls-59,.cls-61{stroke-width:2px;}.cls-62{fill:#5a9fc6;}.cls-63{fill:#67b9e8;}.cls-64{stroke:#5a9fc6;}.cls-133,.cls-65{stroke:#67b9e8;}.cls-67,.cls-71{fill:#c6c6c6;}.cls-112,.cls-121,.cls-126,.cls-68,.cls-69,.cls-99{stroke-width:0.5px;}.cls-122,.cls-123,.cls-124,.cls-168,.cls-69{stroke:#dadada;}.cls-206,.cls-207,.cls-70{stroke:#7c6253;}.cls-72{fill:#525251;}.cls-73{fill:#575756;}.cls-74{fill:#6b338b;}.cls-126,.cls-129,.cls-137,.cls-147,.cls-182,.cls-183,.cls-199,.cls-200,.cls-201,.cls-209,.cls-75,.cls-77,.cls-78{stroke:#3c3c3b;}.cls-75{stroke-width:1.93px;}.cls-76{stroke:#9d9d9c;stroke-width:5px;}.cls-77{stroke-width:4.49px;}.cls-78{stroke-width:2.69px;}.cls-79{fill:#878787;}.cls-80,.cls-81{stroke:#622684;}.cls-80{stroke-width:15.43px;}.cls-81{fill:#9c1981;}.cls-82{stroke-width:0.67px;}.cls-84{stroke:#fff;}.cls-85{fill:#9d9d9c;}.cls-86{stroke:#a59371;}.cls-87,.cls-88{stroke:#af9c78;}.cls-89{fill:#e36da6;}.cls-90{fill:#af9c78;}.cls-91{fill:#4a4a49;}.cls-92{fill:#2e2d2c;}.cls-93{clip-path:url(#clip-path);}.cls-109,.cls-138,.cls-210,.cls-94,.cls-95{stroke:#878787;}.cls-94,.cls-95{stroke-width:0.25px;}.cls-95{stroke-dasharray:2 1;}.cls-96{fill:#a59371;}.cls-97{fill:#f6f6f6;}.cls-102,.cls-98,.cls-99{stroke:#7a5d35;}.cls-100,.cls-191,.cls-192{stroke:#706f6f;}.cls-101{fill:#7a5d35;}.cls-103{fill:#e4dcd7;}.cls-106{stroke-width:3.7px;}.cls-107{fill:#d23055;}.cls-108,.cls-111{stroke-width:0.81px;}.cls-109{stroke-width:1.92px;}.cls-110{stroke-width:6.71px;}.cls-111,.cls-112{stroke:#c6c6c6;}.cls-112{fill:#8e63a6;}.cls-114{fill:#d08382;}.cls-115{stroke:#d08382;}.cls-118,.cls-156,.cls-178{stroke-width:14px;}.cls-119{fill:#76c0ea;}.cls-121,.cls-136{stroke:#575756;}.cls-125{fill:#a17db5;}.cls-127{fill:#d1c4bd;}.cls-128{opacity:0.48;}.cls-130{stroke-width:0.75px;}.cls-131{fill:#50443f;}.cls-132{stroke:#2f52a0;stroke-width:20px;}.cls-134{stroke-width:15px;}.cls-135,.cls-148{fill:#88bf57;}.cls-137,.cls-210{stroke-width:6px;}.cls-142{fill:#b89d82;}.cls-143{stroke:#93c566;}.cls-143,.cls-189,.cls-204{stroke-width:18.06px;}.cls-144{fill:#8b7460;}.cls-148,.cls-189{stroke:#88bf57;}.cls-149{stroke:#ec6408;}.cls-150{fill:#e6007e;stroke:#e6007e;}.cls-151{fill:#f0d5d1;}.cls-152{fill:#e1062c;}.cls-153{stroke:#f2c8bf;}.cls-154,.cls-155{stroke:#f0d5d1;}.cls-157{fill:#f2c8bf;}.cls-158{fill:#dbd0ca;}.cls-159{stroke-width:0.72px;}.cls-160{stroke-width:1.07px;}.cls-162,.cls-163{stroke:#e1062c;}.cls-162{stroke-width:1.8px;}.cls-163{stroke-width:1.75px;}.cls-164{fill:#cf797d;}.cls-165{stroke:#cf797d;}.cls-166{stroke:#d23055;stroke-width:18px;}.cls-167{fill:#bb9c87;}.cls-169{fill:#009d9f;}.cls-170{fill:#75a44b;}.cls-171{stroke:#00a9ab;stroke-width:10px;}.cls-172{fill:#d4b6a3;}.cls-173,.cls-175,.cls-203,.cls-211{stroke:#a2816c;}.cls-174{fill:#a2816c;}.cls-176{fill:#857164;}.cls-177{fill:#d74566;}.cls-178,.cls-179,.cls-197{stroke:#d4b6a3;}.cls-180{stroke:#caae9c;}.cls-181{fill:#c52e50;}.cls-185{stroke:#e2c7b5;}.cls-186,.cls-187{stroke:#e8d0c1;}.cls-188{fill:#e8d0c1;}.cls-190{fill:#e2c7b5;}.cls-191{stroke-width:1.5px;}.cls-192{stroke-width:0.93px;}.cls-193{stroke-width:3.37px;}.cls-194,.cls-196{stroke-width:1.89px;}.cls-195{stroke-width:2.04px;}.cls-198{fill:#a48a7a;}.cls-200{stroke-dasharray:0 3.07;}.cls-201{stroke-dasharray:0 2.95;}.cls-202,.cls-212{stroke:#a48a7a;}.cls-204{stroke:#e2bdd2;}.cls-205{fill:#e2bdd2;}.cls-208{fill:#efaccd;}</style><clipPath id="clip-path"><path class="cls-1" d="M36.9,389.4a36.5,36.5,0,0,0-21,6.7h0A36.3,36.3,0,0,0,.7,425.6v44.8h14V425.6a22.4,22.4,0,0,1,1.2-7.3v36a23.5,23.5,0,0,0-.8,6v10.9a14.3,14.3,0,0,0,1.7,6.5l1.3,76.4H36.3l.5-68.8h.4l.4,68.8H55.3l1.9-76.4a14.5,14.5,0,0,0,1.6-6.5V460.3a20.6,20.6,0,0,0-.9-6.2v-36a23.6,23.6,0,0,1,1.3,7.5v44.8h14V425.6A36.3,36.3,0,0,0,36.9,389.4Z"/></clipPath></defs><title>personas group</title><g class="cls-2"><g id="Layer_2" data-name="Layer 2"><g id="_15" data-name="15"><path class="cls-3" d="M47.6,152.5l5.6-1.1a5,5,0,0,0,3.8-3.5l.3-.9"/><path class="cls-3" d="M46.1,151.1l9.6-1.9.7-2.5a4.1,4.1,0,0,0-2.7-5.1h0"/><path class="cls-4" d="M45.2,151.4a1.1,1.1,0,0,0,2.2-.4"/><polyline class="cls-3" points="44.7 148.9 53.5 147.2 55.5 143.9"/><path class="cls-4" d="M43.8,149.3a1.1,1.1,0,0,0,2.2-.4"/><path class="cls-3" d="M44.5,146.3l8-1.8,1.8-3.2a4.1,4.1,0,0,0-2.7-5.1l-1.8-.9"/><path class="cls-4" d="M46.9,152.8a1,1,0,0,0,1.1.8,1.1,1.1,0,0,0,.9-1.1"/><path class="cls-4" d="M43.6,146.3a1.1,1.1,0,0,0,1.3,1,1.2,1.2,0,0,0,1-1.3"/><path class="cls-5" d="M37.5,142.3h0a21.9,21.9,0,0,1,21.9,21.9v10.9a14.1,14.1,0,0,1-14.1,14.1H29.8a14.1,14.1,0,0,1-14.1-14.1V164.2a21.9,21.9,0,0,1,21.9-21.9Z"/><polyline class="cls-6" points="21.4 198.6 24.6 265.4 35.3 265.4 34.5 180.6"/><polyline class="cls-6" points="53.9 195.6 51 265.4 40.2 265.4 39.8 189.8"/><polygon class="cls-5" points="35.5 252.3 37.6 177.9 17.3 177.3 23.8 252.3 35.5 252.3"/><polygon class="cls-5" points="40 252.3 37.9 177.9 58 177.3 51.6 252.3 40 252.3"/><path class="cls-7" d="M16.7,82.9H58.3a0,0,0,0,1,0,0v71.2a3.5,3.5,0,0,1-3.5,3.5H20.2a3.5,3.5,0,0,1-3.5-3.5V82.9A0,0,0,0,1,16.7,82.9Z"/><path class="cls-8" d="M20,265.1l15.3-3.2v5.5L21,275.2H11.7C10,270.1,14.9,266.7,20,265.1Z"/><polyline class="cls-8" points="35.3 267.4 34.3 274.7 32.3 274.7 31 266.2"/><path class="cls-8" d="M55.6,265.1l-15.4-3.2v5.5l14.4,7.8h9.3C65.5,270.1,60.7,266.7,55.6,265.1Z"/><polyline class="cls-8" points="40.2 267.4 41.2 274.7 43.2 274.7 44.6 266.2"/><rect class="cls-6" x="35.6" y="99.1" width="3.7" height="10" rx="1.9"/><rect class="cls-6" x="54.6" y="146" width="2.3" height="3.63" transform="translate(13 300) rotate(-143.6)"/><rect class="cls-6" x="54.7" y="145.9" width="2.3" height="3.63" transform="translate(13.2 299.8) rotate(-143.6)"/><rect class="cls-6" x="17.7" y="145.4" width="2.2" height="3.62" transform="translate(-72.3 30.1) rotate(-30.6)"/><path class="cls-9" d="M37.9,81.6h0A29.3,29.3,0,0,0,8.6,110.8v14c0,4.8,1.8,7.1,4.6,11l11.4,9.3"/><path class="cls-9" d="M37.1,81.6h0a29.2,29.2,0,0,1,29.2,29.2v14c.1,4.8-1.7,7.1-4.6,11l-9.3,10"/><circle class="cls-7" cx="61.5" cy="92.3" r="9"/><circle class="cls-7" cx="13.4" cy="92.3" r="9"/><path class="cls-7" d="M37.7,88.6a22.5,22.5,0,0,0-20.1,12.7L5,95.2A36.4,36.4,0,0,1,37.7,74.6"/><path class="cls-7" d="M37.2,88.6a22.4,22.4,0,0,1,20.1,12.7l12.6-6.1A36.3,36.3,0,0,0,37.2,74.6"/><path class="cls-6" d="M48.6,80.5v2.7A11.1,11.1,0,0,1,37.5,94.3h0A11.1,11.1,0,0,1,26.4,83.2V80.5a5.6,5.6,0,0,1,5.5-5.6H43A5.6,5.6,0,0,1,48.6,80.5Z"/><line class="cls-10" x1="54.8" y1="46.6" x2="54.8" y2="46.6"/><path class="cls-11" d="M54.8,44.6V38.9A17.2,17.2,0,0,0,37.5,21.6h0A17.3,17.3,0,0,0,20.1,38.9v7"/><line class="cls-10" x1="20.1" y1="46.9" x2="20.1" y2="46.9"/><rect class="cls-12" x="29.8" y="63.1" width="15.3" height="21.44" rx="7.6"/><path class="cls-12" d="M22.7,49.2l-.3-2a1.2,1.2,0,0,0-1.4-1,2.5,2.5,0,0,0-2,3l1.2,6.3a3.8,3.8,0,0,0,4.4,3V55.9"/><path class="cls-12" d="M50.5,55.9l-.2,2.6a3.8,3.8,0,0,0,4.4-3l1.2-6.3a2.5,2.5,0,0,0-2-3,1.2,1.2,0,0,0-1.4,1l-.3,2"/><path class="cls-6" d="M21.6,43A16.1,16.1,0,0,1,37.5,26.7,16.1,16.1,0,0,1,53.4,43v4.9c0,13.6-7.1,24.5-15.9,24.5S21.6,61.5,21.6,47.9Z"/><path class="cls-13" d="M47.8,46.5l-2.5-.2h0l-2.6.2"/><path class="cls-14" d="M47.4,48.1a2.2,2.2,0,0,1-2.3,2.2,2.2,2.2,0,0,1,0-4.4,2.2,2.2,0,0,1,2.3,2.2"/><path class="cls-13" d="M27.1,46.5l2.6-.2h0l2.6.2"/><path class="cls-14" d="M27.6,48.1a2.2,2.2,0,1,0,2.2-2.2,2.2,2.2,0,0,0-2.2,2.2"/><path class="cls-15" d="M33.5,56.5l1.8.9a5.1,5.1,0,0,0,2.2.5,4.3,4.3,0,0,0,2.1-.5l1.8-.9"/><path class="cls-5" d="M23.2,48.1V45.9A11.7,11.7,0,0,1,34.9,34.2h5.3A11.7,11.7,0,0,1,51.9,45.9v1.8l3.2-1.1V38.9A17.3,17.3,0,0,0,37.7,21.6h0A17.3,17.3,0,0,0,20.3,38.9l-.4,7.5Z"/><circle class="cls-16" cx="26.4" cy="54.6" r="2.8"/><circle class="cls-16" cx="48.6" cy="54.6" r="2.8"/><rect class="cls-17" x="25.3" y="117.9" width="26.2" height="36.26" rx="5.4"/><path class="cls-3" d="M29.2,152.6l-5.7-1.2a5,5,0,0,1-3.8-3.5l-.3-.9"/><path class="cls-3" d="M30.7,151.2l-9.7-2-.7-2.5a4.1,4.1,0,0,1,2.6-5.1h0"/><path class="cls-4" d="M31.6,151.4a1.1,1.1,0,1,1-2.2-.3"/><path class="cls-4" d="M30.1,152.9a1,1,0,1,1-2-.4"/><polyline class="cls-3" points="32.1 149 23.2 147.2 21.2 143.9"/><path class="cls-4" d="M33,149.3a1.1,1.1,0,1,1-2.2-.3"/><path class="cls-3" d="M47.6,152.5l5.6-1.1a5,5,0,0,0,3.8-3.5l.3-.9"/><path class="cls-3" d="M46.1,151.1l9.6-1.9.7-2.5a4.1,4.1,0,0,0-2.7-5.1h0"/><path class="cls-4" d="M45.2,151.4a1.1,1.1,0,0,0,2.2-.4"/><polyline class="cls-3" points="44.7 148.9 53.5 147.2 55.5 143.9"/><path class="cls-4" d="M43.8,149.3a1.1,1.1,0,0,0,2.2-.4"/><path class="cls-3" d="M32.3,146.3l-8.1-1.8-1.7-3.2a3.9,3.9,0,0,1,2.6-5l1.8-1"/><path class="cls-3" d="M44.5,146.3l8-1.8,1.8-3.2a4.1,4.1,0,0,0-2.7-5.1l-1.8-.9"/><rect class="cls-17" x="25.3" y="132.3" width="5.3" height="7.35" rx="1.1"/><rect class="cls-17" x="46.2" y="132.3" width="5.3" height="7.35" rx="1.1"/><path class="cls-4" d="M46.9,152.8a1,1,0,0,0,1.1.8,1.1,1.1,0,0,0,.9-1.1"/><path class="cls-4" d="M33.2,146.4a1.1,1.1,0,0,1-1.3.9,1.1,1.1,0,0,1-1-1.3"/><path class="cls-4" d="M43.6,146.3a1.1,1.1,0,0,0,1.3,1,1.2,1.2,0,0,0,1-1.3"/><path class="cls-18" d="M33.5,62.3h8.1a0,0,0,0,1,0,0V63A2.1,2.1,0,0,1,39.5,65h-4A2.1,2.1,0,0,1,33.5,63v-.6A0,0,0,0,1,33.5,62.3Z"/><path class="cls-18" d="M39.8,62.7H32.9l1.2-1.1a3.9,3.9,0,0,1,4.6,0Z"/><path class="cls-18" d="M42.1,62.7H35.2l1.2-1.1a4.1,4.1,0,0,1,4.7,0Z"/><polyline class="cls-19" points="42.6 62.4 39.9 62.8 37.5 62.1 35.1 62.8 32.4 62.4"/><polyline class="cls-20" points="181.8 103.8 181.8 132.3 209.2 139.9"/><polyline class="cls-21" points="245.3 169 246.8 161.8 246.8 153.1"/><path class="cls-22" d="M230.7,254.3H218.3l-2.8-62a4,4,0,0,0-2.8-3.7h-.8a3.6,3.6,0,0,0-3.6,3.6l-2.8,62.1H193.1l-2.9-72.6A21.9,21.9,0,0,1,202.8,162v-2h9.1a21.7,21.7,0,0,1,21.6,21.8Z"/><polyline class="cls-23" points="242 100.5 242 128.7 242 155.9"/><polygon class="cls-22" points="233.3 186.3 190.3 186.3 190.3 149.9 233.6 149.9 233.3 186.3"/><path class="cls-24" d="M242.1,114.8V102.9A30.2,30.2,0,0,0,212,72.7h0a30.2,30.2,0,0,0-30.2,30.2v11.9"/><rect class="cls-25" x="202.9" y="51.8" width="17.4" height="22.65" rx="8.7"/><path class="cls-25" d="M194.3,38l-.3-2.1a1.2,1.2,0,0,0-1.4-.9,2.6,2.6,0,0,0-2.1,3l1.3,6.3a3.7,3.7,0,0,0,4.4,3l-.2-2.5"/><path class="cls-25" d="M227.2,44.8v2.5a3.7,3.7,0,0,0,4.4-3l1.2-6.3a2.5,2.5,0,0,0-2-3,1.1,1.1,0,0,0-1.4.9L229,38"/><path class="cls-26" d="M193.6,32.4c0-9.5,8.1-17.3,18-17.3s18,7.8,18,17.3v5.2c0,14.4-8,26-18,26s-18-11.6-18-26Z"/><path class="cls-27" d="M205.6,36.9l-2-.2-2.1.2"/><path class="cls-27" d="M221.7,36.9l-2-.2h0l-2,.2"/><path class="cls-28" d="M205.4,38.2a1.7,1.7,0,0,1-1.7,1.7,1.8,1.8,0,0,1-1.8-1.7,1.8,1.8,0,0,1,1.8-1.8,1.7,1.7,0,0,1,1.7,1.8"/><path class="cls-28" d="M221.3,38.2a1.8,1.8,0,0,1-1.7,1.7,1.8,1.8,0,0,1-1.8-1.7,1.8,1.8,0,0,1,1.8-1.8,1.8,1.8,0,0,1,1.7,1.8"/><path class="cls-29" d="M208.4,46.9l1.5.8a3.1,3.1,0,0,0,1.7.4,3.4,3.4,0,0,0,1.8-.4l1.4-.8"/><path class="cls-30" d="M242.4,168.1l3.6-6.3v-3.2a4.4,4.4,0,0,0-4.4-4.3h0a4.3,4.3,0,0,0-4.3,4.3v5"/><circle class="cls-31" cx="237.2" cy="163.6" r="1.2"/><rect class="cls-5" x="190.3" y="78.1" width="43.3" height="78.39"/><path class="cls-32" d="M218.7,22.7H202.3c-1.1,0-2.2-.2-3,.6l-3,2c-2,2-2.4,5.7-2.4,8.5h0v1.4l-.6-.3-.3-9.1c-.4-3.4-.4-6.7,2-9.1l1.5-1.5c1.9-1.9,3.1-3.3,5.7-4l5.1-1.3h8.9a2.5,2.5,0,0,1,2.5,2.5Z"/><path class="cls-32" d="M218.7,22.7V14.3a2.5,2.5,0,0,1,2.5-2.5h1.5a2.9,2.9,0,0,1,1.8.7l3.8,4.2c2.4,2.4,2,4.2,1.6,7.6l-.3,10.8-.8.2V30.5a6.1,6.1,0,0,0-2-4.6l-2-1.9a4.1,4.1,0,0,0-3-1.2Z"/><path class="cls-33" d="M215.1,20.3a39.9,39.9,0,0,0-12.5,9.5"/><path class="cls-33" d="M211,17.3a39.9,39.9,0,0,0-12.5,9.5"/><path class="cls-33" d="M212.2,14.4a44.8,44.8,0,0,0-23.7,6.3"/><path class="cls-33" d="M213,15.4a84.8,84.8,0,0,0-22.5.3"/><rect class="cls-26" x="235.2" y="155.1" width="1.8" height="3.5"/><rect class="cls-4" x="190.2" y="155" width="43.5" height="4.17"/><rect class="cls-22" x="193.6" y="154.5" width="1.4" height="5.92"/><rect class="cls-22" x="203.9" y="154.5" width="1.4" height="5.92"/><rect class="cls-22" x="217.9" y="154.5" width="1.4" height="5.92"/><rect class="cls-22" x="228.3" y="154.5" width="1.4" height="5.92"/><path class="cls-34" d="M208,154.3h4.9a1.9,1.9,0,0,1,1.9,2v1.8a1.8,1.8,0,0,1-1.9,1.9H208"/><line class="cls-35" x1="211.5" y1="157.2" x2="215.3" y2="157.2"/><path class="cls-5" d="M193.9,255.6H204a2.4,2.4,0,0,1,2.4,2.4v13.3a0,0,0,0,1,0,0H191.5a0,0,0,0,1,0,0V258A2.4,2.4,0,0,1,193.9,255.6Z"/><path class="cls-5" d="M219.4,255.6h9.7a2.6,2.6,0,0,1,2.6,2.6v13.1a0,0,0,0,1,0,0H216.8a0,0,0,0,1,0,0V258.2A2.6,2.6,0,0,1,219.4,255.6Z"/><path class="cls-8" d="M225.6,264.6h.5a9.3,9.3,0,0,1,9.3,9.3v1.3a0,0,0,0,1,0,0H216.3a0,0,0,0,1,0,0v-1.3A9.3,9.3,0,0,1,225.6,264.6Z"/><path class="cls-8" d="M197.6,264.6h.5a9.3,9.3,0,0,1,9.3,9.3v1.3a0,0,0,0,1,0,0H188.3a0,0,0,0,1,0,0v-1.3A9.3,9.3,0,0,1,197.6,264.6Z"/><polyline class="cls-21" points="226.6 146.6 219.3 146.7 210.3 144.3"/><polyline class="cls-20" points="181.8 118.5 181.8 132.3 214.8 140.5"/><path class="cls-30" d="M226.3,143.4l-6.8,2.2-3.2-.6a4.4,4.4,0,0,1-3.3-5.2h0a4.2,4.2,0,0,1,5.1-3.3l4.8,1"/><rect class="cls-8" x="215.2" y="132.7" width="11.2" height="19.34" rx="3.1"/><rect class="cls-22" x="216.3" y="134.7" width="8.9" height="15.35"/><circle class="cls-36" cx="223" cy="137.3" r="1.2"/><line class="cls-30" x1="212.2" y1="135.1" x2="223" y2="137.4"/><circle class="cls-31" cx="223" cy="137.4" r="1.2"/><path class="cls-30" d="M213,139.8a4.2,4.2,0,0,1,5.1-3.3l4.8,1"/><rect class="cls-37" x="217.5" y="252.6" width="14" height="3" rx="1"/><rect class="cls-37" x="192.1" y="252.6" width="14" height="3" rx="1"/><path class="cls-38" d="M214.2,37.6l-1-1a2.4,2.4,0,0,0-1.4-.5h0a2.1,2.1,0,0,0-1.3.5l-1,1"/><g class="cls-39"><path class="cls-40" d="M205,34.1h-3.5a3.5,3.5,0,0,0-3.5,3.4v1.3c0,2.7.7,4.9,3.5,4.9h1c2.9,0,6.9-2.3,6.9-5.3h0A4.4,4.4,0,0,0,205,34.1Z"/><path class="cls-40" d="M218.7,34.1h3.5a3.5,3.5,0,0,1,3.5,3.4v1.3c0,2.7-.8,4.9-3.5,4.9h-1c-3,0-6.9-2.3-6.9-5.3h0A4.4,4.4,0,0,1,218.7,34.1Z"/></g><line class="cls-41" x1="197.9" y1="36.3" x2="192.8" y2="35"/><line class="cls-41" x1="225.5" y1="36.3" x2="230.6" y2="35"/><path class="cls-42" d="M205,34.1h-3.5a3.5,3.5,0,0,0-3.5,3.4v1.3c0,2.7.7,4.9,3.5,4.9h1c2.9,0,6.9-2.3,6.9-5.3h0A4.4,4.4,0,0,0,205,34.1Z"/><path class="cls-42" d="M218.7,34.1h3.5a3.5,3.5,0,0,1,3.5,3.4v1.3c0,2.7-.8,4.9-3.5,4.9h-1c-3,0-6.9-2.3-6.9-5.3h0A4.4,4.4,0,0,1,218.7,34.1Z"/><line class="cls-38" x1="208" y1="34.9" x2="216.1" y2="34.9"/><line class="cls-33" x1="192.3" y1="10.9" x2="216.6" y2="11.5"/><path class="cls-43" d="M214.2,55.2a6.7,6.7,0,0,1-5.2,0c-1-.4-1.9-1-1.9-1.5v-.2h9.2v.2C216.3,54.2,215.3,54.8,214.2,55.2Z"/><path class="cls-43" d="M214.3,53.8h-7.8a11.4,11.4,0,0,1,1.4-1.1,4.9,4.9,0,0,1,5.2,0Z"/><path class="cls-43" d="M216.9,53.8h-7.8a11.4,11.4,0,0,1,1.4-1.1,4.9,4.9,0,0,1,5.2,0Z"/><polyline class="cls-44" points="217.5 53.3 214.4 53.6 211.6 53 208.9 53.6 205.9 53.3"/><path class="cls-45" d="M396,141.6H348.8V268.1H368l2.6-82.6a1.9,1.9,0,0,1,1.8-1.9h.6a2.2,2.2,0,0,1,1.3,1.9l1.3,83.3H396V141.6Z"/><path class="cls-46" d="M400.8,75.1l-56,.2,2.4,81.5a8.8,8.8,0,0,0,8.7,8.6h33a8.8,8.8,0,0,0,8.8-8.5Z"/><path class="cls-47" d="M410.2,100.4v14.8a13.2,13.2,0,0,1-6,11.1L382,141"/><polyline class="cls-48" points="373.1 154.8 365 152.1 359.7 149"/><path class="cls-49" d="M373.9,151.3h-8.3l-2.2-1.3a5.1,5.1,0,0,1-1.8-6.9h0a5,5,0,0,1,6.8-1.8l4,2.4"/><circle class="cls-50" cx="372.6" cy="143.3" r="1.4"/><path class="cls-51" d="M334.9,100.3v16.2a13.5,13.5,0,0,0,5,10.4l20.9,16.9"/><polyline class="cls-48" points="368.6 149.4 376.8 149.3 384.1 146.1"/><path class="cls-49" d="M368.1,145.8l8.2,2.5,2.4-1a5.1,5.1,0,0,0,2.5-6.6h0a5,5,0,0,0-6.6-2.6l-4.2,1.9"/><polygon class="cls-52" points="383.9 149.2 377.2 134.2 382.9 131.6 389.5 146.6 383.9 149.2"/><polygon class="cls-52" points="366.2 137.2 357.9 151.4 352.9 148.4 361.1 134.2 366.2 137.2"/><circle class="cls-50" cx="370.3" cy="139.9" r="1.4"/><circle class="cls-46" cx="363.8" cy="137.8" r="0.7"/><circle class="cls-46" cx="379.4" cy="134.7" r="0.7"/><path class="cls-53" d="M383.8,140.3l20.6-13.9a13.3,13.3,0,0,0,5.9-11.1V102.6a34.2,34.2,0,0,0-34.2-34.2h-8.5a32.4,32.4,0,0,0-32.5,32.5v15.8a13.3,13.3,0,0,0,4.9,10.4l19,15.4"/><polygon class="cls-31" points="365.9 66.6 384.8 66.8 372 129.3 358.6 77.6 365.9 66.6"/><polyline class="cls-54" points="371.6 130 355.6 76.2 358.9 72.9 354.2 70.5 358.2 61.3 362.4 59.1 372.1 114.1 372.1 130"/><polyline class="cls-54" points="371.9 130.1 388.3 76.2 385 72.9 389.7 70.5 385.7 61.3 381.4 59.1 371.8 114.1 372.1 130"/><path class="cls-50" d="M355.2,32.2l-.3-2.1a1.2,1.2,0,0,0-1.5-.9,2.5,2.5,0,0,0-2,3l1.3,6.4a3.7,3.7,0,0,0,4.4,3V39.1"/><path class="cls-50" d="M386.1,39.1l-.2,2.5a3.8,3.8,0,0,0,4.5-3l1.3-6.4a2.6,2.6,0,0,0-2.1-3,1.2,1.2,0,0,0-1.4.9l-.3,2.1"/><rect class="cls-50" x="363.3" y="46.2" width="17.6" height="22.93" rx="8.8"/><path class="cls-55" d="M353.9,26.6a17.7,17.7,0,0,1,35.4,0v5.2c0,14.6-8,26.4-17.7,26.4s-17.7-11.8-17.7-26.4Z"/><path class="cls-56" d="M366,31.5l-2-.2-2.1.2"/><path class="cls-57" d="M365.9,32.8a1.8,1.8,0,0,1-3.6,0,1.8,1.8,0,1,1,3.6,0"/><path class="cls-56" d="M381.2,31.5l-2-.2h0l-2.1.2"/><path class="cls-57" d="M380.8,32.8a1.8,1.8,0,0,1-1.8,1.7,1.8,1.8,0,0,1-1.7-1.7A1.8,1.8,0,0,1,379,31a1.8,1.8,0,0,1,1.8,1.8"/><path class="cls-58" d="M368.1,41.2l1.5.8a4.2,4.2,0,0,0,2,.4,3.8,3.8,0,0,0,1.9-.4l1.6-.8"/><path class="cls-12" d="M385.9,261.6h.6a12,12,0,0,1,12,12v1.7a0,0,0,0,1,0,0H374a0,0,0,0,1,0,0v-1.7A12,12,0,0,1,385.9,261.6Z"/><path class="cls-12" d="M357.9,261.6h.6a12,12,0,0,1,12,12v1.7a0,0,0,0,1,0,0H346a0,0,0,0,1,0,0v-1.7A12,12,0,0,1,357.9,261.6Z"/><path class="cls-59" d="M382.4,46.8a2.9,2.9,0,0,1-3,2.9,2.7,2.7,0,0,1-3-2.6"/><path class="cls-59" d="M360.9,46.8a3,3,0,0,0,6,.1"/><path class="cls-60" d="M366,56.1V50.4c0-3,2.5-5.1,5.6-5.1a5.5,5.5,0,0,1,5.6,5.4v5.2l-1.9.9a8.9,8.9,0,0,1-6.2.5Z"/><path class="cls-61" d="M389.3,28.8v3c0,14.6-8,26.4-17.7,26.4s-17.7-11.8-17.7-26.4V28.3"/><path class="cls-62" d="M351.1,17.4v.5l40.3,14.5,2.5-13a10.7,10.7,0,0,0-1.1-6.8l-2.7-5.3A12.8,12.8,0,0,0,378.7.4H364.9a12.9,12.9,0,0,0-12,7.7l-1.1,2.8A11.2,11.2,0,0,0,351.1,17.4Z"/><path class="cls-63" d="M394.3,17.4V18L351.6,32.8l-3-13.3a13,13,0,0,1,1.1-7l2.6-5.4a12.6,12.6,0,0,1,11.4-7h17.2a12.6,12.6,0,0,1,11.7,7.8l1.1,2.9A12.4,12.4,0,0,1,394.3,17.4Z"/><line class="cls-64" x1="392.7" y1="9.6" x2="350.1" y2="24.3"/><line class="cls-64" x1="388.1" y1="2.8" x2="349.1" y2="16.2"/><line class="cls-64" x1="371" y1="0.5" x2="353.2" y2="6.6"/><line class="cls-65" x1="392.3" y1="25" x2="373.8" y2="20.2"/><path class="cls-66" d="M377.2,50.7l3.1,3.1a.5.5,0,0,1-.4.8h-2.7"/><path class="cls-66" d="M365.8,50.7l-2.7,2.7a.7.7,0,0,0,.5,1.2h2.2"/><polyline class="cls-50" points="368.4 68.4 369.1 76.9 371.8 86.4 376.9 65.3"/><path class="cls-7" d="M375,69.9l5.9-12.4.9,2V62a.4.4,0,0,1-.1.3l-.7,13.6c-.1.5-.6.6-1,.3l-5.5-5.9Z"/><path class="cls-7" d="M369.3,69.7l-6-12.4-.8,2v2.8l.8,13.6a.5.5,0,0,0,.9.3l5.5-5.9Z"/><circle class="cls-67" cx="371.7" cy="133.8" r="1.9"/><path class="cls-68" d="M372.4,78a2.9,2.9,0,0,1,3.8-1.8"/><path class="cls-68" d="M371.6,82.5a3,3,0,0,1,3.8-1.8"/><path class="cls-68" d="M371.7,79.6a2.9,2.9,0,0,0-3.8-1.7"/><path class="cls-69" d="M372.4,91.5a.7.7,0,1,1-.7-.7A.7.7,0,0,1,372.4,91.5Z"/><path class="cls-69" d="M372.4,104a.7.7,0,1,1-.7-.7A.7.7,0,0,1,372.4,104Z"/><path class="cls-50" d="M368.9,49h5.4a0,0,0,0,1,0,0v.1a1.2,1.2,0,0,1-1.2,1.2H370a1.2,1.2,0,0,1-1.2-1.2V49A0,0,0,0,1,368.9,49Z"/><path class="cls-50" d="M373.1,49.2h-4.6l.8-.6a3.4,3.4,0,0,1,3.1,0Z"/><path class="cls-50" d="M374.6,49.2h-4.5a3.2,3.2,0,0,1,3.8-.6Z"/><polyline class="cls-70" points="375.7 49.2 373.4 49.4 371.5 49.1 369.6 49.4 367.5 49.2"/><path class="cls-71" d="M545.7,265.5H575a0,0,0,0,1,0,0v0a9.7,9.7,0,0,1-9.7,9.7H545.7a0,0,0,0,1,0,0v-9.7A0,0,0,0,1,545.7,265.5Z" transform="translate(1120.7 540.8) rotate(180)"/><path class="cls-7" d="M560.1,265.5h29.3a0,0,0,0,1,0,0v0a9.7,9.7,0,0,1-9.7,9.7H560.1a0,0,0,0,1,0,0v-9.7A0,0,0,0,1,560.1,265.5Z" transform="translate(1149.5 540.8) rotate(180)"/><polygon class="cls-6" points="589.4 101.9 552.1 97.3 552 67.3 589.4 67.3 589.4 101.9"/><polyline class="cls-72" points="577.7 145.4 574.7 265.6 561.8 265.6 557.1 170.3 551.3 153.5"/><polyline class="cls-73" points="567.1 161.7 576.5 267.3 589.4 267.3 592.4 147.1"/><path class="cls-74" d="M563.9,74.1h18.2c5.8,0,10.5,4.6,14.5,10.4v33.3L593.4,132l3.2,21.3v-.7a11.7,11.7,0,0,1-11.8,11.7H559.6a8.7,8.7,0,0,1-8.8-8.7l2.5-26.4-2.5-42A13.1,13.1,0,0,1,563.9,74.1Z"/><line class="cls-75" x1="533.5" y1="148.1" x2="552.5" y2="152.6"/><path class="cls-76" d="M547.4,140.7H531.7a12.2,12.2,0,0,0-10.8,6.5l-30.8,78.3a12.1,12.1,0,0,0-1.6,5.9v32.1"/><path class="cls-76" d="M512.2,170.8l62,73.2a12.4,12.4,0,0,1,1.5,6v14.4"/><circle class="cls-77" cx="488.4" cy="264.3" r="9.3"/><line class="cls-78" x1="495" y1="257.7" x2="481.9" y2="270.8"/><line class="cls-78" x1="486" y1="255.3" x2="490.8" y2="273.2"/><line class="cls-78" x1="479.5" y1="261.9" x2="497.4" y2="266.7"/><circle class="cls-77" cx="575.7" cy="264.3" r="9.3"/><line class="cls-78" x1="582.3" y1="257.7" x2="569.2" y2="270.8"/><line class="cls-78" x1="573.3" y1="255.3" x2="578.1" y2="273.2"/><line class="cls-78" x1="566.8" y1="261.9" x2="584.7" y2="266.7"/><path class="cls-26" d="M555.3,137.9l-3.1-2.3-12.4,7.1a1.8,1.8,0,0,0-.6,2.3h0a1.6,1.6,0,0,0,2.3.6Z"/><path class="cls-26" d="M548.9,126.5h3.6a0,0,0,0,1,0,0v19.3a1.8,1.8,0,0,1-1.8,1.8h0a1.8,1.8,0,0,1-1.8-1.8V126.5a0,0,0,0,1,0,0Z" transform="translate(696.2 -411.5) rotate(90.9)"/><path class="cls-26" d="M547.1,133.9h3.3a0,0,0,0,1,0,0v17.4a1.7,1.7,0,0,1-1.7,1.7h0a1.7,1.7,0,0,1-1.7-1.7V133.9A0,0,0,0,1,547.1,133.9Z" transform="translate(407 -405.8) rotate(60.9)"/><path class="cls-26" d="M548.7,136.8h3.3a0,0,0,0,1,0,0v17.4a1.7,1.7,0,0,1-1.7,1.7h0a1.7,1.7,0,0,1-1.7-1.7V136.8A0,0,0,0,1,548.7,136.8Z" transform="translate(410.4 -405.7) rotate(60.9)"/><path class="cls-26" d="M550.4,140.3h3.3a0,0,0,0,1,0,0v16.1a1.7,1.7,0,0,1-1.7,1.7h0a1.7,1.7,0,0,1-1.7-1.7V140.3A0,0,0,0,1,550.4,140.3Z" transform="translate(413.8 -405.7) rotate(60.9)"/><line class="cls-76" x1="488.9" y1="229.4" x2="561.7" y2="229.7"/><rect class="cls-8" x="527.7" y="139.9" width="8" height="12.22" rx="2"/><circle class="cls-79" cx="530" cy="142.2" r="1"/><path class="cls-80" d="M571.7,76h0a29.1,29.1,0,0,1,29.1,29.1v6.3a15.4,15.4,0,0,1-.6,4.3h0a31.9,31.9,0,0,1-27.4,23.9l-17,2.2"/><polyline class="cls-31" points="563.4 80.3 565.4 105.6 577.6 81.8"/><path class="cls-81" d="M568.9,56.1h16.5a17,17,0,0,1,17,17h0a16.7,16.7,0,0,1-16.7,16.7"/><polygon class="cls-6" points="589.4 76.9 552 72.3 551.8 42.3 589.4 42.3 589.4 76.9"/><rect class="cls-25" x="563.3" y="51.6" width="14.9" height="34.93" rx="7.4"/><path class="cls-25" d="M556.8,47.5l-.3-1.9a1.2,1.2,0,0,0-1.4-.9,2.3,2.3,0,0,0-1.9,2.8l1.2,6a3.6,3.6,0,0,0,4.2,2.9l-.2-2.4"/><path class="cls-25" d="M583.3,54l-.2,2.4a3.6,3.6,0,0,0,4.2-2.9l1.2-6a2.4,2.4,0,0,0-1.9-2.8,1.2,1.2,0,0,0-1.4.9l-.3,1.9"/><path class="cls-26" d="M555.5,41.2a15.2,15.2,0,1,1,30.4,0v7.3c0,12.9-6.8,20.8-15.2,20.8s-15.2-7.9-15.2-20.8Z"/><path class="cls-82" d="M566.7,54.7l1.1.6a2.8,2.8,0,0,0,1.3.4,3.3,3.3,0,0,0,1.4-.4l1.1-.6"/><path class="cls-6" d="M569.9,23.1a19.2,19.2,0,0,0-18.2,19.3l.7,5.5,1.1-.6a20.4,20.4,0,0,0,8.9-10.7h0l14.7,6.5,2.2.8,10.1,3V42A18.9,18.9,0,0,0,569.9,23.1Z"/><path class="cls-6" d="M578.2,72.1h11.1a0,0,0,0,1,0,0V87.5a11,11,0,0,1-11,11h-.1a0,0,0,0,1,0,0V72.1A0,0,0,0,1,578.2,72.1Z"/><path class="cls-28" d="M578.2,48.3a1.8,1.8,0,0,1-1.8,1.8,1.8,1.8,0,0,1-1.9-1.8,1.9,1.9,0,1,1,3.7,0"/><path class="cls-83" d="M578.6,47.1l-2.2-.2h0l-2.1.2"/><path class="cls-28" d="M563.5,48.3a1.8,1.8,0,0,1-1.8,1.8,1.9,1.9,0,0,1-1.9-1.8,2,2,0,0,1,1.9-1.9,1.9,1.9,0,0,1,1.8,1.9"/><path class="cls-83" d="M563.8,47.1l-2.2-.2h0l-2.1.2"/><line class="cls-84" x1="576.4" y1="87.7" x2="576.4" y2="101.8"/><line class="cls-84" x1="560.6" y1="76.5" x2="560.6" y2="90.7"/><path class="cls-43" d="M571.6,61.4a10.4,10.4,0,0,1-4.3,0c-1.2-.3-2.3-.7-2.3-1.2V60h8.9v.2C573.9,60.7,572.7,61.1,571.6,61.4Z"/><path class="cls-43" d="M571.6,60.3h-6.5l1.1-.9a4.3,4.3,0,0,1,4.4,0Z"/><path class="cls-43" d="M573.8,60.3h-6.5l1.1-.9a4.3,4.3,0,0,1,4.4,0Z"/><polyline class="cls-44" points="574.3 59.9 571.7 60.3 569.4 59.5 567.1 60.3 564.6 59.9"/><path class="cls-85" d="M36.5,337h0a7.5,7.5,0,0,1,7.5,7.5v4.8a0,0,0,0,1,0,0H28.9a0,0,0,0,1,0,0v-4.8A7.5,7.5,0,0,1,36.5,337Z"/><polyline class="cls-86" points="5.7 485.5 3.7 479.3 3.7 476.3"/><path class="cls-87" d="M8.4,484.7l-3.8-5.4v-3a4,4,0,0,1,4-4h0a4,4,0,0,1,4.1,4V481"/><polyline class="cls-88" points="8.2 420.1 8.2 431.6 8.2 473.6"/><circle class="cls-89" cx="12.7" cy="480.8" r="1.1"/><path class="cls-89" d="M8.9,485.4a1,1,0,0,1-1.5-.3,1.1,1.1,0,0,1,.3-1.6"/><path class="cls-89" d="M6.3,486.2a1.1,1.1,0,0,1-1.6-.3,1.2,1.2,0,0,1,.3-1.6"/><rect class="cls-90" x="2.2" y="472.7" width="2.3" height="3.63"/><rect class="cls-90" x="11.9" y="472.3" width="2.3" height="3.75"/><path class="cls-5" d="M43.8,456.8H69.3a5.4,5.4,0,0,1,5.4,5.4v15.5a5.4,5.4,0,0,1-5.4,5.4H43.8"/><path class="cls-90" d="M60.6,469.7h3a0,0,0,0,1,0,0v14.4a1.5,1.5,0,0,1-1.5,1.5h0a1.5,1.5,0,0,1-1.5-1.5V469.7A0,0,0,0,1,60.6,469.7Z"/><path class="cls-90" d="M59.2,463.3h3.3a0,0,0,0,1,0,0v15.9a3.3,3.3,0,0,1-3.3,3.3h0a0,0,0,0,1,0,0V463.3A0,0,0,0,1,59.2,463.3Z" transform="translate(244.6 32.9) rotate(30)"/><path class="cls-90" d="M63.6,468.6h3a0,0,0,0,1,0,0v15.9a1.5,1.5,0,0,1-1.5,1.5h0a1.5,1.5,0,0,1-1.5-1.5V468.6a0,0,0,0,1,0,0Z"/><path class="cls-90" d="M66.6,468.6h3a0,0,0,0,1,0,0v15.9a1.5,1.5,0,0,1-1.5,1.5h0a1.5,1.5,0,0,1-1.5-1.5V468.6A0,0,0,0,1,66.6,468.6Z"/><path class="cls-90" d="M69.7,469.1h3a0,0,0,0,1,0,0v14.7a1.5,1.5,0,0,1-1.5,1.5h0a1.5,1.5,0,0,1-1.5-1.5V469.1A0,0,0,0,1,69.7,469.1Z"/><path class="cls-8" d="M37,438.5h0a21.9,21.9,0,0,1,21.9,21.9v10.9a14.1,14.1,0,0,1-14.1,14.1H29.3a14.1,14.1,0,0,1-14.1-14.1V460.3A21.9,21.9,0,0,1,37,438.5Z"/><path class="cls-8" d="M73.3,470.4h-14V425.6a22.3,22.3,0,0,0-44.5,0v44.8H.8V425.6a36.3,36.3,0,0,1,72.5,0Z"/><polyline class="cls-8" points="58 396.1 58 459.7 16 459.7 16 396.1"/><polyline class="cls-91" points="30.7 460.6 17.8 407.3 23.1 404 15.5 401.6 22 392.4 28.9 390.2 30.7 444.7 30.7 460.6"/><polyline class="cls-91" points="43.2 460.7 56.1 407.5 50.8 404.2 58.4 401.7 51.9 392.6 45 390.4 43.2 444.9 43.2 460.7"/><polyline class="cls-5" points="20.7 494.7 23.9 559 34.6 559 33.7 476.7"/><polyline class="cls-5" points="53.6 491.7 50.7 559 39.9 559 39.5 485.9"/><path class="cls-8" d="M19.4,558.7l14-2.9a1,1,0,0,1,1.3,1V561l-14.3,7.8H11.1C9.4,563.7,14.3,560.3,19.4,558.7Z"/><polyline class="cls-8" points="34.7 561 33.7 568.3 31.7 568.3 30.4 559.8"/><path class="cls-8" d="M55.1,558.7l-14-2.9a1,1,0,0,0-1.3,1V561l14.3,7.8h9.3C65.1,563.7,60.2,560.3,55.1,558.7Z"/><polyline class="cls-8" points="39.8 561 40.8 568.3 42.8 568.3 44.1 559.8"/><polygon class="cls-92" points="36.4 554.1 37 474 16.7 473.4 18.2 554.1 36.4 554.1"/><polygon class="cls-92" points="37.7 554.1 37.3 474 57.4 473.4 55.4 554.1 37.7 554.1"/><g class="cls-93"><line class="cls-94" x1="3.1" y1="386.5" x2="3.1" y2="387.5"/><line class="cls-95" x1="3.1" y1="388.5" x2="3.1" y2="561.7"/><line class="cls-94" x1="3.1" y1="562.2" x2="3.1" y2="563.2"/><line class="cls-94" x1="5.7" y1="386.5" x2="5.7" y2="387.5"/><line class="cls-95" x1="5.7" y1="388.5" x2="5.7" y2="561.7"/><line class="cls-94" x1="5.7" y1="562.2" x2="5.7" y2="563.2"/><line class="cls-94" x1="8.4" y1="386.5" x2="8.4" y2="387.5"/><line class="cls-95" x1="8.4" y1="388.5" x2="8.4" y2="561.7"/><line class="cls-94" x1="8.4" y1="562.2" x2="8.4" y2="563.2"/><line class="cls-94" x1="11.1" y1="386.5" x2="11.1" y2="387.5"/><line class="cls-95" x1="11.1" y1="388.5" x2="11.1" y2="561.7"/><line class="cls-94" x1="11.1" y1="562.2" x2="11.1" y2="563.2"/><line class="cls-94" x1="13.7" y1="386.5" x2="13.7" y2="387.5"/><line class="cls-95" x1="13.7" y1="388.5" x2="13.7" y2="561.7"/><line class="cls-94" x1="13.7" y1="562.2" x2="13.7" y2="563.2"/><line class="cls-94" x1="16.4" y1="386.5" x2="16.4" y2="387.5"/><line class="cls-95" x1="16.4" y1="388.5" x2="16.4" y2="561.7"/><line class="cls-94" x1="16.4" y1="562.2" x2="16.4" y2="563.2"/><line class="cls-94" x1="19.1" y1="386.5" x2="19.1" y2="387.5"/><line class="cls-95" x1="19.1" y1="388.5" x2="19.1" y2="561.7"/><line class="cls-94" x1="19.1" y1="562.2" x2="19.1" y2="563.2"/><line class="cls-94" x1="21.7" y1="386.5" x2="21.7" y2="387.5"/><line class="cls-95" x1="21.7" y1="388.5" x2="21.7" y2="561.7"/><line class="cls-94" x1="21.7" y1="562.2" x2="21.7" y2="563.2"/><line class="cls-94" x1="24.4" y1="386.5" x2="24.4" y2="387.5"/><line class="cls-95" x1="24.4" y1="388.5" x2="24.4" y2="561.7"/><line class="cls-94" x1="24.4" y1="562.2" x2="24.4" y2="563.2"/><line class="cls-94" x1="27.1" y1="386.5" x2="27.1" y2="387.5"/><line class="cls-95" x1="27.1" y1="388.5" x2="27.1" y2="561.7"/><line class="cls-94" x1="27.1" y1="562.2" x2="27.1" y2="563.2"/><line class="cls-94" x1="29.7" y1="386.5" x2="29.7" y2="387.5"/><line class="cls-95" x1="29.7" y1="388.5" x2="29.7" y2="561.7"/><line class="cls-94" x1="29.7" y1="562.2" x2="29.7" y2="563.2"/><line class="cls-94" x1="32.4" y1="386.5" x2="32.4" y2="387.5"/><line class="cls-95" x1="32.4" y1="388.5" x2="32.4" y2="561.7"/><line class="cls-94" x1="32.4" y1="562.2" x2="32.4" y2="563.2"/><line class="cls-94" x1="35.1" y1="386.5" x2="35.1" y2="387.5"/><line class="cls-95" x1="35.1" y1="388.5" x2="35.1" y2="561.7"/><line class="cls-94" x1="35.1" y1="562.2" x2="35.1" y2="563.2"/><line class="cls-94" x1="37.7" y1="386.5" x2="37.7" y2="387.5"/><line class="cls-95" x1="37.7" y1="388.5" x2="37.7" y2="561.7"/><line class="cls-94" x1="37.7" y1="562.2" x2="37.7" y2="563.2"/><line class="cls-94" x1="40.4" y1="386.5" x2="40.4" y2="387.5"/><line class="cls-95" x1="40.4" y1="388.5" x2="40.4" y2="561.7"/><line class="cls-94" x1="40.4" y1="562.2" x2="40.4" y2="563.2"/><line class="cls-94" x1="43.1" y1="386.5" x2="43.1" y2="387.5"/><line class="cls-95" x1="43.1" y1="388.5" x2="43.1" y2="561.7"/><line class="cls-94" x1="43.1" y1="562.2" x2="43.1" y2="563.2"/><line class="cls-94" x1="45.7" y1="386.5" x2="45.7" y2="387.5"/><line class="cls-95" x1="45.7" y1="388.5" x2="45.7" y2="561.7"/><line class="cls-94" x1="45.7" y1="562.2" x2="45.7" y2="563.2"/><line class="cls-94" x1="48.4" y1="386.5" x2="48.4" y2="387.5"/><line class="cls-95" x1="48.4" y1="388.5" x2="48.4" y2="561.7"/><line class="cls-94" x1="48.4" y1="562.2" x2="48.4" y2="563.2"/><line class="cls-94" x1="51.1" y1="386.5" x2="51.1" y2="387.5"/><line class="cls-95" x1="51.1" y1="388.5" x2="51.1" y2="561.7"/><line class="cls-94" x1="51.1" y1="562.2" x2="51.1" y2="563.2"/><line class="cls-94" x1="53.7" y1="386.5" x2="53.7" y2="387.5"/><line class="cls-95" x1="53.7" y1="388.5" x2="53.7" y2="561.7"/><line class="cls-94" x1="53.7" y1="562.2" x2="53.7" y2="563.2"/><line class="cls-94" x1="56.4" y1="386.5" x2="56.4" y2="387.5"/><line class="cls-95" x1="56.4" y1="388.5" x2="56.4" y2="561.7"/><line class="cls-94" x1="56.4" y1="562.2" x2="56.4" y2="563.2"/><line class="cls-94" x1="59.1" y1="386.5" x2="59.1" y2="387.5"/><line class="cls-95" x1="59.1" y1="388.5" x2="59.1" y2="561.7"/><line class="cls-94" x1="59.1" y1="562.2" x2="59.1" y2="563.2"/><line class="cls-94" x1="61.7" y1="386.5" x2="61.7" y2="387.5"/><line class="cls-95" x1="61.7" y1="388.5" x2="61.7" y2="561.7"/><line class="cls-94" x1="61.7" y1="562.2" x2="61.7" y2="563.2"/><line class="cls-94" x1="64.4" y1="386.5" x2="64.4" y2="387.5"/><line class="cls-95" x1="64.4" y1="388.5" x2="64.4" y2="561.7"/><line class="cls-94" x1="64.4" y1="562.2" x2="64.4" y2="563.2"/><line class="cls-94" x1="67.1" y1="386.5" x2="67.1" y2="387.5"/><line class="cls-95" x1="67.1" y1="388.5" x2="67.1" y2="561.7"/><line class="cls-94" x1="67.1" y1="562.2" x2="67.1" y2="563.2"/><line class="cls-94" x1="69.7" y1="386.5" x2="69.7" y2="387.5"/><line class="cls-95" x1="69.7" y1="388.5" x2="69.7" y2="561.7"/><line class="cls-94" x1="69.7" y1="562.2" x2="69.7" y2="563.2"/><line class="cls-94" x1="72.4" y1="386.5" x2="72.4" y2="387.5"/><line class="cls-95" x1="72.4" y1="388.5" x2="72.4" y2="561.7"/><line class="cls-94" x1="72.4" y1="562.2" x2="72.4" y2="563.2"/></g><polyline class="cls-31" points="44.8 396.1 43.3 460.4 30.7 460.2 26.8 396.1"/><path class="cls-5" d="M59.3,456.8H43.8a5.4,5.4,0,0,0-5.4,5.4v15.5a5.4,5.4,0,0,0,5.4,5.4H59.1"/><path class="cls-90" d="M47.8,395.2V398c0,6.3-11.3,17-11.3,17S25,404.3,25,398v-2.8a5.6,5.6,0,0,1,5.7-5.7H42.1A5.7,5.7,0,0,1,47.8,395.2Z"/><rect class="cls-96" x="28.9" y="379.4" width="15.3" height="21.44" rx="7.6"/><path class="cls-31" d="M46.3,403l-2.1-13.9,1.8,1.6,1.5,2.2s7.8,10.6,7.4,10.5l-8.6-.4Z"/><polyline class="cls-97" points="46.3 403 42.5 409.5 44.2 389.1"/><path class="cls-31" d="M26.6,403l2.1-13.9-1.8,1.6-1.5,2.2s-7.8,10.6-7.4,10.5l8.6-.4Z"/><polyline class="cls-97" points="26.6 403 30.5 409.5 28.7 389.1"/><path class="cls-96" d="M21.9,367.8l-.3-2a1.2,1.2,0,0,0-1.4-1,2.5,2.5,0,0,0-2,3l1.2,6.3a3.7,3.7,0,0,0,4.4,3l-.2-2.5"/><path class="cls-96" d="M49.6,375.4l-.2,2.4a3.7,3.7,0,0,0,4.4-2.8l1.2-6a2.4,2.4,0,0,0-2-2.8,1.3,1.3,0,0,0-1.4.9l-.3,1.9"/><path class="cls-90" d="M20.6,363.2a15.9,15.9,0,0,1,31.8,0v8.2c0,12.9-7.2,19.7-15.9,19.7s-15.9-6.8-15.9-19.7Z"/><path class="cls-98" d="M33.9,376.5l1.1.9a2.7,2.7,0,0,0,1.5.5,2.5,2.5,0,0,0,1.5-.5l1.2-.9"/><path class="cls-79" d="M20.4,367.1a1.3,1.3,0,0,0,1.8-1.2h0c0-6.1,5.3-11,11.7-11h5.3c6.4,0,11.6,4.9,11.6,11h0a1.3,1.3,0,0,0,1.7,1.2l1.5-.5v-5.5c0-9.1-7.8-16.5-17.3-16.5h0c-9.6,0-17.4,7.4-17.4,16.5l-.4,5.3Z"/><polyline class="cls-90" points="30.8 357.2 32.5 351.5 37 356"/><line class="cls-99" x1="46.6" y1="368.3" x2="50.1" y2="368.3"/><line class="cls-99" x1="41.6" y1="379.2" x2="44" y2="381.6"/><line class="cls-99" x1="31.8" y1="379.2" x2="29.4" y2="381.6"/><line class="cls-99" x1="46.4" y1="366.4" x2="49.4" y2="364.8"/><line class="cls-99" x1="26.2" y1="368.3" x2="22.8" y2="368.3"/><line class="cls-99" x1="26.5" y1="366.5" x2="23.4" y2="364.9"/><path class="cls-90" d="M62.3,473.4l-2.7-1.6-4,7a1.7,1.7,0,0,0,.7,2.4h0a1.8,1.8,0,0,0,2.4-.8Z"/><circle class="cls-89" cx="57.1" cy="479.4" r="1.1"/><path class="cls-100" d="M38.4,367.1l-.9-.8a1.8,1.8,0,0,0-1-.4h0a2.1,2.1,0,0,0-1.1.4l-.8.8"/><path class="cls-100" d="M43.7,364.3H41.1a2.7,2.7,0,0,0-2.6,2.8v1a4,4,0,0,0,3.8,4.1H43a4.2,4.2,0,0,0,4-4.4h0A3.4,3.4,0,0,0,43.7,364.3Z"/><path class="cls-100" d="M29.2,364.3h2.6a2.6,2.6,0,0,1,2.6,2.8v1a4,4,0,0,1-3.7,4.1h-.8a4.2,4.2,0,0,1-4-4.4h0A3.4,3.4,0,0,1,29.2,364.3Z"/><path class="cls-101" d="M41.3,368.3a1.5,1.5,0,0,0,3,0,1.5,1.5,0,0,0-3,0"/><path class="cls-102" d="M32.9,368.2h0a3.5,3.5,0,0,0-2.6-.9h-.9a4.9,4.9,0,0,0-1.6.5l-.5.4"/><path class="cls-102" d="M40,368.2h0a3.2,3.2,0,0,1,2.6-1h.9a4.3,4.3,0,0,1,1.6.5l.5.4"/><path class="cls-101" d="M31.7,368.3a1.5,1.5,0,0,1-1.6,1.5,1.5,1.5,0,0,1-1.5-1.5,1.5,1.5,0,0,1,1.5-1.5,1.6,1.6,0,0,1,1.6,1.5"/><path class="cls-101" d="M34,381.3h5.4a0,0,0,0,1,0,0v.1a1.1,1.1,0,0,1-1.1,1.1H35.2a1.1,1.1,0,0,1-1.1-1.1v-.1A0,0,0,0,1,34,381.3Z"/><path class="cls-101" d="M38.2,381.5H33.7l.8-.6a3.2,3.2,0,0,1,3,0Z"/><path class="cls-101" d="M39.8,381.5H35.2l.8-.6a3.4,3.4,0,0,1,3.1,0Z"/><polyline class="cls-102" points="32.7 381.5 34.9 381.4 36.8 381.7 38.7 381.4 40.8 381.5"/><rect class="cls-90" x="61.3" y="470.4" width="10.6" height="12.23"/><polyline class="cls-21" points="180.4 458.8 178.8 451.7 178.8 442.9"/><polyline class="cls-23" points="183.6 390.3 183.6 418.6 183.6 445.7"/><path class="cls-30" d="M183.4,457.9l-3.6-6.2v-3.2a4.4,4.4,0,0,1,4.3-4.4h0a4.4,4.4,0,0,1,4.4,4.4v4.9"/><circle class="cls-31" cx="188.5" cy="453.4" r="1.2"/><rect class="cls-26" x="188.7" y="444.9" width="1.8" height="3.5" transform="translate(379.2 893.3) rotate(180)"/><polyline class="cls-103" points="187.1 494.5 190.3 561.3 201.1 561.3 203.5 475.3"/><polyline class="cls-103" points="228 492 225.1 561.8 214.4 561.8 211.9 475.8"/><path class="cls-5" d="M229.4,452.9l.2-29.6H186.3v36h.1l2.7,90.6h12.4l2.8-84.2a3.6,3.6,0,0,1,3.6-3.6h.8a3.8,3.8,0,0,1,2.8,3.6l2.8,84.3h12.4l2.6-88.6h0v-.6l.2-5.6A16.9,16.9,0,0,0,229.4,452.9Z"/><rect class="cls-104" x="189.1" y="321.9" width="40.7" height="45.84"/><rect class="cls-5" x="186.4" y="365.9" width="42.8" height="79.81"/><path class="cls-105" d="M236.3,375l10.2,20.9a18.9,18.9,0,0,1,.9,14.4l-9.7,28.8"/><line class="cls-106" x1="229.4" y1="450.4" x2="240.9" y2="442.9"/><line class="cls-106" x1="223.7" y1="450.5" x2="238" y2="442.9"/><path class="cls-4" d="M225.3,450.1a1.4,1.4,0,0,0-1.8-.7,1.4,1.4,0,0,0-.7,1.9"/><line class="cls-106" x1="220.9" y1="447.7" x2="236.3" y2="440.1"/><path class="cls-4" d="M222.1,447.2a1.4,1.4,0,1,0-2.6,1"/><line class="cls-106" x1="219.3" y1="443.9" x2="234.5" y2="437.3"/><path class="cls-4" d="M231,450.5a1.3,1.3,0,0,0-1.7-.5,1.2,1.2,0,0,0-.5,1.6"/><path class="cls-4" d="M220.5,443.5a1.2,1.2,0,0,0-1.7-.9,1.3,1.3,0,0,0-.9,1.8"/><path class="cls-4" d="M182.9,459.4a1.4,1.4,0,0,0,.6-1.9,1.4,1.4,0,0,0-1.9-.5"/><path class="cls-4" d="M179,460.6a1.4,1.4,0,0,0,1.1-1.6,1.4,1.4,0,0,0-1.7-1.1"/><path class="cls-107" d="M246.4,439.6l-15.2-4.8,8.4-26.9a11,11,0,0,0-.4-7.6c-5.8-13.8-8.8-20.3-9.7-21.6a21,21,0,0,0-17.9-9.8,21.2,21.2,0,0,0-21.2,21.2v44.8h-16V390.1A37.3,37.3,0,0,1,243,370c.6,1,2.6,4.2,11,24.2a26.8,26.8,0,0,1,.9,18.5Z"/><path class="cls-26" d="M211.2,352.7c-7.3,0-13.5,1.1-19.9,6.1v6c0,.3.1.6.1.9A17.6,17.6,0,0,0,209,382.5h0a17.4,17.4,0,0,0,17.6-16.8v-9.6A36.2,36.2,0,0,0,211.2,352.7Z"/><rect class="cls-25" x="200.1" y="341.6" width="18.5" height="24.08" rx="9.2"/><path class="cls-25" d="M190.9,326.8l-.3-2.1a1.2,1.2,0,0,0-1.5-1,2.6,2.6,0,0,0-2.2,3.1l1.3,6.8a4.1,4.1,0,0,0,4.7,3.2v-2.7"/><path class="cls-25" d="M225.9,334.1l-.2,2.7a4,4,0,0,0,4.7-3.2l1.3-6.8a2.6,2.6,0,0,0-2.1-3.1,1.2,1.2,0,0,0-1.5,1l-.3,2.1"/><path class="cls-26" d="M189.1,320.9c0-10.1,8.9-18.4,20-18.4s20,8.3,20,18.4v5.6c0,15.2-9,27.6-20,27.6s-20-12.4-20-27.6Z"/><path class="cls-108" d="M205.8,338.2l1.5.9a4.3,4.3,0,0,0,3.6,0l1.4-.9"/><path class="cls-104" d="M209.4,300.6h0a20.5,20.5,0,0,1,20.5,20.5v1.7a0,0,0,0,1,0,0H189a0,0,0,0,1,0,0v-1.7A20.5,20.5,0,0,1,209.4,300.6Z"/><polyline class="cls-26" points="202.5 323.4 203.9 319.4 205.7 323.8"/><path class="cls-107" d="M186.2,446.1l5.3-.2,5-90.4-.7.4a73.8,73.8,0,0,0-8.8,6.2v.9Z"/><path class="cls-85" d="M187.7,322.6h.4a3.7,3.7,0,0,1,3.7,3.7v10.5a3.7,3.7,0,0,1-3.7,3.7h-.4a8,8,0,0,1-8-8v-2.1a8,8,0,0,1,8-8Z" transform="translate(-16 9.5) rotate(-2.8)"/><path class="cls-79" d="M191.9,331.3l.3,5.3a3.7,3.7,0,0,1-3.6,3.9h-.4a7.9,7.9,0,0,1-8.4-7.5"/><rect class="cls-5" x="188.1" y="321.1" width="5.2" height="20.5" rx="2.6" transform="translate(-16 9.7) rotate(-2.8)"/><path class="cls-85" d="M234.7,322.6h.4a3.7,3.7,0,0,1,3.7,3.7v10.5a3.7,3.7,0,0,1-3.7,3.7h-.4a8,8,0,0,1-8-8v-2.1a8,8,0,0,1,8-8Z" transform="translate(448.6 674.6) rotate(-177.1)"/><path class="cls-79" d="M226.7,331.3l-.2,5.3a3.6,3.6,0,0,0,3.5,3.9h.4a7.9,7.9,0,0,0,8.4-7.5"/><rect class="cls-5" x="225.3" y="321.1" width="5.3" height="20.5" rx="2.6" transform="translate(438.9 673.8) rotate(-177.1)"/><path class="cls-109" d="M233.8,328.2V317.8c0-9.4-9.4-17.1-21-17.1h-7.1c-11.6,0-20.9,7.7-20.9,17.1v10.4"/><path class="cls-110" d="M228.6,306.5a23,23,0,0,0-15.8-5.8h-7.1a23.2,23.2,0,0,0-14.7,4.9"/><path class="cls-36" d="M231.8,560.4l-17.4-3.6V563l16.3,8.9h10.5C243.1,566.2,237.6,562.3,231.8,560.4Z"/><polyline class="cls-36" points="214.4 563 215.5 571.4 217.8 571.4 219.3 561.7"/><path class="cls-36" d="M183.9,560.4l17.4-3.6V563L185,571.9H174.5C172.6,566.2,178.1,562.3,183.9,560.4Z"/><polyline class="cls-36" points="201.3 563 200.2 571.4 197.9 571.4 196.4 561.7"/><polygon class="cls-36" points="230.4 540 226.9 559.8 214.4 559.8 212.3 539.6 230.4 540"/><polygon class="cls-36" points="185.1 540 188.6 559.8 201.1 559.8 203.2 539.6 185.1 540"/><path class="cls-111" d="M196.9,355.3l9.9,17.1h4.9l10.8-17.1"/><circle class="cls-112" cx="207.5" cy="372.4" r="1"/><circle class="cls-112" cx="209.4" cy="372.4" r="1"/><circle class="cls-112" cx="211.3" cy="372.4" r="1"/><path class="cls-107" d="M232.3,436.4l-8.3,3.4-5.1-86.2,1.3.3c3.6.9,7.2,1.9,9.1,3.7l6.7,14.9Z"/><circle class="cls-16" cx="198.2" cy="336.7" r="2.8"/><circle class="cls-16" cx="220.4" cy="336.7" r="2.8"/><path class="cls-28" d="M214.8,328.4a1.8,1.8,0,0,0,1.8,1.9,1.9,1.9,0,1,0,0-3.7,1.8,1.8,0,0,0-1.8,1.8"/><path class="cls-113" d="M213.8,328.1a2.9,2.9,0,0,1,2.5-1.1h1.2a3.6,3.6,0,0,1,2,.6l.6.4"/><path class="cls-113" d="M204.4,327.7a4.4,4.4,0,0,0-2.6-.7h-1.1a3.6,3.6,0,0,0-2,.6l-.6.4"/><path class="cls-28" d="M203.5,328.4a1.9,1.9,0,0,1-1.9,1.9,1.8,1.8,0,0,1-1.8-1.9,1.8,1.8,0,0,1,1.8-1.8,1.9,1.9,0,0,1,1.9,1.8"/><path class="cls-114" d="M213.3,345.7a6.2,6.2,0,0,1-7.3,0c-.5-.4-.9-.8-.9-1.1v-.2h9v.2C214.1,344.9,213.8,345.3,213.3,345.7Z"/><path class="cls-114" d="M211.8,344.4h-6.5a11.1,11.1,0,0,1,1.1-1.1,3.6,3.6,0,0,1,4.4,0Z"/><path class="cls-114" d="M214,344.4h-6.5l1.1-1.1a3.6,3.6,0,0,1,4.4,0Z"/><path class="cls-115" d="M204.7,344l2.1.7h4.6a2.5,2.5,0,0,0,1.2-.2l2-.6"/><polyline class="cls-26" points="363.9 495 367.1 561.8 377.9 561.8 377 477"/><polyline class="cls-26" points="396.8 492 393.9 561.8 383.2 561.8 382.8 486.3"/><path class="cls-73" d="M379.9,428.4h0a21.5,21.5,0,0,1,21.5,21.5v45.9a0,0,0,0,1,0,0H358.5a0,0,0,0,1,0,0V449.9A21.5,21.5,0,0,1,379.9,428.4Z"/><path class="cls-7" d="M388.2,460.9l-29.7,4.5v-82h43.2v61.8A15.9,15.9,0,0,1,388.2,460.9Z"/><polygon class="cls-46" points="371.3 384.3 370 416.8 371 434.7 355.5 431.2 360.1 389.3 371.3 384.3"/><polygon class="cls-46" points="386.5 383.2 388.3 415.7 390.1 425.9 401.3 424.5 396.5 388.2 386.5 383.2"/><polyline class="cls-116" points="373.3 420.5 377 426.2 379.9 427"/><path class="cls-89" d="M373.1,419.5a1.1,1.1,0,1,0,.6,2.2"/><path class="cls-116" d="M375.8,419l1.4,6.4,2.9.7a4.1,4.1,0,0,0,5-2.9h0a4,4,0,0,0-3-4.9l-4.5-1.2"/><polyline class="cls-117" points="408.3 413.5 408.3 427.9 383.6 423.3"/><circle class="cls-89" cx="377.8" cy="417.1" r="1.1"/><path class="cls-89" d="M375.6,418a1.1,1.1,0,1,0,.6,2.2"/><rect class="cls-26" x="380.4" y="426" width="2.3" height="3.62" transform="translate(-127.9 690.7) rotate(-75.6)"/><rect class="cls-26" x="383.2" y="416.6" width="2.3" height="3.75" transform="translate(-116.7 686.4) rotate(-75.6)"/><path class="cls-26" d="M336.5,419.4l1.6-2.7L322,407.2a1.5,1.5,0,0,0-2,.6h-.1a1.4,1.4,0,0,0,.6,2Z"/><path class="cls-26" d="M334.5,421.7,336,419l-17.5-10.3a1.6,1.6,0,0,0-2.1.5h0a1.6,1.6,0,0,0,.5,2.1Z"/><path class="cls-26" d="M332.9,424.4l1.6-2.7-17.6-10.3a1.5,1.5,0,0,0-2,.5h-.1a1.6,1.6,0,0,0,.5,2.1Z"/><path class="cls-26" d="M332.1,427.1l1.6-2.7-16.4-9.6a1.5,1.5,0,0,0-2,.5h-.1a1.6,1.6,0,0,0,.5,2.1Z"/><path class="cls-26" d="M334.6,419.8l3.1-1.9L330.5,407c-.9-1.4-2.4-2-3.3-1.3h0c-.8.7-.8,2.3.1,3.6Z"/><polyline class="cls-117" points="350.4 398.4 350.4 431.8 331.6 419.6"/><path class="cls-8" d="M362.5,561.5l15.3-3.1v5.4l-14.3,7.9h-9.3C352.6,566.6,357.4,563.2,362.5,561.5Z"/><polyline class="cls-8" points="377.8 563.8 376.8 571.2 374.8 571.2 373.5 562.7"/><path class="cls-8" d="M398.5,561.5l-15.3-3.1v5.4l14.3,7.9h9.3C408.5,566.6,403.7,563.2,398.5,561.5Z"/><polyline class="cls-8" points="383.2 563.8 384.2 571.2 386.2 571.2 387.5 562.7"/><path class="cls-118" d="M408.3,417.4V407.2A29.3,29.3,0,0,0,379,377.9h0a29.3,29.3,0,0,0-29.2,29.3l.7,26.6-10.2-7.9"/><rect class="cls-26" x="371.1" y="367.3" width="15.5" height="25.91" rx="7.8"/><path class="cls-119" d="M400.7,419.2l.5-4.3,16-5.7-2,10.9a1.5,1.5,0,0,1-1.4,1.1l-11.8-.5A1.4,1.4,0,0,1,400.7,419.2Z"/><rect class="cls-25" x="371.4" y="359.6" width="15.3" height="21.44" rx="7.6"/><path class="cls-25" d="M364.4,345.7l-.3-2.1a1.2,1.2,0,0,0-1.4-.9,2.4,2.4,0,0,0-2,2.9l1.2,6.4a3.8,3.8,0,0,0,4.4,2.9l-.2-2.5"/><path class="cls-25" d="M392.2,352.4l-.2,2.5a3.8,3.8,0,0,0,4.4-2.9l1.2-6.4a2.4,2.4,0,0,0-2-2.9,1.2,1.2,0,0,0-1.4.9l-.3,2.1"/><path class="cls-26" d="M363.1,339.5a15.9,15.9,0,1,1,31.8,0v4.9c0,13.5-7.1,24.5-15.9,24.5s-15.9-11-15.9-24.5Z"/><path class="cls-83" d="M369,343.3a11.5,11.5,0,0,1,2.6-.3h0a11.5,11.5,0,0,1,2.6.3"/><path class="cls-28" d="M370.1,344.3a1.6,1.6,0,0,0,1.6,1.6,1.7,1.7,0,0,0,1.7-1.6,1.8,1.8,0,0,0-1.7-1.7,1.7,1.7,0,0,0-1.6,1.7"/><path class="cls-83" d="M389,343.3a10.9,10.9,0,0,0-2.6-.3h0a10.7,10.7,0,0,0-2.5.3"/><path class="cls-28" d="M384.7,344.3a1.7,1.7,0,0,0,1.7,1.6,1.6,1.6,0,0,0,1.6-1.6,1.7,1.7,0,0,0-1.6-1.7,1.8,1.8,0,0,0-1.7,1.7"/><path class="cls-120" d="M376,353.4l1.3.9a3.8,3.8,0,0,0,3.4,0l1.3-.9"/><line class="cls-121" x1="379" y1="390.3" x2="370.6" y2="377.9"/><line class="cls-121" x1="379.2" y1="390.3" x2="387.6" y2="377.9"/><polygon class="cls-45" points="386.7 382.4 389 379.6 394.3 387.1 392.2 373.4 386.5 369.9 386.7 382.4"/><polygon class="cls-45" points="371 382.4 369 379.6 363.6 387.1 365.8 373.4 371.4 369.9 371 382.4"/><path class="cls-122" d="M385.7,331.4H370.8c-1,0-1.9-.2-2.7.5l-2.7,1.8c-1.8,1.9-2.2,5.2-2.2,7.8h0v1.3l-.5-.3-.3-8.3c-.4-3.1-.4-6,1.8-8.2l1.3-1.4c1.8-1.7,2.8-3,5.2-3.6l4.6-1.2h8.1a2.3,2.3,0,0,1,2.3,2.3Z"/><path class="cls-122" d="M385.7,331.4v-7.6a2.3,2.3,0,0,1,2.3-2.3h1.4a2,2,0,0,1,1.6.7l3.4,3.8c2.2,2.2,1.9,3.8,1.5,6.8l-.3,9.8-.7,1v-5.1a5.6,5.6,0,0,0-1.8-4.2l-1.8-1.7a3.9,3.9,0,0,0-2.7-1.1Z"/><path class="cls-123" d="M383.1,329a41.1,41.1,0,0,0-12.5,9.4"/><path class="cls-124" d="M381.4,328.4A41.9,41.9,0,0,1,393,339"/><path class="cls-123" d="M379,326a41.6,41.6,0,0,0-12.6,9.4"/><path class="cls-123" d="M360.1,330.1a28.4,28.4,0,0,1,15.3-8.8H379"/><rect class="cls-104" x="394" y="352.9" width="1.3" height="3.5" rx="0.7"/><rect class="cls-104" x="362.6" y="352.9" width="1.3" height="3.5" rx="0.7"/><polygon class="cls-125" points="396.7 344.3 395.9 344.3 395.6 345 395.9 345.6 396.7 345.6 397 345 396.7 344.3"/><path class="cls-8" d="M388.5,552.1v.5a.3.3,0,0,0,.5.3h.3a.4.4,0,0,0,.2-.6l-.4-.4C389,551.5,388.5,551.7,388.5,552.1Z"/><path class="cls-8" d="M391.1,554.4V554c.1-.3-.1-.5-.4-.5h-.3a.5.5,0,0,0-.4.5l.2.4C390.4,554.8,390.9,554.8,391.1,554.4Z"/><path class="cls-126" d="M384.1,552.8a1.6,1.6,0,0,1,.9.2c.9.4,1,.9,1.6,1.2s1.8-.8,3.5-1.1a4.9,4.9,0,0,1,3.2.7"/><path class="cls-8" d="M393.9,553.1h-.3l-.2-.4c0-.3-.4-.3-.5,0l-.2.4h-.3a.3.3,0,0,0-.2.5l.3.2h0v.4c-.1.3.2.5.4.3l.3-.2h0l.3.2c.3.2.6,0,.5-.3v-.3h0l.3-.2A.3.3,0,0,0,393.9,553.1Zm-.8.7H393v-.2h.3v.2h-.2Z"/><circle class="cls-127" cx="393.1" cy="553.6" r="0.3"/><path class="cls-8" d="M387.9,554h-.3v-.3a.3.3,0,0,0-.6,0v.3h-.4c-.3,0-.4.4-.2.5l.3.3h0v.3c-.1.3.2.5.5.4l.2-.2h.1l.2.2c.3.1.6-.1.5-.4v-.3h0l.3-.3C388.4,554.4,388.2,554,387.9,554Zm-.7.8h-.1v-.2h0v-.2h.3v.2h-.1Z"/><circle class="cls-127" cx="387.2" cy="554.6" r="0.3"/><path class="cls-8" d="M385.1,552.1h-.4v-.4a.4.4,0,0,0-.6,0v.4h-.4c-.3,0-.4.4-.2.5l.3.2h0v.3c-.1.3.2.5.5.4l.3-.2h0l.3.2c.2.1.5-.1.5-.4l-.2-.3h0c.1,0,.1,0,.1-.1l.3-.2C385.5,552.5,385.4,552.1,385.1,552.1Zm-.8.8h-.2v-.2h.2v.2h0Z"/><circle class="cls-127" cx="384.3" cy="552.6" r="0.3"/><g class="cls-128"><path class="cls-129" d="M339.4,423.9v3.5a1.4,1.4,0,0,1-1.4,1.4h0a1.4,1.4,0,0,1-1.4-1.4v-3.5"/><path class="cls-129" d="M336.6,423.9v-3.4a1.4,1.4,0,0,1,1.4-1.4h0a1.4,1.4,0,0,1,1.4,1.4v3.4"/><path class="cls-129" d="M338,422.5h3.4a1.5,1.5,0,0,1,1.5,1.4h0a1.5,1.5,0,0,1-1.5,1.5H338"/><path class="cls-129" d="M338,425.4h-3.4a1.5,1.5,0,0,1-1.4-1.5h0a1.4,1.4,0,0,1,1.4-1.4H338"/></g><path class="cls-119" d="M343.5,419.7l4.1,2.8-2.7,17.8-8.3-7.7a1.9,1.9,0,0,1-.4-2.2l6.2-10.4A.8.8,0,0,1,343.5,419.7Z"/><circle class="cls-8" cx="379.1" cy="393.1" r="3.1"/><path class="cls-43" d="M375.7,359h7.2a0,0,0,0,1,0,0v.1a2.1,2.1,0,0,1-2.1,2.1h-3.1a2.1,2.1,0,0,1-2.1-2.1V359A0,0,0,0,1,375.7,359Z"/><path class="cls-43" d="M380.1,359.1h-3.9l.7-.7a1.6,1.6,0,0,1,2.6.1Z"/><path class="cls-43" d="M382.4,359.1h-3.9l.7-.7a1.6,1.6,0,0,1,2.6.1Z"/><polyline class="cls-130" points="374.9 358.7 379.3 359.6 383.8 358.7"/><path class="cls-131" d="M511.1,393.1c-4-12.8-1.2-26.8,6.5-37.6a2.5,2.5,0,0,0-4.3-2.5,48,48,0,0,0-7.1,41.4c1,3.1,5.8,1.8,4.9-1.3Z"/><path class="cls-132" d="M515.3,482.9l52.1-11A9.4,9.4,0,0,1,577.6,483"/><path class="cls-133" d="M490.9,481.5v23.6c-1.1,10.3,6.4,14.3,13.6,9.8l73.6-33"/><line class="cls-134" x1="582.3" y1="549" x2="582.3" y2="530.8"/><path class="cls-132" d="M520.9,493.7l49.7-20a9.5,9.5,0,0,1,12,9.3l-.8,56.5"/><path class="cls-135" d="M489.3,399.3h37a0,0,0,0,1,0,0v100a0,0,0,0,1,0,0h-9.1a27.9,27.9,0,0,1-27.9-27.9V399.3A0,0,0,0,1,489.3,399.3Z"/><path class="cls-63" d="M541.4,498.9c-7.9-18.4-25.6-28.3-39.6-22.3-11.7,5-17.1,19.7-13.9,35a8.7,8.7,0,0,0,10.9,6.7l7.5-2.2"/><path class="cls-71" d="M574.7,545.2H598A12.8,12.8,0,0,1,610.8,558v.9a0,0,0,0,1,0,0H574.7a0,0,0,0,1,0,0V545.2A0,0,0,0,1,574.7,545.2Z"/><path class="cls-136" d="M486.8,464.8v44.3a10.1,10.1,0,0,0,13.8,9.4l75.1-31.9a18,18,0,0,1,24.6,16.7v58.5H579.4l20.2-18.7"/><line class="cls-129" x1="522.1" y1="474.6" x2="522.1" y2="567.6"/><line class="cls-129" x1="475.6" y1="521.1" x2="568.6" y2="521.1"/><line class="cls-129" x1="498.7" y1="480.8" x2="545.2" y2="561.4"/><line class="cls-129" x1="481.7" y1="544.4" x2="562.3" y2="497.9"/><line class="cls-129" x1="481.6" y1="497.9" x2="562.2" y2="544.4"/><line class="cls-129" x1="498.7" y1="561.4" x2="545.2" y2="480.9"/><circle class="cls-137" cx="522.1" cy="521.1" r="51.3"/><circle class="cls-138" cx="522.1" cy="521.1" r="46.7"/><polyline class="cls-139" points="523.3 480.3 516.7 477.2 511.2 473"/><polyline class="cls-140" points="480.2 435.6 480.5 443.4 514.7 469.7"/><rect class="cls-25" x="518.3" y="463.9" width="1.8" height="3.5" transform="translate(-166.2 594.2) rotate(-52.5)"/><path class="cls-141" d="M524.4,477.4l-7.2-1-2.5-2a4.2,4.2,0,0,1-.8-6h0c1.5-1.9,2.3-3.6,4.7-3.1l5.7.5"/><circle class="cls-142" cx="524.1" cy="465.9" r="1.2"/><path class="cls-143" d="M480.4,436c.1-24,12.4-35.2,31.2-36.8h14.3"/><rect class="cls-144" x="507.2" y="378.9" width="22.2" height="28.88" rx="11.1" transform="translate(135.1 -132.5) rotate(16.7)"/><path class="cls-55" d="M503.3,366.2a18.9,18.9,0,0,1,37.6-3.4l.5,5.5c1.3,15.2-6,28.3-16.4,29.2s-19.8-10.6-21.2-25.8Z"/><path class="cls-58" d="M522.1,368.7l-3-.2a15.8,15.8,0,0,0-3.1.1"/><path class="cls-57" d="M521.3,370.1a1.8,1.8,0,0,1-1.9,1.9,1.9,1.9,0,0,1-1.8-1.9,1.9,1.9,0,0,1,1.9-1.9,1.9,1.9,0,0,1,1.8,1.9"/><path class="cls-58" d="M537.8,369.2a15.3,15.3,0,0,0-3-.3h0a15.1,15.1,0,0,0-3,.2"/><path class="cls-57" d="M536.8,370.5a1.9,1.9,0,0,1-1.9,1.8,1.9,1.9,0,1,1,.1-3.7,1.9,1.9,0,0,1,1.8,1.9"/><path class="cls-145" d="M525.6,381l1.7.8a4.2,4.2,0,0,0,2,.5,4.6,4.6,0,0,0,2.1-.5l1.6-.8"/><path class="cls-146" d="M509.3,370.9l-.3-2.2a1.3,1.3,0,0,0-1.5-1,2.7,2.7,0,0,0-2.2,3.2l1.3,6.7a4.1,4.1,0,0,0,4.7,3.2v-2.7"/><path class="cls-131" d="M529.1,343.9c-3.3,1-4.2,4.4-5.3,7.3l-3.4,9.2a2.4,2.4,0,0,0,1.7,3,2.5,2.5,0,0,0,3.1-1.7l3-8.1.8-1.9a4.9,4.9,0,0,1,.4-1.1c0-.1.4-1,.1-.4a5.4,5.4,0,0,1,.7-1.3l.3-.3h-.1a2.5,2.5,0,0,0,1.7-3.1,2.4,2.4,0,0,0-3-1.7Z"/><path class="cls-131" d="M530.3,350.1c-.3-.2-.3-.2,0-.1s.2.2-.1,0,.6.7.3.2l.7,1.3c-.3-.5.1.4.2.5a7.6,7.6,0,0,0,.4,1.1l.7,1.9,3,8.1a2.5,2.5,0,0,0,4.9-1.4l-3.5-9.1c-1.1-2.9-2-6.3-5.3-7.4a2.5,2.5,0,0,0-3,1.8,2.6,2.6,0,0,0,1.7,3.1Z"/><path class="cls-131" d="M523.5,345.1c-3.1.9-4.2,4-5.4,6.6l-4,8.9a2.6,2.6,0,0,0,.9,3.4c1.1.6,2.9.4,3.4-.9l3.7-8.1c.5-1.2,1-2.5,1.6-3.7a2.5,2.5,0,0,0,.4-.7l.3-.3c-.2.2-.2.2-.1,0l.3-.3h-.1l.4-.2c-.4.1-.4.1-.1.1a2.4,2.4,0,0,0,1.7-3.1,2.6,2.6,0,0,0-3-1.8Z"/><path class="cls-131" d="M525.8,342.9a21.4,21.4,0,0,0-16.5,11.5c-3.5,6.5-3.9,13.5-4.3,20.7-.2,3.2,4.8,3.2,5,0,.3-6,.5-12,3.2-17.5s6.9-9,12.6-9.7a2.6,2.6,0,0,0,2.5-2.5c0-1.2-1.1-2.7-2.5-2.5Z"/><path class="cls-131" d="M522.9,341.7a20.6,20.6,0,0,0-13.5,4.3,27.2,27.2,0,0,0-7.8,10,2.5,2.5,0,0,0,.9,3.4,2.4,2.4,0,0,0,3.4-.8,23.1,23.1,0,0,1,6.5-8.6,15.5,15.5,0,0,1,10.5-3.3,2.5,2.5,0,0,0,2.5-2.5,2.6,2.6,0,0,0-2.5-2.5Z"/><path class="cls-131" d="M507.3,388.3a43.4,43.4,0,0,1,6.6-37.6,2.5,2.5,0,1,0-4.3-2.6,48.3,48.3,0,0,0-7.1,41.5c1,3.1,5.8,1.7,4.8-1.3Z"/><circle class="cls-147" cx="522.1" cy="521.1" r="5.3"/><circle class="cls-77" cx="578.9" cy="564.9" r="9.3"/><line class="cls-78" x1="585.5" y1="558.3" x2="572.4" y2="571.4"/><line class="cls-78" x1="576.5" y1="555.9" x2="581.3" y2="573.8"/><line class="cls-78" x1="570" y1="562.5" x2="587.9" y2="567.3"/><circle class="cls-12" cx="517" cy="381.5" r="0.6"/><circle class="cls-12" cx="518.8" cy="378.2" r="0.6"/><circle class="cls-12" cx="520.6" cy="381.5" r="0.6"/><circle class="cls-12" cx="537.3" cy="381.5" r="0.6"/><circle class="cls-12" cx="539.1" cy="378.2" r="0.6"/><circle class="cls-148" cx="522.7" cy="334.9" r="4.9"/><path class="cls-149" d="M501.9,366c0-11,9.3-20,20.8-20s20.7,9,20.7,20v-6c0-11-9.3-22.5-20.7-22.5S501.9,349,501.9,360Z"/><path class="cls-150" d="M501.9,372.5c0-11,9.3-20,20.8-20s20.7,9,20.7,20v-6c0-11-9.3-22.5-20.7-22.5s-20.8,11.5-20.8,22.5Z"/><path class="cls-57" d="M530.2,389a6.1,6.1,0,0,1-5.6,0c-1-.5-1.8-1.1-1.8-1.5h9.4C532.2,388,531.3,388.5,530.2,389Z"/><path class="cls-57" d="M529.6,387.8h-6.3a10,10,0,0,1,1.1-1.2,3.1,3.1,0,0,1,4.2,0Z"/><path class="cls-57" d="M531.7,387.8h-6.3a10,10,0,0,1,1.1-1.2,3.1,3.1,0,0,1,4.2,0Z"/><polyline class="cls-56" points="532.4 387.3 530.2 387.9 527.4 387.5 524.7 387.9 522.7 387.3"/><polyline class="cls-151" points="19.4 801.9 22.6 868.7 33.3 868.7 35.8 782.7"/><polyline class="cls-151" points="52.1 803.1 49.4 868.7 38.6 868.7 36.2 782.7"/><path class="cls-152" d="M18.4,868.4l15.3-3.2v5.5l-14.3,7.9H10.1C8.4,873.5,13.2,870,18.4,868.4Z"/><polyline class="cls-152" points="33.7 870.7 32.7 878.1 30.7 878.1 29.4 869.6"/><path class="cls-152" d="M53.7,868.4l-15.4-3.2v5.5l14.4,7.9H62C63.6,873.5,58.8,870,53.7,868.4Z"/><polyline class="cls-152" points="38.3 870.7 39.3 878.1 41.3 878.1 42.7 869.6"/><polygon class="cls-40" points="13.9 805.8 15.9 758.9 56.5 758.9 59.1 805.8 13.9 805.8"/><rect class="cls-31" x="15.1" y="684.6" width="42.1" height="75.9"/><polyline class="cls-153" points="4 780 2.1 773.9 2.1 770.9"/><path class="cls-154" d="M6.7,779.2,3,773.9v-3a4,4,0,0,1,4-4.1H7a4.1,4.1,0,0,1,4.1,4.1v4.6"/><polyline class="cls-155" points="6.6 714.7 6.6 726.2 6.6 768.2"/><circle class="cls-89" cx="11.1" cy="775.4" r="1.1"/><path class="cls-89" d="M7.3,780a1.2,1.2,0,0,1-1.6-.3,1.1,1.1,0,0,1,.4-1.6"/><path class="cls-89" d="M4.7,780.8a1.2,1.2,0,0,1-1.6-.3,1.1,1.1,0,0,1,.3-1.6"/><rect class="cls-151" x="0.5" y="767.3" width="2.3" height="3.63"/><rect class="cls-151" x="10.3" y="766.8" width="2.3" height="3.75"/><polyline class="cls-153" points="65.2 778.9 69.8 773.9 69.8 770.9"/><path class="cls-89" d="M64.3,779.3a1.1,1.1,0,0,0,1.5.5,1.2,1.2,0,0,0,.5-1.6"/><path class="cls-154" d="M63.1,776.9l5.8-3v-3a4,4,0,0,0-4-4.1h0a4.1,4.1,0,0,0-4.1,4.1v4.6"/><polyline class="cls-155" points="65.3 714.7 65.3 726.2 65.3 768.2"/><circle class="cls-89" cx="60.8" cy="775.4" r="1.1"/><path class="cls-89" d="M62.2,777.3a1.1,1.1,0,0,0,1.5.4,1.1,1.1,0,0,0,.5-1.5"/><rect class="cls-151" x="69.1" y="767.3" width="2.3" height="3.63" transform="translate(140.4 1538.2) rotate(180)"/><rect class="cls-151" x="59.3" y="766.8" width="2.3" height="3.75" transform="translate(120.9 1537.4) rotate(180)"/><path class="cls-156" d="M65.4,762.8V714.1a29.2,29.2,0,0,0-29.2-29.2h0A29.2,29.2,0,0,0,7,714.1v48.7"/><rect class="cls-17" x="15.4" y="654.6" width="35.3" height="56"/><polygon class="cls-46" points="15.2 748.3 15.2 684.6 57.2 684.6 57.2 748.3 36.4 715.3 15.2 748.3"/><rect class="cls-157" x="28.2" y="666.9" width="15.3" height="23.61" rx="7.6"/><path class="cls-158" d="M48.9,659.4V662a3.8,3.8,0,0,0,4.4-3l1.2-6.3a2.5,2.5,0,0,0-2-3,1.2,1.2,0,0,0-1.4,1l-.3,2"/><path class="cls-151" d="M19.9,646.5a16.1,16.1,0,0,1,15.9-16.3,16.1,16.1,0,0,1,15.9,16.3v4.9c0,13.6-7.1,24.5-15.9,24.5S19.9,665,19.9,651.4Z"/><path class="cls-159" d="M33.6,660.6l1,.4a2.1,2.1,0,0,0,1.2.3,2,2,0,0,0,1.1-.3l1-.4"/><path class="cls-43" d="M44.3,653.9a2,2,0,0,1-1.9,1.9,1.9,1.9,0,0,1-1.9-1.9,1.8,1.8,0,0,1,1.9-1.9,1.9,1.9,0,0,1,1.9,1.9"/><path class="cls-160" d="M44.7,652.5l-2.2-.2h0l-2.3.2"/><path class="cls-43" d="M30.2,653.9a1.9,1.9,0,0,1-1.9,1.9,2,2,0,0,1-1.9-1.9,1.9,1.9,0,0,1,1.9-1.9,1.8,1.8,0,0,1,1.9,1.9"/><path class="cls-160" d="M30.6,652.5l-2.2-.2h0l-2.2.2"/><circle class="cls-31" cx="29.1" cy="683" r="1.6"/><circle class="cls-31" cx="30.7" cy="685.6" r="1.6"/><circle class="cls-31" cx="34" cy="687.1" r="1.6"/><circle class="cls-31" cx="37.7" cy="686.9" r="1.6"/><circle class="cls-31" cx="40.9" cy="685.2" r="1.6"/><circle class="cls-31" cx="42.9" cy="682.6" r="1.6"/><path class="cls-17" d="M25.4,637.1S43,642.9,46,649.9s4.7,11.3,1.7,19.7-3.9,4.8-3.5,20.5c.5,17.5-.7,27.7,3,26.5s11.3-16.9,11.9-26.9a100.4,100.4,0,0,0,0-10.3s1.9-29.2-3.7-40.2-20.7-13.3-25-13S25.4,637.1,25.4,637.1Z"/><path class="cls-17" d="M28.5,632.6a51,51,0,0,0-5.3,10c-3,7-4,18-1,26.3s6,3,5.8,18.8,3.3,27.3-.4,28.6-15.2-13.5-15.3-23.5c0-7.1-.7-15.1-.7-15.1s-2.7-28.1,2.9-39.1,8.4-11.4,12.7-11S28.5,632.6,28.5,632.6Z"/><path class="cls-157" d="M20.4,657.8a40.7,40.7,0,0,1,.7-7.9,1,1,0,0,0-.9-.2h-.3a2.5,2.5,0,0,0-1.7,2.9l1.2,6.3a5.9,5.9,0,0,0,1.3,3.1,1.9,1.9,0,0,0,.9.4A35.9,35.9,0,0,1,20.4,657.8Z"/><circle class="cls-103" cx="35.9" cy="696.4" r="2.5"/><circle class="cls-103" cx="35.9" cy="708.9" r="2.5"/><rect class="cls-152" x="64" y="772.2" width="2.7" height="16.33"/><polygon class="cls-152" points="76.1 811 54.6 811 63.1 788.1 67.8 788.1 76.1 811"/><circle class="cls-16" cx="26.7" cy="661.2" r="2.8"/><circle class="cls-16" cx="44.9" cy="661.2" r="2.8"/><path class="cls-161" d="M43.6,650.2h-3a2.9,2.9,0,0,0-2.9,3v1.1a4.2,4.2,0,0,0,4.2,4.2h.9a4.5,4.5,0,0,0,4.5-4.5h0A3.7,3.7,0,0,0,43.6,650.2Z"/><path class="cls-152" d="M48,654.9l.7-2.2v-2.2a1,1,0,0,0-.9-1H43.7Z"/><path class="cls-152" d="M22.7,654.9l-.7-2.2v-2.2a1,1,0,0,1,.9-1H27Z"/><path class="cls-161" d="M27.1,650.2h3a3,3,0,0,1,3,3v1.1a4.3,4.3,0,0,1-4.3,4.2H28a4.5,4.5,0,0,1-4.6-4.5h0A3.7,3.7,0,0,1,27.1,650.2Z"/><path class="cls-162" d="M37.5,653.2l-1-.8a1.5,1.5,0,0,0-1.1-.4h0a1.6,1.6,0,0,0-1.2.4l-1,.8"/><path class="cls-163" d="M43.6,650.2h-3a2.9,2.9,0,0,0-2.9,3v1.1a4.2,4.2,0,0,0,4.2,4.2h.9a4.5,4.5,0,0,0,4.5-4.5h0A3.7,3.7,0,0,0,43.6,650.2Z"/><path class="cls-163" d="M27.1,650.2h3a3,3,0,0,1,3,3v1.1a4.3,4.3,0,0,1-4.3,4.2H28a4.5,4.5,0,0,1-4.6-4.5h0A3.7,3.7,0,0,1,27.1,650.2Z"/><path class="cls-164" d="M32.4,665.7h6.7a0,0,0,0,1,0,0v.5a2,2,0,0,1-2,2H34.4a2,2,0,0,1-2-2v-.5A0,0,0,0,1,32.4,665.7Z"/><path class="cls-164" d="M36.6,665.9H33.2a3.3,3.3,0,0,1,.6-.8,1.4,1.4,0,0,1,2.3,0Z"/><path class="cls-164" d="M38.3,665.9H34.9a3.3,3.3,0,0,1,.6-.8,1.4,1.4,0,0,1,2.3,0Z"/><polyline class="cls-165" points="39.8 666 37.6 666.1 35.7 665.8 33.8 666.1 31.7 666"/><polyline class="cls-151" points="43.5 808.2 43.5 796.9 47.3 807.4"/><path class="cls-166" d="M199,745.9l-19-15.4a13.6,13.6,0,0,1-4.9-10.4V704.3a32.5,32.5,0,0,1,32.5-32.6h13.6A34.2,34.2,0,0,1,255.4,706H240.3"/><path class="cls-7" d="M227.8,626.3h1.8a2.6,2.6,0,0,1,2.6,2.6v7a0,0,0,0,1,0,0h-4.4a0,0,0,0,1,0,0v-9.7A0,0,0,0,1,227.8,626.3Z"/><path class="cls-167" d="M227.1,640v2.7a4.1,4.1,0,0,0,4.7-3.2l1.3-6.7a2.7,2.7,0,0,0-2.2-3.2,1.3,1.3,0,0,0-1.5,1l-.3,2.2"/><path class="cls-167" d="M192.1,632.8l-.3-2.2a1.3,1.3,0,0,0-1.5-1,2.7,2.7,0,0,0-2.1,3.2l1.3,6.7a4,4,0,0,0,4.7,3.2L194,640"/><path class="cls-7" d="M228,633.6h1.5a1.8,1.8,0,0,1,1.8,1.8v1.4a1.8,1.8,0,0,1-1.8,1.8H228a0,0,0,0,1,0,0v-5A0,0,0,0,1,228,633.6Z"/><line class="cls-168" x1="229.9" y1="634.5" x2="229.9" y2="629.1"/><path class="cls-169" d="M197.2,649.9h27.3a14.7,14.7,0,0,1,14.7,14.7v20.5a0,0,0,0,1,0,0H182.5a0,0,0,0,1,0,0V664.6A14.7,14.7,0,0,1,197.2,649.9Z"/><rect class="cls-107" x="185.2" y="675.2" width="50.6" height="64.26"/><path class="cls-135" d="M236.1,864.2h-21V788.3a4.2,4.2,0,0,0-1.2-2.9,4,4,0,0,0-3.1-1.3h0a4,4,0,0,0-3.1,1.3,4.4,4.4,0,0,0-1.1,2.9v75.1h-21l-3.7-117,57.3-.2Z"/><rect class="cls-170" x="226.9" y="785.9" width="11" height="26.25"/><polygon class="cls-135" points="239.6 792.5 228.6 792.5 226.9 785.9 237.9 785.9 239.6 792.5"/><rect class="cls-170" x="183.5" y="785.9" width="11" height="26.25" transform="translate(378.1 1598) rotate(180)"/><polygon class="cls-135" points="181.8 792.5 192.8 792.5 194.5 785.9 183.5 785.9 181.8 792.5"/><path class="cls-107" d="M201.6,759.5H220a21,21,0,0,0,20.9-18.9,10.9,10.9,0,0,0-.2-3.6l-3.8-18.3H186.3l-5.7,19.8A21,21,0,0,0,201.6,759.5Z"/><polyline class="cls-171" points="193.2 662.6 193.2 708.4 187.9 723.1"/><polygon class="cls-31" points="199 667 222.1 666.8 215.5 680 210.7 697.2 205.4 679.8 199 667"/><rect class="cls-167" x="199.5" y="641" width="22.2" height="35.35" rx="11.1"/><path class="cls-172" d="M191.4,626.9c0-10.2,8.6-18.4,19.2-18.4s19.1,8.2,19.1,18.4v5.5c0,15.3-8.6,27.6-19.1,27.6s-19.2-12.3-19.2-27.6Z"/><path class="cls-173" d="M204.1,631.3l-2.1-.2-2.2.2"/><path class="cls-173" d="M221.3,631.3l-2.2-.2h0l-2.1.2"/><path class="cls-174" d="M204,632.7a1.8,1.8,0,0,1-1.9,1.8,1.8,1.8,0,0,1-1.8-1.8,1.8,1.8,0,0,1,1.8-1.9,1.8,1.8,0,0,1,1.9,1.9"/><path class="cls-174" d="M220.9,632.7a1.9,1.9,0,1,1-1.9-1.9,1.9,1.9,0,0,1,1.9,1.9"/><path class="cls-175" d="M206.9,642l1.6.8a4.6,4.6,0,0,0,2.1.4,4.2,4.2,0,0,0,2-.4l1.7-.8"/><path class="cls-176" d="M203.3,646.9h14.6a0,0,0,0,1,0,0v0a5.5,5.5,0,0,1-5.5,5.5h-3.6a5.5,5.5,0,0,1-5.5-5.5v0A0,0,0,0,1,203.3,646.9Z"/><path class="cls-177" d="M199.5,662.6l-2.9.5-6,7,6.2,3,8.5,6.8-3.6-7.4a19.3,19.3,0,0,1-2.3-8v-1.9"/><path class="cls-73" d="M192.4,852.8h6.5A8.1,8.1,0,0,1,207,861v11.9a0,0,0,0,1,0,0H184.2a0,0,0,0,1,0,0V861A8.1,8.1,0,0,1,192.4,852.8Z"/><path class="cls-73" d="M222.4,852.8h6.5A8.1,8.1,0,0,1,237,861v11.9a0,0,0,0,1,0,0H214.2a0,0,0,0,1,0,0V861A8.1,8.1,0,0,1,222.4,852.8Z"/><path class="cls-8" d="M195.3,863.8h.6a12,12,0,0,1,12,12v4.7a0,0,0,0,1,0,0H183.4a0,0,0,0,1,0,0v-4.7a12,12,0,0,1,12-12Z"/><path class="cls-8" d="M224.9,863.8h.6a12,12,0,0,1,12,12v4.7a0,0,0,0,1,0,0H213a0,0,0,0,1,0,0v-4.7A12,12,0,0,1,224.9,863.8Z"/><line class="cls-178" x1="240.4" y1="705" x2="234.7" y2="705"/><path class="cls-179" d="M235.7,702.6a5,5,0,0,0-6.6-2.5l-4.2,1.9"/><polyline class="cls-171" points="228.2 662.6 228.2 708.4 233.4 723.1"/><polyline class="cls-180" points="223.1 711.3 231.3 711.3 235.5 709.7"/><path class="cls-179" d="M222.6,707.7l8.2,2.6,2.4-1.1a5,5,0,0,0,2.5-6.6h0"/><path class="cls-177" d="M224,662.8l-2.3-.4-.2,3.4A16.3,16.3,0,0,1,220,671l-4.4,8.8,7.8-6.7,6.5-1.2Z"/><polygon class="cls-181" points="195 731 187 745.7 190 749 199 732.4 195 731"/><path class="cls-182" d="M210.8,608.1h-.4a18.2,18.2,0,0,0-18.5,18.4v3.7l1.1,1.2v-4.3c0-2.4.1-4.7,1.4-6.8s3.1-4.1,5.2-5a16.9,16.9,0,0,1,6.5-1.2,3.1,3.1,0,0,1,1.8.9l.2.5a2.8,2.8,0,0,0,2.3,1.5h.4a2.5,2.5,0,0,0,2.3-1.5l.2-.5a3.1,3.1,0,0,1,1.8-.9,16.9,16.9,0,0,1,6.5,1.2c2.2.9,3.9,3.1,5.2,5s1.1,4.4,1.1,6.8v4.3l1.2-1.2v-3.7A18.1,18.1,0,0,0,210.8,608.1Z"/><path class="cls-183" d="M216.9,647.6l1.7,1.5,7.5-6.5h0a24.7,24.7,0,0,1-3.9,10.7l-.8,1.2a11,11,0,0,1-3.4,3l-2.5,1.4a10.8,10.8,0,0,1-10.3-.1l-2.4-1.3a10.6,10.6,0,0,1-3.3-3l-.8-1.2a24.7,24.7,0,0,1-3.9-10.7l7.5,6.5,1.7-1.5a5.4,5.4,0,0,1,3.7-1.3h5.5A5.4,5.4,0,0,1,216.9,647.6Z"/><rect class="cls-73" x="190.6" y="849.8" width="9.9" height="9.25" rx="4.2"/><rect class="cls-73" x="220.6" y="849.8" width="9.9" height="9.25" rx="4.2"/><path class="cls-55" d="M207.7,650.5h6.5a0,0,0,0,1,0,0v0a1.3,1.3,0,0,1-1.3,1.3H209a1.3,1.3,0,0,1-1.3-1.3v0a0,0,0,0,1,0,0Z"/><path class="cls-55" d="M212.8,650.7h-5.5l.9-.7a4.3,4.3,0,0,1,3.7.1A4.5,4.5,0,0,1,212.8,650.7Z"/><path class="cls-55" d="M214.7,650.7h-5.6l1-.7a4.3,4.3,0,0,1,3.7.1Z"/><polyline class="cls-184" points="206.9 650.6 209.1 650.5 211 650.8 212.9 650.5 215 650.6"/><path class="cls-85" d="M394,873.7H376V783.3a3.8,3.8,0,0,0-2.8-3.7h-.8a3.6,3.6,0,0,0-3.6,3.6v89.7h-18l-9.3-119.6L372,742.7l29.8,8.6Z"/><polyline class="cls-185" points="348.8 771.9 344.9 765.7 342.6 759"/><polyline class="cls-186" points="338.2 704.7 338.2 722.9 347.3 758.3"/><rect class="cls-151" x="352.4" y="755.6" width="1.8" height="3.5" transform="translate(-236.1 164.9) rotate(-19.8)"/><path class="cls-187" d="M351.3,770l-5.5-4.7-1-3a4.2,4.2,0,0,1,2.6-5.5h0a4.2,4.2,0,0,1,5.5,2.6l1.7,4.6"/><circle class="cls-26" cx="354.8" cy="764" r="1.2"/><polyline class="cls-185" points="396.4 771.9 400.3 765.7 402.7 759"/><polyline class="cls-186" points="407.1 704.7 407.1 722.9 398 758.3"/><rect class="cls-188" x="391" y="755.6" width="1.8" height="3.5" transform="translate(503.5 1602.7) rotate(-160.2)"/><path class="cls-187" d="M393.9,770l5.5-4.7,1.1-3a4.3,4.3,0,0,0-2.6-5.5h0a4.3,4.3,0,0,0-5.6,2.6l-1.6,4.6"/><circle class="cls-26" cx="390.5" cy="764" r="1.2"/><path class="cls-189" d="M345.3,752.8l-6.9-30.2V705.1a34.1,34.1,0,0,1,34-34.1h0a34.1,34.1,0,0,1,34.1,34.1v18.5l-7.2,29.7"/><rect class="cls-135" x="348" y="677.1" width="48.9" height="71.08"/><polygon class="cls-31" points="384.4 663.6 371.7 693.6 359.4 663.9 360.6 663.5 383.3 663.1 384.4 663.6"/><rect class="cls-190" x="361.2" y="643" width="21.6" height="28.88" rx="10.8"/><path class="cls-190" d="M353.7,632.7l-.4-2.1a1.3,1.3,0,0,0-1.5-1.1,2.7,2.7,0,0,0-2.1,3.2l1.3,6.8a3.9,3.9,0,0,0,4.7,3.1l-.2-2.6"/><path class="cls-190" d="M388.7,640l-.2,2.6a3.9,3.9,0,0,0,4.7-3.1l1.3-6.8a2.8,2.8,0,0,0-2.1-3.2,1.5,1.5,0,0,0-1.6,1.1l-.3,2.1"/><path class="cls-188" d="M353,626.8c0-10.1,8.5-18.4,19.1-18.4s19.1,8.3,19.1,18.4v5.6c0,15.2-8.6,27.6-19.1,27.6S353,647.6,353,632.4Z"/><path class="cls-173" d="M365.7,631.3a8.2,8.2,0,0,0-2.2-.2,7.5,7.5,0,0,0-2.1.2"/><path class="cls-173" d="M382.8,631.3a7.5,7.5,0,0,0-2.1-.2h0a7.8,7.8,0,0,0-2.2.2"/><path class="cls-174" d="M365.5,632.6a1.9,1.9,0,1,1-1.8-1.9,1.9,1.9,0,0,1,1.8,1.9"/><path class="cls-174" d="M382.4,632.6a1.9,1.9,0,1,1-1.9-1.9,1.9,1.9,0,0,1,1.9,1.9"/><path class="cls-175" d="M368.4,643.3l1.6.9a6.5,6.5,0,0,0,2.1.4,5.4,5.4,0,0,0,2-.4l1.7-.9"/><path class="cls-8" d="M375.9,868.6h21.4a10.6,10.6,0,0,1,10.6,10.6v0a0,0,0,0,1,0,0H375.9a0,0,0,0,1,0,0V868.6A0,0,0,0,1,375.9,868.6Z"/><path class="cls-8" d="M336.9,868.6h31.9a0,0,0,0,1,0,0v0a10.6,10.6,0,0,1-10.6,10.6H336.9a0,0,0,0,1,0,0V868.6A0,0,0,0,1,336.9,868.6Z" transform="translate(705.8 1747.8) rotate(180)"/><circle class="cls-135" cx="372.4" cy="733.8" r="27"/><path class="cls-46" d="M371.7,693.6l-5.4-13,2-3.9c.6-1.2.8-1.8,1.8-1.8h3.5c.9,0,1.2.6,1.7,1.8l1.9,3.9Z"/><rect class="cls-46" x="368.3" y="668.4" width="7" height="6.62" rx="1.9"/><path class="cls-52" d="M371.9,668.4l6.1,5.8a.6.6,0,0,0,1-.2l4.2-10.1c.1,0,.1-.1.1-.2v-3.8a.7.7,0,0,0-1.1-.5l-9.8,8.6a.6.6,0,0,1-.8,0l-9.9-8.6a.7.7,0,0,0-1.1.5v3.8l4.5,10.1a.7.7,0,0,0,1.1.3l5.7-5.7"/><polyline class="cls-191" points="387 664.7 371.7 701 356.8 665"/><path class="cls-192" d="M345.4,733.8a27,27,0,0,0,54,0"/><path class="cls-193" d="M385.2,613a16.2,16.2,0,0,1,5.7,12.4v8.1"/><path class="cls-193" d="M353.2,633.4v-8a16.1,16.1,0,0,1,5.7-12.4"/><line class="cls-129" x1="372.6" y1="613.3" x2="378" y2="607.9"/><line class="cls-129" x1="368.9" y1="613.3" x2="374.3" y2="607.9"/><path class="cls-194" d="M370.1,629.2v4.4a4.1,4.1,0,0,1-4.2,4.1h-4.4a4.4,4.4,0,0,1-4.5-4.4v-3.4a1.8,1.8,0,0,1,1.7-1.7h1"/><path class="cls-194" d="M374.6,629.2v4.4a4.1,4.1,0,0,0,4.2,4.1h4.4a4.3,4.3,0,0,0,4.4-4.4v-3.4a1.7,1.7,0,0,0-1.6-1.7h-1.1"/><path class="cls-195" d="M374.8,631.2l-1.1-1a1.9,1.9,0,0,0-1.3-.5h0a2.4,2.4,0,0,0-1.4.5l-1.1,1"/><path class="cls-196" d="M355.1,628.2h12.7a2.4,2.4,0,0,1,2.4,2.4h0"/><path class="cls-196" d="M389.6,628.2H376.9a2.4,2.4,0,0,0-2.4,2.4h0"/><polyline class="cls-85" points="344 769.6 348.9 763.2 355.6 769.5 349.8 786.8"/><polyline class="cls-85" points="400.3 769.6 394.7 764.3 389 769.1 394.6 786.8"/><path class="cls-172" d="M367.7,649h8.7a0,0,0,0,1,0,0v.2a1.4,1.4,0,0,1-1.4,1.4h-5.9a1.4,1.4,0,0,1-1.4-1.4V649A0,0,0,0,1,367.7,649Z"/><path class="cls-172" d="M374.6,649.2H367l1.3-.7a8.4,8.4,0,0,1,5.2.1Z"/><path class="cls-172" d="M377.2,649.2h-7.6l1.3-.7a8.4,8.4,0,0,1,5.2.1Z"/><polyline class="cls-197" points="377.8 648.9 374.7 649.1 372 648.7 369.4 649.1 366.4 648.9"/><rect class="cls-198" x="548.8" y="841.7" width="12.7" height="10"/><rect class="cls-198" x="517.2" y="841.7" width="12.7" height="10"/><rect class="cls-52" x="517.1" y="849.1" width="12.7" height="10"/><rect class="cls-52" x="548.8" y="849.1" width="12.7" height="10"/><path class="cls-8" d="M548.9,596.8H528.8a8.5,8.5,0,0,0-8.4,8.4v19.6h36.8V605.2A8.4,8.4,0,0,0,548.9,596.8Z"/><line class="cls-199" x1="520.4" y1="624.8" x2="520.4" y2="624.8"/><line class="cls-200" x1="523.5" y1="624.8" x2="555.7" y2="624.8"/><line class="cls-199" x1="557.2" y1="624.8" x2="557.2" y2="624.8"/><path class="cls-201" d="M557.2,621.9V605.2a8.4,8.4,0,0,0-8.3-8.4H528.8a8.5,8.5,0,0,0-8.4,8.4v18.1"/><path class="cls-52" d="M562.6,834.9H547.8l-4.4-55a4.4,4.4,0,0,0-1.1-2.9,4.2,4.2,0,0,0-3.1-1.4h0a4.2,4.2,0,0,0-3.1,1.4,4,4,0,0,0-1.2,2.9l-4,55.7h-15l-12.5-74.9a17.9,17.9,0,0,1,18-20.4l36.8.4a18,18,0,0,1,17.6,20.6Z"/><path class="cls-7" d="M547.6,833.7h15.1a0,0,0,0,1,0,0v8.4a2.7,2.7,0,0,1-2.7,2.7h-9.8a2.7,2.7,0,0,1-2.7-2.7v-8.4A0,0,0,0,1,547.6,833.7Z"/><path class="cls-7" d="M515.9,833.7H531a0,0,0,0,1,0,0v8.4a2.7,2.7,0,0,1-2.7,2.7h-9.8a2.7,2.7,0,0,1-2.7-2.7v-8.4A0,0,0,0,1,515.9,833.7Z"/><path class="cls-202" d="M584.3,700.9v13.5a35.7,35.7,0,0,1-1.2,9.2l-7.9,30.9"/><line class="cls-203" x1="573.7" y1="768.1" x2="577.6" y2="761.8"/><rect class="cls-198" x="568.3" y="751.8" width="1.8" height="3.5" transform="translate(848.7 1655.5) rotate(-160.2)"/><path class="cls-202" d="M494.6,700.9v13.5a35.7,35.7,0,0,0,1.2,9.2l7.9,30.9"/><line class="cls-203" x1="505.2" y1="768.1" x2="501.4" y2="761.8"/><rect class="cls-198" x="508.9" y="751.8" width="1.8" height="3.5" transform="translate(-225.5 217.8) rotate(-19.8)"/><path class="cls-204" d="M495.2,703.1a34,34,0,0,1,34-34h20.5a34,34,0,0,1,34,34"/><path class="cls-36" d="M555.5,636.4l-.2,2.7a4,4,0,0,0,4.7-3.2l1.3-6.8a2.6,2.6,0,0,0-2.1-3.1,1.2,1.2,0,0,0-1.5,1l-.3,2.2"/><path class="cls-36" d="M520.5,629.2l-.3-2.2a1.2,1.2,0,0,0-1.5-1,2.6,2.6,0,0,0-2.2,3.1l1.3,6.8a4.1,4.1,0,0,0,4.7,3.2v-2.7"/><path class="cls-205" d="M528.3,756.5h21.8c13.7,0,24.8-10.5,24.8-23.4L570,668H510.3l-6.8,65.1C503.5,746,514.6,756.5,528.3,756.5Z"/><path class="cls-36" d="M538.8,676.9s-11-6.8-11-12.9V647.2a11.1,11.1,0,0,1,11.1-11.1h0A11.1,11.1,0,0,1,550,647.2V664C550,670.1,538.8,676.9,538.8,676.9Z"/><path class="cls-198" d="M519.8,623.2c0-10.1,8.6-18.4,19.1-18.4s19.2,8.3,19.2,18.4v5.6c0,15.2-8.6,27.6-19.2,27.6s-19.1-12.4-19.1-27.6Z"/><path class="cls-206" d="M532.5,627.7a7.5,7.5,0,0,0-2.1-.2,7.8,7.8,0,0,0-2.2.2"/><path class="cls-206" d="M549.7,627.7a8.2,8.2,0,0,0-2.2-.2h0a7.5,7.5,0,0,0-2.1.2"/><path class="cls-50" d="M532.4,629a1.9,1.9,0,0,1-3.8,0,1.9,1.9,0,0,1,3.8,0"/><path class="cls-50" d="M549.2,629a1.9,1.9,0,1,1-3.7,0,1.8,1.8,0,0,1,1.9-1.8,1.8,1.8,0,0,1,1.8,1.8"/><path class="cls-207" d="M534,638.5l2.2,1.1a6,6,0,0,0,2.7.6,5.7,5.7,0,0,0,2.7-.6l2.2-1.1"/><rect class="cls-31" x="518.5" y="851.5" width="9.9" height="9.25" rx="4.2"/><rect class="cls-31" x="550.2" y="851.3" width="9.9" height="9.25" rx="4.2"/><path class="cls-63" d="M523.1,853.5h.6a12,12,0,0,1,12,12v4.7a0,0,0,0,1,0,0H511.2a0,0,0,0,1,0,0v-4.7A12,12,0,0,1,523.1,853.5Z"/><path class="cls-63" d="M554.9,853.5h.6a12,12,0,0,1,12,12v4.7a0,0,0,0,1,0,0H542.9a0,0,0,0,1,0,0v-4.7a12,12,0,0,1,12-12Z"/><path class="cls-208" d="M527.8,658.6l-1.2.2a4.1,4.1,0,0,0-2.5,1.5l-2.8,3.2a2.7,2.7,0,0,0,.9,4.1l3.1,1.5,13.8,8-9.1-8.5a25.4,25.4,0,0,1-2.1-8.2v-1.8"/><path class="cls-208" d="M550.9,658.6l-.8-.3-.4,3.4a15.6,15.6,0,0,1-1.5,5.2l-8.9,9.7,12.3-7.5,2.6-.5a2.6,2.6,0,0,0,1.7-4l-2.7-4.2A4.4,4.4,0,0,0,550.9,658.6Z"/><line class="cls-208" x1="539.6" y1="676.7" x2="539.6" y2="685.2"/><path class="cls-209" d="M546.3,612.7c5.2.5,9.5,3.5,10.6,8.7a3.6,3.6,0,0,1,.2,1.4V627l1.2-1.1v-3.8c0-10.1-8.6-18.4-19.1-18.4h-.4c-10.5,0-19.1,8.3-19.1,18.4v3.8l1.2,1.1v-4.2a11.8,11.8,0,0,1,.8-3.6,12.6,12.6,0,0,1,7.5-7.3h0a18.2,18.2,0,0,1,8-.9Z"/><polygon class="cls-79" points="505.1 725.9 503.9 718 563.6 661.9 571.6 665.4 505.1 725.9"/><polyline class="cls-210" points="482.6 862.6 499 870.6 577.3 870.6 599 860.6"/><circle class="cls-104" cx="510.6" cy="879.4" r="4.8"/><circle class="cls-104" cx="566.2" cy="879.3" r="4.8"/><path class="cls-50" d="M541.7,647.7a6.5,6.5,0,0,1-5.6-.1c-1.6-.7-3.2-1.6-3.2-2.2H545C545,646,543.3,646.9,541.7,647.7Z"/><path class="cls-50" d="M541.2,645.6h-6.9l1.2-1.1a3.9,3.9,0,0,1,4.7.1A9.1,9.1,0,0,1,541.2,645.6Z"/><path class="cls-50" d="M543.6,645.6h-7l1.2-1.1a3.9,3.9,0,0,1,4.7.1A5.8,5.8,0,0,1,543.6,645.6Z"/><polyline class="cls-70" points="545.4 645.6 541.9 645.8 538.9 645.4 535.8 645.8 532.5 645.6"/><line class="cls-211" x1="501.4" y1="761.8" x2="499" y2="755.4"/><path class="cls-212" d="M507.8,766.2l-5.5-4.7-1.1-3a4.3,4.3,0,0,1,2.6-5.5h0a4.2,4.2,0,0,1,5.5,2.6l1.7,4.6"/><line class="cls-211" x1="577.6" y1="761.8" x2="579.9" y2="755.4"/><path class="cls-212" d="M570.1,764.1l6.5-2.6,1.1-3a4.3,4.3,0,0,0-2.6-5.5h0a4.2,4.2,0,0,0-5.5,2.6l-1.7,4.6"/><circle class="cls-167" cx="567.7" cy="760.2" r="1.2"/><circle class="cls-167" cx="511.2" cy="760.2" r="1.2"/></g></g></g></svg>