<?xml version="1.0" encoding="utf-8"?>
<!-- Generator: Adobe Illustrator 24.0.0, SVG Export Plug-In . SVG Version: 6.00 Build 0)  -->
<svg version="1.1"
	 id="svg3254" xmlns:cc="http://creativecommons.org/ns#" xmlns:dc="http://purl.org/dc/elements/1.1/" xmlns:rdf="http://www.w3.org/1999/02/22-rdf-syntax-ns#" xmlns:svg="http://www.w3.org/2000/svg"
	 xmlns="http://www.w3.org/2000/svg" xmlns:xlink="http://www.w3.org/1999/xlink" x="0px" y="0px" viewBox="0 0 1024 460"
	 style="enable-background:new 0 0 1024 460;" xml:space="preserve">
<style type="text/css">
	.st0{fill:#FFFFFF;}
</style>
<g id="layer1" transform="translate(0,-308)">
	<g id="g3183" transform="matrix(8.5431928,0,0,-8.5431928,-1209.4918,1251.72)">
		<g id="g3155">
			<g id="g3099" transform="translate(143.929,63.086)">
				<path id="path3101" class="st0" d="M0,0c0.5,0,1.7-0.1,2.5,0c2.6,0.5,4,1.6,4,3.8c0,2.3-1.2,3.1-4.8,3.1h-3.3V-5.9
					c0.3,0,0.5,0.1,0.8,0.1c0.3,0,0.5,0,0.8-0.1L0,0z M0,6.2c0.6,0,1.9,0.1,2.7,0C4.2,6,4.8,5,4.8,3.8c0-1.7-1.1-2.8-3-3
					C1.2,0.7,0.5,0.7,0,0.7"/>
			</g>
			<g id="g3103" transform="translate(153.427,68.392)">
				<path id="path3105" class="st0" d="M0,0c-0.5,0-1,0.4-1,1s0.4,1,1,1c0.5,0,1-0.4,1-1S0.5,0,0,0 M0.7-11.2
					c-0.3,0-0.5,0.1-0.7,0.1c-0.3,0-0.5,0-0.7-0.1v8.9c0.2,0,0.5-0.1,0.7-0.1c0.2,0,0.5,0,0.7,0.1"/>
			</g>
			<g id="g3107" transform="translate(156.717,66.15)">
				<path id="path3109" class="st0" d="M0,0c0.2,0,0.5-0.1,0.7-0.1C1-0.1,1.2,0,1.5,0v-1.7c0.7,1.1,1.7,1.8,3,1.8c2.2,0,3-1.2,3-3.6
					v-5.4C7.2-8.9,7-8.9,6.8-8.9c-0.3,0-0.5,0-0.7-0.1v5c0,1.7-0.3,3.1-2.1,3.1c-2,0-2.4-1.4-2.4-3.7v-4.3C1.2-8.9,1-8.9,0.7-8.9
					c-0.3,0-0.5,0-0.7-0.1"/>
			</g>
			<g id="g3111" transform="translate(166.626,59.032)">
				<path id="path3113" class="st0" d="M0,0c0.4-0.7,1.3-1.4,2.2-1.4C3.1-1.4,4-0.7,4,0.3c0,2.5-4.4,0.9-4.4,4.1
					c0,1.8,1.4,2.8,3,2.8c1,0,1.8-0.3,2.1-0.5C4.5,6.3,4.4,5.9,4.3,5.4H4.1C3.9,6,3.2,6.7,2.5,6.7c-0.9,0-1.7-0.5-1.7-1.6
					C0.8,2.7,5.2,4,5.2,1c0-2-1.8-3-3.4-3C1-2,0.1-1.8-0.5-1.4C-0.4-0.9-0.2-0.5-0.2,0"/>
			</g>
			<g id="g3115" transform="translate(180.854,59.144)">
				<path id="path3117" class="st0" d="M0,0c-0.5-0.5-1.5-1.3-2.8-1.3C-5-1.3-6.2,0.5-6,2.6h2.6c1.3,0,2.5,0,3.8-0.1
					c0.2,3.1-1.7,4.6-3.8,4.6c-2.8,0-4.3-2-4.3-4.6c0-2.9,1.8-4.6,4.4-4.6C-2.1-2.1-0.9-1.6,0-1L0,0z M-6,3.3
					c0.1,1.6,0.9,3.3,2.6,3.3c1.8,0,2.3-1.6,2.3-3.3"/>
			</g>
			<g id="g3119" transform="translate(183.359,66.15)">
				<path id="path3121" class="st0" d="M0,0c0.2,0,0.5-0.1,0.7-0.1C1-0.1,1.2,0,1.5,0v-1.7c0.7,1.1,1.7,1.8,3,1.8c2.2,0,3-1.2,3-3.6
					v-5.4C7.2-8.9,7-8.9,6.8-8.9c-0.3,0-0.5,0-0.7-0.1v5c0,1.7-0.3,3.1-2.1,3.1c-2,0-2.4-1.4-2.4-3.7v-4.3C1.2-8.9,1-8.9,0.7-8.9
					c-0.3,0-0.5,0-0.7-0.1"/>
			</g>
			<g id="g3123" transform="translate(195.157,68.579)">
				<path id="path3125" class="st0" d="M0,0v-2.4h2C1.9-2.7,1.9-3,2-3.1H0v-4.7c0-1.1-0.2-3,1.4-3c0.3,0,0.6,0.1,0.8,0.1v-0.4
					c-0.5-0.2-1-0.3-1.6-0.3c-1.4,0-2.2,0.7-2.2,2.9v5.4h-1.2c0.1,0.2,0.1,0.5,0,0.7h1.2v1.9"/>
			</g>
			<g id="g3127" transform="translate(214.676,69.999)">
				<path id="path3129" class="st0" d="M0,0c0.5-4.6,1-9.2,1.5-12.8c-0.3,0-0.6,0.1-0.9,0.1c-0.3,0-0.6,0-0.9-0.1
					C-0.6-9-0.9-5-1.2-3.1C-3.4-7-5-10-6.1-12.6h-0.2l-1,2.1C-8.5-8-9.8-5.6-11.1-3.1c-0.4-3.6-0.9-7.3-0.9-9.6
					c-0.2,0-0.4,0.1-0.7,0.1c-0.2,0-0.4,0-0.7-0.1c0.5,3,1.6,10.8,1.8,12.8h0.5c1.5-3,3.3-6.5,5.3-9.8C-4-6.6-2.3-3.3-0.4,0"/>
			</g>
			<g id="g3131" transform="translate(224.847,63.124)">
				<path id="path3133" class="st0" d="M0,0c0,2.1-1.1,3.1-3,3.1c-1.1,0-2.1-0.4-3-1v-1h0.2C-5.7,1.5-5,2.4-3.6,2.4
					c1.4,0,2.2-0.8,2.2-2.2c0-0.9-0.5-1-2-1.3c-1.8-0.3-3.5-0.6-3.5-2.7c0-1.4,1.2-2.3,2.5-2.3c1.1,0,2,0.4,2.8,1.2l0.2,0.2
					c0.1-1.1,1-1.3,1.9-1.1c0.2,0,0.4,0.1,0.6,0.2v0.4c-1.1-0.2-1,0.1-1,0.9V0z M-1.5-4c0-0.1-0.4-0.4-0.5-0.6
					c-0.4-0.4-1-0.7-1.5-0.7c-1.1,0-1.8,0.6-1.8,1.8c0,1.7,1.9,1.9,3.2,2.1l0.7,0.1"/>
			</g>
			<g id="g3135" transform="translate(227.801,59.032)">
				<path id="path3137" class="st0" d="M0,0c0.4-0.7,1.3-1.4,2.2-1.4C3.1-1.4,4-0.7,4,0.3c0,2.5-4.4,0.9-4.4,4.1
					c0,1.8,1.4,2.8,3,2.8c1,0,1.8-0.3,2.1-0.5C4.5,6.3,4.4,5.9,4.3,5.4H4.1C3.9,6,3.2,6.7,2.5,6.7c-0.9,0-1.7-0.5-1.7-1.6
					C0.8,2.7,5.2,4,5.2,1c0-2-1.8-3-3.4-3C1-2,0.1-1.8-0.5-1.4C-0.4-0.9-0.2-0.5-0.2,0"/>
			</g>
			<g id="g3139" transform="translate(234.401,61.76)">
				<path id="path3141" class="st0" d="M0,0c-0.2-2.8,1.9-4.7,4.4-4.7c3.1,0,4.7,2.3,4.7,4.6c0,2.8-1.8,4.6-4.3,4.6
					C2.1,4.5,0,2.7,0,0 M4.7,3.9c2.1,0,2.7-2.2,2.7-3.9c0-1.5-0.7-4.1-2.9-4.1c-2.1,0-2.9,2-2.9,3.8C1.6,1.7,2.4,3.9,4.7,3.9"/>
			</g>
			<g id="g3143" transform="translate(245.581,66.15)">
				<path id="path3145" class="st0" d="M0,0c0.2,0,0.5-0.1,0.7-0.1C1-0.1,1.2,0,1.5,0v-1.7c0.7,1.1,1.7,1.8,3,1.8c2.2,0,3-1.2,3-3.6
					v-5.4C7.2-8.9,7-8.9,6.8-8.9c-0.3,0-0.5,0-0.7-0.1v5c0,1.7-0.3,3.1-2.1,3.1c-2,0-2.4-1.4-2.4-3.7v-4.3C1.2-8.9,1-8.9,0.7-8.9
					c-0.3,0-0.5,0-0.7-0.1"/>
			</g>
			<g id="g3147" transform="translate(255.49,59.032)">
				<path id="path3149" class="st0" d="M0,0c0.4-0.7,1.3-1.4,2.2-1.4C3.1-1.4,4-0.7,4,0.3c0,2.5-4.4,0.9-4.4,4.1
					c0,1.8,1.4,2.8,3,2.8c1,0,1.8-0.3,2.1-0.5C4.5,6.3,4.4,5.9,4.3,5.4H4.1C3.9,6,3.2,6.7,2.5,6.7c-0.9,0-1.7-0.5-1.7-1.6
					C0.8,2.7,5.2,4,5.2,1c0-2-1.8-3-3.4-3C1-2,0.1-1.8-0.5-1.4C-0.4-0.9-0.2-0.5-0.2,0"/>
			</g>
		</g>
		<g id="g3151" transform="translate(200.357,76.344)">
			<path id="path3153" class="st0" d="M0,0C-5.7-1.2-7.6,4-7.5,12s2,18.2,7.8,18.2c5.8-0.1,15.3-10.6,14.2-18.4C13.5,4.8,6,1.2,0,0
				 M5.6,33.3C-1,35.7-7.6,24.7-11,15.7C-14.5,6.7-14.5,0-7.5-1c7.3-1,17.4,0.1,21.5,7.7C18.6,15.2,12.2,31,5.6,33.3"/>
		</g>
	</g>
</g>
</svg>
