<?xml version="1.0" encoding="utf-8"?>
<!-- Generator: Adobe Illustrator 24.0.0, SVG Export Plug-In . SVG Version: 6.00 Build 0)  -->
<svg version="1.1" id="layer" xmlns="http://www.w3.org/2000/svg" xmlns:xlink="http://www.w3.org/1999/xlink" x="0px" y="0px"
	 viewBox="0 0 652 652" style="enable-background:new 0 0 652 652;" xml:space="preserve">
<style type="text/css">
	.st0{fill:#FFFFFF;}
</style>
<g id="Page-1">
	<g id="rfv_lg_pr_tm_tag_rgb">
		<path id="Shape" class="st0" d="M626,425.1h-21.2l-74-74h84.5v14.8h-48.5L626,425.1z M615.3,291.9H482.2v133.2H497V306.8h118.3
			V291.9z"/>
		<path id="Shape_1_" class="st0" d="M486.5,227.2v9.6h-1.2v-9.6h-3.2v-1h7.5v1H486.5z M500.3,236.8v-9.6l0,0l-3,9.6h-0.9l-3-9.6
			l0,0v9.6h-1v-10.7h1.9l2.7,8.6l0,0l2.6-8.6h1.9v10.7H500.3z M62.1,291.9h13.1l-14.5-29.5l0.4-0.1c7.6-2.2,11.9-8.2,11.8-16.7
			c-0.1-12.2-7.8-19.3-20.9-19.3H26v65.6h11.8v-27.2h11.8L62.1,291.9z M37.9,255.4v-19.7H50c7.3,0,11.2,3.5,11.2,9.8
			c0,7.1-3.9,9.8-13.4,9.8L37.9,255.4L37.9,255.4z M123.6,262.6v-9.8h-22.7v-16.7h31.4v-9.8H89.1v65.6h44.2v-9.8h-32.4v-19.6h22.7
			V262.6z M183.5,252.8h-22.2v-16.7H191v-9.8h-41.6v65.6h11.8v-29.4h22.3V252.8z M205.1,226.2v65.6h11.8v-3.9v-61.8h-11.8V226.2z
			 M307.9,226.2v65.6h11.8v-4.9v-60.7H307.9z M381,226.2h-46.6v9.8h17.4v55.9h11.8v-55.7H381V226.2L381,226.2z M395.4,226.2v65.6
			h11.8v-4.9v-60.7H395.4z M276.8,226.2v46.6h-0.1l-26.9-46.6H237v65.6h11.1v-48.5h0.1l27.9,48.5h11.5v-65.6L276.8,226.2
			L276.8,226.2z M463.5,226.2l-15.4,53.3H448l-15.4-53.3h-11.7l20.3,65.8h13.5l20.3-65.6h-11.5L463.5,226.2L463.5,226.2z"/>
	</g>
</g>
</svg>
