<svg xmlns="http://www.w3.org/2000/svg" viewBox="0 0 899.2 581.4"><defs><style>.cls-1{fill:#ff6700;}.cls-2{fill:#1a1d50;}.cls-3{fill:#0dbb37;}.cls-4{fill:#00b6ff;}.cls-5{fill:#f8bb26;}.cls-6{fill:#e5007c;}</style></defs><title>RSA typographic</title><g id="Layer_2" data-name="Layer 2"><g id="Layer_1-2" data-name="Layer 1"><path class="cls-1" d="M816.2,220.5V360.4h53.6V335.2H841.3V300.8h21.4V275.6H841.3V245.1h27.2V220.5Zm-51.9,109c0,5.1-1.7,8.5-6.2,8.5s-6.4-3-6.4-8.5V250.6c0-5.5,1.5-8.1,6.2-8.1s6.4,2.8,6.4,8.1v22.5h24.8V249.6c0-16-5.1-30.8-29-30.8h-5c-22.2,0-29.6,14.8-29.6,31.8v78.9c0,17.5,5.5,33.1,29.6,33.1h5c22.2,0,29-15.6,29-32.3V298.7H764.3Zm-129.2-109V360.4h22.2V283.7l19.4,76.7h21.2V220.5H675.7v71.4l-17.1-71.4Zm-60.2,44.4,5.3,47.9H570Zm10.3,95.5h24.3l-19-139.9H560.8L543.1,360.4h22.2l2.3-23.5h15ZM517.5,220.5h-25V360.4h25Zm-103.1,0V360.4h51.5V335.2H439.4V220.5Zm-63.3,21.6h4.7c5.7,0,6.4,3.4,6.4,8.3v23.3c0,4.3-.7,7.9-6.4,7.9h-4.7ZM363,304.3c17.5,0,24.4-11.1,24.4-28.2v-28c0-17.1-4.5-27.6-25.7-27.6H326.1V360.4h25V304.3ZM219.3,360.4h21.8V277.6l12.6,82.8h9.4l12.4-82.8v82.8h22.6V220.5H269.3l-9.6,70.7-9.6-70.7H219.3Zm-53.7-31.2c0,4.3-1.3,8.2-6.4,8.2s-6.9-3.9-6.9-8.2V252.4c0-6.2,1.8-9.2,6.7-9.2s6.6,3,6.6,9.2Zm26.1-74.9c0-21.4-7.9-35.5-29.8-35.5h-5.7c-21.6,0-30.1,14.1-30.1,35.7v73.9c0,21.8,10.6,34,30.3,34H162c18.8,0,29.7-13.5,29.7-34ZM74.4,329.5c0,5.1-1.7,8.5-6.2,8.5s-6.4-3-6.4-8.5V250.6c0-5.5,1.5-8.1,6.2-8.1s6.4,2.8,6.4,8.1v22.5H99.2V249.6c0-16-5.1-30.8-28.9-30.8H65.2c-22.2,0-29.5,14.8-29.5,31.8v78.9c0,17.5,5.4,33.1,29.5,33.1h5.1c22.1,0,28.9-15.6,28.9-32.3V298.7H74.4Z"/><path class="cls-2" d="M844.8,332.1h5.9v-7.3l9.8-11.5h-6.6l-6,6.9-5.8-6.9h-7.3l10,11.5Zm-26.4,0h5.9V317.7h8.2v-4.4H810.3v4.4h8.1Zm-11.3-18.8h-5.9v18.8h5.9Zm-28.2,0v18.8h19v-4.7H784.8V313.3Zm-4.4,0h-5.9v18.8h5.9Zm-18,11c2,0,2.4.9,2.4,1.8h0c0,.7-.4,1.8-2.4,1.8h-9.7v-3.7Zm-.5-7c1.7,0,2.1.7,2.1,1.4h0c0,.8-.4,1.5-2.1,1.5h-9.2v-3Zm-15.1,14.8h16.3c6.1,0,7.8-2.4,7.8-5.4v-.4a4.8,4.8,0,0,0-4.1-4.7,3.7,3.7,0,0,0,3-3.7v-.3c0-2.2-1.5-4.3-6.8-4.3H740.9Zm-9.1,0h6.4l-10.1-18.8h-7.6L711,332.1h6l1.7-3.4h11.4Zm-3.9-7.7h-7.1l3.5-7Zm-39.6-11.1v18.8h20.1v-4.4H694.2v-3.1h13.7v-4.3H694.2v-2.7h14v-4.3Zm-16.2,19.1c10.8,0,12.6-5.2,12.6-7.6v-.3h-6.2c-.2.4-.8,3.4-6.9,3.4s-7-3-7-5.2v-.3c0-2.4,1.3-4.9,7-4.9s6.7,2.6,6.8,3.1h6.3v-.2c0-2.2-1.7-7.4-12.6-7.4H671c-11.1,0-12.6,5.8-12.6,9.3v.7c0,3.4,1.7,9.4,12.6,9.4Zm-34.2-7h7.7c2.9,0,3.9,1,3.9,3.3v2.2c0,.7.1,1,.3,1.2h6a4,4,0,0,1-.4-2.3v-2.8a4.3,4.3,0,0,0-3.6-4.3c1.3-.4,3.5-1.5,3.5-4.1v-.3c0-2.7-1.9-4.9-8.1-4.9H632v18.8h5.9Zm0-7.8h8.9c1.7,0,2.4.8,2.4,1.8h0c0,1-.7,1.9-2.4,1.9h-8.9Zm-15.8,4.8v.4c0,2.2-1.3,5.1-7.6,5.1s-7.7-3-7.7-5.2v-.3c0-2.1,1.2-4.9,7.7-4.9s7.6,2.8,7.6,4.9m-8.2-9.4c-11.9,0-13.2,5.9-13.2,9.3v.7c0,3.3,1.3,9.4,13.2,9.4H615c11.9,0,13.2-6.1,13.2-9.4v-.7c0-3.4-1.3-9.3-13.2-9.3Zm-35.6.3v18.8h5.9v-7.5h13.3v-4.3H584.2v-2.7h13.6v-4.3Zm-28.9,0v18.8h5.8V319.6L568,332.1h5.8V313.3H568v11.8l-12-11.8Zm-24.2,0v18.8h20.1v-4.4H531v-3.1h13.7v-4.3H531v-2.7h14v-4.3Z"/><path class="cls-2" d="M713.8,253.4h6.1c6.8,0,7.6,2.9,7.6,4.9h0c0,1.9-.9,4.9-7.6,4.9h-6.1Zm-5.9,14.4h12.5c11,0,13.3-5.1,13.3-9.2v-.7c0-4.2-2.4-8.9-13.3-8.9H707.9ZM679,249v18.8h5.8V255.3l12.8,12.5h5.8V249h-5.8v11.8l-12-11.8Zm-9.1,18.8h6.3l-10-18.8h-7.7L649,267.8h6l1.7-3.4h11.4Zm-3.9-7.7h-7.2l3.5-7Z"/><path class="cls-3" d="M379.6,419.4c-24.2,0-34.6,12.8-34.6,30.4v6.6c0,14.2,5.4,25.1,17.6,33.7l16.5,11.6c5.5,4.1,6,6.6,6,12.1v4.7c0,3.6-.9,5.7-3.6,5.7s-3.7-2.1-3.7-5.4v-15H344v17.8c0,20,11.6,30.2,33.8,30.2H386c25.2,0,35.9-14.9,35.9-35.4v-6.8c0-16.9-5.7-25.9-20.2-36.1l-16.4-11.6c-4.2-2.9-5.2-5.1-5.2-9.3v-3.8c0-2.8,1-4.3,3.4-4.3s3.5,1.5,3.5,4.3v11.4h33.4V446.9c0-15.2-8-27.5-32.7-27.5ZM279,421.3v31h15.6v97.6H329V452.3h15.5v-31Zm-45.4,79.4H241v49.2h34.6V421.3H241v43.9h-7.4V421.3H199V549.9h34.6Zm-88.1,51.1c11.3,0,18.5-6.6,23.4-13.3,1,1.7,3.1,9.2,3.4,11.4h23.4V473H155.2v25.8h7.5v19.7c0,4.3-1.9,6.3-5.1,6.3s-5-2.2-5-6.3V452.4c0-3.2.9-5.1,4-5.1s4.2,2,4.2,5.1v14.7h33.3V451.4c0-15.6-7.8-32-35.6-32h-5c-27.1,0-36.6,16.3-36.6,35.5v63.4c0,18,8.6,33.5,27.6,33.5ZM113.6,421.3H79.1V549.9h34.5Zm-79,78.5h2.7c3.1,0,3.7,1.9,3.7,4.7v37.1c0,3.3,1,6.6,2.4,8.3h34V549a20.7,20.7,0,0,1-1.7-9.1V498.6c0-9.7-6.7-15.9-12.6-18.3,5.7-2.8,12.2-8.5,12.2-22.2V445.3c0-16.9-10.1-24-21.6-24H0V549.9H34.6Zm0-53.9h2.9c2.9,0,3.5,1.4,3.5,4.6v17.1c0,3-1.1,4.5-3.7,4.5H34.6Z"/><path class="cls-4" d="M869.3,580.8h13.3V403.2h6.1V390.4H863.1v12.8h6.2Zm-56.1,0,1.8-88,2.5,88h13.6L826,482.5l4.6-92.1H817.8l-2.1,84-1.5-84H800.1l4.4,92.1-4.9,98.3ZM745,390.4V580.8h22.3v-13h-8.8V486.4h8V473.1h-8V403.2H767V390.4ZM692.7,580.8H706V403.2h6.2V390.4H686.6v12.8h6.1ZM623.5,390.4V580.8H634l-.2-134.6,6.4,134.6h13.5V390.4H643l.5,119.8-5.1-119.8ZM576.7,566.5c0,1.5-.3,2.3-1.3,2.3s-1.6-.8-1.6-2.3v-162c0-1.6.3-2.3,1.6-2.3s1.3.7,1.3,2.3Zm13.8-160.8c0-9.9-4.4-15.8-14.3-15.8h-1.6c-10,0-14.6,5.9-14.6,15.8V565.5c0,10,4.6,15.9,14.6,15.9h1.6c9.9,0,14.3-5.9,14.3-15.9ZM512.1,568.8c-1.3,0-1.6-1-1.6-2.3v-162c0-1.6.3-2.3,1.6-2.3s1.2.7,1.2,2.3v70.4h13.3V404.2c0-8.4-3.3-14.3-13.3-14.3h-2c-10.5,0-14.4,5.9-14.4,14.3V566.5c0,9.5,3.9,14.9,14.4,14.9h2c9.2,0,13.3-5.9,13.3-14.9V489.2H513.3v77.3c0,1.3-.2,2.3-1.2,2.3"/><path class="cls-2" d="M355.6,527h5.9v-7.3l9.8-11.5h-6.7l-5.9,6.9-5.8-6.9h-7.4l10.1,11.5Zm-26.4,0h5.9V512.6h8.1v-4.4H321.1v4.4h8.1Zm-11.4-18.8H312V527h5.8Zm-28.1,0V527h19v-4.7H295.6V508.2Zm-4.4,0h-5.9V527h5.9Zm-18,11c2,0,2.3,1,2.3,1.8h0c0,.7-.3,1.8-2.3,1.8h-9.7v-3.7Zm-.5-7c1.7,0,2.1.7,2.1,1.5h0c0,.8-.4,1.5-2.1,1.5h-9.2v-3ZM251.7,527H268c6.1,0,7.8-2.4,7.8-5.4v-.4c0-3.2-2.8-4.4-4.1-4.7a3.8,3.8,0,0,0,3-3.7v-.3c0-2.2-1.5-4.3-6.9-4.3H251.7Zm-4.4-18.8h-5.9V527h5.9Zm-22.4,19.1h1.8c9.4,0,11-3.1,11-6.3v-.3c0-3.8-2.9-5.5-10-5.6h-3.1c-3.9,0-4.4-.8-4.4-1.6s.4-1.6,4.9-1.6h.4c4.9,0,5.4,1.5,5.5,2.3h6.1v-.3c0-2.8-2-5.9-11-5.9h-1.7c-8.6,0-10.2,2.9-10.2,5.7v.2c0,3,2.1,5.3,9.1,5.5h3.3c4.3.1,4.9.8,4.9,1.9s-.5,2-5.5,2h-.4c-4.8,0-5.5-1.9-5.6-3h-6.1v.3c0,2.5,1.1,6.7,11,6.7m-39.1-19.1V527h5.8V514.5L204.4,527h5.8V508.2h-5.8V520l-12-11.8Zm-9.9,9.1v.4c0,2.2-1.3,5.1-7.6,5.1s-7.6-3-7.6-5.1v-.4c0-2.1,1.1-4.9,7.6-4.9s7.6,2.8,7.6,4.9m-8.1-9.4c-12,0-13.3,5.9-13.3,9.3v.7c0,3.3,1.3,9.4,13.3,9.4h1c11.9,0,13.3-6.1,13.3-9.4v-.7c0-3.4-1.4-9.3-13.3-9.3Zm-33,4.6h8.1c1.8,0,2.7.7,2.7,2h0c0,1.3-.9,2-2.7,2h-8.1Zm8.2,8.2c6.7,0,8.8-2.8,8.8-6.1v-.3c0-3.4-2.1-6.1-8.8-6.1H128.9V527h5.9v-6.3Zm-30.6,6.6h1.7c9.5,0,11.1-3.1,11.1-6.3v-.3c0-3.8-2.9-5.5-10-5.6h-3.1c-3.9,0-4.4-.8-4.4-1.6s.3-1.6,4.9-1.6h.4c4.9,0,5.3,1.5,5.4,2.3h6.1v-.3c0-2.8-2-5.9-10.9-5.9h-1.7c-8.6,0-10.3,2.9-10.3,5.7v.2c0,3,2.2,5.3,9.2,5.5h3.3c4.3.1,4.9.8,4.9,1.9s-.6,2-5.5,2h-.4c-4.8,0-5.5-1.9-5.6-3h-6.1v.3c0,2.5,1.1,6.7,11,6.7M78.1,508.2V527H98.2v-4.4H84v-3.1H97.7v-4.3H84v-2.7H98v-4.3ZM56.5,520.3h7.7c2.9,0,3.9,1,3.9,3.3v2.2c0,.7.1,1,.3,1.2h6a4,4,0,0,1-.4-2.3v-2.8a4.3,4.3,0,0,0-3.5-4.3c1.2-.4,3.5-1.4,3.5-4.1v-.3c0-2.7-1.9-4.9-8.2-4.9H50.6V527h5.9Zm0-7.8h8.9c1.8,0,2.4.8,2.4,1.8h0c0,1-.7,1.9-2.4,1.9H56.5Z"/><path class="cls-2" d="M231.9,448.3h6.2c6.7,0,7.5,3,7.5,4.9h0c0,1.9-.9,4.9-7.5,4.9h-6.2ZM226,462.7h12.5c11,0,13.3-5.1,13.3-9.1v-.8c0-4.2-2.4-8.9-13.3-8.9H226Zm-28.9-18.8v18.8h5.8V450.2l12.8,12.5h5.8V443.9h-5.8v11.8l-12-11.8ZM188,462.7h6.4l-10.1-18.8h-7.6l-9.6,18.8h6l1.7-3.4h11.4Zm-3.9-7.7h-7.2l3.5-7Z"/><path class="cls-2" d="M775.2,527.3H777c9.4,0,11-3.1,11-6.3v-.3c0-3.8-2.8-5.5-9.9-5.6h-3.2c-3.9,0-4.3-.8-4.3-1.6s.3-1.6,4.8-1.6h.4c5,0,5.4,1.5,5.5,2.3h6.1v-.3c0-2.8-2-5.9-10.9-5.9h-1.8c-8.5,0-10.2,2.9-10.2,5.7v.2c0,3,2.1,5.3,9.2,5.5h3.2c4.4.1,4.9.8,4.9,1.9s-.5,2-5.5,2H776c-4.9,0-5.5-1.9-5.6-3h-6.2v.3c0,2.5,1.2,6.7,11,6.7m-26.5,0h1.7c9.5,0,11-3.1,11-6.3v-.3c0-3.8-2.8-5.5-9.9-5.6h-3.2c-3.8,0-4.3-.8-4.3-1.6s.3-1.6,4.9-1.6h.4c4.9,0,5.3,1.5,5.4,2.3h6.1v-.3c0-2.8-2-5.9-10.9-5.9h-1.7c-8.6,0-10.3,2.9-10.3,5.7v.2c0,3,2.2,5.3,9.2,5.5h3.2c4.4.1,5,.8,5,1.9s-.6,2-5.6,2h-.3c-4.9,0-5.5-1.9-5.6-3h-6.1v.3c0,2.5,1.1,6.7,11,6.7m-34.3-19.1V527h20.1v-4.4H720.2v-3.1h13.7v-4.3H720.2v-2.7h14.1v-4.3Zm-28.9,0V527h5.8V514.5L704.1,527h5.8V508.2h-5.8V520l-12-11.8Zm-21.6,12.1h7.7c2.9,0,3.9,1,3.9,3.3v2.2c0,.7.1,1,.3,1.2h5.9a6.1,6.1,0,0,1-.3-2.3v-2.8a4.3,4.3,0,0,0-3.6-4.3c1.3-.4,3.5-1.4,3.5-4.1v-.3c0-2.7-1.9-4.9-8.2-4.9H658V527h5.9Zm0-7.8h8.9c1.7,0,2.4.8,2.4,1.8h0c0,1-.7,1.9-2.4,1.9h-8.9Zm-10.4-4.3h-5.9V527h5.9Zm-15,18.8h6.4l-10.1-18.8h-7.6L617.7,527h6l1.7-3.4h11.4Zm-3.9-7.7h-7.1l3.4-7Zm-36.9-11.1V527h5.8v-7.5h13.3v-4.3H603.5v-2.7h13.6v-4.3Z"/><path class="cls-2" d="M714.4,448.3h6.1c6.8,0,7.6,3,7.6,4.9h0c0,1.9-.9,4.9-7.6,4.9h-6.1Zm-5.9,14.4H721c11,0,13.2-5.1,13.2-9.1v-.8c0-4.2-2.3-8.9-13.2-8.9H708.5Zm-29-18.8v18.8h5.9V450.2l12.7,12.5H704V443.9h-5.9v11.8l-12-11.8Zm-9,18.8h6.3l-10.1-18.8h-7.6l-9.5,18.8h6l1.7-3.4h11.4Zm-4-7.7h-7.1l3.5-7Z"/><path class="cls-5" d="M365.4,164.3h25V106.2l14.9-89.5H382.9l-4.4,51-4.3-51h-25l16.2,89.5Zm-53.4,0h24.8V39.3h11.3V16.7H300.7V39.3H312Zm-44.8,1.4h5.7c18.1,0,26-10.5,26-26.2V110.1c0-12.9-3.6-19.6-13.7-28L272.5,71c-3.2-2.7-3.9-4.3-3.9-8.3V37.5c0-2.2.7-3.2,2.5-3.2s2.6,1,2.6,3.2V68.9h24.2V36.3c0-11.9-5.7-21-23.8-21h-5.7c-17.9,0-25.2,9.3-25.2,23V64.5c0,11.1,3.5,19.2,12.1,26.4L268.2,102c3.7,3.4,4.3,5.3,4.3,10.1v28.8c0,2.6-.6,4.1-2.8,4.1s-2.5-1.5-2.5-3.9V104.2H242.6v38.7c0,15,8.1,22.8,24.6,22.8m-70.1-149V164.3h43.1v-23H221.7V98.6h15.1V75.2H221.7V39.3h17.9V16.7Zm-59.7,0V164.3h21l-.2-88.5,11.7,88.5h23.3V16.7H172.3l.2,79.9-9.7-79.9ZM108,139.3c0,2.6-1,4-3,4s-2.8-1.4-2.8-4V41.7c0-3,.6-4.4,2.8-4.4s3,1.6,3,4.4Zm25.8-94.9c0-17.6-8.2-29.1-26.8-29.1h-4c-18.6,0-26.8,11.1-26.8,29.1v92.7c0,18.1,9.5,28.6,26.8,28.6h4.2c16.2,0,26.6-10.1,26.6-28.6ZM16.6,164.3H41.8V100h5.4v64.3h25V16.7h-25V74H41.8V16.7H16.6Z"/><path class="cls-2" d="M356.1,131.9H362v-7.3l9.8-11.5h-6.7l-5.9,6.9-5.9-6.9H346l10.1,11.5Zm-23,.3c10.8,0,12.7-5.3,12.7-7.6v-.3h-6.3c-.1.4-.7,3.3-6.8,3.3s-7-2.9-7-5.1v-.3c0-2.4,1.3-4.9,6.9-4.9s6.7,2.6,6.9,3.1h6.2v-.3c0-2.2-1.6-7.4-12.6-7.4h-1c-11.1,0-12.6,5.9-12.6,9.3v.8c0,3.3,1.7,9.4,12.6,9.4Zm-41.7-19.1v18.8h5.8V119.4L310,131.9h5.8V113.1H310v11.8l-12-11.8Zm-24.2,0v18.8h20.1v-4.4H273v-3.1h13.7v-4.3H273v-2.8h14v-4.2Zm-21.6,12.1h7.6c3,0,4,1,4,3.3v2.2a3.3,3.3,0,0,0,.2,1.2h6a6.9,6.9,0,0,1-.3-2.4v-2.7a4.4,4.4,0,0,0-3.6-4.3,4.4,4.4,0,0,0,3.5-4.2v-.3c0-2.7-1.9-4.8-8.2-4.8H239.7v18.8h5.9Zm0-7.9h8.9c1.7,0,2.4.9,2.4,1.9h0c0,1-.7,1.8-2.4,1.8h-8.9Zm-15,14.6h6.3l-10-18.8h-7.7l-9.5,18.8h6l1.7-3.5h11.4Zm-4-7.7h-7.1l3.5-7.1Zm-33.5-6.9h8.1c1.9,0,2.8.8,2.8,2h0c0,1.3-.9,2-2.8,2h-8.1Zm8.2,8.3c6.8,0,8.8-2.8,8.8-6.2v-.2c0-3.5-2-6.1-8.8-6.1H187.2v18.8h5.9v-6.3Zm-30.6,6.6h1.8c9.4,0,11-3.2,11-6.3v-.3c0-3.8-2.9-5.5-9.9-5.6h-3.2c-3.9,0-4.3-.8-4.3-1.6s.3-1.6,4.8-1.6h.4c4.9,0,5.4,1.5,5.5,2.2h6.1v-.2c0-2.9-2-6-10.9-6h-1.8c-8.5,0-10.2,3-10.2,5.8v.2c0,2.9,2.1,5.3,9.2,5.5h3.2c4.4.1,4.9.8,4.9,1.9s-.5,2-5.5,2h-.3c-4.9,0-5.5-1.9-5.6-3h-6.2v.3c0,2.5,1.2,6.7,11,6.7m-39.1-19.1v18.8h5.9V119.4l12.7,12.5h5.9V113.1h-5.9v11.8l-12-11.8Zm-9.1,18.8h6.4l-10.1-18.8h-7.6l-9.5,18.8h6l1.7-3.5h11.4Zm-3.9-7.7h-7.1l3.5-7.1Zm-37.1,1h7.7c2.9,0,3.9,1,3.9,3.3v2.2a1.9,1.9,0,0,0,.3,1.2h6a4.5,4.5,0,0,1-.4-2.4v-2.7a4.3,4.3,0,0,0-3.6-4.3,4.4,4.4,0,0,0,3.5-4.2v-.3c0-2.7-1.9-4.8-8.1-4.8H75.6v18.8h5.9Zm0-7.9h8.9c1.7,0,2.4.9,2.4,1.9h0c0,1-.7,1.8-2.4,1.8H81.5ZM58.2,131.9h6V117.5h8.1v-4.4H50.1v4.4h8.1Z"/><path class="cls-2" d="M232.3,53.2h6.1c6.8,0,7.6,2.9,7.6,4.8v.2c0,1.9-.9,4.8-7.6,4.8h-6.1Zm-5.9,14.4h12.5c11,0,13.3-5.1,13.3-9.2v-.7c0-4.3-2.4-8.9-13.3-8.9H226.4ZM197.5,48.8V67.6h5.8V55.1l12.8,12.5h5.8V48.8h-5.8V60.6L204,48.8Zm-9.1,18.8h6.3l-10-18.8H177l-9.5,18.8h6l1.7-3.5h11.4Zm-4-7.7h-7.1l3.5-7.1Z"/><path class="cls-6" d="M862,179.8h23.3V107.3L899.2,1.2H878.3l-4.1,67-4.1-67h-23L862,107.3Zm-57.6-19.2c-2,0-2.4-1.5-2.4-3.9V23.5c0-2.4.4-3.6,2.4-3.6s2.4,1.2,2.4,3.6V77.8h22.8v-55C829.6,9.1,822.8,0,806.5,0h-3.8c-17.8,0-24.5,10.3-24.5,25V155.3c0,16.3,7,25.7,24.5,25.7h3.8c16.3,0,23.1-10.8,23.1-23.8V96.5H806.8v60.2c0,2.2-.5,3.9-2.4,3.9M702.3,1.2V179.8h18.9L721,65l11,114.8h21.9V1.2H734.7l.4,103L726,1.2Zm-64.9,0V179.8H677V158.2H660.5V96.7h13.9V74.6H660.5v-52h16V1.2ZM579.8,181c7.9,0,12.7-5.8,15.8-10.6.7,2.2,2.2,7,2.4,9.4h15.8V75.4H587.2V93.6h4.6v63.6c0,2.9-1.2,4.3-3.4,4.3s-3.1-1.4-3.1-4.3V23.3c0-2.2.5-3.6,2.4-3.6s2.6,1.4,2.6,3.6V69.6h22.6V22.1c0-11.3-5.1-22.1-23.8-22.1H586c-18.5,0-24.5,10.8-24.5,23.5V158.4c0,12.2,5.8,22.6,17.8,22.6ZM517,179.8h22.6L527.6,1.2H497.8L486.5,179.8h20.2l1.4-36.3h7.5Zm-2.2-56.7h-5.7L512,47.8Z"/><path class="cls-2" d="M769,113.1v18.8h19v-4.7H774.9V113.1Zm-9.9,9.1v.4c0,2.1-1.3,5-7.6,5s-7.6-2.9-7.6-5.1v-.3c0-2.2,1.2-4.9,7.6-4.9s7.6,2.7,7.6,4.9m-8.1-9.5c-11.9,0-13.3,6-13.3,9.3v.8c0,3.3,1.4,9.4,13.3,9.4h1.1c11.8,0,13.2-6.1,13.2-9.4V122c0-3.3-1.4-9.3-13.2-9.3Zm-33.9,12.5h7.7c2.9,0,4,1,4,3.3v2.2a3.3,3.3,0,0,0,.2,1.2h6a6.9,6.9,0,0,1-.3-2.4v-2.7a4.4,4.4,0,0,0-3.6-4.3c1.2-.4,3.5-1.5,3.5-4.2v-.3c0-2.7-1.9-4.8-8.2-4.8H711.2v18.8h5.9Zm0-7.9h9c1.7,0,2.3.9,2.3,1.9h0c0,1-.7,1.8-2.3,1.8h-9Zm-23.2,14.6h5.9V117.5H708v-4.4H685.8v4.4h8.1Zm-35.8-18.8v18.8h5.8V119.4l12.8,12.5h5.8V113.1h-5.8v11.8l-12-11.8Zm-9.9,9.1v.4c0,2.1-1.3,5-7.6,5s-7.6-2.9-7.6-5.1v-.3c0-2.2,1.1-4.9,7.6-4.9s7.6,2.7,7.6,4.9m-8.1-9.5c-12,0-13.3,6-13.3,9.3v.8c0,3.3,1.3,9.4,13.3,9.4h1c11.9,0,13.3-6.1,13.3-9.4V122c0-3.3-1.4-9.3-13.3-9.3Zm-28.8,19.5c10.8,0,12.7-5.3,12.7-7.6v-.3h-6.3c-.1.4-.7,3.3-6.8,3.3s-7-2.9-7-5.1v-.3c0-2.4,1.3-4.9,6.9-4.9s6.7,2.6,6.9,3.1h6.2v-.3c0-2.2-1.6-7.4-12.6-7.4h-1c-11.1,0-12.6,5.9-12.6,9.3v.8c0,3.3,1.7,9.4,12.6,9.4Z"/><path class="cls-2" d="M714.8,53.2H721c6.7,0,7.5,2.9,7.5,4.8v.2c0,1.9-.9,4.8-7.5,4.8h-6.2Zm-5.9,14.4h12.5c11.1,0,13.3-5.1,13.3-9.2v-.7c0-4.3-2.4-8.9-13.3-8.9H708.9ZM680,48.8V67.6h5.8V55.1l12.8,12.5h5.8V48.8h-5.8V60.6l-12-11.8Zm-9.1,18.8h6.4L667.2,48.8h-7.6l-9.5,18.8H656l1.7-3.5h11.5ZM667,59.9h-7.2l3.5-7.1Z"/></g></g></svg>