<svg xmlns="http://www.w3.org/2000/svg" viewBox="0 0 666 136.5"><defs><style>.cls-1{fill:#fff;}</style></defs><title>softwire</title><g id="Layer_2" data-name="Layer 2"><g id="Layer_1-2" data-name="Layer 1"><path class="cls-1" d="M477.3,132.5h28.8V42.3H477.3ZM313,110.6c-5.4.2-10.6-2.8-10.6-9.9V65h25.8V42.5H302.1V13.9H275.8V42.7H263.3V65h12.5v40.3c0,18.7,12.6,28.6,30,28.6a49.6,49.6,0,0,0,24.1-6.2l-5.7-20.1c-4.3,1.9-8.2,3-11.2,3m-160.3.5c-12.1,0-20.3-9.3-20.3-23.4s8.2-23.4,20.3-23.4,20,9.5,20,23.4-8.2,23.4-20,23.4m0-69.8c-29.7,0-49.4,18.3-49.4,46.1s19.7,46.2,49.4,46.2,49.2-18.5,49.2-46.2-19.8-46.1-49.2-46.1M38.5,46.7c0-5.7,5.2-8.6,12.9-8.6,9.5,0,28.1,5.1,40.5,12.3l8.2-23.3C88,19.2,70.8,14,53.9,14,25.8,14,7.2,27.8,7.2,49.4c0,41.5,61.9,29.1,61.9,49.8,0,6.7-5.8,12.2-15.2,12.2-12.2,0-30.3-9-42.4-19.5L0,114.8c13.9,11.4,34,21.7,53.6,21.7,26.1,0,46.8-15.3,46.8-38.8,0-42.3-61.9-30.8-61.9-51m563.4,33c1.8-10.9,8.7-18.3,18.7-18.3S638,68.6,638,79.7Zm18.4-38.4c-28,0-47,18.4-47,46.4s18.4,45.9,47.8,45.9c16.6,0,30.2-5.9,39.4-15.9l-15.3-14.9a30.5,30.5,0,0,1-21.6,9.2c-10.7,0-18.4-6.1-21.2-16.8h63.4c2-32.9-13.7-53.9-45.5-53.9m-46-.3c-12.9.2-23.1,6-29.3,16.6V42.3H516v90.2h29V93.1c0-17.4,12.5-27.5,29.3-26ZM430.5,95.9l-16-53.4H390.8L375.2,95.9l-16-53.4H331.9l28.4,91.2H387l15.3-49.3,15.2,49.3h26.6l28.4-91.2H446.2Z"/><path class="cls-1" d="M267.5,6.2C261,2.3,252.1,0,243.4,0c-17.4,0-30,9.9-30,28.6V42.7H200.9V65h12.5v68.9h26.3V65h46V42.7H240V33.1c0-7,5.2-10,10.6-9.8,3,0,6.8,1.1,11.2,3Z"/><polygon class="cls-1" points="516 25.9 477.4 37.8 477.3 13.9 516 25.9"/></g></g></svg>