<svg xmlns="http://www.w3.org/2000/svg" viewBox="0 0 1500 844"><defs><style>.cls-1{fill:#00b6ff;}.cls-2{fill:#0dbb37;}.cls-3{fill:#c0e236;}.cls-4{fill:#67ee67;}.cls-5{fill:#2254f3;}.cls-6{fill:#e5007c;}.cls-7{fill:#1a171b;}.cls-8{fill:#fff;}</style></defs><title>Asset 2</title><g id="Layer_2" data-name="Layer 2"><g id="Layer_1-2" data-name="Layer 1"><path class="cls-1" d="M1220.85,802.09c-17.73,12-36.24,26.07-55.28,41.91h91.61a184.74,184.74,0,0,1-22.7-50.86Q1227.74,797.42,1220.85,802.09Z"/><path class="cls-1" d="M591.31,247.38V78.6C561.13,54.93,542.12,24.85,530.51,0H472.3C475,146.5,520,209.11,541.39,230.72A192.09,192.09,0,0,1,591.31,247.38Z"/><path class="cls-1" d="M517.88,227.78c-28.55-10.9-71.08-28.46-113.58-50.91a530.32,530.32,0,0,1-27,71.65l14.89,14.89a193.19,193.19,0,0,1,112.91-36.06Q511.54,227.35,517.88,227.78Z"/><path class="cls-1" d="M876.83,748l-13.58-13.57c-64.78,48.6-143.65,87.35-229,87.35-45.24,0-92.31-10.88-140.08-36.93C481.28,805,467.34,825.05,452.58,844H834.29c1.25-4.44,2.61-8.76,4.11-12.93A520,520,0,0,1,876.83,748Z"/><path class="cls-1" d="M1228.18,716.62c-16.14-.49-31-.23-44.56.52-.29,39.62-11.44,85.47-48.48,126.86h11c26.15-22.48,55.37-45.14,85.28-63.76A222.89,222.89,0,0,1,1228.18,716.62Z"/><path class="cls-1" d="M51.94,321.53c-15.28,27-33.82,53.3-51.94,76.64V559C22.9,526.66,55.59,457.77,57.37,327Z"/><path class="cls-1" d="M307.87,577.45,199.31,468.9C125.24,519.78,39.56,558.12,0,574.63v78.56a447.08,447.08,0,0,1,55.7-9.71C173.56,630.27,253.74,604.42,307.87,577.45Z"/><polygon class="cls-1" points="854.28 725.48 854.28 725.48 742.56 613.76 742.56 613.76 854.28 725.48"/><polygon class="cls-1" points="663.71 534.91 663.71 534.91 664.75 535.94 664.75 535.94 663.71 534.91"/><path class="cls-1" d="M1251,657.83s12.08-33.63,32.8-77.14h-94.25v33.22h-24.14c-.68,1.67-1.35,3.33-2,5,0,0,.05.06.09.09-1.23,3.92-11.69,35.23-47.29,71.79,0,0,30.53-18.34,52.38-59a255.48,255.48,0,0,1,14.23,64.09c17.44,1.84,33.83,4.52,48.65,7.5,0,0,0-.06.07-.1,3.91.42,35.33,4.46,76.36,31.18,0,0-22.93-25.34-65.27-38.35,36.72-22.19,144.33-72.77,245,21.55q6.23.17,12.47.5V595C1300.5,585.15,1251,657.83,1251,657.83Z"/><path class="cls-1" d="M1007.28,81.69,1155.69,230.1h33.84v33.84l59.65,59.66c18,.61,34.3.81,48,.81h6.33l-1.47-1a281.11,281.11,0,0,1-32.47-26.14c-26.83-24.93-52.26-57-75.57-95.42-28.87-47.55-54.63-105-76.55-170.81Q1112.13,15,1105.77,0h-66.21a876.08,876.08,0,0,1,70.91,116.9S1084.93,88.13,1007.28,81.69Z"/><path class="cls-1" d="M194.13,674.32Q214.77,677.59,234,680c22.76-27.54,49.27-54.36,75.76-69.64,6.13-3.53,12.86-7.19,20.08-10.86L317.21,586.8a529.28,529.28,0,0,1-70.41,29.35c-54.21,18.38-118,31.78-189.7,39.81A431.46,431.46,0,0,0,0,666.13v28.64C48.64,672,111.94,661.29,194.13,674.32Z"/><path class="cls-1" d="M1355.8,335.65s-23,1.32-58.59,1.32c-10.66,0-22.45-.11-35.08-.42l107,107a238.77,238.77,0,0,1,30.15-29.12,542.42,542.42,0,0,1,94-60.09c-31.64-35.75-78.24-76.87-146.82-121a379.83,379.83,0,0,1-37.94-27.74C1181.68,156.88,1152,67.71,1150,0h-30.59q5.3,12.95,10,27.06C1224.19,311.59,1355.8,335.65,1355.8,335.65Z"/><path class="cls-1" d="M550.87,795.88a267.81,267.81,0,0,0,83.34,13.36,284.81,284.81,0,0,0,54.1-5.31,331.66,331.66,0,0,0,52-14.76c31.66-11.77,63.88-28.82,95.76-50.67,2.18-1.5,4.37-3,6.55-4.57H543.48a153.39,153.39,0,0,1-30.24,19.85q-6,10.14-12.39,20.44c2.37,1.28,4.74,2.54,7.11,3.75A298.55,298.55,0,0,0,550.87,795.88Z"/><path class="cls-2" d="M1251,657.83s49.52-72.68,249-62.8V580.69H1283.78C1263.06,624.2,1251,657.83,1251,657.83Z"/><path class="cls-2" d="M1399.28,414.42a238.77,238.77,0,0,0-30.15,29.12L1500,574.41V362.06q-3.23-3.81-6.68-7.73A542.42,542.42,0,0,0,1399.28,414.42Z"/><path class="cls-3" d="M1234.48,793.14q-1.74-6.3-3.08-12.9c-29.91,18.62-59.13,41.28-85.28,63.76h19.45c19-15.84,37.55-29.88,55.28-41.91Q1227.75,797.41,1234.48,793.14Z"/><path class="cls-3" d="M1500,730.13v-12q-6.24-.33-12.47-.5Q1493.79,723.49,1500,730.13Z"/><path class="cls-3" d="M1500,0h-26.78c9.71,12,18.64,24.22,26.78,36.34Z"/><path class="cls-3" d="M1308.56,205.57a379.83,379.83,0,0,0,37.94,27.74c68.58,44.15,115.18,85.27,146.82,121q3.47,3.92,6.68,7.73V304.23c-37.2-30.28-94.27-64.12-181.71-95.07Q1313.33,207.41,1308.56,205.57Z"/><path class="cls-2" d="M862.73,733.93H842.64c-2.18,1.54-4.37,3.07-6.55,4.57-31.88,21.85-64.1,38.9-95.76,50.67a331.66,331.66,0,0,1-52,14.76,284.81,284.81,0,0,1-54.1,5.31,267.81,267.81,0,0,1-83.34-13.36A298.55,298.55,0,0,1,508,778c-2.37-1.21-4.74-2.47-7.11-3.75-2.21,3.54-4.45,7.1-6.72,10.65,47.77,26,94.84,36.93,140.08,36.93,85.39,0,164.26-38.75,229-87.35l-9-9h0Z"/><path class="cls-2" d="M755.91,64.11H989.7l17.58,17.58c77.65,6.44,103.19,35.21,103.19,35.21A876.08,876.08,0,0,0,1039.56,0H734.69a243.76,243.76,0,0,0,18.88,59.2Q754.71,61.65,755.91,64.11Z"/><path class="cls-2" d="M591.31,78.6V64.11H742A254.28,254.28,0,0,1,721.94,0H530.51C542.12,24.85,561.13,54.93,591.31,78.6Z"/><path class="cls-2" d="M331.38,749.7c-122-18.94-162.7,23.77-162.7,23.77S196.2,725.73,234,680q-19.29-2.38-39.91-5.64C111.94,661.29,48.64,672,0,694.77V844H271.48q7.09-8.18,13.91-16.52C301.66,807.52,317.09,781.41,331.38,749.7Z"/><path class="cls-2" d="M500.85,774.22q6.39-10.28,12.39-20.44c-31.15,15.47-71.94,22-124.65,8.07-15.81-4.18-30.6-7.46-44.41-10-13.92,31.36-30.18,60.39-49.05,83.55q-3.44,4.22-7.12,8.58H452.58c14.76-19,28.7-39,41.55-59.13C496.4,781.32,498.64,777.76,500.85,774.22Z"/><path class="cls-3" d="M246.8,616.15a529.28,529.28,0,0,0,70.41-29.35l-9.34-9.35c-54.13,27-134.31,52.82-252.17,66A447.08,447.08,0,0,0,0,653.19v12.94A431.46,431.46,0,0,1,57.1,656C128.77,647.93,192.59,634.53,246.8,616.15Z"/><path class="cls-3" d="M344.18,751.87q-6.54-1.2-12.8-2.17c-14.29,31.71-29.72,57.82-46,77.78q-6.81,8.35-13.91,16.52H288q3.67-4.37,7.12-8.58C314,812.26,330.26,783.23,344.18,751.87Z"/><path class="cls-2" d="M1487.53,717.63c-100.62-94.32-208.23-43.74-245-21.55,42.34,13,65.27,38.35,65.27,38.35-41-26.72-72.45-30.76-76.36-31.18,0,0-.06.06-.07.1-14.82-3-31.21-5.66-48.65-7.5.59,6.84.91,14,.85,21.29,13.52-.75,28.42-1,44.56-.52a222.89,222.89,0,0,0,3.22,63.62q1.33,6.6,3.08,12.9a184.74,184.74,0,0,0,22.7,50.86H1500V730.13Q1493.79,723.5,1487.53,717.63Z"/><path class="cls-2" d="M838.4,831.07c-1.5,4.17-2.86,8.49-4.11,12.93H972.8l-96-96A520,520,0,0,0,838.4,831.07Z"/><path class="cls-2" d="M1182.77,695.85a255.48,255.48,0,0,0-14.23-64.09c-21.85,40.66-52.38,59-52.38,59,35.6-36.56,46.06-67.87,47.29-71.79,0,0,0-.07-.09-.09.68-1.64,1.35-3.3,2-5h-57.5V844h27.25c37-41.39,48.19-87.24,48.48-126.86C1183.68,709.81,1183.36,702.69,1182.77,695.85Z"/><path class="cls-4" d="M346.15,142.38v75l31.17,31.17a530.32,530.32,0,0,0,27-71.65A632.21,632.21,0,0,1,346.15,142.38Z"/><path class="cls-4" d="M57.37,327C55.59,457.77,22.9,526.66,0,559v15.59c39.56-16.51,125.24-54.85,199.31-105.73Z"/><path class="cls-4" d="M1194,201.84c23.31,38.38,48.74,70.49,75.57,95.42a281.11,281.11,0,0,0,32.47,26.14l1.47,1h-6.33c-13.73,0-30-.2-48-.81l13,12.95c12.63.31,24.42.42,35.08.42,35.58,0,58.59-1.32,58.59-1.32s-131.61-24.06-226.4-308.59q-4.71-14.13-10-27.06h-13.61q6.33,14.94,11.71,31C1139.4,96.82,1165.16,154.29,1194,201.84Z"/><path class="cls-4" d="M755.91,64.11q-1.2-2.46-2.34-4.91A243.76,243.76,0,0,1,734.69,0H721.94A254.28,254.28,0,0,0,742,64.11Z"/><path class="cls-2" d="M0,269.59V398.17c18.12-23.34,36.66-49.68,51.94-76.64Z"/><path class="cls-2" d="M1308.56,205.57q4.77,1.83,9.73,3.59c87.44,31,144.51,64.79,181.71,95.07V36.34C1491.86,24.22,1482.93,12,1473.22,0H1150C1152,67.71,1181.68,156.88,1308.56,205.57Z"/><path class="cls-2" d="M404.3,176.87c42.5,22.45,85,40,113.58,50.91a195.09,195.09,0,0,1,23.51,2.94C520,209.11,475,146.5,472.3,0H346.15V142.38A632.21,632.21,0,0,0,404.3,176.87Z"/><path class="cls-3" d="M464.34,733.93,329.88,599.46c-7.22,3.67-13.95,7.33-20.08,10.86-26.49,15.28-53,42.1-75.76,69.64-37.84,45.77-65.36,93.51-65.36,93.51s40.68-42.71,162.7-23.77q6.25,1,12.8,2.17c13.81,2.52,28.6,5.8,44.41,10,52.71,13.94,93.5,7.4,124.65-8.07a153.39,153.39,0,0,0,30.24-19.85Z"/><polygon class="cls-5" points="346.15 142.38 346.15 0 0 0 0 217.35 346.15 217.35 346.15 142.38"/><path class="cls-6" d="M57.37,327,199.31,468.9,307.87,577.45l9.34,9.35,12.67,12.66L464.34,733.93H862.73l-8.45-8.45L742.56,613.76H664.75V535.94l-1-1a196.1,196.1,0,0,1-21,24.72A194.64,194.64,0,1,1,367.49,284.36a196.47,196.47,0,0,1,24.72-20.95l-14.89-14.89-31.17-31.17H0v52.24l51.94,51.94Z"/><path class="cls-5" d="M664.75,533.46c-.34.49-.69,1-1,1.45l1,1Z"/><path class="cls-5" d="M664.75,310.54V230l92.42,0L591.31,64.11V247.38a196.81,196.81,0,0,1,73.44,63.16Z"/><path class="cls-5" d="M995.6,613.91V535.36a171.94,171.94,0,0,1-22.19,25.92,181.59,181.59,0,0,1-62.7,38.9c-24.18,9-50.77,13.57-79,13.57H742.56L854.28,725.48l9,9L876.83,748l96,96h135.09V613.91Z"/><path class="cls-6" d="M831.67,230c28.27,0,54.86,4.56,79,13.57a181.2,181.2,0,0,1,62.7,38.9,171.94,171.94,0,0,1,22.19,25.92V230.1h160.09L1007.28,81.69,989.7,64.11H591.31L757.17,230Z"/><polygon class="cls-6" points="1262.13 336.55 1249.18 323.6 1189.53 263.94 1189.53 580.69 1283.78 580.69 1500 580.69 1500 574.41 1369.13 443.54 1262.13 336.55"/><path class="cls-7" d="M1189.53,230.1H995.6v78.28a171.94,171.94,0,0,0-22.19-25.92,181.2,181.2,0,0,0-62.7-38.9c-24.18-9-50.77-13.57-79-13.57h-74.5l-92.42,0v80.58a196.81,196.81,0,0,0-73.44-63.16,192.09,192.09,0,0,0-49.92-16.66,195.09,195.09,0,0,0-23.51-2.94q-6.35-.42-12.76-.43a193.19,193.19,0,0,0-112.91,36.06,196.47,196.47,0,0,0-24.72,20.95A194.64,194.64,0,1,0,642.75,559.63a196.1,196.1,0,0,0,21-24.72h0c.35-.49.7-1,1-1.45v2.48h0v77.83H831.67c28.27,0,54.86-4.57,79-13.57a181.59,181.59,0,0,0,62.7-38.9,171.94,171.94,0,0,0,22.19-25.92v78.55h193.93V230.1Zm-11,372.82H1006.59V490.23a163.56,163.56,0,0,1-40.78,63.11,170.39,170.39,0,0,1-58.94,36.54c-23,8.54-48.26,12.87-75.2,12.87l-155.93,0V490.13a183.49,183.49,0,1,1,0-136.26V241l155.93,0c26.94,0,52.25,4.33,75.2,12.87a170.39,170.39,0,0,1,58.94,36.54,163.52,163.52,0,0,1,40.78,63.12V241.09h171.95Z"/><path class="cls-8" d="M1178.54,241.09H1006.59V353.51a163.52,163.52,0,0,0-40.78-63.12,170.39,170.39,0,0,0-58.94-36.54c-23-8.54-48.26-12.87-75.2-12.87l-155.93,0V353.87a183.49,183.49,0,1,0,0,136.26V602.78l155.93,0c26.94,0,52.25-4.33,75.2-12.87a170.39,170.39,0,0,0,58.94-36.54,163.56,163.56,0,0,0,40.78-63.11V602.92h171.95ZM1037.13,378.58c19.79,0,25.6,14.59,25.6,42.17,0,28.69-5.69,46.87-26.71,46.87-13.85,0-21.27-8.54-21.4-20.53h7.92c.37,8.53,5.07,14.34,13.85,14.34,12.24,0,18-10.88,18.43-39.82l-.25-.24c-2.85,9-9.4,14.34-18.8,14.34-15.21,0-23-11-23-27.21C1012.77,392.06,1020.31,378.58,1037.13,378.58Zm-575.66,89c-16.7,0-25.73-8.78-25.73-26.22v-2.6h7.92v3.34c0,11.38,5.81,18.8,17.56,18.8,11.25,0,19-5.57,19-17.93,0-26.34-42.78-11.26-42.78-43.29,0-13.85,9-23.37,24.36-23.37,16.45,0,24,8.29,24,24.12h-7.91c0-10.89-4.95-17.44-15.83-17.44s-16.7,7.05-16.7,15.83c0,26.22,42.79,12,42.79,42.91C488.18,459,477.54,467.62,461.47,467.62Zm64.43,0c-16.33,0-25.23-7.55-25.23-26.22V377.83h7.91v63.45c0,13.11,5.82,19.66,17.32,19.66s17.31-6.55,17.31-19.66V377.83h7.92V441.4C551.13,460.07,542.22,467.62,525.9,467.62Zm41.92-1.49v-88.3h13.73l21.27,78.41h.25l21.27-78.41h13v88.3h-7.91V385.25h-.25l-22.88,80.88h-7.42L576,385.25h-.24v80.88Zm96.34-80.88h-.25v80.88H656v-88.3h13.73L691,456.24h.25l21.27-78.41h13v88.3h-7.92V385.25h-.25l-22.87,80.88H687Zm87.68,80.88h-7.92v-88.3h7.92Zm64.92-81.62H794v81.62h-7.91V384.51H763.33v-6.68h53.43Zm78.15,81.62H846.44c0-14.47,6.55-23.86,18.3-33.76l9.4-7.91c8.78-7.42,12.12-13.36,12.12-21.77,0-11.75-6.43-17.93-15.46-17.93-10,0-15.58,6.55-16.08,21.27h-7.91c.37-16.94,8.28-27.45,24.73-27.45,11.87,0,22.63,7,22.63,23.74,0,10.51-3.21,17.69-14.47,27l-9.52,7.79c-9.15,7.42-14,13.23-15.33,22.39h40.06ZM931,467.62c-19.92,0-24.62-18.8-24.62-44.52s4.7-44.52,24.62-44.52,24.61,18.79,24.61,44.52S950.94,467.62,931,467.62Zm55.52-68.51h-20v-5.45c14.84-.12,21.27-5.81,21.76-15.08H994v87.55h-7.42Z"/><path class="cls-8" d="M931,384.76c-12,0-16.7,10.26-16.7,38.34s4.7,38.33,16.7,38.33,16.69-10.26,16.69-38.33S943,384.76,931,384.76Z"/><path class="cls-8" d="M1037,429.53c12,0,16.32-11.13,16.32-22.39S1049,384.76,1037,384.76s-16.33,11.13-16.33,22.38S1024.89,429.53,1037,429.53Z"/><path class="cls-7" d="M445.39,398.86c0-8.78,5.94-15.83,16.7-15.83s15.83,6.55,15.83,17.44h7.91c0-15.83-7.54-24.12-24-24.12-15.34,0-24.36,9.52-24.36,23.37,0,32,42.78,16.95,42.78,43.29,0,12.36-7.79,17.93-19,17.93-11.75,0-17.56-7.42-17.56-18.8V438.8h-7.92v2.6c0,17.44,9,26.22,25.73,26.22,16.07,0,26.71-8.66,26.71-25.85C488.18,410.85,445.39,425.08,445.39,398.86Z"/><path class="cls-7" d="M551.13,377.83h-7.92v63.45c0,13.11-5.81,19.66-17.31,19.66s-17.32-6.55-17.32-19.66V377.83h-7.91V441.4c0,18.67,8.9,26.22,25.23,26.22s25.23-7.55,25.23-26.22Z"/><polygon class="cls-7" points="575.74 385.25 575.98 385.25 598.86 466.13 606.28 466.13 629.16 385.25 629.41 385.25 629.41 466.13 637.32 466.13 637.32 377.83 624.34 377.83 603.07 456.24 602.82 456.24 581.55 377.83 567.82 377.83 567.82 466.13 575.74 466.13 575.74 385.25"/><polygon class="cls-7" points="694.46 466.13 717.33 385.25 717.58 385.25 717.58 466.13 725.5 466.13 725.5 377.83 712.51 377.83 691.24 456.24 690.99 456.24 669.72 377.83 655.99 377.83 655.99 466.13 663.91 466.13 663.91 385.25 664.16 385.25 687.03 466.13 694.46 466.13"/><rect class="cls-7" x="743.92" y="377.83" width="7.91" height="88.3"/><polygon class="cls-7" points="763.34 384.51 786.09 384.51 786.09 466.13 794 466.13 794 384.51 816.76 384.51 816.76 377.83 763.34 377.83 763.34 384.51"/><path class="cls-7" d="M870.18,437.07l9.52-7.79c11.26-9.27,14.47-16.45,14.47-27,0-16.7-10.76-23.74-22.63-23.74-16.45,0-24.36,10.51-24.73,27.45h7.91c.5-14.72,6.06-21.27,16.08-21.27,9,0,15.46,6.18,15.46,17.93,0,8.41-3.34,14.35-12.12,21.77l-9.4,7.91c-11.75,9.9-18.3,19.29-18.3,33.76h48.47v-6.67H854.85C856.21,450.3,861,444.49,870.18,437.07Z"/><path class="cls-7" d="M955.64,423.1c0-25.73-4.7-44.52-24.61-44.52s-24.62,18.79-24.62,44.52,4.7,44.52,24.62,44.52S955.64,448.82,955.64,423.1ZM931,461.43c-12,0-16.7-10.26-16.7-38.33s4.7-38.34,16.7-38.34S947.72,395,947.72,423.1,943,461.43,931,461.43Z"/><path class="cls-7" d="M994,466.13V378.58h-5.69c-.49,9.27-6.92,15-21.76,15.08v5.45h20v67Z"/><path class="cls-7" d="M1035.77,435.71c9.4,0,16-5.32,18.8-14.34l.25.24c-.38,28.94-6.19,39.82-18.43,39.82-8.78,0-13.48-5.81-13.85-14.34h-7.92c.13,12,7.55,20.53,21.4,20.53,21,0,26.71-18.18,26.71-46.87,0-27.58-5.81-42.17-25.6-42.17-16.82,0-24.36,13.48-24.36,29.92C1012.77,424.7,1020.56,435.71,1035.77,435.71Zm1.24-50.95c12,0,16.32,11.13,16.32,22.38S1049,429.53,1037,429.53s-16.33-11.13-16.33-22.39S1024.89,384.76,1037,384.76Z"/></g></g></svg>