<?xml version="1.0" encoding="utf-8"?>
<!-- Generator: Adobe Illustrator 24.0.0, SVG Export Plug-In . SVG Version: 6.00 Build 0)  -->
<svg version="1.1"
	 id="Layer_1" inkscape:version="0.48.5 r10040" sodipodi:docname="Co-op_Logo_2.svg" xmlns:cc="http://creativecommons.org/ns#" xmlns:dc="http://purl.org/dc/elements/1.1/" xmlns:inkscape="http://www.inkscape.org/namespaces/inkscape" xmlns:rdf="http://www.w3.org/1999/02/22-rdf-syntax-ns#" xmlns:sodipodi="http://sodipodi.sourceforge.net/DTD/sodipodi-0.dtd" xmlns:svg="http://www.w3.org/2000/svg"
	 xmlns="http://www.w3.org/2000/svg" xmlns:xlink="http://www.w3.org/1999/xlink" x="0px" y="0px" viewBox="0 0 500 529"
	 style="enable-background:new 0 0 500 529;" xml:space="preserve">
<style type="text/css">
	.st0{fill:#FFFFFF;}
</style>
<sodipodi:namedview  bordercolor="#666666" borderopacity="1" fit-margin-bottom="0.5" fit-margin-left="0.5" fit-margin-right="0.5" fit-margin-top="0.5" gridtolerance="10" guidetolerance="10" id="namedview15" inkscape:current-layer="Layer_1" inkscape:cx="645.62855" inkscape:cy="431.38373" inkscape:pageopacity="0" inkscape:pageshadow="2" inkscape:window-height="1033" inkscape:window-maximized="0" inkscape:window-width="1063" inkscape:window-x="850" inkscape:window-y="-11" inkscape:zoom="0.15342331" objecttolerance="10" pagecolor="#ffffff" showgrid="false">
	
		<inkscape:grid  empspacing="5" enabled="true" id="grid3009" originx="-1603.7683px" originy="4942.4951px" snapvisiblegridlinesonly="true" type="xygrid" visible="true">
		</inkscape:grid>
</sodipodi:namedview>
<path id="path3053" inkscape:connector-curvature="0" sodipodi:nodetypes="ccsssssscsssssccssssscscsssssssscssscccccccssssscssssssccssssscccsssssssssssscccscssccsssssscsssssssssssccccsssssssssssssscssssscsscccsscssscsssscssssssssccssssssscccscccsssssssscssscsscc" class="st0" d="
	M258.2,441.8c0.1-47.7,0.2-87.5,0.3-88.4c0.1-1,0.3-3.6,0.5-6c1-11,2.9-22.3,5.7-33.2c1.4-5.5,2.3-8.2,3.8-12
	c6.9-16.9,19.1-30,35.5-38.3c5-2.5,8.3-3.8,15.5-6c15.1-4.6,28.8-7.1,45.9-8.4c5.1-0.4,21.1-0.4,26.5,0c18.5,1.3,36.8,5,52.8,10.6
	c7.3,2.6,15.3,7,21.9,12.2c2.7,2.1,9.1,8.5,11.3,11.3c4,5,8,11.7,10.6,17.6c3.1,7.3,6.4,20.2,8.4,32.8l0.6,4.1
	c2.7,17.7,2.5,34.5,0,54.4l-0.7,4.7c-1.9,12.3-5,24.5-8,31.6c-5.4,12.9-14.3,24.1-25.5,32.1c-8.5,6-16.4,9.5-30.9,13.5
	c-15.7,4.3-30.9,6.5-48.5,7.1l-4.9,0.2l-12.3-33.9c-6.8-18.6-12.3-33.9-12.3-33.9c0,0,1,0.3,2.1,0.7c9.2,3.3,25.9,3.9,38.9,1.4
	c6.4-1.2,12.1-4,16.7-8c6.7-5.9,9.9-12.2,12.3-23.7c1.6-7.6,2-12.1,1.9-20.5c-0.1-8.2-0.7-12.9-2.5-20.3
	c-2.3-9.2-5.1-14.7-10.5-19.8c-5-4.8-10.6-7.6-17.8-9c-5.9-1.1-9.5-1.5-16.7-1.5c-7.3,0-11.4,0.4-16.9,1.5
	c-10.9,2.2-19.6,8.6-24.4,17.9c-3.4,6.6-5.8,17.4-6.4,28.7c-0.1,1.2-0.1,39.2-0.1,84.6l0,82.5h-36.4h-36.4L258.2,441.8L258.2,441.8z
	 M113.5,481.6c-19.8-0.8-38-4.1-55.8-9.9c-5.3-1.7-7.6-2.7-11.8-4.8c-17.9-9.1-31.1-24.7-37.2-44c-1.1-3.5-3.4-12.7-4.4-17.8
	c-1.7-8.8-3.1-19.7-3.6-27.6c-0.2-4.5-0.2-19.6,0-24c1-18.5,5.5-40.8,10.6-52.5c7.3-17,20.8-30.7,37.8-38.4
	c3.7-1.7,6.8-2.8,12.7-4.6c40.2-12.2,83.1-11.7,123.3,1.6c12.2,4,23.7,11.4,32,20.6c6.6,7.3,11.9,16.1,15.1,25.1
	c3.6,9.9,7.6,30.1,8.5,42.4c0.1,1.3,0.2,2.6,0.3,3c0.4,2.7,0.6,17.4,0.3,24.5c-0.8,18.8-5.2,41.8-10.2,53.9c-2.5,6-6.9,13.5-11,18.5
	c-6.7,8.3-16.1,15.7-25.9,20.4c-10.4,4.9-29.9,10-46.7,12.2C136.5,481.4,123.4,482,113.5,481.6L113.5,481.6z M129.4,417.3
	c12.4-1.2,19.3-3.9,25.8-10c5.3-5,8.3-10.6,10.5-19.3c3.7-14.7,3.7-30.2,0-44.8c-2.2-8.6-4.9-13.8-9.8-18.7c-7.9-7.9-18-11-35.4-11
	c-14,0-22.3,1.9-29.5,6.7c-4.3,2.9-8.5,7.3-10.8,11.5c-2.9,5.2-5.1,13-6.4,22.8c-0.6,4.2-0.7,15.3-0.2,19.9c1,9.2,3.2,18.2,5.8,23.4
	c3.4,6.8,8.6,12,15.4,15.4c4.9,2.5,9.4,3.5,19.7,4.5C117,417.7,126.2,417.6,129.4,417.3L129.4,417.3z M113.2,232.9
	c-2.5-0.1-5.5-0.3-6.7-0.4c-2.7-0.2-7.1-0.6-8-0.8c-0.3-0.1-1.3-0.2-2.1-0.3c-0.8-0.1-1.8-0.2-2.1-0.2c-0.3,0-1.2-0.2-1.8-0.3
	c-0.7-0.1-1.4-0.2-1.6-0.2c-0.2,0-1.6-0.3-3-0.5c-11.6-1.9-28-6.2-36.2-9.5c-6.4-2.6-13.4-6.7-18.8-11c-3.4-2.7-9.1-8.4-11.6-11.7
	C15,190,10.8,181.8,8.1,172.3c-3.9-13.6-6.6-29.4-7.4-43.4c-0.2-4.4-0.3-19.6,0-23.9c0.7-11.7,2.6-24.6,5.4-36.3
	c2.2-9.2,3.7-13.6,7-20.2c8.7-17.7,23.9-30.9,42.7-37.4C70.9,6,88,2.5,105.6,1c5.2-0.4,19.8-0.6,25.7-0.3c18,1,35.7,4.3,52.7,9.8
	c9.1,2.9,17.5,7.4,24.6,13c3,2.4,9.3,8.7,11.6,11.5c5.3,6.7,9.9,15.1,12.6,23.2c2.3,6.8,5.1,19.3,6.4,28.9c1.2,8.6,1.8,15.7,2.1,25
	l0.1,4.2h-36.4h-36.4l-0.1-0.6c-0.1-0.3-0.1-1.6-0.1-2.8c0-7.5-2.2-18.8-4.9-25.9c-2.2-5.7-6.6-11.3-11.9-15.1
	c-5.2-3.7-10.2-5.5-19.3-6.8c-4-0.6-17.8-0.6-21.9-0.1c-4.1,0.5-8.9,1.5-11.1,2.2c-9.5,3.1-17.2,10.2-21,19.4
	c-1.8,4.3-3.6,11.6-4.5,18.5c-0.7,5.1-0.9,15.5-0.3,20.5c0.9,9,3.2,18.3,5.7,23.2c4.8,9.5,13.9,16.4,24.3,18.4
	c11,2.1,24.1,2.1,34.6,0c6.8-1.4,12.8-4.5,17.6-9.3c5.7-5.6,8.6-11.8,10.9-22.9c0.4-2.1,0.8-3.7,0.8-3.8
	c0.1-0.1,68.1,31.7,68.3,31.9c0.3,0.3-1.5,7.2-2.9,11.6c-5.6,17-17.2,31.6-32.6,40.8c-4.8,2.9-9.5,5-15.2,6.9
	c-11.2,3.7-24.3,6.8-35.6,8.4c-2.4,0.3-7,0.9-8.6,1c-1,0.1-2.1,0.2-2.6,0.2c-1,0.1-4.2,0.3-7,0.5C127.1,233,117.5,233.1,113.2,232.9
	L113.2,232.9z M375.5,233.1c-0.1-0.1-2.3-0.2-5.1-0.3c-2.7-0.1-5.4-0.2-5.8-0.3c-0.5-0.1-1.8-0.2-3-0.3c-1.2-0.1-2.5-0.2-2.9-0.2
	c-0.4,0-1.4-0.2-2.3-0.2c-1.4-0.1-4-0.5-6-0.8c-0.3-0.1-1.1-0.2-1.7-0.2c-9.5-1.3-24.2-4.9-34.7-8.4c-11.3-3.9-20-9.2-28.5-17.5
	c-10-9.8-16.3-20.7-20.2-35c-3.2-12-5.1-23-6.5-37.7c-0.6-6.9-0.6-25,0-30.4c0.1-0.5,0.2-2.4,0.4-4.1c1.1-12.9,4.6-30.5,7.9-40.1
	c5.1-14.7,14.6-27.5,27.1-36.5c8-5.7,15.6-9.1,28.8-12.9c30.3-8.7,63.2-10.1,94.1-4.1c12.2,2.4,25.1,6,32.4,9.2
	c18.1,7.8,32.4,22.6,39.8,41.2c2.8,6.9,5.7,19.2,7.6,31l0.6,4.1c2.4,18.2,2.6,33.7,0,54.4l-0.7,4.6c-1.5,9.3-4,20.1-6.1,26.5
	c-3.7,11.1-9.6,20.7-17.7,28.8c-7.5,7.6-15.5,12.9-25.2,16.9c-8.3,3.4-24.3,7.6-36.1,9.5c-1.4,0.2-2.8,0.5-3,0.5
	c-0.2,0-1,0.1-1.7,0.2c-0.7,0.1-1.5,0.2-1.8,0.3c-0.2,0-1.2,0.2-2.1,0.3c-0.9,0.1-1.9,0.2-2.1,0.2c-0.4,0.1-4.8,0.5-7.7,0.7
	C389.2,232.9,375.7,233.3,375.5,233.1L375.5,233.1z M388.2,168.4c4.9-0.5,9.8-1.4,12.5-2.4c8.8-3.1,16.1-9.7,20-17.9
	c2-4.2,4.1-12.8,5.2-20.5c0.5-4.1,0.6-16.2,0.1-20.4c-0.9-7.9-2.9-16.3-4.9-21c-1.8-4.1-5-8.8-8.3-11.7c-3.4-3.1-8.2-5.9-12.6-7.3
	c-2.2-0.7-7-1.7-11.1-2.2c-3.5-0.4-17.7-0.4-20.9,0c-9.6,1.3-14,2.7-19.3,6.2c-5.3,3.5-9.2,8-11.9,13.6c-2.5,5.2-4.7,14.2-5.6,23.2
	c-0.4,3.7-0.4,14,0,17.6c0.7,6.5,2.4,14.3,4.1,19.1c4.1,11.5,13.7,19.9,25.9,22.3C369.6,168.9,378.9,169.3,388.2,168.4L388.2,168.4z
	"/>
</svg>
