<svg id="Layer_1" data-name="Layer 1" xmlns="http://www.w3.org/2000/svg" xmlns:xlink="http://www.w3.org/1999/xlink" viewBox="0 0 481.9 708.7"><defs><style>.cls-1{fill:none;}.cls-2{clip-path:url(#clip-path);}.cls-3{fill:#1a1d50;}.cls-4{clip-path:url(#clip-path-2);}.cls-5{fill:#0dbb37;}</style><clipPath id="clip-path"><rect class="cls-1" width="481.9" height="708.66"/></clipPath><clipPath id="clip-path-2"><rect class="cls-1" x="-660.3" width="481.9" height="708.66"/></clipPath></defs><title>We are not robots AR2019 v4</title><g class="cls-2"><path class="cls-3" d="M296.4,279.1c-2.9,1.2-8.2,2.1-10.8.3a1.6,1.6,0,0,1-.9-1c-.9-4.5-.3-9.2-1.8-13.7a27.5,27.5,0,0,1-1.2-5.7c-.2-1.3,2.1-3.5,4.4-2.9l3.2,1.5c2.1.8,3.2,2.3,2.6,4.4-1.5,5.2.7,9.6,2.9,14l1.6,3.1M-254,989h69.3c.1-1.3.9-1.5,1.8-1.2s1,.8,1.5,1.2H88.4a11.9,11.9,0,0,1-.5-2.6,17.6,17.6,0,0,0-.7-6c-.7-1.8-.6-3.8-.8-5.8a26.2,26.2,0,0,0-.1-2.8l-5.4-18.2a14,14,0,0,1-.8-3.4c-.3-1.6-.1-3.3-.6-4.8s-1.4-6.2-2.6-9.3a86.7,86.7,0,0,1-2.1-8.8,38.3,38.3,0,0,0-1.8-7.6A37,37,0,0,1,70.7,907c0-1.2-.8-1.6-1.3-2.2s.6-1,.6-1.3c-.6-2.6-.5-5.5-2.7-7.4s-2.2-4.2-2.1-6.6a7.1,7.1,0,0,0-.9-3.8,10.2,10.2,0,0,1-2-5.4c0-1.6-1.1-3.1-.7-4.9s-.7-1.6-1.1-2.4-.7-.6-.8-1a91.3,91.3,0,0,1-1.9-10.2,99.2,99.2,0,0,0-2.6-13.4c-.7-2.8-1.6-5.5-2.3-8.3s.1-4.5,3.5-5.1,5.1-.5,7.7-1a27.5,27.5,0,0,1,10.7-.6,34,34,0,0,0,6.3.8c4.8-.1,9.6,0,14.4,0,2.6,0,5.2-.3,7.8-.4,5.9-.3,11.7.8,17.5,1.6,8,1.1,16,2.4,24.1,3.4s15.4,1.4,23.1,2l23.6,2,19.8,1.7a74.1,74.1,0,0,0,17.6-1.1c6.6-1.1,13.1-2.6,19.8-2.7s11.1-.8,16.6-1.2c7.2-.5,14.4-.9,21.5-1.7s13.9-2,20.8-3.1c3.3-.6,6.5-1.3,9.7-2.2s8.5-1.2,12-4.4a40.4,40.4,0,0,0,5.8-6.6c2.8-4.4,3-9.4,2.7-14.3a23.4,23.4,0,0,0-5.6-13.3,99.9,99.9,0,0,0-9-9.4A65.2,65.2,0,0,0,305.1,773c-3.9-1.7-8-3.2-12-4.8-6.2-2.6-12.3-5.5-19.1-6.3-1.5-.1-2.2-.9-2.2-2,4.4-2.5,8.7-4.7,12.8-7.2a37,37,0,0,0,9.4-7.4,67.8,67.8,0,0,1,7.3-6.9c4.6-3.9,8.2-8.2,9.8-14.1s4-13.2,5.6-19.9S319,693,320,687.3c.7-3.8,1.1-7.6,1.7-11.4a43.2,43.2,0,0,0,0-13.9c-.5-3.3-1.3-6.6-1.6-10-.8-8.6-5.5-15-12.1-20.1-3-2.3-6.5-3.7-9.8-5.6s-6.6-3.8-9.7-5.9-6-4.8-9.4-6.6a15.4,15.4,0,0,1-3.2-2.5,11.1,11.1,0,0,0-4.5-2.8,10.1,10.1,0,0,1-3.9-2.2c-1.5-1.4-2.9-2.7-5.2-2.7a1.8,1.8,0,0,1-1.2-.9c-.7-1.4-2.1-1.5-3.4-2s-5.2-1.7-7.8-2.7c-.3-.1-.5-.5-.7-.8a4,4,0,0,0-3.8-2.8,3,3,0,0,1-1.8-1.7c-.4-.9.2-1.7,1.1-2.2s.8-.7,1.3-1l10.2-5.8a140.3,140.3,0,0,0,12.2-7.8,65.9,65.9,0,0,0,12.5-12.8c.8-.9,1.5-2,2.4-2.9a2.9,2.9,0,0,1,1.9-.5,5,5,0,0,1,3.4,1.8,61.6,61.6,0,0,0,6.5,6c4,3.3,8.3,6.3,12.4,9.4a38.8,38.8,0,0,0,10,5.9c.9.3,1.7.9,2.6,1.1,3.7.7,4.9,3,5.6,6.5,1.5,7.2,4.1,14,5.7,21.2,1.1,5,2.7,10,3.7,15.1a27.4,27.4,0,0,0,8.1,15.1q4.7,4.5,9.6,8.7c2.6,2.2,5.8,3.4,9,4.6a42.4,42.4,0,0,0,18.3,2.9c5.5-.3,9.3-3.1,11.3-8.4a32.5,32.5,0,0,0,2.4-13.7c-.1-2.7-.2-5.4-.2-8.1s.1-7.7.2-11.5c.1-6.8.2-13.7.4-20.6a81.7,81.7,0,0,0-.2-14c-.6-5.4-1.1-10.7-1.9-16.1-.5-2.8-.6-5.7-2.1-8.3a35.1,35.1,0,0,0-8.2-9.8c-3.3-2.9-6.6-5.9-9.6-9-5.7-6-11.2-12.2-17.6-17.4-3.9-3.3-8.1-6.4-12.1-9.6-1.1-.8-2.5-1.5-2.5-3.3a29.2,29.2,0,0,1,3.6-1.7c1.7-.7,3.5-1,5.2-1.6l6.6-2.3c4.1-1.4,8.3-2.4,12.2-4.2,5.5-2.5,10.8-5.5,16.2-8.4A38.1,38.1,0,0,0,396,479.3a28.3,28.3,0,0,0,3.7-7.1c1.6-4.8.8-9.7-1.1-14.4a11.8,11.8,0,0,1-.7-2,14.1,14.1,0,0,0-7.2-9.3c-2.4-1.3-5-1.3-7.6-1.4a64.6,64.6,0,0,0-13.9,1c-8.7,1.4-17.4,1-26.1,1.5l-15.1.7c-2,0-3.1-.8-3.8-2.8a85.5,85.5,0,0,1-3.5-14.1c-.6-3.2-1.1-6.5-2-9.7s-2.2-6.8-3.4-10.1c-2.5-7.6-4-15.4-5.9-23.2a56.7,56.7,0,0,0-4.2-12.4,7.7,7.7,0,0,1-.3-6.3c.5-1.1,2.1-1.8,3.3-2.5a14.5,14.5,0,0,1,2.5-1.1l16.7-6.9,17.2-7.7c5.4-2.3,10.9-4.5,16.2-7.1s10.9-4.8,16.2-7.8a32.9,32.9,0,0,0,7.9-5.8,30.3,30.3,0,0,0,5.1-8,15.3,15.3,0,0,0,.8-6.1c0-3.3-1.3-6.3-2.6-9.3-2.8-7-6-14-8.8-21.1s-4.3-11.6-6.4-17.4-5-14.3-7.7-21.3c-3.8-9.7-8.3-19.1-14.6-27.4-2.9-3.8-6.4-6.5-10.1-9.2s-7.5-3.6-11.4-4.9-5.7-1.4-8.6-2.1-6.9-1.3-10.3-2.1-9-2.4-13.6-3.3a42.7,42.7,0,0,1-11-3.5,4.7,4.7,0,0,1-2.6-3.2c-1-5.3-2.2-10.6-2.3-16.1-.1-7.7-.3-15.3-.9-23-.3-4.2-.8-8.4-1.1-12.6s-.7-8.9-1-13.4a58.6,58.6,0,0,0-.1-5.9,5.2,5.2,0,0,1,.9-4c1.7-2.8,2.7-6,1.2-9.2s-.6-4.1-.1-6.2.4-1.4.5-2.1l3.6-18.8c.3-2.1.9-4.1,1.2-6.1s.8-6.2,1.2-9.3a21.5,21.5,0,0,1,.9-4.4c1.2-3.5,2.6-6.9,3.7-10.4s2.6-8.2,3.8-12.3,1.8-7.3,2.8-10.9a2.4,2.4,0,0,0-.9-2.6,9.6,9.6,0,0,1-2.7-2.6,19.4,19.4,0,0,0-5.1-5.2c-4.7-3.6-10-6-16.1-6.1-9.5-.3-17.5,3.5-24.2,10-3,2.9-5.2,6.3-7.7,9.6A60,60,0,0,0,233,45.7c-1.3,3.9-2.2,8-3.5,11.9s-3.6,9.8-5.4,14.6a77.8,77.8,0,0,0-4,13c-.4,1.8-.7,3.5-1,5.3-.7,4.8-1.4,9.6-2.2,14.3a76.9,76.9,0,0,1-1.6,9.6,160.2,160.2,0,0,0-3.7,20.7c-.4,4-.3,8-.6,12-.4,5.7-1,11.3-1.3,16.9a5.3,5.3,0,0,1-1.4,3.7,6.1,6.1,0,0,1-3.4-1.9c-2.7-2.4-4.2-5.6-6.2-8.5s-3.4-4-3.2-6.9c0-.3-.3-.6-.4-1-.8-2.4-2.4-4.4-3.4-6.6-2-4.6-3.2-9.6-4.8-14.3-.7-2.3-1.6-4.6-2.4-6.9a11.4,11.4,0,0,1-1-1.9c-1.7-4.1-3.4-8.2-5-12.4s-2.7-6.7-3.8-10.1c-1.9-5.6-3.6-11.3-5.4-16.9a148.7,148.7,0,0,0-6.4-16.8,3.1,3.1,0,0,0-2.7-2.2,31.3,31.3,0,0,1-5.2-1.6,25,25,0,0,0-13.5-1.4c-1.1.2-2.1.8-3.2,1.1a14.6,14.6,0,0,0-3.6.9c-2,1.1-3.9,2.5-5.8,3.8-5.4,3.7-7.8,9.3-9.2,15.3-.9,3.8-.7,7.9-1,11.8a45.4,45.4,0,0,0,1.4,14.2,146.7,146.7,0,0,1,3.8,16.2c1,5.8,2.3,11.6,3.6,17.4a129.1,129.1,0,0,0,8.8,26.3c2.3,5.1,4.2,10.4,6.2,15.6s3.1,8.3,4.9,12.3,4.6,9.7,7,14.5c3.7,7.6,7.3,15.2,11.1,22.7s6.3,12.1,9.4,18.2a12.6,12.6,0,0,1,1,3.3,2.9,2.9,0,0,1-.4,1.6,12,12,0,0,1-2.7,2.8c-2.1,1.4-4.3,2.5-6.5,3.9-5.4,3.4-9.9,7.9-14.7,12a149.6,149.6,0,0,1-12.8,9.8c-2.7,1.9-5.9,3.1-8.9,4.5-5,2.4-10.1,4.6-15.1,7.1-7.6,3.7-15.8,5.5-23.8,8s-18.3,5.2-27.3,8.5c-5.9,2.2-11.7,4.6-16.5,8.8a131.4,131.4,0,0,0-10.1,9.6,26.3,26.3,0,0,1-8.7,5.7,73.7,73.7,0,0,0-7.8,4.3c-3.7,2.4-7.3,5.1-10.9,7.8a102,102,0,0,0-9,6.9c-9.7,8.3-17.6,18.2-24.9,28.6-4.7,6.7-9.2,13.5-13.7,20.3a106.4,106.4,0,0,0-12.2,23.1,107.4,107.4,0,0,0-4.3,13.6c-1.3,4.8-2.1,9.8-3,14.8-1.4,6.8-2.6,13.8-4.3,20.6-1.1,4.9-2.9,9.6-4.4,14.4a99.5,99.5,0,0,1-3,9.7c-2.5,6.3-5.1,12.5-7.9,18.6s-6.6,13.4-10.2,19.9-6.5,11-9.7,16.4-6.8,11.8-10.5,17.5a61.1,61.1,0,0,0-7.3,16.5,31.5,31.5,0,0,1-3.2,7.6,62.2,62.2,0,0,1-3.5,5.4c-2,3.3-3.8,6.7-6,9.8s-4.6,5.8-6.8,8.6c-1,1.3-1.8,2.9-3,3.8-3.9,3.2-6.5,7.4-9.5,11.2a59.3,59.3,0,0,1-7.4,8.4,21.4,21.4,0,0,0-2.8,3.2c-2.5,2.8-4.8,5.6-7.4,8.2s-5.7,5.6-8.5,8.4-5,5.2-7.6,7.6-6.7,6.3-9.9,9.5-6,6.3-9.3,9.2-9,8-13.1,12.4-8.1,7.4-12.2,11c-5.7,5-11.4,10.3-17.6,14.9-3.3,2.5-6.4,5.4-9.6,8.1a8.7,8.7,0,0,1-1.9,1Z"/></g><g class="cls-4"><path class="cls-3" d="M-474.8,279.1c.6-1.2,1.2-2.1,1.6-3.1,2.2-4.4,4.4-8.8,2.9-14-.5-2.1.6-3.6,2.6-4.4l3.2-1.5c2.3-.6,4.6,1.6,4.4,2.9a35.9,35.9,0,0,1-1.1,5.7c-1.6,4.5-1,9.2-1.8,13.7a1.8,1.8,0,0,1-1,1c-2.6,1.8-7.9.9-10.8-.3M75.7,735.5a7.5,7.5,0,0,1-2-1c-3.2-2.7-6.3-5.6-9.6-8.1-6.2-4.6-11.8-9.9-17.6-14.9-4.1-3.6-8.4-7-12.2-11a171.1,171.1,0,0,0-13.1-12.4c-3.2-2.9-6.2-6.1-9.3-9.2s-6.6-6.3-9.9-9.5-5-5.1-7.6-7.6-5.7-5.5-8.5-8.4-4.9-5.4-7.3-8.2a29.9,29.9,0,0,0-2.9-3.2,59.3,59.3,0,0,1-7.4-8.4c-3-3.8-5.6-8-9.5-11.2-1.2-.9-1.9-2.5-2.9-3.8-2.3-2.8-4.7-5.6-6.8-8.6s-4.1-6.5-6.1-9.8-2.4-3.5-3.5-5.4a31.5,31.5,0,0,1-3.2-7.6A61.1,61.1,0,0,0-71,570.7c-3.6-5.7-7-11.7-10.5-17.5s-6.7-10.8-9.7-16.4-7-13.2-10.1-19.9-5.5-12.3-8-18.6a99.5,99.5,0,0,1-3-9.7c-1.5-4.8-3.2-9.5-4.4-14.4-1.6-6.8-2.8-13.8-4.2-20.6-1-5-1.8-10-3-14.8s-2.7-9.2-4.3-13.6a111.3,111.3,0,0,0-12.3-23.1c-4.5-6.8-9-13.6-13.7-20.3-7.2-10.4-15.2-20.3-24.8-28.6-2.9-2.5-6-4.7-9-6.9s-7.2-5.4-11-7.8a72.2,72.2,0,0,0-7.7-4.3,25.3,25.3,0,0,1-8.7-5.7c-3.2-3.4-6.7-6.5-10.2-9.6s-10.6-6.6-16.5-8.8c-9-3.3-18.2-5.7-27.3-8.5s-16.2-4.3-23.8-8c-5-2.5-10.1-4.7-15.1-7.1a61.9,61.9,0,0,1-8.9-4.5,148.2,148.2,0,0,1-12.7-9.8c-4.9-4.1-9.4-8.6-14.8-12-2.1-1.4-4.4-2.5-6.5-3.9a14.4,14.4,0,0,1-2.7-2.8,2.2,2.2,0,0,1-.3-1.6,12.4,12.4,0,0,1,.9-3.3c3.1-6.1,6.4-12.1,9.5-18.2s7.4-15.1,11-22.7c2.4-4.8,4.9-9.6,7-14.5s3.4-8.1,5-12.3,3.8-10.5,6.1-15.6a129.1,129.1,0,0,0,8.8-26.3c1.3-5.8,2.6-11.6,3.6-17.4a146.7,146.7,0,0,1,3.8-16.2,42.7,42.7,0,0,0,1.4-14.2c-.2-3.9-.1-8-1-11.8-1.4-6-3.8-11.6-9.2-15.3-1.9-1.3-3.8-2.7-5.8-3.8s-2.4-.6-3.6-.9-2.1-.9-3.2-1.1a25,25,0,0,0-13.5,1.4,33.3,33.3,0,0,1-5.1,1.6,3.4,3.4,0,0,0-2.8,2.2,148.7,148.7,0,0,0-6.4,16.8c-1.7,5.6-3.5,11.3-5.4,16.9-1.1,3.4-2.5,6.7-3.8,10.1s-3.3,8.3-4.9,12.4c-.3.7-.8,1.3-1,1.9-.9,2.3-1.7,4.6-2.5,6.9-1.6,4.7-2.8,9.7-4.8,14.3-.9,2.2-2.6,4.2-3.4,6.6-.1.4-.4.7-.4,1,.2,2.9-1.7,4.8-3.1,6.9s-3.5,6.1-6.3,8.5a5.8,5.8,0,0,1-3.4,1.9,5.3,5.3,0,0,1-1.4-3.7c-.3-5.6-.9-11.2-1.3-16.9-.2-4-.2-8-.6-12a160.2,160.2,0,0,0-3.7-20.7c-.8-3.1-1.1-6.4-1.6-9.6s-1.4-9.5-2.2-14.3c-.3-1.8-.6-3.5-1-5.3a87.9,87.9,0,0,0-3.9-13c-1.9-4.8-3.8-9.7-5.4-14.6s-2.3-8-3.6-11.9a57,57,0,0,0-7.7-15.4c-2.5-3.3-4.7-6.7-7.7-9.6-6.7-6.5-14.6-10.3-24.2-10-6.1.1-11.4,2.5-16.1,6.1a20.6,20.6,0,0,0-5,5.2,13.3,13.3,0,0,1-2.7,2.6,2.3,2.3,0,0,0-1,2.6c1,3.6,1.8,7.3,2.9,10.9s2.4,8.3,3.7,12.3,2.6,6.9,3.7,10.4a21.5,21.5,0,0,1,.9,4.4c.4,3.1.7,6.2,1.2,9.3s.9,4,1.3,6.1c1.1,6.2,2.3,12.5,3.5,18.8a16.6,16.6,0,0,0,.6,2.1c.5,2.1.8,4-.2,6.2s-.5,6.4,1.2,9.2a5.8,5.8,0,0,1,1,4c-.3,2-.1,4-.2,5.9-.3,4.5-.8,8.9-1,13.4s-.7,8.4-1.1,12.6c-.6,7.7-.8,15.3-.9,23a86.8,86.8,0,0,1-2.3,16.1,4.4,4.4,0,0,1-2.6,3.2,40.4,40.4,0,0,1-11,3.5c-4.5.9-9,2.3-13.6,3.3s-6.8,1.4-10.3,2.1-5.8,1.2-8.6,2.1-8,2.4-11.4,4.9-7.2,5.4-10,9.2c-6.4,8.3-10.9,17.7-14.7,27.4-2.7,7-5.1,14.2-7.7,21.3s-4,11.7-6.3,17.4-6.1,14.1-8.9,21.1c-1.2,3-2.6,6-2.6,9.3s0,4.3.8,6.1a30.3,30.3,0,0,0,5.1,8,31.6,31.6,0,0,0,8,5.8c5.2,3,10.8,5.1,16.2,7.8s10.7,4.8,16.1,7.1l17.3,7.7c5.5,2.4,11.1,4.6,16.7,6.9a17.5,17.5,0,0,1,2.4,1.1c1.2.7,2.9,1.4,3.3,2.5a7.7,7.7,0,0,1-.3,6.3,56.7,56.7,0,0,0-4.2,12.4c-1.8,7.8-3.4,15.6-5.9,23.2-1.1,3.3-2.5,6.7-3.4,10.1s-1.4,6.5-1.9,9.7a97.1,97.1,0,0,1-3.6,14.1c-.7,2-1.8,2.8-3.8,2.8l-15.1-.7c-8.7-.5-17.4-.1-26-1.5a66,66,0,0,0-14-1c-2.6.1-5.2.1-7.6,1.4a14.4,14.4,0,0,0-7.2,9.3l-.6,2c-2,4.7-2.8,9.6-1.2,14.4a28.3,28.3,0,0,0,3.7,7.1A39.1,39.1,0,0,0-562.2,490c5.4,2.9,10.7,5.9,16.3,8.4,3.8,1.8,8.1,2.8,12.1,4.2l6.6,2.3c1.7.6,3.5.9,5.2,1.6a29.2,29.2,0,0,1,3.6,1.7c0,1.8-1.4,2.5-2.5,3.3-4,3.2-8.1,6.3-12.1,9.6-6.3,5.2-11.9,11.4-17.6,17.4q-4.5,4.7-9.6,9a35.1,35.1,0,0,0-8.2,9.8c-1.5,2.6-1.6,5.5-2,8.3-.8,5.4-1.4,10.7-2,16.1a81.7,81.7,0,0,0-.2,14c.2,6.9.3,13.8.5,20.6,0,3.8.2,7.7.2,11.5s-.2,5.4-.3,8.1a34.2,34.2,0,0,0,2.4,13.7c2,5.3,5.8,8.1,11.3,8.4a42.4,42.4,0,0,0,18.3-2.9c3.2-1.2,6.4-2.4,9.1-4.6s6.4-5.7,9.5-8.7,6.9-9.2,8.1-15.1,2.6-10.1,3.7-15.1c1.6-7.2,4.2-14,5.7-21.2.7-3.5,1.9-5.8,5.6-6.5.9-.2,1.7-.8,2.7-1.1a39.9,39.9,0,0,0,9.9-5.9c4.1-3.1,8.4-6.1,12.5-9.4a60.6,60.6,0,0,0,6.4-6,5,5,0,0,1,3.5-1.8,2.7,2.7,0,0,1,1.8.5c.9.9,1.6,2,2.4,2.9a69,69,0,0,0,12.5,12.8c3.9,2.9,8.1,5.3,12.2,7.8l10.2,5.8c.5.3.8.8,1.3,1s1.5,1.3,1.2,2.2a3.2,3.2,0,0,1-1.9,1.7,4,4,0,0,0-3.8,2.8c-.2.3-.4.7-.7.8-2.6,1-5.2,1.8-7.8,2.7s-2.7.6-3.4,2a1.8,1.8,0,0,1-1.2.9c-2.3,0-3.7,1.3-5.2,2.7a10.1,10.1,0,0,1-3.9,2.2,11.1,11.1,0,0,0-4.5,2.8,15.4,15.4,0,0,1-3.2,2.5c-3.4,1.8-6.3,4.4-9.4,6.6s-6.4,3.9-9.7,5.9-6.8,3.3-9.8,5.6c-6.6,5.1-11.3,11.5-12.1,20.1-.3,3.4-1,6.7-1.6,10a43.2,43.2,0,0,0,0,13.9c.6,3.8,1,7.6,1.7,11.4,1,5.7,1.9,11.5,3.3,17.1s3.8,13.3,5.6,19.9,5.3,10.2,9.8,14.1a59.6,59.6,0,0,1,7.3,6.9,37,37,0,0,0,9.4,7.4c4.1,2.5,8.4,4.7,12.9,7.2a2.2,2.2,0,0,1-2.3,2c-6.8.8-12.9,3.7-19.1,6.3-4,1.6-8,3.1-12,4.8a63.3,63.3,0,0,0-18.1,11.5,89.6,89.6,0,0,0-9.1,9.4,23.4,23.4,0,0,0-5.6,13.3c-.3,4.9-.1,9.9,2.7,14.3a36.7,36.7,0,0,0,5.9,6.6c3.4,3.2,7.8,3.4,11.9,4.4s6.4,1.6,9.7,2.2c6.9,1.1,13.8,2.3,20.8,3.1s14.4,1.2,21.5,1.7,11.1,1.1,16.6,1.2,13.2,1.6,19.8,2.7a74.1,74.1,0,0,0,17.6,1.1l19.8-1.7,23.7-2c7.7-.6,15.4-1.2,23-2s16.1-2.3,24.1-3.4c5.8-.8,11.6-1.9,17.5-1.6,2.6.1,5.2.4,7.8.4,4.8,0,9.6-.1,14.4,0a34,34,0,0,0,6.3-.8,28.1,28.1,0,0,1,10.8.6c2.5.5,5.1.6,7.6,1s4.2,2.6,3.5,5.1-1.6,5.5-2.3,8.3a85.6,85.6,0,0,0-2.5,13.4c-.4,3.4-1.3,6.8-2,10.2-.1.4-.6.7-.8,1s-1.3,1.7-1.1,2.4-.7,3.3-.7,4.9a10.9,10.9,0,0,1-1.9,5.4,7.2,7.2,0,0,0-1,3.8c.1,2.4.1,4.7-2.1,6.6s-2.1,4.8-2.6,7.4c-.1.3.3.8.6,1.3s-1.3,1-1.4,2.2a34.8,34.8,0,0,1-2.3,12.7,60.2,60.2,0,0,0-1.8,7.6c-.7,2.9-1,6-2.1,8.8s-1.5,6.3-2.6,9.3-.3,3.2-.6,4.8a14,14,0,0,1-.8,3.4l-5.4,18.2a13.1,13.1,0,0,0,0,2.8,27,27,0,0,1-.8,5.8,17.7,17.7,0,0,0-.8,6,23.4,23.4,0,0,1-.4,2.6H3.1c.4-.4.8-1,1.4-1.2s1.8-.1,1.8,1.2H75.7Z"/></g><path class="cls-5" d="M278.7,299.9v22.5h13.6v86.4h24V322.4h13.6V299.9Zm-29.6,82.5c0,3.3-1.1,5.5-4.2,5.5s-4.6-2.2-4.6-5.5V326.7c0-4.1,1.2-6.2,4.4-6.2s4.4,2.1,4.4,6.2Zm25.1-53.3c0-18.5-7.8-30.7-27.1-30.7h-4.7c-19.2,0-27.1,12-27.1,30.7v51.7c0,18.9,9.7,29.6,27.2,29.6h4.7c16.4,0,27-10.8,27-29.6ZM153.3,299.9V408.8h20.9V352l14.4,56.8h21.2V299.9H189.1v52.7l-12.4-52.7Z"/><path class="cls-5" d="M392.5,510.4c-16.8,0-25.5,9.2-25.5,23.6v5.1c0,11.1,3.4,20.1,12.5,28.1l12.6,11.3c5.2,4.8,5.7,7.4,5.7,13.7v3c0,4.2-1,6.4-4,6.4s-4.1-2-4.1-5.7V580.8H366v17.4c0,15.9,8.6,24.1,25.3,24.1h5.3c18.7,0,26.9-11.6,26.9-28.4v-5.5c0-11.7-3.3-19.3-14.3-29.2L396.8,548c-4.3-3.9-5.3-6.7-5.3-11.1v-2.8c0-3.1.9-4.8,3.6-4.8s3.7,1.7,3.7,4.7v11.7h23.3v-13c0-13.7-6.3-22.3-24.2-22.3Zm-81.4,1.5v22.5h13.6v86.4h24V534.4h13.7V511.9Zm-29.6,82.5c0,3.3-1.1,5.5-4.2,5.5s-4.5-2.2-4.5-5.5V538.7c0-4.1,1.1-6.2,4.3-6.2s4.4,2.1,4.4,6.2Zm25.1-53.3c0-18.5-7.8-30.7-27.1-30.7h-4.7c-19.2,0-27.1,12-27.1,30.7v51.7c0,18.9,9.7,29.6,27.3,29.6h4.6c16.4,0,27-10.8,27-29.6Zm-93.9-10.6c3.4,0,4.2,1.7,4.2,5.1v12.9c0,4.1-1.6,5.4-4.4,5.4h-3.3V530.5Zm.4,42.3c3.5,0,4.6,1.7,4.6,5.5v17.3c0,4.7-1.2,5.9-4.1,5.9h-4.4V572.8Zm-28.1,48h38.1c13,0,19.7-8.2,19.7-25.2V579.5c0-12.9-7.1-17.1-12.1-18.6,3.5-1.2,10.1-6.1,10.1-16.5v-12c0-14.8-6.7-20.5-19.2-20.5H185Zm-30.4-26.4c0,3.3-1.2,5.5-4.2,5.5s-4.6-2.2-4.6-5.5V538.7c0-4.1,1.2-6.2,4.4-6.2s4.4,2.1,4.4,6.2Zm25-53.3c0-18.5-7.7-30.7-27-30.7h-4.7c-19.2,0-27.1,12-27.1,30.7v51.7c0,18.9,9.6,29.6,27.2,29.6h4.7c16.4,0,26.9-10.8,26.9-29.6Zm-95.8,35h3.4c3.2,0,4.1,1.6,4.1,5.3V613c0,4,.9,6.5,1.9,7.8h23.9v-.7c-.8-1.5-1.5-3.8-1.5-7.9V576.1a14.9,14.9,0,0,0-9.5-14.2c4.2-1.9,9.5-6.4,9.5-16.5V531c0-12.8-7.3-19.1-18-19.1H59.7V620.8H83.8Zm0-45.5h3.5c3.3,0,4,1.3,4,5.1v14.7c0,3.8-1.3,5.2-4.4,5.2H83.8Z"/><path class="cls-5" d="M362.1,87.9V196.8h46.2v-23H386V152.1h17.1V129H386V110.4h21.4V87.9Zm-37.9,64.2h3.4c3.2,0,4.1,1.6,4.1,5.3V189c0,4,.9,6.5,1.9,7.8h23.9v-.7c-.8-1.5-1.5-3.8-1.5-7.9V152.1a14.9,14.9,0,0,0-9.5-14.2c4.2-1.9,9.5-6.4,9.5-16.5V107c0-12.8-7.3-19.1-18-19.1H300.1V196.8h24.1Zm0-45.5h3.6c3.2,0,3.9,1.3,3.9,5.1v14.7c0,3.8-1.3,5.2-4.4,5.2h-3.1Zm-58.9,19.6,3.4,33.1H262Zm7.3,70.6h23.5L280.8,87.9H251.1L237.2,196.8h21l1.6-16h11.1ZM168.9,87.9V196.8H215v-23H192.7V152.1h17.1V129H192.7V110.4h21.4V87.9Zm-61.2,0-5.8,67.5-5-67.5H72.2L85.9,196.8h28l4.7-57.7,4.7,57.7h27.3L164.5,87.9H141.4l-5.1,66.9-5.9-66.9Z"/></svg>